<svg width="40" height="40" viewBox="0 0 40 40" fill="none" xmlns="http://www.w3.org/2000/svg">
<rect width="40" height="40" rx="12" fill="#F1F2F6"/>
<path d="M25.191 13.4766H22.5415C22.1258 13.4766 21.7888 13.8136 21.7888 14.2293V25.2486C21.7888 25.6643 22.1258 26.0013 22.5415 26.0013H25.191C25.6067 26.0013 25.9436 25.6643 25.9436 25.2486V14.2293C25.9436 13.8136 25.6067 13.4766 25.191 13.4766Z" fill="#FCDE5A"/>
<path d="M6 28.0234H33.0968" stroke="#080E14" stroke-width="0.903226" stroke-linecap="round" stroke-linejoin="round"/>
<path d="M18.2521 16.4219H15.2263V28.0283H18.2521V16.4219Z" stroke="#080E14" stroke-width="0.903226" stroke-linecap="round" stroke-linejoin="round"/>
<path d="M27.9738 27.7097C27.854 27.7097 27.7391 27.6621 27.6544 27.5774C27.5698 27.4927 27.5222 27.3778 27.5222 27.2581V25C27.5222 24.8802 27.5698 24.7654 27.6544 24.6807C27.7391 24.596 27.854 24.5484 27.9738 24.5484C28.0331 24.5484 28.0918 24.5601 28.1466 24.5828C28.2014 24.6055 28.2512 24.6387 28.2931 24.6807C28.3351 24.7226 28.3683 24.7724 28.391 24.8272C28.4137 24.882 28.4254 24.9407 28.4254 25V27.2581C28.4254 27.3174 28.4137 27.3761 28.391 27.4309C28.3683 27.4857 28.3351 27.5355 28.2931 27.5774C28.2512 27.6193 28.2014 27.6526 28.1466 27.6753C28.0918 27.698 28.0331 27.7097 27.9738 27.7097ZM27.9738 23.1935C27.854 23.1935 27.7391 23.146 27.6544 23.0613C27.5698 22.9766 27.5222 22.8617 27.5222 22.7419V20.4839C27.5222 20.3641 27.5698 20.2492 27.6544 20.1645C27.7391 20.0798 27.854 20.0323 27.9738 20.0323C28.0331 20.0323 28.0918 20.0439 28.1466 20.0666C28.2014 20.0893 28.2512 20.1226 28.2931 20.1645C28.3351 20.2065 28.3683 20.2563 28.391 20.311C28.4137 20.3658 28.4254 20.4246 28.4254 20.4839V22.7419C28.4254 22.8012 28.4137 22.86 28.391 22.9148C28.3683 22.9696 28.3351 23.0193 28.2931 23.0613C28.2512 23.1032 28.2014 23.1365 28.1466 23.1592C28.0918 23.1819 28.0331 23.1935 27.9738 23.1935ZM27.9738 18.6774C27.854 18.6774 27.7391 18.6298 27.6544 18.5451C27.5698 18.4605 27.5222 18.3456 27.5222 18.2258V15.9677C27.5222 15.848 27.5698 15.7331 27.6544 15.6484C27.7391 15.5637 27.854 15.5161 27.9738 15.5161C28.0331 15.5161 28.0918 15.5278 28.1466 15.5505C28.2014 15.5732 28.2512 15.6065 28.2931 15.6484C28.3351 15.6903 28.3683 15.7401 28.391 15.7949C28.4137 15.8497 28.4254 15.9084 28.4254 15.9677V18.2258C28.4254 18.2851 28.4137 18.3438 28.391 18.3986C28.3683 18.4534 28.3351 18.5032 28.2931 18.5451C28.2512 18.5871 28.2014 18.6203 28.1466 18.643C28.0918 18.6657 28.0331 18.6774 27.9738 18.6774ZM27.9738 14.1613C27.854 14.1613 27.7391 14.1137 27.6544 14.029C27.5698 13.9443 27.5222 13.8295 27.5222 13.7097V11.4516C27.5222 11.3318 27.5698 11.217 27.6544 11.1323C27.7391 11.0476 27.854 11 27.9738 11C28.0331 11 28.0918 11.0117 28.1466 11.0344C28.2014 11.0571 28.2512 11.0903 28.2931 11.1323C28.3351 11.1742 28.3683 11.224 28.391 11.2788C28.4137 11.3336 28.4254 11.3923 28.4254 11.4516V13.7097C28.4254 13.769 28.4137 13.8277 28.391 13.8825C28.3683 13.9373 28.3351 13.9871 28.2931 14.029C28.2512 14.071 28.2014 14.1042 28.1466 14.1269C28.0918 14.1496 28.0331 14.1613 27.9738 14.1613Z" fill="#080E14"/>
<path d="M9.61055 28.0268V21.3203H12.6288V26.5139" stroke="#080E14" stroke-width="0.903226" stroke-linecap="round" stroke-linejoin="round"/>
<path d="M20.8421 26.5124V13.6113H23.8679V26.5124" stroke="#080E14" stroke-width="0.903226" stroke-linecap="round" stroke-linejoin="round"/>
</svg>
