<svg width="40" height="40" viewBox="0 0 40 40" fill="none" xmlns="http://www.w3.org/2000/svg">
<g clip-path="url(#clip0_1_2966)">
<path d="M31.8006 14.021H29.1511C28.7354 14.021 28.3984 14.358 28.3984 14.7737V25.793C28.3984 26.2087 28.7354 26.5457 29.1511 26.5457H31.8006C32.2163 26.5457 32.5533 26.2087 32.5533 25.793V14.7737C32.5533 14.358 32.2163 14.021 31.8006 14.021Z" fill="#FCDE5A"/>
<path d="M6.99609 28.5745H34.0929" stroke="#080E14" stroke-width="0.903226" stroke-linecap="round" stroke-linejoin="round"/>
<path d="M10.6094 28.5736V21.8672H13.6277V27.0607" stroke="#080E14" stroke-width="0.903226" stroke-linecap="round" stroke-linejoin="round"/>
<path d="M16.2227 28.5725V16.9661H19.2485V28.5725" stroke="#080E14" stroke-width="0.903226" stroke-linecap="round" stroke-linejoin="round"/>
<path d="M27.4609 28.5718V11.9976H30.4792V28.5718" stroke="#080E14" stroke-width="0.903226" stroke-linecap="round" stroke-linejoin="round"/>
<path d="M21.8438 27.0568V14.1558H24.8696V27.0568" stroke="#080E14" stroke-width="0.903226" stroke-linecap="round" stroke-linejoin="round"/>
<path d="M10.6094 28.5736V21.8672H13.6277V27.0607" stroke="#080E14" stroke-width="0.903226" stroke-linecap="round" stroke-linejoin="round"/>
<path d="M21.8438 27.0568V14.1558H24.8696V27.0568" stroke="#080E14" stroke-width="0.903226" stroke-linecap="round" stroke-linejoin="round"/>
</g>
<defs>
<clipPath id="clip0_1_2966">
<rect width="28" height="17.4774" fill="white" transform="translate(7 11.7422)"/>
</clipPath>
</defs>
</svg>
