<svg width="54" height="54" viewBox="0 0 54 54" fill="none" xmlns="http://www.w3.org/2000/svg">
<g filter="url(#filter0_d_149_59819)">
<circle cx="27" cy="23" r="20" fill="#FCDE5A"/>
</g>
<mask id="mask0_149_59819" style="mask-type:alpha" maskUnits="userSpaceOnUse" x="18" y="14" width="18" height="18">
<rect x="18.5545" y="14.5547" width="17.1429" height="17.1429" fill="#D9D9D9"/>
</mask>
<g mask="url(#mask0_149_59819)">
<path fill-rule="evenodd" clip-rule="evenodd" d="M34.2991 28.65C33.8601 29.9841 32.1402 30.6493 30.9114 30.5384C29.2331 30.3867 27.407 29.4966 26.0208 28.5163C23.9832 27.0751 22.0746 24.8459 20.9624 22.4803C20.1764 20.8088 20 18.7536 21.1691 17.23C21.6014 16.6668 22.0689 16.366 22.7715 16.3309C23.7462 16.2835 23.8827 16.8411 24.2174 17.7096C24.4668 18.3591 24.7996 19.0216 24.9854 19.6947C25.3334 20.951 24.1169 21.0035 23.9633 22.0303C23.8675 22.6779 24.6526 23.5463 25.0072 24.008C25.7022 24.9125 26.5375 25.6927 27.48 26.2862C28.0195 26.6266 28.8909 27.24 29.5091 26.9015C30.461 26.38 30.3709 24.7749 31.7021 25.3182C32.3914 25.5988 33.0589 26.0038 33.717 26.3584C34.7343 26.9055 34.6869 27.4725 34.2991 28.65C34.5893 27.7702 34.009 29.5299 34.2991 28.65Z" fill="#017BFF"/>
</g>
<defs>
<filter id="filter0_d_149_59819" x="-4.76837e-07" y="0" width="54" height="54" filterUnits="userSpaceOnUse" color-interpolation-filters="sRGB">
<feFlood flood-opacity="0" result="BackgroundImageFix"/>
<feColorMatrix in="SourceAlpha" type="matrix" values="0 0 0 0 0 0 0 0 0 0 0 0 0 0 0 0 0 0 127 0" result="hardAlpha"/>
<feOffset dy="4"/>
<feGaussianBlur stdDeviation="3.5"/>
<feComposite in2="hardAlpha" operator="out"/>
<feColorMatrix type="matrix" values="0 0 0 0 0 0 0 0 0 0.482353 0 0 0 0 1 0 0 0 0.12 0"/>
<feBlend mode="normal" in2="BackgroundImageFix" result="effect1_dropShadow_149_59819"/>
<feBlend mode="normal" in="SourceGraphic" in2="effect1_dropShadow_149_59819" result="shape"/>
</filter>
</defs>
</svg>
