<svg width="100" height="100" viewBox="0 0 100 100" fill="none" xmlns="http://www.w3.org/2000/svg">
<path d="M66.7025 70.2L58.4005 83.4502C58.2333 83.607 58.0314 83.722 57.8112 83.7859C57.591 83.8498 57.3589 83.8607 57.1337 83.8177C56.9085 83.7747 56.6966 83.679 56.5155 83.5385C56.3344 83.3981 56.1891 83.2167 56.0915 83.0094L45.2471 67.4515C47.1731 67.1903 49.1147 67.0603 51.0585 67.0625C56.4292 67.0666 61.746 68.1329 66.7025 70.2Z" fill="#FCDE5A"/>
<path d="M8.69331 19.228L33.6252 30.9483C33.78 31.0185 33.9481 31.0548 34.1181 31.0548C34.2881 31.0548 34.4562 31.0185 34.611 30.9483L59.6986 18.9688C59.8129 18.9099 59.9088 18.8206 59.9758 18.7109C60.0427 18.6011 60.0782 18.475 60.0782 18.3464C60.0782 18.2179 60.0427 18.0918 59.9758 17.982C59.9088 17.8722 59.8129 17.783 59.6986 17.7241L34.7927 4.08504C34.6247 3.99648 34.4377 3.9502 34.2478 3.9502C34.058 3.9502 33.871 3.99648 33.703 4.08504L8.64142 18.0353C8.54204 18.1022 8.46152 18.1936 8.40755 18.3005C8.35358 18.4075 8.32797 18.5265 8.33318 18.6462C8.33839 18.7659 8.37423 18.8822 8.43728 18.9841C8.50034 19.086 8.58849 19.17 8.69331 19.228Z" fill="#FCDE5A"/>
<path d="M67.9127 25.2162L80.9624 18.9671L51.1531 2.63135L21.1362 19.3301L34.1859 25.4496" stroke="white" stroke-width="3.29664" stroke-linecap="round" stroke-linejoin="round"/>
<path d="M59.6724 19.9049C62.4753 20.3665 65.2348 21.0603 67.9225 21.9793V33.3106C64.4952 31.8623 60.8931 30.8686 57.2078 30.3546C57.2078 30.3546 53.2903 29.8879 51.111 29.8879C48.9308 29.8796 46.7533 30.0444 44.5992 30.3805C41.0305 30.9172 37.5438 31.9016 34.2217 33.3106V21.9793C36.9921 21.0286 39.8391 20.3172 42.7312 19.853" stroke="white" stroke-width="3.29664" stroke-linecap="round" stroke-linejoin="round"/>
<path d="M67.576 33.1733C69.5545 36.2716 70.6075 39.8697 70.6114 43.5453C70.6315 46.5853 69.9419 49.5882 68.5975 52.3153C67.2531 55.0424 65.2909 57.4186 62.8668 59.255C60.4427 61.0915 57.6235 62.3376 54.6331 62.8944C51.6428 63.4513 48.5638 63.3034 45.6406 62.4627C42.7175 61.6219 40.0308 60.1114 37.794 58.0512C35.5572 55.991 33.8319 53.4378 32.7552 50.5944C31.6785 47.7511 31.2801 44.696 31.5916 41.6718C31.9031 38.6477 32.916 35.7378 34.5497 33.1733" stroke="white" stroke-width="3.29664" stroke-linecap="round" stroke-linejoin="round"/>
<path d="M85.0286 94.4178C85.0259 95.4067 84.9565 96.3942 84.8211 97.3738H17.3675C17.1973 96.3966 17.0933 95.409 17.0562 94.4178C17.0562 81.0121 29.2237 69.8623 45.231 67.6582C47.1571 67.397 49.0987 67.2671 51.0424 67.2693C56.3799 67.2507 61.669 68.2816 66.6086 70.3031C77.5828 74.7371 85.0286 83.8384 85.0286 94.4178Z" stroke="white" stroke-width="3.29664" stroke-linecap="round" stroke-linejoin="round"/>
<path d="M58.8053 73.6811L53.0198 83.7159C52.8223 84.0608 52.5371 84.3473 52.1931 84.5466C51.8492 84.7459 51.4587 84.8509 51.0611 84.8509C50.6635 84.8509 50.273 84.7459 49.929 84.5466C49.5851 84.3473 49.2999 84.0608 49.1023 83.7159L40.3853 68.4951" stroke="white" stroke-width="3.29664" stroke-linecap="round" stroke-linejoin="round"/>
<path d="M93.3048 47.7471L86.1184 53.5553L81.8636 47.41C81.2809 46.5674 81.0374 45.5362 81.1817 44.5222C81.3259 43.5081 81.8474 42.5856 82.642 41.9388C83.4367 41.2861 84.4504 40.9603 85.4768 41.0278C86.5033 41.0952 87.4655 41.5507 88.168 42.3018L93.3048 47.7471Z" stroke="white" stroke-width="3.29664" stroke-linecap="round" stroke-linejoin="round"/>
<path d="M74.3481 29.2559C75.737 34.2323 78.6272 38.6599 82.6248 41.9355" stroke="white" stroke-width="3.29664" stroke-linecap="round" stroke-linejoin="round"/>
</svg>

