<svg width="36" height="36" viewBox="0 0 36 36" fill="none" xmlns="http://www.w3.org/2000/svg">
<rect width="36" height="36" rx="10.8" fill="#F1F2F6"/>
<path d="M18.1289 26.0435C19.2687 25.2167 20.6297 24.7495 22.0369 24.7018C23.4442 24.6541 24.8336 25.0282 26.0268 25.7759C26.0663 25.7995 26.1114 25.8122 26.1574 25.8128C26.2034 25.8133 26.2488 25.8017 26.2889 25.7791C26.329 25.7564 26.3624 25.7236 26.3857 25.6839C26.409 25.6442 26.4214 25.599 26.4217 25.553V15.6735C26.4221 15.5193 26.3831 15.3676 26.3085 15.2327C26.2338 15.0978 26.1258 14.9842 25.9949 14.9028C24.866 14.1689 23.5454 13.7852 22.1991 13.8C20.8527 13.8147 19.5408 14.2272 18.4283 14.9856C18.3377 15.0437 18.2633 15.1239 18.212 15.2185C18.1608 15.3132 18.1344 15.4193 18.1353 15.527L18.1289 26.0435Z" fill="#FCDE5A"/>
<path d="M10.875 19.5647V14.7046H13.9195V19.5647" stroke="#080E14" stroke-width="0.76437" stroke-linecap="round" stroke-linejoin="round"/>
<path d="M13.9195 17.4899H10.875" stroke="#080E14" stroke-width="0.76437" stroke-linecap="round" stroke-linejoin="round"/>
<path d="M22.3379 14.6473H25.3824L22.3634 19.6284H25.3824" stroke="#080E14" stroke-width="0.76437" stroke-linecap="round" stroke-linejoin="round"/>
<path d="M18.1306 12.1766V10.5905C16.5213 9.38406 14.5748 8.71141 12.5639 8.66688C10.6861 8.64778 8.84386 9.17924 7.26472 10.1956C7.08387 10.3086 6.93428 10.4653 6.82968 10.6511C6.72507 10.837 6.6688 11.0461 6.66602 11.2594V25.6041C8.33816 24.4063 10.3415 23.7585 12.3983 23.7505C14.4555 23.7563 16.4595 24.4044 18.1306 25.6041L18.2262 18.7502" stroke="#080E14" stroke-width="0.76437" stroke-linecap="round" stroke-linejoin="round"/>
<path d="M18.1289 25.6039C19.7973 24.3987 21.8031 23.7499 23.8612 23.7499C25.9194 23.7499 27.9251 24.3987 29.5935 25.6039V11.2592C29.5935 11.0483 29.5411 10.8407 29.4411 10.6551C29.341 10.4694 29.1964 10.3115 29.0203 10.1955C27.3833 9.13605 25.4599 8.60625 23.5113 8.67804C21.5628 8.74984 19.6835 9.41975 18.1289 10.5968V12.7434" stroke="#080E14" stroke-width="0.76437" stroke-linecap="round" stroke-linejoin="round"/>
<path d="M6.66602 25.6117V27.5227C8.33675 26.3994 10.2661 25.7205 12.2721 25.55C14.278 25.3794 16.2943 25.723 18.1306 26.5481V25.6117" stroke="#080E14" stroke-width="0.76437" stroke-linecap="round" stroke-linejoin="round"/>
<path d="M18.1289 25.6098V26.5589C19.9605 25.7391 21.9695 25.3951 23.9695 25.5589C24.5468 25.6062 25.1195 25.6978 25.6828 25.8327" stroke="#080E14" stroke-width="0.76437" stroke-linecap="round" stroke-linejoin="round"/>
<path d="M29.5992 25.6103V27.5212C29.097 27.1827 28.5688 26.8845 28.0195 26.6294" stroke="#080E14" stroke-width="0.76437" stroke-linecap="round" stroke-linejoin="round"/>
</svg>
