<svg width="40" height="40" viewBox="0 0 40 40" fill="none" xmlns="http://www.w3.org/2000/svg">
<rect width="40" height="40" rx="12" fill="#F1F2F6"/>
<g clip-path="url(#clip0_1_48059)">
<path d="M17.5458 25.1469L18.3147 25.8833C18.4216 25.9863 18.5067 26.1098 18.5649 26.2464C18.6231 26.383 18.6533 26.5298 18.6536 26.6783C18.6536 26.8938 18.7383 27.1007 18.8894 27.2543C19.0406 27.4079 19.2461 27.4959 19.4616 27.4994H22.0682C22.2837 27.4959 22.4892 27.4079 22.6404 27.2543C22.7915 27.1007 22.8763 26.8938 22.8762 26.6783C22.8766 26.5298 22.9067 26.383 22.9649 26.2464C23.0232 26.1098 23.1082 25.9863 23.2151 25.8833L23.984 25.1469C24.5064 24.6597 24.9251 24.0722 25.2151 23.4194C25.5051 22.7666 25.6604 22.0621 25.6718 21.3479V21.2892C25.6718 18.8781 23.4823 16.8906 20.7779 16.8906C18.0736 16.8906 15.8906 18.8781 15.8906 21.2892V21.3479C15.8978 22.0597 16.048 22.7629 16.3324 23.4155C16.6167 24.0681 17.0294 24.6569 17.5458 25.1469Z" fill="#FCDE5A"/>
<path d="M23.0764 26.7969H17.3029C16.8206 26.7969 16.4297 27.1864 16.4297 27.6668C16.4297 28.1473 16.8206 28.5368 17.3029 28.5368H23.0764C23.5587 28.5368 23.9496 28.1473 23.9496 27.6668C23.9496 27.1864 23.5587 26.7969 23.0764 26.7969Z" stroke="#080E14" stroke-width="0.781971" stroke-linecap="round" stroke-linejoin="round"/>
<path d="M17.5 29.8203H22.8695" stroke="#080E14" stroke-width="0.781971" stroke-linecap="round" stroke-linejoin="round"/>
<path d="M18.2188 31.0078H22.1677" stroke="#080E14" stroke-width="0.781971" stroke-linecap="round" stroke-linejoin="round"/>
<path d="M24.4225 19.0153C24.718 19.1671 24.9975 19.3483 25.2566 19.5562C25.5508 19.7943 25.8096 20.073 26.0255 20.3838C26.3423 20.8272 26.552 21.338 26.6381 21.8761C26.7187 22.2921 26.7129 22.7202 26.621 23.1339C26.529 23.5476 26.353 23.9379 26.1037 24.2806C25.1523 25.4927 23.0866 25.8055 21.4771 24.7237C21.3077 24.6032 21.1697 24.4438 21.0745 24.2591C20.9793 24.0743 20.9296 23.8694 20.9297 23.6616V15.0859" stroke="#080E14" stroke-width="0.781971" stroke-linecap="round" stroke-linejoin="round"/>
<path d="M26.0453 20.3656C26.527 20.1405 26.9312 19.7777 27.2069 19.3231C27.4825 18.8684 27.6174 18.3423 27.5944 17.8111C27.5714 17.2799 27.3916 16.7675 27.0776 16.3384C26.7636 15.9093 26.3296 15.5828 25.8303 15.4001C26.388 14.7589 26.7086 13.9455 26.7382 13.0961C26.7679 12.2467 26.5049 11.413 25.9932 10.7344C25.4787 10.1141 24.7755 9.67906 23.9908 9.49553C23.2061 9.312 22.3829 9.39006 21.6467 9.7178C21.4284 9.82175 21.2446 9.98646 21.1175 10.1922C20.9904 10.3979 20.9252 10.6359 20.9299 10.8777V12.1224" stroke="#080E14" stroke-width="0.781971" stroke-linecap="round" stroke-linejoin="round"/>
<path d="M16.4775 16.1837C15.4564 15.8536 14.562 15.2164 13.9165 14.3591C13.5338 13.6937 13.3897 12.9176 13.5082 12.1592C13.6267 11.4007 14.0007 10.7055 14.5682 10.1886C15.1053 9.73247 15.7735 9.45888 16.4763 9.40734C17.1791 9.3558 17.8801 9.52899 18.478 9.90189C18.6243 9.9909 18.7451 10.1163 18.8285 10.266C18.9118 10.4156 18.955 10.5843 18.9537 10.7555V23.6255C18.9571 23.8651 18.8711 24.0974 18.7126 24.2771C17.2334 25.9062 14.9526 25.8736 14.0077 24.8441C13.2062 23.9709 13.1997 22.2049 14.2749 20.8039C13.8043 20.6004 13.3848 20.2949 13.0467 19.9095C12.7086 19.5241 12.4604 19.0684 12.32 18.5753C12.1849 17.8197 12.3033 17.0407 12.6569 16.3595C13.0104 15.6783 13.5793 15.1331 14.2749 14.8088" stroke="#080E14" stroke-width="0.781971" stroke-linecap="round" stroke-linejoin="round"/>
<path d="M28.3125 22.5625L30.5607 23.6833" stroke="#080E14" stroke-width="0.781971" stroke-linecap="round" stroke-linejoin="round"/>
<path d="M28.4531 13.1477L30.2842 11.1016" stroke="#080E14" stroke-width="0.781971" stroke-linecap="round" stroke-linejoin="round"/>
<path d="M29.2344 17.4844H31.6194" stroke="#080E14" stroke-width="0.781971" stroke-linecap="round" stroke-linejoin="round"/>
<path d="M11.7013 22.5703L9.45312 23.6977" stroke="#080E14" stroke-width="0.781971" stroke-linecap="round" stroke-linejoin="round"/>
<path d="M11.5577 13.1555L9.72656 11.1094" stroke="#080E14" stroke-width="0.781971" stroke-linecap="round" stroke-linejoin="round"/>
<path d="M10.7834 17.4922H8.39844" stroke="#080E14" stroke-width="0.781971" stroke-linecap="round" stroke-linejoin="round"/>
</g>
<defs>
<clipPath id="clip0_1_48059">
<rect width="24" height="22.3839" fill="white" transform="translate(8 9)"/>
</clipPath>
</defs>
</svg>
