<svg width="100" height="100"  viewBox="0 0 100 100" fill="none" xmlns="http://www.w3.org/2000/svg">
<g clip-path="url(#clip0_1447_13199)">
<path d="M39.8444 69.2779C49.4449 69.2779 57.2276 61.4847 57.2276 51.8714C57.2276 42.258 49.4449 34.4648 39.8444 34.4648C30.244 34.4648 22.4613 42.258 22.4613 51.8714C22.4613 61.4847 30.244 69.2779 39.8444 69.2779Z" fill="#FCDE5A"/>
<path d="M69.1184 50.4985C69.3334 49.8798 69.5214 49.2341 69.6826 48.5884C69.8459 48.011 70.1747 47.4942 70.6284 47.102C71.0821 46.7099 71.6407 46.4597 72.235 46.3823L77.904 45.7366C78.6314 45.6356 79.2999 45.2806 79.7914 44.7343C80.283 44.1879 80.5661 43.4853 80.5907 42.7504C80.6708 41.2807 80.6708 39.8078 80.5907 38.3382C80.4564 36.8585 80.2952 35.4057 80.0265 33.9798C79.9227 33.2334 79.5527 32.5498 78.9848 32.0553C78.4168 31.5608 77.6894 31.2888 76.9368 31.2895H71.3215C70.7036 31.3483 70.0823 31.2178 69.5402 30.9151C68.998 30.6124 68.5605 30.1519 68.2855 29.5946C67.7991 28.414 67.2243 27.2718 66.566 26.1779C66.2739 25.6549 66.1411 25.0578 66.184 24.4601C66.227 23.8625 66.4439 23.2905 66.8078 22.8149L70.22 18.2952C70.666 17.7105 70.8893 16.9858 70.8499 16.2512C70.8105 15.5166 70.511 14.82 70.005 14.2865C68.0021 12.1281 65.7675 10.1973 63.342 8.52921C62.7449 8.1072 62.0178 7.91077 61.2898 7.9748C60.5618 8.03883 59.88 8.35918 59.3656 8.87896L55.3892 12.9145C54.9862 13.3533 54.4602 13.6601 53.8801 13.7945C53.3 13.9289 52.6929 13.8847 52.1383 13.6678C50.9459 13.183 49.7258 12.7698 48.4844 12.4302C47.8913 12.2568 47.3653 11.9063 46.9764 11.4256C46.5875 10.9448 46.3544 10.3568 46.3081 9.73986L45.6633 4.30537C45.5624 3.57697 45.2079 2.90764 44.6623 2.41543C44.1167 1.92322 43.415 1.63976 42.681 1.61503C41.2134 1.53457 39.7424 1.53457 38.2748 1.61503C36.8057 1.7221 35.3437 1.91071 33.8954 2.18C33.1337 2.2864 32.4389 2.67347 31.947 3.26554C31.4551 3.85761 31.2014 4.6121 31.2356 5.38151V11.0312C31.2313 11.6033 31.0616 12.1619 30.7468 12.6394C30.4321 13.1168 29.986 13.4927 29.4623 13.7216C28.2908 14.2251 27.1513 14.8001 26.0502 15.4434C25.5353 15.7442 24.9415 15.882 24.347 15.8388C23.7524 15.7956 23.1848 15.5734 22.7186 15.2013L18.2587 11.8921C17.6677 11.4593 16.9443 11.2467 16.2135 11.2909C15.4826 11.3351 14.7901 11.6334 14.2554 12.1343C12.0832 14.1337 10.1534 16.3822 8.50585 18.8332C8.10161 19.4323 7.91567 20.1525 7.97928 20.8727C8.04288 21.5929 8.35216 22.2693 8.85512 22.788L12.8852 26.7159C13.3151 27.1309 13.6132 27.6637 13.7422 28.2475C13.8712 28.8313 13.8255 29.4402 13.6106 29.9981C13.1274 31.1805 12.7235 32.3939 12.4016 33.6301C12.2296 34.227 11.8806 34.7576 11.4009 35.1515C10.9211 35.5455 10.3331 35.7842 9.71487 35.8362L4.28768 36.5895C3.55583 36.6913 2.88391 37.0502 2.3918 37.6021C1.89969 38.154 1.61941 38.863 1.60096 39.6027C1.52087 41.0723 1.52087 42.5452 1.60096 44.0148C1.73963 45.4973 1.9639 46.9705 2.27264 48.427C2.37579 49.1688 2.74195 49.8488 3.30426 50.3427C3.86657 50.8366 4.58753 51.1116 5.33551 51.1173H10.9508C11.5495 51.1061 12.1383 51.2709 12.6445 51.5913C13.1506 51.9116 13.5519 52.3735 13.7987 52.9199C14.2961 54.0955 14.8705 55.2369 15.5182 56.3366C15.8115 56.8544 15.945 57.4476 15.902 58.0413C15.859 58.635 15.6413 59.2027 15.2764 59.6726L11.8643 63.9503C11.4234 64.537 11.2033 65.2606 11.2426 65.9938C11.2819 66.7269 11.5782 67.4228 12.0792 67.9589C14.1051 70.1141 16.357 72.0443 18.796 73.7162C19.3991 74.135 20.1296 74.3294 20.8607 74.2655C21.5919 74.2016 22.2777 73.8836 22.7992 73.3665L26.7487 69.304C27.159 68.8759 27.6863 68.5786 28.2647 68.4493C28.843 68.3201 29.4466 68.3648 29.9997 68.5776L30.5639 68.7929M60.1179 50.4447C60.5221 49.6257 60.8721 48.7809 61.1657 47.9158C61.1657 47.9158 61.1657 47.9158 61.1657 47.7006C62.0062 45.0979 62.3436 42.3587 62.1598 39.6296C61.9759 36.8214 61.2361 34.0778 59.9835 31.5585V31.3702C59.4017 30.2345 58.7183 29.1539 57.9416 28.1418M27.9309 24.2139C24.6566 26.7937 22.2017 30.2707 20.8648 34.222C20.8764 34.2842 20.8764 34.3481 20.8648 34.4103C20.0243 37.0129 19.6869 39.7522 19.8707 42.4813C20.0721 45.2351 20.8115 47.9224 22.047 50.3909C22.047 50.3909 22.047 50.5523 22.047 50.5793C24.5868 55.5404 28.9499 59.3211 34.2178 61.1254H34.4328H34.6746" stroke="#080E14" stroke-width="3.22433" stroke-linecap="round" stroke-linejoin="round"/>
<path d="M84.0935 90.2109H95.5927C96.3053 90.2109 96.9887 90.4944 97.4925 90.9989C97.9964 91.5035 98.2794 92.1878 98.2794 92.9013V95.5916C98.2794 96.3051 97.9964 96.9894 97.4925 97.494C96.9887 97.9985 96.3053 98.282 95.5927 98.282H28.9887C28.2762 98.282 27.5928 97.9985 27.0889 97.494C26.5851 96.9894 26.302 96.3051 26.302 95.5916V92.9013C26.302 92.1878 26.5851 91.5035 27.0889 90.9989C27.5928 90.4944 28.2762 90.2109 28.9887 90.2109H40.6491" stroke="#080E14" stroke-width="3.22433" stroke-linecap="round" stroke-linejoin="round"/>
<path d="M79.0583 58.7812C83.0668 61.421 86.3598 65.0141 88.643 69.2393C90.9262 73.4645 92.1286 78.1902 92.1427 82.9943V90.0968" stroke="#080E14" stroke-width="3.22433" stroke-linecap="round" stroke-linejoin="round"/>
<path d="M54.0022 54.9688C47.8291 56.6422 42.3785 60.3055 38.4933 65.3922C34.6081 70.479 32.5047 76.7058 32.5084 83.1097V90.2122" stroke="#080E14" stroke-width="3.22433" stroke-linecap="round" stroke-linejoin="round"/>
<path d="M68.5119 84.3439L70.7418 52.7324C70.768 52.4414 70.7332 52.1481 70.6397 51.8714C70.5462 51.5946 70.396 51.3405 70.1987 51.1252C70.0014 50.9099 69.7614 50.7383 69.4941 50.6213C69.2268 50.5042 68.938 50.4444 68.6462 50.4456H56.0186C55.7235 50.441 55.4307 50.498 55.1589 50.6131C54.8871 50.7282 54.6422 50.8988 54.4399 51.114C54.2377 51.3292 54.0825 51.5843 53.9842 51.8629C53.8859 52.1416 53.8467 52.4377 53.8692 52.7324L56.0992 84.3439" stroke="#080E14" stroke-width="3.22433" stroke-linecap="round" stroke-linejoin="round"/>
</g>
<defs>
<clipPath id="clip0_1447_13199">
<rect width="100" height="100" fill="white"/>
</clipPath>
</defs>
</svg>
