<svg width="100" height="100" viewBox="0 0 100 100" fill="none" xmlns="http://www.w3.org/2000/svg">
<g clip-path="url(#clip0_848_73225)">
<path d="M69.1185 50.4971C69.3335 49.8783 69.5216 49.2326 69.6828 48.5869C69.846 48.0095 70.1748 47.4927 70.6285 47.1006C71.0822 46.7084 71.6408 46.4582 72.2351 46.3809L77.9041 45.7352C78.6316 45.6342 79.3 45.2792 79.7915 44.7328C80.2831 44.1865 80.5662 43.4839 80.5909 42.7489C80.671 41.2793 80.671 39.8064 80.5909 38.3367C80.4565 36.857 80.2953 35.4043 80.0267 33.9784C79.9229 33.232 79.5528 32.5484 78.9849 32.0539C78.417 31.5594 77.6895 31.2873 76.9369 31.288H71.3217C70.7037 31.3469 70.0825 31.2163 69.5403 30.9136C68.9981 30.6109 68.5606 30.1504 68.2857 29.5931C67.7992 28.4125 67.2244 27.2703 66.5662 26.1764C66.274 25.6535 66.1412 25.0563 66.1842 24.4587C66.2271 23.861 66.444 23.2891 66.808 22.8135L70.2201 18.2937C70.6661 17.709 70.8894 16.9844 70.85 16.2497C70.8106 15.5151 70.5111 14.8185 70.0052 14.2851C68.0022 12.1266 65.7677 10.1958 63.3421 8.52775C62.745 8.10574 62.0179 7.9093 61.2899 7.97333C60.5619 8.03736 59.8802 8.35772 59.3657 8.87749L55.3894 12.913C54.9863 13.3519 54.4603 13.6586 53.8802 13.793C53.3001 13.9274 52.693 13.8833 52.1384 13.6663C50.946 13.1815 49.7259 12.7683 48.4845 12.4287C47.8914 12.2553 47.3654 11.9048 46.9765 11.4241C46.5877 10.9434 46.3545 10.3553 46.3082 9.7384L45.6634 4.30391C45.5625 3.57551 45.208 2.90618 44.6624 2.41397C44.1168 1.92176 43.4151 1.63829 42.6811 1.61357C41.2135 1.53311 39.7426 1.53311 38.2749 1.61357C36.8058 1.72063 35.3438 1.90925 33.8955 2.17854C33.1338 2.28493 32.439 2.672 31.9471 3.26407C31.4552 3.85614 31.2016 4.61064 31.2357 5.38005V11.0298C31.2314 11.6018 31.0617 12.1604 30.747 12.6379C30.4323 13.1154 29.9861 13.4913 29.4624 13.7201C28.291 14.2236 27.1514 14.7986 26.0503 15.4419C25.5354 15.7427 24.9417 15.8806 24.3471 15.8374C23.7525 15.7942 23.1849 15.5719 22.7188 15.1998L18.2588 11.8907C17.6678 11.4579 16.9445 11.2452 16.2136 11.2894C15.4828 11.3336 14.7902 11.6319 14.2556 12.1328C12.0833 14.1322 10.1535 16.3807 8.50597 18.8318C8.10173 19.4309 7.91579 20.151 7.9794 20.8713C8.04301 21.5915 8.35228 22.2678 8.85524 22.7866L12.8853 26.7145C13.3152 27.1295 13.6133 27.6622 13.7423 28.246C13.8713 28.8298 13.8256 29.4388 13.6108 29.9967C13.1276 31.1791 12.7236 32.3924 12.4017 33.6286C12.2297 34.2256 11.8808 34.7561 11.401 35.1501C10.9212 35.544 10.3333 35.7828 9.715 35.8347L4.28781 36.588C3.55595 36.6898 2.88403 37.0487 2.39192 37.6006C1.89981 38.1525 1.61953 38.8615 1.60108 39.6012C1.52099 41.0708 1.52099 42.5437 1.60108 44.0134C1.73976 45.4958 1.96403 46.969 2.27276 48.4255C2.37591 49.1674 2.74207 49.8473 3.30438 50.3412C3.8667 50.8352 4.58765 51.1101 5.33563 51.1159H10.9509C11.5496 51.1047 12.1384 51.2694 12.6446 51.5898C13.1508 51.9102 13.5521 52.3721 13.7988 52.9184C14.2962 54.094 14.8706 55.2354 15.5183 56.3351C15.8116 56.8529 15.9452 57.4461 15.9021 58.0398C15.8591 58.6335 15.6414 59.2012 15.2765 59.6711L11.8644 63.9488C11.4236 64.5355 11.2034 65.2591 11.2428 65.9923C11.2821 66.7255 11.5783 67.4213 12.0793 67.9574C14.1052 70.1126 16.3571 72.0428 18.7961 73.7147C19.3992 74.1336 20.1297 74.3279 20.8608 74.264C21.592 74.2001 22.2778 73.8821 22.7994 73.365L26.7488 69.3026C27.1591 68.8744 27.6865 68.5771 28.2648 68.4479C28.8431 68.3187 29.4467 68.3633 29.9998 68.5762L30.564 68.7914M60.118 50.4433C60.5222 49.6242 60.8723 48.7794 61.1658 47.9144C61.1658 47.9144 61.1658 47.9144 61.1658 47.6991C62.0064 45.0965 62.3438 42.3573 62.1599 39.6281C61.976 36.8199 61.2362 34.0764 59.9837 31.5571V31.3687C59.4019 30.233 58.7184 29.1525 57.9418 28.1403M27.931 24.2124C24.6568 26.7922 22.2018 30.2692 20.8649 34.2205C20.8766 34.2827 20.8766 34.3466 20.8649 34.4088C20.0244 37.0115 19.687 39.7507 19.8708 42.4799C20.0722 45.2336 20.8116 47.921 22.0471 50.3895C22.0471 50.3895 22.0471 50.5509 22.0471 50.5778C24.5869 55.5389 28.9501 59.3197 34.218 61.1239H34.4329H34.6747" stroke="white" stroke-width="3.22433" stroke-linecap="round" stroke-linejoin="round"/>
<path d="M84.0942 90.209H95.5934C96.306 90.209 96.9894 90.4924 97.4932 90.997C97.9971 91.5015 98.2802 92.1858 98.2802 92.8993V95.5897C98.2802 96.3032 97.9971 96.9875 97.4932 97.492C96.9894 97.9966 96.306 98.28 95.5934 98.28H28.9895C28.2769 98.28 27.5935 97.9966 27.0897 97.492C26.5858 96.9875 26.3027 96.3032 26.3027 95.5897V92.8993C26.3027 92.1858 26.5858 91.5015 27.0897 90.997C27.5935 90.4924 28.2769 90.209 28.9895 90.209H40.6499" stroke="white" stroke-width="3.22433" stroke-linecap="round" stroke-linejoin="round"/>
<path d="M79.0576 58.7803C83.0661 61.4201 86.359 65.0131 88.6423 69.2383C90.9255 73.4635 92.1279 78.1893 92.142 82.9933V90.0959" stroke="white" stroke-width="3.22433" stroke-linecap="round" stroke-linejoin="round"/>
<path d="M54.0026 54.9673C47.8295 56.6407 42.3789 60.304 38.4937 65.3908C34.6085 70.4775 32.5051 76.7043 32.5088 83.1083V90.2108" stroke="white" stroke-width="3.22433" stroke-linecap="round" stroke-linejoin="round"/>
<path d="M68.5121 84.3409L70.7421 52.7294C70.7683 52.4384 70.7335 52.1452 70.64 51.8684C70.5464 51.5917 70.3962 51.3375 70.199 51.1223C70.0017 50.907 69.7617 50.7354 69.4943 50.6183C69.227 50.5013 68.9382 50.4415 68.6464 50.4426H56.0188C55.7237 50.438 55.4309 50.4951 55.1591 50.6102C54.8873 50.7253 54.6424 50.8959 54.4402 51.1111C54.2379 51.3263 54.0827 51.5814 53.9844 51.86C53.8861 52.1387 53.847 52.4348 53.8694 52.7294L56.0994 84.3409" stroke="white" stroke-width="3.22433" stroke-linecap="round" stroke-linejoin="round"/>
</g>
<defs>
<clipPath id="clip0_848_73225">
<rect width="100" height="100" fill="white"/>
</clipPath>
</defs>
</svg>
