<svg width="40" height="40" viewBox="0 0 40 40" fill="none" xmlns="http://www.w3.org/2000/svg">
<rect width="40" height="40" rx="12" fill="#F1F2F6"/>
<path d="M18.7284 20.196H13.3246C13.0181 20.196 12.7695 20.4446 12.7695 20.7511V26.1549C12.7695 26.4615 13.0181 26.71 13.3246 26.71H18.7284C19.035 26.71 19.2835 26.4615 19.2835 26.1549V20.7511C19.2835 20.4446 19.035 20.196 18.7284 20.196Z" fill="#FCDE5A"/>
<path d="M11.1797 8.63281V28.8368H31.4907" stroke="#080E14" stroke-width="0.802542" stroke-linecap="round" stroke-linejoin="round"/>
<path d="M11.1797 23.9814H16.0284V27.4391" stroke="#080E14" stroke-width="0.802542" stroke-linecap="round" stroke-linejoin="round"/>
<path d="M12.2891 9.74365L13.2387 10.6933" stroke="#080E14" stroke-width="0.802542" stroke-linecap="round" stroke-linejoin="round"/>
<path d="M15.0352 12.4912L28.5246 25.9806" stroke="#080E14" stroke-width="0.802542" stroke-linecap="round" stroke-linejoin="round" stroke-dasharray="2.54 2.54"/>
<path d="M29.4258 26.8762L30.3755 27.8259" stroke="#080E14" stroke-width="0.802542" stroke-linecap="round" stroke-linejoin="round"/>
<path d="M25.4848 30.0003C25.4092 29.6171 25.3711 29.2273 25.3711 28.8367C25.3707 27.5728 25.7604 26.3396 26.4869 25.3054C27.2135 24.2713 28.2415 23.4865 29.4306 23.0583" stroke="#080E14" stroke-width="0.802542" stroke-linecap="round" stroke-linejoin="round"/>
<path d="M9.30078 14.4644C9.90765 14.6614 10.542 14.7608 11.1801 14.7586C12.1769 14.7577 13.1584 14.5136 14.0395 14.0474C14.9206 13.5812 15.6746 12.9071 16.2361 12.0835" stroke="#080E14" stroke-width="0.802542" stroke-linecap="round" stroke-linejoin="round"/>
<path d="M23.7461 15.0657L25.9464 17.266" stroke="#080E14" stroke-width="0.802542" stroke-linecap="round" stroke-linejoin="round"/>
<path d="M23.7461 17.266L25.9464 15.0657" stroke="#080E14" stroke-width="0.802542" stroke-linecap="round" stroke-linejoin="round"/>
</svg>
