<svg width="100" height="100" viewBox="0 0 100 100" fill="none" xmlns="http://www.w3.org/2000/svg">
<g clip-path="url(#clip0_848_73468)">
<path d="M30.7598 25.3854C34.6273 16.895 33.6881 8.15618 28.6621 5.86674C23.636 3.5773 16.4264 8.60416 12.5589 17.0946C8.69139 25.5849 9.63057 34.3237 14.6566 36.6132C19.6827 38.9026 26.8923 33.8758 30.7598 25.3854Z" fill="#007BFF"/>
<path d="M61.1017 10.1299L64.9125 14.9411C65.8837 16.1725 66.4079 17.6974 66.399 19.2658V41.3756C66.399 47.8847 63.8134 54.1272 59.2112 58.7298C54.609 63.3324 48.367 65.9182 41.8584 65.9182C35.3499 65.9182 29.1079 63.3324 24.5056 58.7298C19.9034 54.1272 17.3179 47.8847 17.3179 41.3756V19.2658C17.3188 17.6945 17.8523 16.17 18.8314 14.9411" stroke="white" stroke-width="3.24351" stroke-linecap="round" stroke-linejoin="round"/>
<path d="M17.3398 41.377C19.4527 46.121 22.8952 50.1509 27.2505 52.979C31.6059 55.8071 36.6875 57.3123 41.8804 57.3123C47.0733 57.3123 52.1549 55.8071 56.5103 52.979C60.8656 50.1509 64.308 46.121 66.4209 41.377" stroke="white" stroke-width="3.24351" stroke-linecap="round" stroke-linejoin="round"/>
<path d="M27.8663 8.49972C30.2086 6.57699 31.186 3.89581 30.0496 2.51114C28.9131 1.12647 26.093 1.56266 23.7508 3.48539C21.4085 5.40812 20.4311 8.08929 21.5675 9.47396C22.704 10.8586 25.5241 10.4224 27.8663 8.49972Z" stroke="white" stroke-width="3.24351" stroke-linecap="round" stroke-linejoin="round"/>
<path d="M62.1243 9.46884C63.2608 8.08417 62.2833 5.40299 59.941 3.48026C57.5988 1.55753 54.7787 1.12135 53.6422 2.50602C52.5058 3.89069 53.4832 6.57186 55.8255 8.49459C58.1677 10.4173 60.9878 10.8535 62.1243 9.46884Z" stroke="white" stroke-width="3.24351" stroke-linecap="round" stroke-linejoin="round"/>
<path d="M87.2952 58.6255V77.1135C87.2819 79.9493 86.6847 82.7519 85.5408 85.3468C84.397 87.9416 82.7309 90.2731 80.6466 92.1958C76.2864 96.247 70.5439 98.4803 64.5925 98.4395C58.7517 98.6217 53.0774 96.4781 48.8157 92.4796C44.554 88.481 42.0533 82.9545 41.8628 77.1135V72.8158" stroke="white" stroke-width="3.24351" stroke-linecap="round" stroke-linejoin="round"/>
<path d="M87.2951 52.8074C89.5791 52.8074 91.4306 51.0648 91.4306 48.9152C91.4306 46.7656 89.5791 45.0229 87.2951 45.0229C85.0112 45.0229 83.1597 46.7656 83.1597 48.9152C83.1597 51.0648 85.0112 52.8074 87.2951 52.8074Z" stroke="white" stroke-width="3.24351" stroke-linecap="round" stroke-linejoin="round"/>
<path d="M81.1474 41.1851C82.8225 39.9015 84.8749 39.2078 86.9852 39.2119C88.6199 39.2151 90.2274 39.6313 91.6583 40.4219C93.0892 41.2125 94.2972 42.3518 95.1701 43.7341C96.043 45.1165 96.5525 46.6969 96.6513 48.3288C96.7501 49.9607 96.4351 51.5911 95.7353 53.0687C95.0356 54.5463 93.974 55.8231 92.6489 56.7806C91.3239 57.7381 89.7784 58.3452 88.156 58.5457C86.5336 58.7461 84.8868 58.5334 83.3686 57.9272C81.8504 57.3209 80.5099 56.3409 79.4717 55.0781" stroke="white" stroke-width="3.24351" stroke-linecap="round" stroke-linejoin="round"/>
</g>
<defs>
<clipPath id="clip0_848_73468">
<rect width="100" height="100.008" fill="white"/>
</clipPath>
</defs>
</svg>
