<svg width="40" height="40" viewBox="0 0 40 40" fill="none" xmlns="http://www.w3.org/2000/svg">
<rect width="40" height="40" rx="12" fill="#F1F2F6"/>
<path d="M20.1328 28.0432C21.2726 27.2164 22.6336 26.7492 24.0408 26.7016C25.4481 26.6539 26.8375 27.0279 28.0307 27.7757C28.0702 27.7993 28.1153 27.812 28.1613 27.8125C28.2073 27.8131 28.2527 27.8014 28.2928 27.7788C28.3329 27.7562 28.3663 27.7233 28.3896 27.6836C28.4129 27.6439 28.4253 27.5988 28.4256 27.5527V17.6733C28.426 17.5191 28.3871 17.3673 28.3124 17.2324C28.2377 17.0975 28.1297 16.984 27.9988 16.9025C26.8699 16.1687 25.5493 15.785 24.203 15.7997C22.8566 15.8145 21.5447 16.2269 20.4322 16.9853C20.3416 17.0435 20.2672 17.1236 20.2159 17.2183C20.1647 17.313 20.1383 17.4191 20.1392 17.5268L20.1328 28.0432Z" fill="#FCDE5A"/>
<path d="M12.875 21.5645V16.7043H15.9195V21.5645" stroke="#080E14" stroke-width="0.76437" stroke-linecap="round" stroke-linejoin="round"/>
<path d="M15.9195 19.4897H12.875" stroke="#080E14" stroke-width="0.76437" stroke-linecap="round" stroke-linejoin="round"/>
<path d="M24.3398 16.6472H27.3843L24.3653 21.6284H27.3843" stroke="#080E14" stroke-width="0.76437" stroke-linecap="round" stroke-linejoin="round"/>
<path d="M20.1326 14.1765V12.5904C18.5232 11.3839 16.5767 10.7113 14.5659 10.6668C12.6881 10.6477 10.8458 11.1791 9.26668 12.1955C9.08582 12.3085 8.93624 12.4651 8.83163 12.651C8.72703 12.8368 8.67075 13.046 8.66797 13.2592V27.6039C10.3401 26.4061 12.3435 25.7583 14.4003 25.7503C16.4574 25.7562 18.4614 26.4042 20.1326 27.6039L20.2281 20.7501" stroke="#080E14" stroke-width="0.76437" stroke-linecap="round" stroke-linejoin="round"/>
<path d="M20.1328 27.6037C21.8012 26.3984 23.807 25.7497 25.8651 25.7497C27.9233 25.7497 29.929 26.3984 31.5974 27.6037V13.259C31.5974 13.0481 31.545 12.8405 31.445 12.6548C31.3449 12.4692 31.2003 12.3113 31.0242 12.1953C29.3872 11.1358 27.4638 10.606 25.5152 10.6778C23.5667 10.7496 21.6874 11.4195 20.1328 12.5966V14.7432" stroke="#080E14" stroke-width="0.76437" stroke-linecap="round" stroke-linejoin="round"/>
<path d="M8.66797 27.6117V29.5226C10.3387 28.3993 12.2681 27.7204 14.274 27.5499C16.28 27.3794 18.2963 27.7229 20.1326 28.548V27.6117" stroke="#080E14" stroke-width="0.76437" stroke-linecap="round" stroke-linejoin="round"/>
<path d="M20.1328 27.6097V28.5588C21.9644 27.739 23.9734 27.395 25.9734 27.5588C26.5507 27.6062 27.1235 27.6978 27.6867 27.8327" stroke="#080E14" stroke-width="0.76437" stroke-linecap="round" stroke-linejoin="round"/>
<path d="M31.6031 27.6101V29.521C31.1009 29.1825 30.5727 28.8843 30.0234 28.6293" stroke="#080E14" stroke-width="0.76437" stroke-linecap="round" stroke-linejoin="round"/>
</svg>
