<svg width="62" height="62" viewBox="0 0 62 62" fill="none" xmlns="http://www.w3.org/2000/svg">
<g filter="url(#filter0_d_32_132726)">
<circle cx="31" cy="27" r="23.5" stroke="#84878A" shape-rendering="crispEdges"/>
</g>
<path d="M25.9 35.6C27.4 36.5 29.2 37 31 37C36.5 37 41 32.5 41 27C41 21.5 36.5 17 31 17C25.5 17 21 21.5 21 27C21 28.8 21.5 30.5 22.3 32L21.44 35.306C21.3956 35.4767 21.3972 35.656 21.4445 35.8259C21.4918 35.9958 21.5832 36.1501 21.7094 36.2733C21.8356 36.3965 21.9922 36.4841 22.1631 36.5272C22.3341 36.5704 22.5135 36.5675 22.683 36.519L25.9 35.6Z" stroke="black" stroke-width="1.5" stroke-miterlimit="10" stroke-linecap="round" stroke-linejoin="round"/>
<path d="M35.5 29.848C35.5 30.01 35.464 30.177 35.387 30.339C35.3084 30.5064 35.2053 30.6611 35.081 30.798C34.86 31.041 34.617 31.216 34.341 31.329C34.071 31.442 33.778 31.5 33.463 31.5C33.003 31.5 32.512 31.392 31.993 31.172C31.4443 30.9341 30.9243 30.6349 30.443 30.28C29.9195 29.8976 29.4254 29.4764 28.965 29.02C28.5095 28.5621 28.0893 28.0704 27.708 27.549C27.3576 27.0719 27.0611 26.5574 26.824 26.015C26.608 25.5 26.5 25.01 26.5 24.543C26.5 24.237 26.554 23.945 26.662 23.675C26.77 23.4 26.942 23.148 27.181 22.923C27.469 22.639 27.784 22.5 28.118 22.5C28.244 22.5 28.37 22.527 28.483 22.581C28.6 22.635 28.703 22.716 28.785 22.833L29.831 24.305C29.911 24.417 29.971 24.521 30.011 24.62C30.051 24.714 30.074 24.809 30.074 24.894C30.0727 25.0074 30.0398 25.1182 29.979 25.214C29.9096 25.3311 29.8248 25.4383 29.727 25.533L29.384 25.889C29.3601 25.9123 29.3414 25.9404 29.329 25.9714C29.3166 26.0024 29.3108 26.0356 29.312 26.069C29.312 26.104 29.317 26.136 29.326 26.172C29.339 26.208 29.353 26.235 29.362 26.262C29.442 26.411 29.582 26.604 29.781 26.838C29.984 27.072 30.2 27.311 30.434 27.549C30.678 27.788 30.912 28.008 31.151 28.211C31.385 28.408 31.579 28.543 31.732 28.624L31.814 28.661C31.8499 28.6738 31.8879 28.6799 31.926 28.679C31.9605 28.6797 31.9948 28.6733 32.0266 28.66C32.0585 28.6468 32.0872 28.627 32.111 28.602L32.453 28.264C32.566 28.152 32.674 28.067 32.778 28.012C32.8736 27.9511 32.9846 27.9185 33.098 27.918C33.1927 27.9194 33.2861 27.9394 33.373 27.977C33.472 28.017 33.576 28.075 33.688 28.152L35.18 29.21C35.2881 29.2803 35.3741 29.3798 35.428 29.497C35.4747 29.6082 35.4992 29.7274 35.5 29.848Z" fill="#080E14"/>
<defs>
<filter id="filter0_d_32_132726" x="0" y="0" width="62" height="62" filterUnits="userSpaceOnUse" color-interpolation-filters="sRGB">
<feFlood flood-opacity="0" result="BackgroundImageFix"/>
<feColorMatrix in="SourceAlpha" type="matrix" values="0 0 0 0 0 0 0 0 0 0 0 0 0 0 0 0 0 0 127 0" result="hardAlpha"/>
<feOffset dy="4"/>
<feGaussianBlur stdDeviation="3.5"/>
<feComposite in2="hardAlpha" operator="out"/>
<feColorMatrix type="matrix" values="0 0 0 0 0 0 0 0 0 0.482353 0 0 0 0 1 0 0 0 0.12 0"/>
<feBlend mode="normal" in2="BackgroundImageFix" result="effect1_dropShadow_32_132726"/>
<feBlend mode="normal" in="SourceGraphic" in2="effect1_dropShadow_32_132726" result="shape"/>
</filter>
</defs>
</svg>
