<svg width="40" height="40" viewBox="0 0 40 40" fill="none" xmlns="http://www.w3.org/2000/svg">
<rect width="40" height="40" rx="12" fill="#F1F2F6"/>
<g clip-path="url(#clip0_1_48027)">
<path d="M28.1323 10.3438H21.44C21.0676 10.3438 20.7656 10.6457 20.7656 11.0182V20.2913C20.7656 20.6638 21.0676 20.9657 21.44 20.9657H28.1323C28.5048 20.9657 28.8067 20.6638 28.8067 20.2913V11.0182C28.8067 10.6457 28.5048 10.3438 28.1323 10.3438Z" fill="#FCDE5A"/>
<path d="M25.2846 11.4141H14.7015C14.107 11.4141 13.625 11.896 13.625 12.4905V27.1655C13.625 27.76 14.107 28.2419 14.7015 28.2419H25.2846C25.8791 28.2419 26.361 27.76 26.361 27.1655V12.4905C26.361 11.896 25.8791 11.4141 25.2846 11.4141Z" stroke="#080E14" stroke-width="0.778168" stroke-linecap="round" stroke-linejoin="round"/>
<path d="M24.6377 22.4537V25.3524C24.63 25.5122 24.5635 25.6635 24.4509 25.7772C24.3384 25.8909 24.1878 25.959 24.0281 25.9684H18.6069C18.4476 25.9646 18.2952 25.9023 18.1789 25.7933L15.5396 23.1994C15.4229 23.0819 15.3556 22.9241 15.3516 22.7585V14.3283C15.361 14.1686 15.4291 14.018 15.5428 13.9055C15.6565 13.793 15.8078 13.7265 15.9676 13.7188H24.0281C24.1898 13.7188 24.3448 13.783 24.4592 13.8973C24.5735 14.0116 24.6377 14.1666 24.6377 14.3283V18.6018" stroke="#080E14" stroke-width="0.778168" stroke-linecap="round" stroke-linejoin="round"/>
<path d="M15.5714 26.4474C15.9689 26.4474 16.2912 26.1252 16.2912 25.7276C16.2912 25.3301 15.9689 25.0078 15.5714 25.0078C15.1738 25.0078 14.8516 25.3301 14.8516 25.7276C14.8516 26.1252 15.1738 26.4474 15.5714 26.4474Z" stroke="#080E14" stroke-width="0.778168" stroke-linecap="round" stroke-linejoin="round"/>
<path d="M26.3594 17.5264H28.8106L29.4331 16.625" stroke="#080E14" stroke-width="0.778168" stroke-linecap="round" stroke-linejoin="round"/>
<path d="M30.546 15.8732C31.0331 15.8732 31.4279 15.4784 31.4279 14.9913C31.4279 14.5042 31.0331 14.1094 30.546 14.1094C30.0589 14.1094 29.6641 14.5042 29.6641 14.9913C29.6641 15.4784 30.0589 15.8732 30.546 15.8732Z" stroke="#080E14" stroke-width="0.778168" stroke-linecap="round" stroke-linejoin="round"/>
<path d="M30.0557 24.0606L28.8106 22.2578H26.3594" stroke="#080E14" stroke-width="0.778168" stroke-linecap="round" stroke-linejoin="round"/>
<path d="M30.546 25.6701C31.0331 25.6701 31.4279 25.2752 31.4279 24.7882C31.4279 24.3011 31.0331 23.9062 30.546 23.9062C30.0589 23.9062 29.6641 24.3011 29.6641 24.7882C29.6641 25.2752 30.0589 25.6701 30.546 25.6701Z" stroke="#080E14" stroke-width="0.778168" stroke-linecap="round" stroke-linejoin="round"/>
<path d="M29.8411 19.8516H27.5391" stroke="#080E14" stroke-width="0.778168" stroke-linecap="round" stroke-linejoin="round"/>
<path d="M30.7257 20.7795C31.2127 20.7795 31.6076 20.3846 31.6076 19.8975C31.6076 19.4105 31.2127 19.0156 30.7257 19.0156C30.2386 19.0156 29.8438 19.4105 29.8438 19.8975C29.8438 20.3846 30.2386 20.7795 30.7257 20.7795Z" stroke="#080E14" stroke-width="0.778168" stroke-linecap="round" stroke-linejoin="round"/>
<path d="M9.92969 15.7266L11.1683 17.5293H13.6195" stroke="#080E14" stroke-width="0.778168" stroke-linecap="round" stroke-linejoin="round"/>
<path d="M9.4288 15.8732C9.91587 15.8732 10.3107 15.4784 10.3107 14.9913C10.3107 14.5042 9.91587 14.1094 9.4288 14.1094C8.94173 14.1094 8.54688 14.5042 8.54688 14.9913C8.54688 15.4784 8.94173 15.8732 9.4288 15.8732Z" stroke="#080E14" stroke-width="0.778168" stroke-linecap="round" stroke-linejoin="round"/>
<path d="M12.0632 22.2578H11.1683L9.92969 24.0606" stroke="#080E14" stroke-width="0.778168" stroke-linecap="round" stroke-linejoin="round"/>
<path d="M9.4288 25.6701C9.91587 25.6701 10.3107 25.2752 10.3107 24.7882C10.3107 24.3011 9.91587 23.9062 9.4288 23.9062C8.94173 23.9062 8.54688 24.3011 8.54688 24.7882C8.54688 25.2752 8.94173 25.6701 9.4288 25.6701Z" stroke="#080E14" stroke-width="0.778168" stroke-linecap="round" stroke-linejoin="round"/>
<path d="M13.6257 19.8516H11.4922" stroke="#080E14" stroke-width="0.778168" stroke-linecap="round" stroke-linejoin="round"/>
<path d="M9.26474 20.7795C9.75181 20.7795 10.1467 20.3846 10.1467 19.8975C10.1467 19.4105 9.75181 19.0156 9.26474 19.0156C8.77766 19.0156 8.38281 19.4105 8.38281 19.8975C8.38281 20.3846 8.77766 20.7795 9.26474 20.7795Z" stroke="#080E14" stroke-width="0.778168" stroke-linecap="round" stroke-linejoin="round"/>
<path d="M17 28.25V30.4029" stroke="#080E14" stroke-width="0.778168" stroke-linecap="round" stroke-linejoin="round"/>
<path d="M19.9922 28.25V30.4029" stroke="#080E14" stroke-width="0.778168" stroke-linecap="round" stroke-linejoin="round"/>
<path d="M22.9766 28.25V30.4029" stroke="#080E14" stroke-width="0.778168" stroke-linecap="round" stroke-linejoin="round"/>
<path d="M17 9.26562V11.4186" stroke="#080E14" stroke-width="0.778168" stroke-linecap="round" stroke-linejoin="round"/>
<path d="M19.9922 9.26562V11.4186" stroke="#080E14" stroke-width="0.778168" stroke-linecap="round" stroke-linejoin="round"/>
<path d="M22.9766 9.26562V11.4186" stroke="#080E14" stroke-width="0.778168" stroke-linecap="round" stroke-linejoin="round"/>
</g>
<defs>
<clipPath id="clip0_1_48027">
<rect width="24" height="21.9119" fill="white" transform="translate(8 8.875)"/>
</clipPath>
</defs>
</svg>
