<svg width="134" height="73" viewBox="0 0 134 73" fill="none" xmlns="http://www.w3.org/2000/svg">
<g clip-path="url(#clip0_181_41104)">
<path d="M37.2598 71.1129C37.2598 71.1129 55.6562 53.6628 94.5374 60.7637C95.027 60.8545 95.4684 60.4504 95.4294 59.9445L94.7512 51.1511C94.7488 51.1205 94.7468 51.0949 94.7499 51.069C94.7798 50.2186 95.1812 35.6727 86.5708 36.4087C86.5458 36.4107 86.5258 36.4122 86.5004 36.409C85.5391 36.329 64.4264 34.6627 55.3155 38.6858C55.0919 38.7853 54.8668 38.8643 54.6246 38.919C52.6242 39.3816 42.4013 42.1541 42.0485 50.4205C42.0459 50.4516 42.0482 50.4822 42.0506 50.5129L42.602 61.1818C42.648 62.1035 43.9569 62.1927 44.1082 61.2867C44.1159 61.2552 44.1181 61.2191 44.1254 61.1825C44.1942 60.7712 43.922 60.3707 43.5189 60.2939L4.05058 52.3593C3.37132 52.2215 3.20543 51.3091 3.78992 50.9351C13.0828 45.099 58.5578 16.324 64.5141 8.4889C64.6741 8.28125 64.9227 8.17984 65.1815 8.21128C69.6731 8.826 108.368 14.3583 126.021 25.466C126.771 25.9376 126.801 27.0455 126.088 27.5682C120.221 31.8705 98.7257 47.5396 96.8416 47.685C96.8416 47.685 95.0638 48.0996 91.8452 45.0224C90.2333 43.4814 88.3857 42.2104 86.4079 41.2065C84.2678 40.1175 81.6862 39.0419 79.7821 38.9934C79.0166 38.9754 78.7182 39.9955 79.3592 40.4189C82.1494 42.2443 88.0266 46.2884 88.2572 48.1055C88.2572 48.1055 89.4017 54.6014 80.3128 55.3898C79.1891 55.4867 78.0543 54.9832 77.4799 53.9892C76.9572 53.0787 77.1275 52.0273 80.2925 51.7369C80.4324 51.7261 80.5785 51.7303 80.7162 51.7556C82.6723 52.0879 97.4586 54.9668 104.144 67.3985" stroke="#CCE5FF" stroke-width="2" stroke-miterlimit="10"/>
<path d="M115.406 40.4142L115.252 39.3313L113.468 25.4576C112.883 21.9768 110.137 18.9556 108.213 17.2177C107.818 16.8626 108.18 16.2076 108.685 16.3691C113.969 18.0638 125.972 22.206 129.918 23.572C130.352 23.7236 130.365 24.3445 129.94 24.5109L128.433 25.1052C127.332 25.627 110.509 19.482 110.509 19.482C109.577 19.0707 109.062 19.3674 108.799 19.6653C108.637 19.8474 108.628 20.1205 108.778 20.3094C110.055 21.9379 111.258 27.6224 111.297 27.8095C111.297 27.8146 111.297 27.8146 111.298 27.8248C111.955 30.2105 112.758 34.6922 113.15 36.9749C113.323 37.9792 113.664 38.9398 114.169 39.8157C115.586 42.2918 117.221 44.5814 117.221 44.5814C118.691 46.3081 119.96 52.3267 120.668 56.3634C120.769 56.9467 119.973 57.1931 119.74 56.6508C119.533 56.1734 118.838 56.2989 118.803 56.8156L118.575 60.1844C118.54 60.7062 117.84 60.827 117.638 60.3492L116.576 57.8612C116.404 57.453 115.836 57.4608 115.677 57.8689C115.399 58.5687 115.028 59.43 114.721 60.1424C114.52 60.6 113.849 60.5027 113.79 60.0035C113.303 55.8367 114.467 48.1759 114.762 46.3387C114.8 46.1148 114.683 45.8925 114.474 45.8007C113.694 45.4599 111.927 44.45 112.448 42.4104C112.77 41.1675 113.841 40.2625 115.085 40.0895C116.02 39.9608 117.137 40.111 117.92 41.1918C118.392 41.844 118.505 42.7143 118.205 43.4621C118.121 43.6742 118.013 43.8418 117.88 43.8727" stroke="#99CAFF" stroke-width="1.59213" stroke-miterlimit="10"/>
</g>
<defs>
<clipPath id="clip0_181_41104">
<rect width="129.066" height="62.3874" fill="white" transform="translate(0.015625 10.6562) rotate(-4.41041)"/>
</clipPath>
</defs>
</svg>
