<svg width="32" height="32" viewBox="0 0 32 32" fill="none" xmlns="http://www.w3.org/2000/svg">
<g id="Frame 1000006571">
<rect width="32" height="32" rx="8" fill="white"/>
<g id="expand_more">
<path id="expand_more_2" d="M19.9948 16.6667C19.9948 16.8021 19.9735 16.9281 19.9309 17.0447C19.8883 17.1613 19.8152 17.2722 19.7116 17.3773L14.7355 22.4253C14.5822 22.5808 14.3895 22.6604 14.1575 22.6639C13.9254 22.6676 13.7291 22.588 13.5687 22.4253C13.4083 22.2625 13.3281 22.0653 13.3281 21.8334C13.3281 21.6016 13.4083 21.4043 13.5687 21.2416L18.0785 16.6667L13.5687 12.0918C13.4154 11.9363 13.337 11.7408 13.3334 11.5054C13.3299 11.2699 13.4083 11.0709 13.5687 10.9082C13.7291 10.7454 13.9236 10.6641 14.1521 10.6641C14.3807 10.6641 14.5751 10.7454 14.7355 10.9082L19.7116 15.9561C19.8152 16.0612 19.8883 16.1721 19.9309 16.2887C19.9735 16.4054 19.9948 16.5313 19.9948 16.6667Z" fill="#007BFF"/>
</g>
</g>
</svg>
