<svg width="32" height="32" viewBox="0 0 32 32" fill="none" xmlns="http://www.w3.org/2000/svg">
<g id="Frame 1000006570" opacity="0.5">
<rect width="32" height="32" rx="8" transform="matrix(-1 0 0 1 32 0)" fill="white"/>
<g id="expand_more">
<path id="expand_more_2" d="M12.0052 16.6667C12.0052 16.8021 12.0265 16.9281 12.0691 17.0447C12.1117 17.1613 12.1848 17.2722 12.2884 17.3773L17.2645 22.4253C17.4178 22.5808 17.6105 22.6604 17.8425 22.6639C18.0746 22.6676 18.2709 22.588 18.4313 22.4253C18.5917 22.2625 18.6719 22.0653 18.6719 21.8334C18.6719 21.6016 18.5917 21.4043 18.4313 21.2416L13.9215 16.6667L18.4313 12.0918C18.5846 11.9363 18.663 11.7408 18.6666 11.5054C18.6701 11.2699 18.5917 11.0709 18.4313 10.9082C18.2709 10.7454 18.0764 10.6641 17.8479 10.6641C17.6193 10.6641 17.4249 10.7454 17.2645 10.9082L12.2884 15.9561C12.1848 16.0612 12.1117 16.1721 12.0691 16.2887C12.0265 16.4054 12.0052 16.5313 12.0052 16.6667Z" fill="#007BFF"/>
</g>
</g>
</svg>
