<svg width="190" height="52" viewBox="0 0 190 52" fill="none" xmlns="http://www.w3.org/2000/svg">
<path d="M0 5.99999V43.9604C1.90099 39.2079 12.6733 37.2277 17.8218 36.8317H180.495L190 17.8218L180.495 0H6C2.68629 0 0 2.68628 0 5.99999Z" fill="#FCDE5A"/>
<path d="M16.6337 36.8281V51.0856C6.17822 51.0856 0.792079 46.3331 0 43.9568C1.90099 38.2539 12.2772 36.8281 16.6337 36.8281Z" fill="#D9BB3A"/>
<path d="M38.2788 15.72C38.8421 15.72 39.3448 15.837 39.7868 16.071C40.2375 16.305 40.5885 16.6517 40.8398 17.111C41.0998 17.5703 41.2298 18.125 41.2298 18.775V23H39.7608V18.996C39.7608 18.3547 39.6005 17.865 39.2798 17.527C38.9591 17.1803 38.5215 17.007 37.9668 17.007C37.4121 17.007 36.9701 17.1803 36.6408 17.527C36.3201 17.865 36.1598 18.3547 36.1598 18.996V23H34.6908V18.996C34.6908 18.3547 34.5305 17.865 34.2098 17.527C33.8891 17.1803 33.4515 17.007 32.8968 17.007C32.3421 17.007 31.9001 17.1803 31.5708 17.527C31.2501 17.865 31.0898 18.3547 31.0898 18.996V23H29.6078V15.837H31.0898V16.656C31.3325 16.3613 31.6401 16.1317 32.0128 15.967C32.3855 15.8023 32.7841 15.72 33.2088 15.72C33.7808 15.72 34.2921 15.8413 34.7428 16.084C35.1935 16.3267 35.5401 16.6777 35.7828 17.137C35.9995 16.7037 36.3375 16.3613 36.7968 16.11C37.2561 15.85 37.7501 15.72 38.2788 15.72ZM46.2226 23.117C45.5466 23.117 44.9356 22.9653 44.3896 22.662C43.8436 22.35 43.4146 21.9167 43.1026 21.362C42.7906 20.7987 42.6346 20.1487 42.6346 19.412C42.6346 18.684 42.795 18.0383 43.1156 17.475C43.4363 16.9117 43.874 16.4783 44.4286 16.175C44.9833 15.8717 45.603 15.72 46.2876 15.72C46.9723 15.72 47.592 15.8717 48.1466 16.175C48.7013 16.4783 49.139 16.9117 49.4596 17.475C49.7803 18.0383 49.9406 18.684 49.9406 19.412C49.9406 20.14 49.776 20.7857 49.4466 21.349C49.1173 21.9123 48.6666 22.35 48.0946 22.662C47.5313 22.9653 46.9073 23.117 46.2226 23.117ZM46.2226 21.83C46.604 21.83 46.9593 21.739 47.2886 21.557C47.6266 21.375 47.8996 21.102 48.1076 20.738C48.3156 20.374 48.4196 19.932 48.4196 19.412C48.4196 18.892 48.32 18.4543 48.1206 18.099C47.9213 17.735 47.657 17.462 47.3276 17.28C46.9983 17.098 46.643 17.007 46.2616 17.007C45.8803 17.007 45.525 17.098 45.1956 17.28C44.875 17.462 44.6193 17.735 44.4286 18.099C44.238 18.4543 44.1426 18.892 44.1426 19.412C44.1426 20.1833 44.3376 20.7813 44.7276 21.206C45.1263 21.622 45.6246 21.83 46.2226 21.83ZM54.0057 23.117C53.4423 23.117 52.9353 23.0173 52.4847 22.818C52.0427 22.61 51.6917 22.3327 51.4317 21.986C51.1717 21.6307 51.033 21.2363 51.0157 20.803H52.5497C52.5757 21.1063 52.7187 21.362 52.9787 21.57C53.2473 21.7693 53.581 21.869 53.9797 21.869C54.3957 21.869 54.7163 21.791 54.9417 21.635C55.1757 21.4703 55.2927 21.2623 55.2927 21.011C55.2927 20.7423 55.1627 20.543 54.9027 20.413C54.6513 20.283 54.2483 20.14 53.6937 19.984C53.1563 19.8367 52.7187 19.6937 52.3807 19.555C52.0427 19.4163 51.748 19.204 51.4967 18.918C51.254 18.632 51.1327 18.255 51.1327 17.787C51.1327 17.4057 51.2453 17.059 51.4707 16.747C51.696 16.4263 52.0167 16.175 52.4327 15.993C52.8573 15.811 53.3427 15.72 53.8887 15.72C54.7033 15.72 55.3577 15.928 55.8517 16.344C56.3543 16.7513 56.623 17.3103 56.6577 18.021H55.1757C55.1497 17.7003 55.0197 17.4447 54.7857 17.254C54.5517 17.0633 54.2353 16.968 53.8367 16.968C53.4467 16.968 53.1477 17.0417 52.9397 17.189C52.7317 17.3363 52.6277 17.5313 52.6277 17.774C52.6277 17.9647 52.697 18.125 52.8357 18.255C52.9743 18.385 53.1433 18.489 53.3427 18.567C53.542 18.6363 53.8367 18.7273 54.2267 18.84C54.7467 18.9787 55.1713 19.1217 55.5007 19.269C55.8387 19.4077 56.129 19.6157 56.3717 19.893C56.6143 20.1703 56.74 20.5387 56.7487 20.998C56.7487 21.4053 56.636 21.7693 56.4107 22.09C56.1853 22.4107 55.8647 22.662 55.4487 22.844C55.0413 23.026 54.5603 23.117 54.0057 23.117ZM60.079 17.046V21.011C60.079 21.2797 60.1397 21.4747 60.261 21.596C60.391 21.7087 60.6077 21.765 60.911 21.765H61.821V23H60.651C59.9837 23 59.4723 22.844 59.117 22.532C58.7617 22.22 58.584 21.713 58.584 21.011V17.046H57.739V15.837H58.584V14.056H60.079V15.837H61.821V17.046H60.079ZM68.0459 16.877C68.2625 16.513 68.5485 16.2313 68.9039 16.032C69.2679 15.824 69.6969 15.72 70.1909 15.72V17.254H69.8139C69.2332 17.254 68.7912 17.4013 68.4879 17.696C68.1932 17.9907 68.0459 18.502 68.0459 19.23V23H66.5639V15.837H68.0459V16.877ZM78.1181 19.243C78.1181 19.5117 78.1008 19.7543 78.0661 19.971H72.5931C72.6365 20.543 72.8488 21.0023 73.2301 21.349C73.6115 21.6957 74.0795 21.869 74.6341 21.869C75.4315 21.869 75.9948 21.5353 76.3241 20.868H77.9231C77.7065 21.5267 77.3121 22.0683 76.7401 22.493C76.1768 22.909 75.4748 23.117 74.6341 23.117C73.9495 23.117 73.3341 22.9653 72.7881 22.662C72.2508 22.35 71.8261 21.9167 71.5141 21.362C71.2108 20.7987 71.0591 20.1487 71.0591 19.412C71.0591 18.6753 71.2065 18.0297 71.5011 17.475C71.8045 16.9117 72.2248 16.4783 72.7621 16.175C73.3081 15.8717 73.9321 15.72 74.6341 15.72C75.3101 15.72 75.9125 15.8673 76.4411 16.162C76.9698 16.4567 77.3815 16.8727 77.6761 17.41C77.9708 17.9387 78.1181 18.5497 78.1181 19.243ZM76.5711 18.775C76.5625 18.229 76.3675 17.7913 75.9861 17.462C75.6048 17.1327 75.1325 16.968 74.5691 16.968C74.0578 16.968 73.6201 17.1327 73.2561 17.462C72.8921 17.7827 72.6755 18.2203 72.6061 18.775H76.5711ZM79.0826 19.412C79.0826 18.6753 79.2299 18.0297 79.5246 17.475C79.8279 16.9117 80.2439 16.4783 80.7726 16.175C81.3012 15.8717 81.9079 15.72 82.5926 15.72C83.4592 15.72 84.1742 15.928 84.7376 16.344C85.3096 16.7513 85.6952 17.3363 85.8946 18.099H84.2956C84.1656 17.7437 83.9576 17.4663 83.6716 17.267C83.3856 17.0677 83.0259 16.968 82.5926 16.968C81.9859 16.968 81.5006 17.1847 81.1366 17.618C80.7812 18.0427 80.6036 18.6407 80.6036 19.412C80.6036 20.1833 80.7812 20.7857 81.1366 21.219C81.5006 21.6523 81.9859 21.869 82.5926 21.869C83.4506 21.869 84.0182 21.492 84.2956 20.738H85.8946C85.6866 21.466 85.2966 22.0467 84.7246 22.48C84.1526 22.9047 83.4419 23.117 82.5926 23.117C81.9079 23.117 81.3012 22.9653 80.7726 22.662C80.2439 22.35 79.8279 21.9167 79.5246 21.362C79.2299 20.7987 79.0826 20.1487 79.0826 19.412ZM90.4785 23.117C89.8025 23.117 89.1915 22.9653 88.6455 22.662C88.0995 22.35 87.6705 21.9167 87.3585 21.362C87.0465 20.7987 86.8905 20.1487 86.8905 19.412C86.8905 18.684 87.0508 18.0383 87.3715 17.475C87.6922 16.9117 88.1298 16.4783 88.6845 16.175C89.2392 15.8717 89.8588 15.72 90.5435 15.72C91.2282 15.72 91.8478 15.8717 92.4025 16.175C92.9572 16.4783 93.3948 16.9117 93.7155 17.475C94.0362 18.0383 94.1965 18.684 94.1965 19.412C94.1965 20.14 94.0318 20.7857 93.7025 21.349C93.3732 21.9123 92.9225 22.35 92.3505 22.662C91.7872 22.9653 91.1632 23.117 90.4785 23.117ZM90.4785 21.83C90.8598 21.83 91.2152 21.739 91.5445 21.557C91.8825 21.375 92.1555 21.102 92.3635 20.738C92.5715 20.374 92.6755 19.932 92.6755 19.412C92.6755 18.892 92.5758 18.4543 92.3765 18.099C92.1772 17.735 91.9128 17.462 91.5835 17.28C91.2542 17.098 90.8988 17.007 90.5175 17.007C90.1362 17.007 89.7808 17.098 89.4515 17.28C89.1308 17.462 88.8752 17.735 88.6845 18.099C88.4938 18.4543 88.3985 18.892 88.3985 19.412C88.3985 20.1833 88.5935 20.7813 88.9835 21.206C89.3822 21.622 89.8805 21.83 90.4785 21.83ZM104.333 15.72C104.896 15.72 105.399 15.837 105.841 16.071C106.291 16.305 106.642 16.6517 106.894 17.111C107.154 17.5703 107.284 18.125 107.284 18.775V23H105.815V18.996C105.815 18.3547 105.654 17.865 105.334 17.527C105.013 17.1803 104.575 17.007 104.021 17.007C103.466 17.007 103.024 17.1803 102.695 17.527C102.374 17.865 102.214 18.3547 102.214 18.996V23H100.745V18.996C100.745 18.3547 100.584 17.865 100.264 17.527C99.9429 17.1803 99.5052 17.007 98.9505 17.007C98.3959 17.007 97.9539 17.1803 97.6245 17.527C97.3039 17.865 97.1435 18.3547 97.1435 18.996V23H95.6615V15.837H97.1435V16.656C97.3862 16.3613 97.6939 16.1317 98.0665 15.967C98.4392 15.8023 98.8379 15.72 99.2625 15.72C99.8345 15.72 100.346 15.8413 100.797 16.084C101.247 16.3267 101.594 16.6777 101.837 17.137C102.053 16.7037 102.391 16.3613 102.851 16.11C103.31 15.85 103.804 15.72 104.333 15.72ZM117.84 15.72C118.404 15.72 118.906 15.837 119.348 16.071C119.799 16.305 120.15 16.6517 120.401 17.111C120.661 17.5703 120.791 18.125 120.791 18.775V23H119.322V18.996C119.322 18.3547 119.162 17.865 118.841 17.527C118.521 17.1803 118.083 17.007 117.528 17.007C116.974 17.007 116.532 17.1803 116.202 17.527C115.882 17.865 115.721 18.3547 115.721 18.996V23H114.252V18.996C114.252 18.3547 114.092 17.865 113.771 17.527C113.451 17.1803 113.013 17.007 112.458 17.007C111.904 17.007 111.462 17.1803 111.132 17.527C110.812 17.865 110.651 18.3547 110.651 18.996V23H109.169V15.837H110.651V16.656C110.894 16.3613 111.202 16.1317 111.574 15.967C111.947 15.8023 112.346 15.72 112.77 15.72C113.342 15.72 113.854 15.8413 114.304 16.084C114.755 16.3267 115.102 16.6777 115.344 17.137C115.561 16.7037 115.899 16.3613 116.358 16.11C116.818 15.85 117.312 15.72 117.84 15.72ZM129.242 19.243C129.242 19.5117 129.225 19.7543 129.19 19.971H123.717C123.76 20.543 123.973 21.0023 124.354 21.349C124.735 21.6957 125.203 21.869 125.758 21.869C126.555 21.869 127.119 21.5353 127.448 20.868H129.047C128.83 21.5267 128.436 22.0683 127.864 22.493C127.301 22.909 126.599 23.117 125.758 23.117C125.073 23.117 124.458 22.9653 123.912 22.662C123.375 22.35 122.95 21.9167 122.638 21.362C122.335 20.7987 122.183 20.1487 122.183 19.412C122.183 18.6753 122.33 18.0297 122.625 17.475C122.928 16.9117 123.349 16.4783 123.886 16.175C124.432 15.8717 125.056 15.72 125.758 15.72C126.434 15.72 127.036 15.8673 127.565 16.162C128.094 16.4567 128.505 16.8727 128.8 17.41C129.095 17.9387 129.242 18.5497 129.242 19.243ZM127.695 18.775C127.686 18.229 127.491 17.7913 127.11 17.462C126.729 17.1327 126.256 16.968 125.693 16.968C125.182 16.968 124.744 17.1327 124.38 17.462C124.016 17.7827 123.799 18.2203 123.73 18.775H127.695ZM134.315 15.72C134.878 15.72 135.381 15.837 135.823 16.071C136.273 16.305 136.624 16.6517 136.876 17.111C137.127 17.5703 137.253 18.125 137.253 18.775V23H135.784V18.996C135.784 18.3547 135.623 17.865 135.303 17.527C134.982 17.1803 134.544 17.007 133.99 17.007C133.435 17.007 132.993 17.1803 132.664 17.527C132.343 17.865 132.183 18.3547 132.183 18.996V23H130.701V15.837H132.183V16.656C132.425 16.3613 132.733 16.1317 133.106 15.967C133.487 15.8023 133.89 15.72 134.315 15.72ZM138.649 19.386C138.649 18.6667 138.796 18.0297 139.091 17.475C139.394 16.9203 139.802 16.4913 140.313 16.188C140.833 15.876 141.409 15.72 142.042 15.72C142.51 15.72 142.969 15.824 143.42 16.032C143.879 16.2313 144.243 16.5 144.512 16.838V13.38H146.007V23H144.512V21.921C144.269 22.2677 143.931 22.5537 143.498 22.779C143.073 23.0043 142.584 23.117 142.029 23.117C141.405 23.117 140.833 22.961 140.313 22.649C139.802 22.3283 139.394 21.8863 139.091 21.323C138.796 20.751 138.649 20.1053 138.649 19.386ZM144.512 19.412C144.512 18.918 144.408 18.489 144.2 18.125C144.001 17.761 143.736 17.4837 143.407 17.293C143.078 17.1023 142.722 17.007 142.341 17.007C141.96 17.007 141.604 17.1023 141.275 17.293C140.946 17.475 140.677 17.748 140.469 18.112C140.27 18.4673 140.17 18.892 140.17 19.386C140.17 19.88 140.27 20.3133 140.469 20.686C140.677 21.0587 140.946 21.3447 141.275 21.544C141.613 21.7347 141.968 21.83 142.341 21.83C142.722 21.83 143.078 21.7347 143.407 21.544C143.736 21.3533 144.001 21.076 144.2 20.712C144.408 20.3393 144.512 19.906 144.512 19.412ZM154.519 19.243C154.519 19.5117 154.501 19.7543 154.467 19.971H148.994C149.037 20.543 149.249 21.0023 149.631 21.349C150.012 21.6957 150.48 21.869 151.035 21.869C151.832 21.869 152.395 21.5353 152.725 20.868H154.324C154.107 21.5267 153.713 22.0683 153.141 22.493C152.577 22.909 151.875 23.117 151.035 23.117C150.35 23.117 149.735 22.9653 149.189 22.662C148.651 22.35 148.227 21.9167 147.915 21.362C147.611 20.7987 147.46 20.1487 147.46 19.412C147.46 18.6753 147.607 18.0297 147.902 17.475C148.205 16.9117 148.625 16.4783 149.163 16.175C149.709 15.8717 150.333 15.72 151.035 15.72C151.711 15.72 152.313 15.8673 152.842 16.162C153.37 16.4567 153.782 16.8727 154.077 17.41C154.371 17.9387 154.519 18.5497 154.519 19.243ZM152.972 18.775C152.963 18.229 152.768 17.7913 152.387 17.462C152.005 17.1327 151.533 16.968 150.97 16.968C150.458 16.968 150.021 17.1327 149.657 17.462C149.293 17.7827 149.076 18.2203 149.007 18.775H152.972ZM155.483 19.386C155.483 18.6667 155.63 18.0297 155.925 17.475C156.228 16.9203 156.636 16.4913 157.147 16.188C157.667 15.876 158.243 15.72 158.876 15.72C159.344 15.72 159.803 15.824 160.254 16.032C160.713 16.2313 161.077 16.5 161.346 16.838V13.38H162.841V23H161.346V21.921C161.103 22.2677 160.765 22.5537 160.332 22.779C159.907 23.0043 159.418 23.117 158.863 23.117C158.239 23.117 157.667 22.961 157.147 22.649C156.636 22.3283 156.228 21.8863 155.925 21.323C155.63 20.751 155.483 20.1053 155.483 19.386ZM161.346 19.412C161.346 18.918 161.242 18.489 161.034 18.125C160.835 17.761 160.57 17.4837 160.241 17.293C159.912 17.1023 159.556 17.007 159.175 17.007C158.794 17.007 158.438 17.1023 158.109 17.293C157.78 17.475 157.511 17.748 157.303 18.112C157.104 18.4673 157.004 18.892 157.004 19.386C157.004 19.88 157.104 20.3133 157.303 20.686C157.511 21.0587 157.78 21.3447 158.109 21.544C158.447 21.7347 158.802 21.83 159.175 21.83C159.556 21.83 159.912 21.7347 160.241 21.544C160.57 21.3533 160.835 21.076 161.034 20.712C161.242 20.3393 161.346 19.906 161.346 19.412Z" fill="black"/>
</svg>
