<svg width="24" height="28" viewBox="0 0 24 28" fill="none" xmlns="http://www.w3.org/2000/svg">
<path d="M23.0174 0H0.98257C0.721987 0 0.472076 0.107015 0.287816 0.297501C0.103556 0.487987 4.00938e-05 0.746341 4.00938e-05 1.01573V19.5697C-0.00147508 19.7408 0.0399781 19.9094 0.120347 20.0589C0.200716 20.2085 0.317249 20.3339 0.458554 20.4229L11.476 27.6278C11.6317 27.7333 11.8138 27.7895 12 27.7895C12.1862 27.7895 12.3683 27.7333 12.524 27.6278L23.5414 20.4229C23.6827 20.3339 23.7993 20.2085 23.8797 20.0589C23.96 19.9094 24.0015 19.7408 24 19.5697V1.01573C24 0.746341 23.8964 0.487987 23.7122 0.297501C23.5279 0.107015 23.278 0 23.0174 0Z" fill="#007BFF"/>
<path d="M7.88055 13.1739L7.29911 16.4777C7.26458 16.6686 7.28699 16.8649 7.36382 17.0444C7.44064 17.2238 7.5688 17.3792 7.73375 17.4929C7.89871 17.6066 8.09386 17.674 8.29709 17.6876C8.50031 17.7012 8.70347 17.6604 8.88353 17.5697L11.9942 16.0215L15.105 17.5697C15.262 17.6469 15.437 17.6849 15.6137 17.6803C15.8438 17.6865 16.0693 17.6182 16.2533 17.4868C16.4174 17.3738 16.5452 17.2194 16.6222 17.0412C16.6992 16.8629 16.7225 16.6678 16.6894 16.4777L16.1079 13.1739L18.6227 10.8377C18.7662 10.7011 18.8668 10.529 18.913 10.3409C18.9592 10.1529 18.9493 9.95626 18.8843 9.77327C18.8235 9.58961 18.7093 9.42601 18.555 9.30129C18.4007 9.17657 18.2126 9.09581 18.0122 9.06828L14.538 8.58445L12.9682 5.58475C12.8676 5.42436 12.725 5.29155 12.5543 5.19932C12.3836 5.10708 12.1906 5.05859 11.9942 5.05859C11.7979 5.05859 11.6049 5.10708 11.4342 5.19932C11.2635 5.29155 11.1209 5.42436 11.0203 5.58475L9.45044 8.58445L5.97633 9.06828C5.77591 9.09581 5.58774 9.17657 5.43345 9.30129C5.27916 9.42601 5.16502 9.58961 5.10417 9.77327C5.0392 9.95626 5.02927 10.1529 5.07549 10.3409C5.12172 10.529 5.22228 10.7011 5.36581 10.8377L7.88055 13.1739Z" fill="white"/>
</svg>
