<svg width="134" height="73" viewBox="0 0 134 73" fill="none" xmlns="http://www.w3.org/2000/svg">
<g clip-path="url(#clip0_0_3038)">
<path d="M37.2598 71.1144C37.2598 71.1144 55.6562 53.6642 94.5374 60.7652C95.027 60.8559 95.4684 60.4518 95.4294 59.946L94.7512 51.1526C94.7488 51.1219 94.7468 51.0964 94.7499 51.0705C94.7798 50.2201 95.1812 35.6741 86.5708 36.4102C86.5458 36.4121 86.5258 36.4137 86.5004 36.4105C85.5391 36.3304 64.4264 34.6642 55.3155 38.6872C55.0919 38.7867 54.8668 38.8658 54.6246 38.9204C52.6242 39.3831 42.4013 42.1556 42.0485 50.422C42.0459 50.453 42.0482 50.4837 42.0506 50.5143L42.602 61.1833C42.648 62.1049 43.9569 62.1941 44.1082 61.2881C44.1159 61.2567 44.1181 61.2205 44.1254 61.184C44.1942 60.7727 43.922 60.3722 43.5189 60.2953L4.05058 52.3607C3.37132 52.2229 3.20543 51.3106 3.78992 50.9365C13.0828 45.1005 58.5578 16.3255 64.5141 8.49037C64.6741 8.28271 64.9227 8.1813 65.1815 8.21274C69.6731 8.82747 108.368 14.3597 126.021 25.4675C126.771 25.939 126.801 27.0469 126.088 27.5697C120.221 31.872 98.7257 47.5411 96.8416 47.6864C96.8416 47.6864 95.0638 48.1011 91.8452 45.0239C90.2333 43.4829 88.3857 42.2119 86.4079 41.208C84.2678 40.1189 81.6862 39.0433 79.7821 38.9949C79.0166 38.9768 78.7182 39.997 79.3592 40.4204C82.1494 42.2457 88.0266 46.2898 88.2572 48.107C88.2572 48.107 89.4017 54.6028 80.3128 55.3912C79.1891 55.4882 78.0543 54.9846 77.4799 53.9907C76.9572 53.0801 77.1275 52.0287 80.2925 51.7384C80.4324 51.7276 80.5785 51.7317 80.7162 51.7571C82.6723 52.0894 97.4586 54.9683 104.144 67.4" stroke="#CCE5FF" stroke-width="2" stroke-miterlimit="10"/>
<path d="M115.406 40.4156L115.252 39.3327L113.468 25.459C112.883 21.9782 110.137 18.9571 108.213 17.2191C107.818 16.8641 108.18 16.2091 108.685 16.3706C113.969 18.0653 125.972 22.2074 129.918 23.5735C130.352 23.7251 130.365 24.346 129.94 24.5124L128.433 25.1067C127.332 25.6285 110.509 19.4835 110.509 19.4835C109.577 19.0722 109.062 19.3689 108.799 19.6668C108.637 19.8489 108.628 20.122 108.778 20.3109C110.055 21.9394 111.258 27.6238 111.297 27.811C111.297 27.8161 111.297 27.8161 111.298 27.8263C111.955 30.2119 112.758 34.6936 113.15 36.9763C113.323 37.9807 113.664 38.9413 114.169 39.8172C115.586 42.2932 117.221 44.5829 117.221 44.5829C118.691 46.3095 119.96 52.3281 120.668 56.3648C120.769 56.9482 119.973 57.1946 119.74 56.6523C119.533 56.1749 118.838 56.3004 118.803 56.8171L118.575 60.1859C118.54 60.7077 117.84 60.8285 117.638 60.3507L116.576 57.8626C116.404 57.4545 115.836 57.4622 115.677 57.8703C115.399 58.5702 115.028 59.4315 114.721 60.1439C114.52 60.6014 113.849 60.5041 113.79 60.005C113.303 55.8381 114.467 48.1774 114.762 46.3402C114.8 46.1162 114.683 45.894 114.474 45.8021C113.694 45.4614 111.927 44.4515 112.448 42.4119C112.77 41.169 113.841 40.2639 115.085 40.0909C116.02 39.9623 117.137 40.1125 117.92 41.1932C118.392 41.8455 118.505 42.7158 118.205 43.4636C118.121 43.6757 118.013 43.8433 117.88 43.8741" stroke="#99CAFF" stroke-width="1.59213" stroke-miterlimit="10"/>
</g>
<defs>
<clipPath id="clip0_0_3038">
<rect width="129.066" height="62.3874" fill="white" transform="translate(0.015625 10.6577) rotate(-4.41041)"/>
</clipPath>
</defs>
</svg>
