<svg width="24" height="25" viewBox="0 0 24 25" fill="none" xmlns="http://www.w3.org/2000/svg">
<circle cx="12" cy="12.0015" r="12" fill="black"/>
<path d="M16.5124 8.98895C16.3893 8.98872 16.2686 9.02542 16.1638 9.09493C16.059 9.16444 15.9742 9.26402 15.919 9.38251C15.8637 9.501 15.8402 9.63372 15.8511 9.7658C15.8619 9.89787 15.9067 10.0241 15.9804 10.1303L14.6228 11.2148C14.5305 11.2893 14.425 11.3426 14.3129 11.3715C14.2007 11.4005 14.0843 11.4044 13.9707 11.3832C13.8571 11.3619 13.7487 11.3158 13.6522 11.2478C13.5558 11.1797 13.4732 11.0912 13.4096 10.9875L12.3823 9.31999C12.5008 9.23511 12.5908 9.11139 12.639 8.96713C12.6871 8.82287 12.6909 8.66574 12.6498 8.51898C12.6086 8.37222 12.5247 8.24362 12.4105 8.15222C12.2962 8.06082 12.1577 8.01147 12.0153 8.01147C11.873 8.01147 11.7345 8.06082 11.6202 8.15222C11.506 8.24362 11.4221 8.37222 11.3809 8.51898C11.3398 8.66574 11.3435 8.82287 11.3917 8.96713C11.4399 9.11139 11.5299 9.23511 11.6484 9.31999L10.621 10.9875C10.5575 11.0912 10.4749 11.1797 10.3785 11.2478C10.282 11.3158 10.1736 11.3619 10.06 11.3832C9.9464 11.4044 9.82996 11.4005 9.71783 11.3715C9.60569 11.3426 9.50023 11.2893 9.40792 11.2148L8.05032 10.1303C8.13909 10.0012 8.18483 9.84358 8.18015 9.68298C8.17547 9.52239 8.12064 9.36819 8.02454 9.24532C7.92843 9.12245 7.79666 9.0381 7.65053 9.0059C7.50441 8.97371 7.35247 8.99555 7.2193 9.0679C7.08613 9.14025 6.9795 9.25888 6.91667 9.40459C6.85383 9.55031 6.83846 9.71461 6.87304 9.8709C6.90762 10.0272 6.99012 10.1664 7.10721 10.2659C7.22431 10.3654 7.36914 10.4195 7.51829 10.4193C7.55111 10.4219 7.58407 10.4219 7.6169 10.4193L8.15352 14.2732C8.17861 14.4397 8.25796 14.5911 8.37732 14.7002C8.49669 14.8093 8.64825 14.869 8.8048 14.8686H15.2259C15.3842 14.8693 15.5374 14.8084 15.6574 14.6973C15.7775 14.5861 15.8563 14.432 15.8795 14.2634L16.4161 10.4095C16.4489 10.412 16.4819 10.412 16.5147 10.4095C16.684 10.3987 16.8431 10.3187 16.9595 10.1858C17.0759 10.0528 17.1407 9.87699 17.1407 9.69426C17.1407 9.51153 17.0759 9.33571 16.9595 9.20276C16.8431 9.06982 16.684 8.98979 16.5147 8.97907L16.5124 8.98895Z" fill="#FFE999"/>
</svg>
