<svg width="32" height="32" viewBox="0 0 32 32" fill="none" xmlns="http://www.w3.org/2000/svg">
<path d="M16 0C14.7327 0 13.4463 1.54701 12.2222 1.875C10.9981 2.20299 9.09749 1.50525 8 2.13889C6.90251 2.77252 6.56276 4.77057 5.66667 5.66666C4.77057 6.56275 2.77252 6.90253 2.13889 7.99999C1.50525 9.0975 2.20299 10.9981 1.875 12.2222C1.54701 13.4463 0 14.7327 0 16C0 17.2673 1.54701 18.5537 1.875 19.7778C2.20299 21.0018 1.50525 22.9025 2.13889 24C2.77252 25.0975 4.77057 25.4373 5.66667 26.3333C6.56276 27.2294 6.90251 29.2275 8 29.8611C9.09749 30.4948 10.9981 29.797 12.2222 30.125C13.4463 30.453 14.7327 32 16 32C17.2673 32 18.5537 30.453 19.7778 30.125C21.0019 29.797 22.9025 30.4948 24 29.8611C25.0975 29.2275 25.4372 27.2294 26.3333 26.3333C27.2294 25.4373 29.2275 25.0975 29.8611 24C30.4948 22.9025 29.797 21.0018 30.125 19.7778C30.453 18.5537 32 17.2673 32 16C32 14.7327 30.453 13.4463 30.125 12.2222C29.797 10.9981 30.4948 9.0975 29.8611 7.99999C29.2275 6.90253 27.2294 6.56275 26.3333 5.66666C25.4372 4.77057 25.0975 2.77252 24 2.13889C22.9025 1.50525 21.0019 2.20299 19.7778 1.875C18.5537 1.54701 17.2673 0 16 0Z" fill="white"/>
<path d="M13.3333 9.32812V11.3281M18.6667 9.32812V11.3281M10.3333 14.0548H21.6667M22 13.6615V19.3281C22 21.3281 21 22.6614 18.6667 22.6614H13.3333C11 22.6614 10 21.3281 10 19.3281V13.6615C10 11.6615 11 10.3281 13.3333 10.3281H18.6667C21 10.3281 22 11.6615 22 13.6615Z" stroke="#007BFF" stroke-miterlimit="10" stroke-linecap="round" stroke-linejoin="round"/>
<path d="M18.4653 17.1328H18.4713M18.4653 19.1328H18.4713M15.9986 17.1328H16.0053M15.9986 19.1328H16.0053M13.5312 17.1328H13.5379M13.5312 19.1328H13.5379" stroke="#007BFF" stroke-linecap="round" stroke-linejoin="round"/>
</svg>
