<svg width="25" height="24" viewBox="0 0 25 24" fill="none" xmlns="http://www.w3.org/2000/svg">
<mask id="mask0_2305_13066" style="mask-type:alpha" maskUnits="userSpaceOnUse" x="0" y="0" width="25" height="24">
<rect x="0.5" width="24" height="24" fill="#D9D9D9"/>
</mask>
<g mask="url(#mask0_2305_13066)">
<path d="M12.5 15.4115C12.3795 15.4115 12.2673 15.3923 12.1634 15.3538C12.0596 15.3154 11.9609 15.2493 11.8673 15.1557L8.7577 12.0462C8.60898 11.8974 8.53559 11.7234 8.53753 11.5241C8.53944 11.3247 8.61283 11.1475 8.7577 10.9923C8.91283 10.8372 9.09103 10.7571 9.2923 10.752C9.49358 10.7468 9.67179 10.8218 9.82692 10.977L11.75 12.9V5.25C11.75 5.03718 11.8218 4.85898 11.9654 4.7154C12.109 4.5718 12.2872 4.5 12.5 4.5C12.7128 4.5 12.891 4.5718 13.0346 4.7154C13.1782 4.85898 13.2499 5.03718 13.2499 5.25V12.9L15.173 10.977C15.3217 10.8282 15.4983 10.7548 15.7028 10.7568C15.9073 10.7587 16.0871 10.8372 16.2422 10.9923C16.3871 11.1475 16.4621 11.3231 16.4672 11.5193C16.4724 11.7154 16.3974 11.891 16.2422 12.0462L13.1327 15.1557C13.0391 15.2493 12.9403 15.3154 12.8365 15.3538C12.7327 15.3923 12.6205 15.4115 12.5 15.4115ZM6.8077 19.5C6.30257 19.5 5.875 19.325 5.525 18.975C5.175 18.625 5 18.1974 5 17.6923V15.7307C5 15.5179 5.0718 15.3397 5.2154 15.1961C5.35898 15.0525 5.53718 14.9808 5.75 14.9808C5.96282 14.9808 6.14102 15.0525 6.2846 15.1961C6.42818 15.3397 6.49997 15.5179 6.49997 15.7307V17.6923C6.49997 17.7692 6.53202 17.8397 6.59612 17.9038C6.66024 17.9679 6.73077 18 6.8077 18H18.1922C18.2692 18 18.3397 17.9679 18.4038 17.9038C18.4679 17.8397 18.5 17.7692 18.5 17.6923V15.7307C18.5 15.5179 18.5718 15.3397 18.7154 15.1961C18.8589 15.0525 19.0371 14.9808 19.25 14.9808C19.4628 14.9808 19.641 15.0525 19.7845 15.1961C19.9281 15.3397 20 15.5179 20 15.7307V17.6923C20 18.1974 19.825 18.625 19.475 18.975C19.125 19.325 18.6974 19.5 18.1922 19.5H6.8077Z" fill="#1C1B1F"/>
</g>
</svg>
