<svg width="8" height="13" viewBox="0 0 8 13" fill="none" xmlns="http://www.w3.org/2000/svg">
<path d="M7.64008 6.66671C7.64008 6.80208 7.61815 6.92807 7.57429 7.0447C7.53044 7.16134 7.45516 7.27222 7.34847 7.37734L2.2246 12.4253C2.06675 12.5808 1.86834 12.6604 1.62935 12.6639C1.39037 12.6676 1.1883 12.588 1.02313 12.4253C0.857971 12.2625 0.775391 12.0653 0.775391 11.8334C0.775391 11.6016 0.857971 11.4043 1.02313 11.2416L5.66688 6.66671L1.02313 2.09179C0.865286 1.93629 0.784529 1.74081 0.780862 1.50537C0.777214 1.26995 0.857971 1.07088 1.02313 0.908163C1.1883 0.74543 1.38855 0.664062 1.62388 0.664062C1.8592 0.664062 2.05944 0.74543 2.2246 0.908163L7.34847 5.95609C7.45516 6.0612 7.53044 6.17208 7.57429 6.28873C7.61815 6.40535 7.64008 6.53135 7.64008 6.66671Z" fill="#007BFF"/>
</svg>
