<svg width="19" height="17" viewBox="0 0 19 17" fill="none" xmlns="http://www.w3.org/2000/svg">
<path d="M8.99923 16.5932C8.84774 16.5932 8.70004 16.574 8.55613 16.5355C8.41223 16.497 8.27211 16.4393 8.13578 16.3624L3.44348 13.8259C3.14861 13.6618 2.91753 13.4404 2.75023 13.1617C2.58291 12.883 2.49925 12.5705 2.49925 12.224V7.88556L0.493527 6.78173C0.329427 6.69455 0.210518 6.58237 0.136802 6.44521C0.0630849 6.30802 0.0230182 6.15738 0.0166016 5.99328C0.0166016 5.82697 0.0550598 5.67577 0.131977 5.53971C0.20891 5.40364 0.329427 5.29201 0.493527 5.20483L8.1354 1.04261C8.27105 0.967207 8.41048 0.910657 8.55368 0.872957C8.69686 0.835257 8.84538 0.816406 8.99923 0.816406C9.15308 0.816406 9.30155 0.835631 9.44465 0.874081C9.58777 0.912548 9.72711 0.970241 9.86268 1.04716L18.4838 5.73751C18.6376 5.82084 18.7556 5.93356 18.8376 6.07566C18.9197 6.21774 18.9607 6.37105 18.9607 6.53558V12.4356C18.9607 12.648 18.8888 12.8262 18.745 12.9699C18.6012 13.1137 18.423 13.1855 18.2104 13.1855C17.9978 13.1855 17.8197 13.1137 17.6761 12.9699C17.5325 12.8262 17.4607 12.648 17.4607 12.4356V6.82403L15.4992 7.88556V12.224C15.4992 12.5705 15.4155 12.883 15.2482 13.1617C15.0809 13.4404 14.8498 13.6618 14.555 13.8259L9.86268 16.3624C9.72635 16.4393 9.58623 16.497 9.44233 16.5355C9.29841 16.574 9.15071 16.5932 8.99923 16.5932ZM8.88383 9.63558C8.92871 9.66123 8.96878 9.67406 9.00403 9.67406C9.03929 9.67406 9.07936 9.66123 9.12423 9.63558L15.8396 5.99328L9.12423 2.36061C9.07936 2.33496 9.03929 2.32213 9.00403 2.32213C8.96878 2.32213 8.92871 2.33496 8.88383 2.36061L2.15885 5.99328L8.88383 9.63558ZM8.87423 15.0644C8.91909 15.09 8.96076 15.1029 8.99923 15.1029C9.03769 15.1029 9.07936 15.09 9.12423 15.0644L13.855 12.5086C13.9063 12.4766 13.9431 12.4397 13.9656 12.398C13.988 12.3564 13.9992 12.3035 13.9992 12.2394V8.68556L9.87808 10.949C9.74089 11.0259 9.59859 11.082 9.45115 11.1173C9.30372 11.1525 9.15308 11.1702 8.99923 11.1702C8.84538 11.1702 8.69474 11.1525 8.5473 11.1173C8.39987 11.082 8.25756 11.0259 8.12038 10.949L3.99923 8.68556V12.2394C3.99923 12.2907 4.01044 12.3403 4.03288 12.3884C4.05533 12.4365 4.09219 12.4766 4.14348 12.5086L8.87423 15.0644Z" fill="#52565B"/>
</svg>
