<svg width="22" height="23" viewBox="0 0 22 23" fill="none" xmlns="http://www.w3.org/2000/svg">
<path d="M11.5151 15.5922H6.88447C4.56914 15.5922 3.7998 14.395 3.7998 13.1922V8.39219C3.7998 6.59076 4.56914 5.99219 6.88447 5.99219H11.5151C13.8305 5.99219 14.5998 6.59076 14.5998 8.39219V13.1922C14.5998 14.9936 13.8231 15.5922 11.5151 15.5922Z" stroke="#52565B" stroke-width="1.02883" stroke-linecap="round" stroke-linejoin="round"/>
<path d="M16.8504 14.8076L14.7911 13.3631V8.68891L16.8504 7.24443C17.8579 6.54071 18.6875 6.97035 18.6875 8.20742V13.852C18.6875 15.0891 17.8579 15.5187 16.8504 14.8076ZM10.9109 11.3945C11.2056 11.3945 11.4883 11.2775 11.6966 11.0691C11.905 10.8607 12.0221 10.5781 12.0221 10.2834C12.0221 9.9887 11.905 9.70608 11.6966 9.4977C11.4883 9.28932 11.2056 9.17225 10.9109 9.17225C10.6163 9.17225 10.3336 9.28932 10.1252 9.4977C9.91687 9.70608 9.7998 9.9887 9.7998 10.2834C9.7998 10.5781 9.91687 10.8607 10.1252 11.0691C10.3336 11.2775 10.6163 11.3945 10.9109 11.3945Z" stroke="#52565B" stroke-width="1.02883" stroke-linecap="round" stroke-linejoin="round"/>
</svg>
