<svg width="18" height="19" viewBox="0 0 18 19" fill="none" xmlns="http://www.w3.org/2000/svg">
<mask id="mask0_22_123038" style="mask-type:alpha" maskUnits="userSpaceOnUse" x="0" y="0" width="18" height="19">
<rect y="0.167969" width="18" height="17.942" fill="#D9D9D9"/>
</mask>
<g mask="url(#mask0_22_123038)">
<path d="M9.57643 11.5962C10.9708 11.5962 12.1011 10.4659 12.1011 9.07155C12.1011 7.67721 10.9708 6.54688 9.57643 6.54688C8.18209 6.54688 7.05176 7.67721 7.05176 9.07155C7.05176 10.4659 8.18209 11.5962 9.57643 11.5962Z" fill="white"/>
<path d="M6.72257 5.5023C6.62796 5.40826 6.49998 5.35547 6.36659 5.35547C6.23319 5.35547 6.10521 5.40826 6.01061 5.5023C5.064 6.44919 4.53223 7.73329 4.53223 9.07219C4.53223 10.4111 5.064 11.6952 6.01061 12.6421C6.10466 12.7354 6.2316 12.788 6.36406 12.7885C6.43052 12.7889 6.49639 12.7762 6.55791 12.751C6.61943 12.7259 6.67539 12.6889 6.72257 12.6421C6.76989 12.5951 6.80746 12.5393 6.83309 12.4778C6.85873 12.4162 6.87193 12.3502 6.87193 12.2836C6.87193 12.2169 6.85873 12.1509 6.83309 12.0894C6.80746 12.0279 6.76989 11.972 6.72257 11.9251C5.96713 11.1678 5.54289 10.1418 5.54289 9.07219C5.54289 8.00255 5.96713 6.97658 6.72257 6.21931C6.76989 6.17237 6.80746 6.11652 6.83309 6.05499C6.85873 5.99346 6.87193 5.92746 6.87193 5.8608C6.87193 5.79415 6.85873 5.72815 6.83309 5.66662C6.80746 5.60509 6.76989 5.54924 6.72257 5.5023Z" fill="white"/>
<path d="M13.1435 5.5023C13.0489 5.40826 12.921 5.35547 12.7876 5.35547C12.6542 5.35547 12.5262 5.40826 12.4316 5.5023C12.3843 5.54924 12.3467 5.60509 12.3211 5.66662C12.2954 5.72815 12.2822 5.79415 12.2822 5.8608C12.2822 5.92746 12.2954 5.99346 12.3211 6.05499C12.3467 6.11652 12.3843 6.17237 12.4316 6.21931C13.187 6.97658 13.6113 8.00255 13.6113 9.07219C13.6113 10.1418 13.187 11.1678 12.4316 11.9251C12.3843 11.972 12.3467 12.0279 12.3211 12.0894C12.2954 12.1509 12.2822 12.2169 12.2822 12.2836C12.2822 12.3502 12.2954 12.4162 12.3211 12.4778C12.3467 12.5393 12.3843 12.5951 12.4316 12.6421C12.4788 12.6889 12.5347 12.7259 12.5962 12.751C12.6578 12.7762 12.7236 12.7889 12.7901 12.7885C12.9226 12.788 13.0495 12.7354 13.1435 12.6421C14.0902 11.6952 14.6219 10.4111 14.6219 9.07219C14.6219 7.73329 14.0902 6.44919 13.1435 5.5023Z" fill="white"/>
<path d="M3.51722 9.07314C3.51543 8.27732 3.67161 7.48906 3.9767 6.75405C4.2818 6.01904 4.72975 5.3519 5.29459 4.79129C5.38967 4.69621 5.44309 4.56725 5.44309 4.43278C5.44309 4.29832 5.38967 4.16936 5.29459 4.07428C5.19951 3.9792 5.07055 3.92578 4.93608 3.92578C4.80162 3.92578 4.67266 3.9792 4.57758 4.07428C3.92108 4.73071 3.40031 5.51004 3.04501 6.36775C2.68971 7.22545 2.50684 8.14475 2.50684 9.07314C2.50684 10.0015 2.68971 10.9208 3.04501 11.7785C3.40031 12.6362 3.92108 13.4156 4.57758 14.072C4.62452 14.1193 4.68037 14.1569 4.7419 14.1825C4.80343 14.2082 4.86943 14.2214 4.93608 14.2214C5.00274 14.2214 5.06874 14.2082 5.13027 14.1825C5.1918 14.1569 5.24765 14.1193 5.29459 14.072C5.34192 14.0251 5.37948 13.9692 5.40511 13.9077C5.43075 13.8461 5.44395 13.7801 5.44395 13.7135C5.44395 13.6468 5.43075 13.5808 5.40511 13.5193C5.37948 13.4578 5.34192 13.4019 5.29459 13.355C4.72975 12.7944 4.2818 12.1272 3.9767 11.3922C3.67161 10.6572 3.51543 9.86895 3.51722 9.07314Z" fill="white"/>
<path d="M14.5763 4.07428C14.5292 4.0272 14.4734 3.98985 14.4118 3.96437C14.3503 3.9389 14.2844 3.92578 14.2178 3.92578C14.1512 3.92578 14.0853 3.9389 14.0238 3.96437C13.9623 3.98985 13.9064 4.0272 13.8593 4.07428C13.8122 4.12136 13.7749 4.17725 13.7494 4.23876C13.7239 4.30027 13.7108 4.3662 13.7108 4.43278C13.7108 4.49936 13.7239 4.56529 13.7494 4.6268C13.7749 4.68832 13.8122 4.74421 13.8593 4.79129C14.4242 5.35421 14.8724 6.0231 15.1782 6.75961C15.484 7.49612 15.6415 8.28576 15.6415 9.08324C15.6415 9.88071 15.484 10.6703 15.1782 11.4069C14.8724 12.1434 14.4242 12.8123 13.8593 13.3752C13.812 13.4221 13.7744 13.478 13.7488 13.5395C13.7232 13.601 13.71 13.667 13.71 13.7337C13.71 13.8003 13.7232 13.8663 13.7488 13.9279C13.7744 13.9894 13.812 14.0453 13.8593 14.0922C13.9063 14.1395 13.9621 14.1771 14.0236 14.2027C14.0852 14.2284 14.1512 14.2416 14.2178 14.2416C14.2845 14.2416 14.3505 14.2284 14.412 14.2027C14.4735 14.1771 14.5294 14.1395 14.5763 14.0922C15.2328 13.4358 15.7536 12.6564 16.1089 11.7987C16.4642 10.941 16.6471 10.0217 16.6471 9.09334C16.6471 8.16495 16.4642 7.24565 16.1089 6.38794C15.7536 5.53023 15.2328 4.75091 14.5763 4.09448V4.07428Z" fill="white"/>
</g>
</svg>
