<svg width="20" height="21" viewBox="0 0 20 21" fill="none" xmlns="http://www.w3.org/2000/svg">
<mask id="mask0_137_804" style="mask-type:alpha" maskUnits="userSpaceOnUse" x="0" y="0" width="20" height="21">
<rect y="0.00146484" width="20" height="20" fill="#D9D9D9"/>
</mask>
<g mask="url(#mask0_137_804)">
<path d="M10.001 16.2627C11.6313 14.8033 12.8789 13.4035 13.7438 12.0632C14.6086 10.7229 15.041 9.54903 15.041 8.54155C15.041 7.02233 14.5584 5.7734 13.5931 4.79476C12.6278 3.81612 11.4305 3.3268 10.001 3.3268C8.57149 3.3268 7.37411 3.81612 6.40883 4.79476C5.44356 5.7734 4.96092 7.02233 4.96092 8.54155C4.96092 9.54903 5.39334 10.7229 6.25819 12.0632C7.12305 13.4035 8.37065 14.8033 10.001 16.2627ZM10.001 17.4518C9.83859 17.4518 9.6762 17.4237 9.51381 17.3677C9.35142 17.3116 9.20452 17.2247 9.0731 17.1072C8.32526 16.4181 7.62548 15.7085 6.97377 14.9783C6.32206 14.248 5.75556 13.5181 5.27425 12.7884C4.79294 12.0587 4.41207 11.3354 4.13162 10.6185C3.85117 9.9016 3.71094 9.20928 3.71094 8.54155C3.71094 6.61849 4.333 5.06161 5.57712 3.8709C6.82124 2.68019 8.29585 2.08484 10.001 2.08484C11.7061 2.08484 13.1807 2.68019 14.4248 3.8709C15.669 5.06161 16.291 6.61849 16.291 8.54155C16.291 9.20928 16.1508 9.90026 15.8703 10.6145C15.5899 11.3287 15.2103 12.052 14.7317 12.7844C14.2531 13.5167 13.6879 14.2467 13.0362 14.9743C12.3845 15.7018 11.6847 16.4101 10.9369 17.0992C10.8074 17.2167 10.6602 17.3049 10.4954 17.3637C10.3306 17.4224 10.1658 17.4518 10.001 17.4518ZM10.0024 9.8893C10.417 9.8893 10.7715 9.74166 11.0659 9.44638C11.3602 9.1511 11.5074 8.79614 11.5074 8.38148C11.5074 7.96683 11.3597 7.61234 11.0645 7.31801C10.7692 7.02367 10.4142 6.87651 9.99956 6.87651C9.58491 6.87651 9.23042 7.02414 8.93608 7.31942C8.64175 7.6147 8.49458 7.96967 8.49458 8.38432C8.49458 8.79897 8.64222 9.15346 8.9375 9.4478C9.23278 9.74213 9.58774 9.8893 10.0024 9.8893Z" fill="#007BFF"/>
</g>
</svg>
