<svg width="19" height="3" viewBox="0 0 19 3" fill="none" xmlns="http://www.w3.org/2000/svg">
<path d="M18.15 0.948934C18.2001 1.06996 18.2258 1.19967 18.2257 1.33064C18.2257 1.86804 17.7731 2.32059 17.2357 2.32059L10.3202 2.32059H8.32616L1.41065 2.32059C1.27972 2.32059 1.15007 2.2948 1.02911 2.24469C0.908147 2.19459 0.798236 2.12115 0.705654 2.02856C0.613072 1.93598 0.539632 1.82607 0.489527 1.70511C0.439422 1.58414 0.413634 1.45449 0.413634 1.32356C0.413633 1.19263 0.439422 1.06299 0.489527 0.942022C0.539631 0.821058 0.613072 0.711147 0.705654 0.618565C0.798236 0.525982 0.908146 0.452543 1.02911 0.402438C1.15007 0.352333 1.27972 0.326544 1.41065 0.326544L8.32616 0.326545H10.3202L17.2286 0.333615C17.3596 0.333481 17.4893 0.359178 17.6103 0.409236C17.7314 0.459293 17.8413 0.532728 17.9339 0.625336C18.0265 0.717945 18.1 0.827909 18.15 0.948934Z" fill="black"/>
</svg>
