<svg width="32" height="32" viewBox="0 0 32 32" fill="none" xmlns="http://www.w3.org/2000/svg">
<path d="M16 0C14.7327 0 13.4463 1.54701 12.2222 1.875C10.9981 2.20299 9.09748 1.50525 7.99999 2.13889C6.9025 2.77252 6.56275 4.77057 5.66666 5.66666C4.77057 6.56275 2.77252 6.90253 2.13889 7.99999C1.50525 9.0975 2.20299 10.9981 1.875 12.2222C1.54701 13.4463 0 14.7327 0 16C0 17.2673 1.54701 18.5537 1.875 19.7778C2.20299 21.0018 1.50525 22.9025 2.13889 24C2.77252 25.0975 4.77057 25.4373 5.66666 26.3333C6.56275 27.2294 6.9025 29.2275 7.99999 29.8611C9.09748 30.4948 10.9981 29.797 12.2222 30.125C13.4463 30.453 14.7327 32 16 32C17.2673 32 18.5537 30.453 19.7778 30.125C21.0018 29.797 22.9025 30.4948 24 29.8611C25.0975 29.2275 25.4372 27.2294 26.3333 26.3333C27.2294 25.4373 29.2274 25.0975 29.8611 24C30.4947 22.9025 29.797 21.0018 30.125 19.7778C30.453 18.5537 32 17.2673 32 16C32 14.7327 30.453 13.4463 30.125 12.2222C29.797 10.9981 30.4947 9.0975 29.8611 7.99999C29.2274 6.90253 27.2294 6.56275 26.3333 5.66666C25.4372 4.77057 25.0975 2.77252 24 2.13889C22.9025 1.50525 21.0018 2.20299 19.7778 1.875C18.5537 1.54701 17.2673 0 16 0Z" fill="#007BFF"/>
<path d="M13.7031 14.6875H12.2031M14.2031 16.6875H12.2031" stroke="white" stroke-width="1.4" stroke-linecap="round" stroke-linejoin="round"/>
<path d="M16.2448 11.9866V21.9866M22.9114 19.4866V11.44C22.9114 10.64 22.2581 10.0466 21.4648 10.1133H21.4248C20.0248 10.2333 17.8981 10.9466 16.7115 11.6933L16.5981 11.7666C16.4048 11.8866 16.0848 11.8866 15.8915 11.7666L15.7248 11.6666C14.5381 10.9266 12.4181 10.22 11.0181 10.1066C10.2248 10.04 9.57812 10.64 9.57812 11.4333V19.4866C9.57812 20.1266 10.0981 20.7266 10.7381 20.8066L10.9315 20.8333C12.3781 21.0266 14.6115 21.7599 15.8915 22.4599L15.9181 22.4733C16.0981 22.5733 16.3848 22.5733 16.5581 22.4733C17.8381 21.7666 20.0781 21.0266 21.5314 20.8333L21.7514 20.8066C22.3914 20.7266 22.9114 20.1266 22.9114 19.4866Z" stroke="white" stroke-width="1.4" stroke-linecap="round" stroke-linejoin="round"/>
</svg>
