<svg width="32" height="32" viewBox="0 0 32 32" fill="none" xmlns="http://www.w3.org/2000/svg">
<path d="M16 0C14.7327 0 13.4463 1.54701 12.2222 1.875C10.9981 2.20299 9.09749 1.50525 8 2.13889C6.90251 2.77252 6.56276 4.77057 5.66667 5.66666C4.77057 6.56275 2.77252 6.90253 2.13889 7.99999C1.50525 9.0975 2.20299 10.9981 1.875 12.2222C1.54701 13.4463 0 14.7327 0 16C0 17.2673 1.54701 18.5537 1.875 19.7778C2.20299 21.0018 1.50525 22.9025 2.13889 24C2.77252 25.0975 4.77057 25.4373 5.66667 26.3333C6.56276 27.2294 6.90251 29.2275 8 29.8611C9.09749 30.4948 10.9981 29.797 12.2222 30.125C13.4463 30.453 14.7327 32 16 32C17.2673 32 18.5537 30.453 19.7778 30.125C21.0019 29.797 22.9025 30.4948 24 29.8611C25.0975 29.2275 25.4372 27.2294 26.3333 26.3333C27.2294 25.4373 29.2275 25.0975 29.8611 24C30.4948 22.9025 29.797 21.0018 30.125 19.7778C30.453 18.5537 32 17.2673 32 16C32 14.7327 30.453 13.4463 30.125 12.2222C29.797 10.9981 30.4948 9.0975 29.8611 7.99999C29.2275 6.90253 27.2294 6.56275 26.3333 5.66666C25.4372 4.77057 25.0975 2.77252 24 2.13889C22.9025 1.50525 21.0019 2.20299 19.7778 1.875C18.5537 1.54701 17.2673 0 16 0Z" fill="white"/>
<path d="M18.9392 10.6619C20.2325 10.6619 21.2725 11.7086 21.2725 12.9953C21.2725 14.2553 20.2725 15.2819 19.0258 15.3286C18.9682 15.3219 18.9101 15.3219 18.8525 15.3286M20.2258 21.3286C20.7058 21.2286 21.1592 21.0353 21.5325 20.7486C22.5725 19.9686 22.5725 18.6819 21.5325 17.9019C21.1658 17.6219 20.7192 17.4353 20.2458 17.3286M14.1058 15.2419C14.0392 15.2353 13.9592 15.2353 13.8858 15.2419C13.1206 15.216 12.3956 14.8932 11.8643 14.3419C11.3329 13.7907 11.037 13.0542 11.0392 12.2886C11.0392 10.6553 12.3592 9.32861 13.9992 9.32861C14.7833 9.31446 15.541 9.6124 16.1055 10.1569C16.67 10.7014 16.995 11.4478 17.0092 12.2319C17.0233 13.0161 16.7254 13.7738 16.1809 14.3382C15.6364 14.9027 14.89 15.2278 14.1058 15.2419ZM10.7725 17.7019C9.15917 18.7819 9.15917 20.5419 10.7725 21.6153C12.6058 22.8419 15.6125 22.8419 17.4458 21.6153C19.0592 20.5353 19.0592 18.7753 17.4458 17.7019C15.6192 16.4819 12.6125 16.4819 10.7725 17.7019Z" stroke="#007BFF" stroke-linecap="round" stroke-linejoin="round"/>
<path d="M18.9392 10.6719C20.2325 10.6719 21.2725 11.7185 21.2725 13.0052C21.2725 14.2652 20.2725 15.2919 19.0258 15.3385C18.9682 15.3319 18.9101 15.3319 18.8525 15.3385M20.2258 21.3385C20.7058 21.2385 21.1592 21.0452 21.5325 20.7585C22.5725 19.9785 22.5725 18.6919 21.5325 17.9119C21.1658 17.6319 20.7192 17.4452 20.2458 17.3385M10.7725 17.7119C9.15917 18.7919 9.15917 20.5519 10.7725 21.6252C12.6058 22.8519 15.6125 22.8519 17.4458 21.6252C19.0592 20.5452 19.0592 18.7852 17.4458 17.7119C15.6192 16.4919 12.6125 16.4919 10.7725 17.7119Z" stroke="#007BFF" stroke-width="1.375" stroke-linecap="round" stroke-linejoin="round"/>
<path d="M18.9382 10.6719C20.2316 10.6719 21.2716 11.7185 21.2716 13.0052C21.2716 14.2652 20.2716 15.2919 19.0249 15.3385C18.9673 15.3319 18.9091 15.3319 18.8516 15.3385M20.2249 21.3385C20.7049 21.2385 21.1582 21.0452 21.5316 20.7585C22.5716 19.9785 22.5716 18.6919 21.5316 17.9119C21.1649 17.6319 20.7182 17.4452 20.2449 17.3385" stroke="#007BFF" stroke-width="1.375" stroke-linecap="round" stroke-linejoin="round"/>
</svg>
