<svg width="19" height="19" viewBox="0 0 19 19" fill="none" xmlns="http://www.w3.org/2000/svg">
<path d="M18.15 8.94112C18.2001 9.06215 18.2258 9.19185 18.2257 9.32282C18.2257 9.86022 17.7731 10.3128 17.2357 10.3128L10.3202 10.3128H8.32616L1.41065 10.3128C1.27972 10.3128 1.15007 10.287 1.02911 10.2369C0.908147 10.1868 0.798236 10.1133 0.705654 10.0208C0.613072 9.92817 0.539632 9.81826 0.489527 9.6973C0.439422 9.57633 0.413634 9.44668 0.413634 9.31575C0.413633 9.18482 0.439422 9.05517 0.489527 8.93421C0.539631 8.81325 0.613072 8.70333 0.705654 8.61075C0.798236 8.51817 0.908146 8.44473 1.02911 8.39463C1.15007 8.34452 1.27972 8.31873 1.41065 8.31873L8.32616 8.31873H10.3202L17.2286 8.3258C17.3596 8.32567 17.4893 8.35137 17.6103 8.40142C17.7314 8.45148 17.8413 8.52492 17.9339 8.61752C18.0265 8.71013 18.1 8.8201 18.15 8.94112Z" fill="black"/>
<path d="M9.69364 18.15C9.57262 18.2001 9.44291 18.2258 9.31194 18.2257C8.77454 18.2257 8.32199 17.7731 8.32199 17.2357L8.32199 10.3202V8.32616L8.32199 1.41065C8.32199 1.27972 8.34778 1.15007 8.39789 1.02911C8.44799 0.908147 8.52143 0.798236 8.61401 0.705654C8.7066 0.613072 8.81651 0.539632 8.93747 0.489527C9.05843 0.439422 9.18808 0.413634 9.31901 0.413634C9.44994 0.413633 9.57959 0.439422 9.70056 0.489527C9.82152 0.539631 9.93143 0.613072 10.024 0.705654C10.1166 0.798236 10.19 0.908146 10.2401 1.02911C10.2902 1.15007 10.316 1.27972 10.316 1.41065L10.316 8.32616V10.3202L10.309 17.2286C10.3091 17.3596 10.2834 17.4893 10.2333 17.6103C10.1833 17.7314 10.1099 17.8413 10.0172 17.9339C9.92463 18.0265 9.81467 18.1 9.69364 18.15Z" fill="black"/>
</svg>
