<svg width="187" height="51" viewBox="0 0 187 51" fill="none" xmlns="http://www.w3.org/2000/svg">
<path d="M14 37V51C3.26069 51 0.813584 46.3333 0 44C1.9526 38.4 9.52529 37 14 37Z" fill="#D9BB3A"/>
<path d="M0 5.99999V43.9604C1.90099 39.2079 12.6733 37.2277 17.8218 36.8317H177.495L187 17.8218L177.495 0H6C2.68629 0 0 2.68628 0 5.99999Z" fill="#FCDE5A"/>
<path d="M35.2788 15.72C35.8421 15.72 36.3448 15.837 36.7868 16.071C37.2375 16.305 37.5885 16.6517 37.8398 17.111C38.0998 17.5703 38.2298 18.125 38.2298 18.775V23H36.7608V18.996C36.7608 18.3547 36.6005 17.865 36.2798 17.527C35.9591 17.1803 35.5215 17.007 34.9668 17.007C34.4121 17.007 33.9701 17.1803 33.6408 17.527C33.3201 17.865 33.1598 18.3547 33.1598 18.996V23H31.6908V18.996C31.6908 18.3547 31.5305 17.865 31.2098 17.527C30.8891 17.1803 30.4515 17.007 29.8968 17.007C29.3421 17.007 28.9001 17.1803 28.5708 17.527C28.2501 17.865 28.0898 18.3547 28.0898 18.996V23H26.6078V15.837H28.0898V16.656C28.3325 16.3613 28.6401 16.1317 29.0128 15.967C29.3855 15.8023 29.7841 15.72 30.2088 15.72C30.7808 15.72 31.2921 15.8413 31.7428 16.084C32.1935 16.3267 32.5401 16.6777 32.7828 17.137C32.9995 16.7037 33.3375 16.3613 33.7968 16.11C34.2561 15.85 34.7501 15.72 35.2788 15.72ZM43.2226 23.117C42.5466 23.117 41.9356 22.9653 41.3896 22.662C40.8436 22.35 40.4146 21.9167 40.1026 21.362C39.7906 20.7987 39.6346 20.1487 39.6346 19.412C39.6346 18.684 39.795 18.0383 40.1156 17.475C40.4363 16.9117 40.874 16.4783 41.4286 16.175C41.9833 15.8717 42.603 15.72 43.2876 15.72C43.9723 15.72 44.592 15.8717 45.1466 16.175C45.7013 16.4783 46.139 16.9117 46.4596 17.475C46.7803 18.0383 46.9406 18.684 46.9406 19.412C46.9406 20.14 46.776 20.7857 46.4466 21.349C46.1173 21.9123 45.6666 22.35 45.0946 22.662C44.5313 22.9653 43.9073 23.117 43.2226 23.117ZM43.2226 21.83C43.604 21.83 43.9593 21.739 44.2886 21.557C44.6266 21.375 44.8996 21.102 45.1076 20.738C45.3156 20.374 45.4196 19.932 45.4196 19.412C45.4196 18.892 45.32 18.4543 45.1206 18.099C44.9213 17.735 44.657 17.462 44.3276 17.28C43.9983 17.098 43.643 17.007 43.2616 17.007C42.8803 17.007 42.525 17.098 42.1956 17.28C41.875 17.462 41.6193 17.735 41.4286 18.099C41.238 18.4543 41.1426 18.892 41.1426 19.412C41.1426 20.1833 41.3376 20.7813 41.7276 21.206C42.1263 21.622 42.6246 21.83 43.2226 21.83ZM51.0057 23.117C50.4423 23.117 49.9353 23.0173 49.4847 22.818C49.0427 22.61 48.6917 22.3327 48.4317 21.986C48.1717 21.6307 48.033 21.2363 48.0157 20.803H49.5497C49.5757 21.1063 49.7187 21.362 49.9787 21.57C50.2473 21.7693 50.581 21.869 50.9797 21.869C51.3957 21.869 51.7163 21.791 51.9417 21.635C52.1757 21.4703 52.2927 21.2623 52.2927 21.011C52.2927 20.7423 52.1627 20.543 51.9027 20.413C51.6513 20.283 51.2483 20.14 50.6937 19.984C50.1563 19.8367 49.7187 19.6937 49.3807 19.555C49.0427 19.4163 48.748 19.204 48.4967 18.918C48.254 18.632 48.1327 18.255 48.1327 17.787C48.1327 17.4057 48.2453 17.059 48.4707 16.747C48.696 16.4263 49.0167 16.175 49.4327 15.993C49.8573 15.811 50.3427 15.72 50.8887 15.72C51.7033 15.72 52.3577 15.928 52.8517 16.344C53.3543 16.7513 53.623 17.3103 53.6577 18.021H52.1757C52.1497 17.7003 52.0197 17.4447 51.7857 17.254C51.5517 17.0633 51.2353 16.968 50.8367 16.968C50.4467 16.968 50.1477 17.0417 49.9397 17.189C49.7317 17.3363 49.6277 17.5313 49.6277 17.774C49.6277 17.9647 49.697 18.125 49.8357 18.255C49.9743 18.385 50.1433 18.489 50.3427 18.567C50.542 18.6363 50.8367 18.7273 51.2267 18.84C51.7467 18.9787 52.1713 19.1217 52.5007 19.269C52.8387 19.4077 53.129 19.6157 53.3717 19.893C53.6143 20.1703 53.74 20.5387 53.7487 20.998C53.7487 21.4053 53.636 21.7693 53.4107 22.09C53.1853 22.4107 52.8647 22.662 52.4487 22.844C52.0413 23.026 51.5603 23.117 51.0057 23.117ZM57.079 17.046V21.011C57.079 21.2797 57.1397 21.4747 57.261 21.596C57.391 21.7087 57.6077 21.765 57.911 21.765H58.821V23H57.651C56.9837 23 56.4723 22.844 56.117 22.532C55.7617 22.22 55.584 21.713 55.584 21.011V17.046H54.739V15.837H55.584V14.056H57.079V15.837H58.821V17.046H57.079ZM65.0459 16.877C65.2625 16.513 65.5485 16.2313 65.9039 16.032C66.2679 15.824 66.6969 15.72 67.1909 15.72V17.254H66.8139C66.2332 17.254 65.7912 17.4013 65.4879 17.696C65.1932 17.9907 65.0459 18.502 65.0459 19.23V23H63.5639V15.837H65.0459V16.877ZM75.1181 19.243C75.1181 19.5117 75.1008 19.7543 75.0661 19.971H69.5931C69.6365 20.543 69.8488 21.0023 70.2301 21.349C70.6115 21.6957 71.0795 21.869 71.6341 21.869C72.4315 21.869 72.9948 21.5353 73.3241 20.868H74.9231C74.7065 21.5267 74.3121 22.0683 73.7401 22.493C73.1768 22.909 72.4748 23.117 71.6341 23.117C70.9495 23.117 70.3341 22.9653 69.7881 22.662C69.2508 22.35 68.8261 21.9167 68.5141 21.362C68.2108 20.7987 68.0591 20.1487 68.0591 19.412C68.0591 18.6753 68.2065 18.0297 68.5011 17.475C68.8045 16.9117 69.2248 16.4783 69.7621 16.175C70.3081 15.8717 70.9321 15.72 71.6341 15.72C72.3101 15.72 72.9125 15.8673 73.4411 16.162C73.9698 16.4567 74.3815 16.8727 74.6761 17.41C74.9708 17.9387 75.1181 18.5497 75.1181 19.243ZM73.5711 18.775C73.5625 18.229 73.3675 17.7913 72.9861 17.462C72.6048 17.1327 72.1325 16.968 71.5691 16.968C71.0578 16.968 70.6201 17.1327 70.2561 17.462C69.8921 17.7827 69.6755 18.2203 69.6061 18.775H73.5711ZM76.0826 19.412C76.0826 18.6753 76.2299 18.0297 76.5246 17.475C76.8279 16.9117 77.2439 16.4783 77.7726 16.175C78.3012 15.8717 78.9079 15.72 79.5926 15.72C80.4592 15.72 81.1742 15.928 81.7376 16.344C82.3096 16.7513 82.6952 17.3363 82.8946 18.099H81.2956C81.1656 17.7437 80.9576 17.4663 80.6716 17.267C80.3856 17.0677 80.0259 16.968 79.5926 16.968C78.9859 16.968 78.5006 17.1847 78.1366 17.618C77.7812 18.0427 77.6036 18.6407 77.6036 19.412C77.6036 20.1833 77.7812 20.7857 78.1366 21.219C78.5006 21.6523 78.9859 21.869 79.5926 21.869C80.4506 21.869 81.0182 21.492 81.2956 20.738H82.8946C82.6866 21.466 82.2966 22.0467 81.7246 22.48C81.1526 22.9047 80.4419 23.117 79.5926 23.117C78.9079 23.117 78.3012 22.9653 77.7726 22.662C77.2439 22.35 76.8279 21.9167 76.5246 21.362C76.2299 20.7987 76.0826 20.1487 76.0826 19.412ZM87.4785 23.117C86.8025 23.117 86.1915 22.9653 85.6455 22.662C85.0995 22.35 84.6705 21.9167 84.3585 21.362C84.0465 20.7987 83.8905 20.1487 83.8905 19.412C83.8905 18.684 84.0508 18.0383 84.3715 17.475C84.6922 16.9117 85.1298 16.4783 85.6845 16.175C86.2392 15.8717 86.8588 15.72 87.5435 15.72C88.2282 15.72 88.8478 15.8717 89.4025 16.175C89.9572 16.4783 90.3948 16.9117 90.7155 17.475C91.0362 18.0383 91.1965 18.684 91.1965 19.412C91.1965 20.14 91.0318 20.7857 90.7025 21.349C90.3732 21.9123 89.9225 22.35 89.3505 22.662C88.7872 22.9653 88.1632 23.117 87.4785 23.117ZM87.4785 21.83C87.8598 21.83 88.2152 21.739 88.5445 21.557C88.8825 21.375 89.1555 21.102 89.3635 20.738C89.5715 20.374 89.6755 19.932 89.6755 19.412C89.6755 18.892 89.5758 18.4543 89.3765 18.099C89.1772 17.735 88.9128 17.462 88.5835 17.28C88.2542 17.098 87.8988 17.007 87.5175 17.007C87.1362 17.007 86.7808 17.098 86.4515 17.28C86.1308 17.462 85.8752 17.735 85.6845 18.099C85.4938 18.4543 85.3985 18.892 85.3985 19.412C85.3985 20.1833 85.5935 20.7813 85.9835 21.206C86.3822 21.622 86.8805 21.83 87.4785 21.83ZM101.333 15.72C101.896 15.72 102.399 15.837 102.841 16.071C103.291 16.305 103.642 16.6517 103.894 17.111C104.154 17.5703 104.284 18.125 104.284 18.775V23H102.815V18.996C102.815 18.3547 102.654 17.865 102.334 17.527C102.013 17.1803 101.575 17.007 101.021 17.007C100.466 17.007 100.024 17.1803 99.6945 17.527C99.3739 17.865 99.2135 18.3547 99.2135 18.996V23H97.7445V18.996C97.7445 18.3547 97.5842 17.865 97.2635 17.527C96.9429 17.1803 96.5052 17.007 95.9505 17.007C95.3959 17.007 94.9539 17.1803 94.6245 17.527C94.3039 17.865 94.1435 18.3547 94.1435 18.996V23H92.6615V15.837H94.1435V16.656C94.3862 16.3613 94.6939 16.1317 95.0665 15.967C95.4392 15.8023 95.8379 15.72 96.2625 15.72C96.8345 15.72 97.3459 15.8413 97.7965 16.084C98.2472 16.3267 98.5939 16.6777 98.8365 17.137C99.0532 16.7037 99.3912 16.3613 99.8505 16.11C100.31 15.85 100.804 15.72 101.333 15.72ZM114.84 15.72C115.404 15.72 115.906 15.837 116.348 16.071C116.799 16.305 117.15 16.6517 117.401 17.111C117.661 17.5703 117.791 18.125 117.791 18.775V23H116.322V18.996C116.322 18.3547 116.162 17.865 115.841 17.527C115.521 17.1803 115.083 17.007 114.528 17.007C113.974 17.007 113.532 17.1803 113.202 17.527C112.882 17.865 112.721 18.3547 112.721 18.996V23H111.252V18.996C111.252 18.3547 111.092 17.865 110.771 17.527C110.451 17.1803 110.013 17.007 109.458 17.007C108.904 17.007 108.462 17.1803 108.132 17.527C107.812 17.865 107.651 18.3547 107.651 18.996V23H106.169V15.837H107.651V16.656C107.894 16.3613 108.202 16.1317 108.574 15.967C108.947 15.8023 109.346 15.72 109.77 15.72C110.342 15.72 110.854 15.8413 111.304 16.084C111.755 16.3267 112.102 16.6777 112.344 17.137C112.561 16.7037 112.899 16.3613 113.358 16.11C113.818 15.85 114.312 15.72 114.84 15.72ZM126.242 19.243C126.242 19.5117 126.225 19.7543 126.19 19.971H120.717C120.76 20.543 120.973 21.0023 121.354 21.349C121.735 21.6957 122.203 21.869 122.758 21.869C123.555 21.869 124.119 21.5353 124.448 20.868H126.047C125.83 21.5267 125.436 22.0683 124.864 22.493C124.301 22.909 123.599 23.117 122.758 23.117C122.073 23.117 121.458 22.9653 120.912 22.662C120.375 22.35 119.95 21.9167 119.638 21.362C119.335 20.7987 119.183 20.1487 119.183 19.412C119.183 18.6753 119.33 18.0297 119.625 17.475C119.928 16.9117 120.349 16.4783 120.886 16.175C121.432 15.8717 122.056 15.72 122.758 15.72C123.434 15.72 124.036 15.8673 124.565 16.162C125.094 16.4567 125.505 16.8727 125.8 17.41C126.095 17.9387 126.242 18.5497 126.242 19.243ZM124.695 18.775C124.686 18.229 124.491 17.7913 124.11 17.462C123.729 17.1327 123.256 16.968 122.693 16.968C122.182 16.968 121.744 17.1327 121.38 17.462C121.016 17.7827 120.799 18.2203 120.73 18.775H124.695ZM131.315 15.72C131.878 15.72 132.381 15.837 132.823 16.071C133.273 16.305 133.624 16.6517 133.876 17.111C134.127 17.5703 134.253 18.125 134.253 18.775V23H132.784V18.996C132.784 18.3547 132.623 17.865 132.303 17.527C131.982 17.1803 131.544 17.007 130.99 17.007C130.435 17.007 129.993 17.1803 129.664 17.527C129.343 17.865 129.183 18.3547 129.183 18.996V23H127.701V15.837H129.183V16.656C129.425 16.3613 129.733 16.1317 130.106 15.967C130.487 15.8023 130.89 15.72 131.315 15.72ZM135.649 19.386C135.649 18.6667 135.796 18.0297 136.091 17.475C136.394 16.9203 136.802 16.4913 137.313 16.188C137.833 15.876 138.409 15.72 139.042 15.72C139.51 15.72 139.969 15.824 140.42 16.032C140.879 16.2313 141.243 16.5 141.512 16.838V13.38H143.007V23H141.512V21.921C141.269 22.2677 140.931 22.5537 140.498 22.779C140.073 23.0043 139.584 23.117 139.029 23.117C138.405 23.117 137.833 22.961 137.313 22.649C136.802 22.3283 136.394 21.8863 136.091 21.323C135.796 20.751 135.649 20.1053 135.649 19.386ZM141.512 19.412C141.512 18.918 141.408 18.489 141.2 18.125C141.001 17.761 140.736 17.4837 140.407 17.293C140.078 17.1023 139.722 17.007 139.341 17.007C138.96 17.007 138.604 17.1023 138.275 17.293C137.946 17.475 137.677 17.748 137.469 18.112C137.27 18.4673 137.17 18.892 137.17 19.386C137.17 19.88 137.27 20.3133 137.469 20.686C137.677 21.0587 137.946 21.3447 138.275 21.544C138.613 21.7347 138.968 21.83 139.341 21.83C139.722 21.83 140.078 21.7347 140.407 21.544C140.736 21.3533 141.001 21.076 141.2 20.712C141.408 20.3393 141.512 19.906 141.512 19.412ZM151.519 19.243C151.519 19.5117 151.501 19.7543 151.467 19.971H145.994C146.037 20.543 146.249 21.0023 146.631 21.349C147.012 21.6957 147.48 21.869 148.035 21.869C148.832 21.869 149.395 21.5353 149.725 20.868H151.324C151.107 21.5267 150.713 22.0683 150.141 22.493C149.577 22.909 148.875 23.117 148.035 23.117C147.35 23.117 146.735 22.9653 146.189 22.662C145.651 22.35 145.227 21.9167 144.915 21.362C144.611 20.7987 144.46 20.1487 144.46 19.412C144.46 18.6753 144.607 18.0297 144.902 17.475C145.205 16.9117 145.625 16.4783 146.163 16.175C146.709 15.8717 147.333 15.72 148.035 15.72C148.711 15.72 149.313 15.8673 149.842 16.162C150.37 16.4567 150.782 16.8727 151.077 17.41C151.371 17.9387 151.519 18.5497 151.519 19.243ZM149.972 18.775C149.963 18.229 149.768 17.7913 149.387 17.462C149.005 17.1327 148.533 16.968 147.97 16.968C147.458 16.968 147.021 17.1327 146.657 17.462C146.293 17.7827 146.076 18.2203 146.007 18.775H149.972ZM152.483 19.386C152.483 18.6667 152.63 18.0297 152.925 17.475C153.228 16.9203 153.636 16.4913 154.147 16.188C154.667 15.876 155.243 15.72 155.876 15.72C156.344 15.72 156.803 15.824 157.254 16.032C157.713 16.2313 158.077 16.5 158.346 16.838V13.38H159.841V23H158.346V21.921C158.103 22.2677 157.765 22.5537 157.332 22.779C156.907 23.0043 156.418 23.117 155.863 23.117C155.239 23.117 154.667 22.961 154.147 22.649C153.636 22.3283 153.228 21.8863 152.925 21.323C152.63 20.751 152.483 20.1053 152.483 19.386ZM158.346 19.412C158.346 18.918 158.242 18.489 158.034 18.125C157.835 17.761 157.57 17.4837 157.241 17.293C156.912 17.1023 156.556 17.007 156.175 17.007C155.794 17.007 155.438 17.1023 155.109 17.293C154.78 17.475 154.511 17.748 154.303 18.112C154.104 18.4673 154.004 18.892 154.004 19.386C154.004 19.88 154.104 20.3133 154.303 20.686C154.511 21.0587 154.78 21.3447 155.109 21.544C155.447 21.7347 155.802 21.83 156.175 21.83C156.556 21.83 156.912 21.7347 157.241 21.544C157.57 21.3533 157.835 21.076 158.034 20.712C158.242 20.3393 158.346 19.906 158.346 19.412Z" fill="black"/>
</svg>
