<svg width="94" height="14" viewBox="0 0 94 14" fill="none" xmlns="http://www.w3.org/2000/svg">
<path d="M7 11.6573L3.46006 13.8955C3.32825 13.9762 3.19614 14.0102 3.06375 13.9974C2.93134 13.9845 2.81147 13.9377 2.70415 13.857C2.59684 13.7763 2.51402 13.6708 2.45569 13.5405C2.39735 13.4103 2.38802 13.2663 2.42769 13.1085L3.36734 8.89432L0.242128 6.05795C0.125476 5.95154 0.0511125 5.82832 0.0190378 5.68829C-0.013037 5.54824 -0.00458215 5.41217 0.0444019 5.28009C0.0934012 5.14799 0.163981 5.04005 0.256141 4.95627C0.3483 4.87249 0.474287 4.81776 0.634099 4.79208L4.75848 4.41415L6.35957 0.434795C6.4179 0.286811 6.50626 0.177344 6.62466 0.106397C6.74307 0.0354656 6.86818 0 7 0C7.13182 0 7.25693 0.0354656 7.37534 0.106397C7.49374 0.177344 7.5821 0.286811 7.64043 0.434795L9.24152 4.41415L13.3659 4.79208C13.5257 4.81776 13.6517 4.87249 13.7439 4.95627C13.836 5.04005 13.9066 5.14799 13.9556 5.28009C14.0046 5.41217 14.013 5.54824 13.981 5.68829C13.9489 5.82832 13.8745 5.95154 13.7579 6.05795L10.6327 8.89432L11.5723 13.1085C11.612 13.2663 11.6026 13.4103 11.5443 13.5405C11.486 13.6708 11.4032 13.7763 11.2959 13.857C11.1885 13.9377 11.0687 13.9845 10.9363 13.9974C10.8039 14.0102 10.6718 13.9762 10.5399 13.8955L7 11.6573Z" fill="#FF7A00"/>
<path d="M27 11.6573L23.4601 13.8955C23.3282 13.9762 23.1961 14.0102 23.0637 13.9974C22.9313 13.9845 22.8115 13.9377 22.7041 13.857C22.5968 13.7763 22.514 13.6708 22.4557 13.5405C22.3974 13.4103 22.388 13.2663 22.4277 13.1085L23.3673 8.89432L20.2421 6.05795C20.1255 5.95154 20.0511 5.82832 20.019 5.68829C19.987 5.54824 19.9954 5.41217 20.0444 5.28009C20.0934 5.14799 20.164 5.04005 20.2561 4.95627C20.3483 4.87249 20.4743 4.81776 20.6341 4.79208L24.7585 4.41415L26.3596 0.434795C26.4179 0.286811 26.5063 0.177344 26.6247 0.106397C26.7431 0.0354656 26.8682 0 27 0C27.1318 0 27.2569 0.0354656 27.3753 0.106397C27.4937 0.177344 27.5821 0.286811 27.6404 0.434795L29.2415 4.41415L33.3659 4.79208C33.5257 4.81776 33.6517 4.87249 33.7439 4.95627C33.836 5.04005 33.9066 5.14799 33.9556 5.28009C34.0046 5.41217 34.013 5.54824 33.981 5.68829C33.9489 5.82832 33.8745 5.95154 33.7579 6.05795L30.6327 8.89432L31.5723 13.1085C31.612 13.2663 31.6026 13.4103 31.5443 13.5405C31.486 13.6708 31.4032 13.7763 31.2959 13.857C31.1885 13.9377 31.0687 13.9845 30.9363 13.9974C30.8039 14.0102 30.6718 13.9762 30.5399 13.8955L27 11.6573Z" fill="#FF7A00"/>
<path d="M47 11.6573L43.4601 13.8955C43.3282 13.9762 43.1961 14.0102 43.0637 13.9974C42.9313 13.9845 42.8115 13.9377 42.7041 13.857C42.5968 13.7763 42.514 13.6708 42.4557 13.5405C42.3974 13.4103 42.388 13.2663 42.4277 13.1085L43.3673 8.89432L40.2421 6.05795C40.1255 5.95154 40.0511 5.82832 40.019 5.68829C39.987 5.54824 39.9954 5.41217 40.0444 5.28009C40.0934 5.14799 40.164 5.04005 40.2561 4.95627C40.3483 4.87249 40.4743 4.81776 40.6341 4.79208L44.7585 4.41415L46.3596 0.434795C46.4179 0.286811 46.5063 0.177344 46.6247 0.106397C46.7431 0.0354656 46.8682 0 47 0C47.1318 0 47.2569 0.0354656 47.3753 0.106397C47.4937 0.177344 47.5821 0.286811 47.6404 0.434795L49.2415 4.41415L53.3659 4.79208C53.5257 4.81776 53.6517 4.87249 53.7439 4.95627C53.836 5.04005 53.9066 5.14799 53.9556 5.28009C54.0046 5.41217 54.013 5.54824 53.981 5.68829C53.9489 5.82832 53.8745 5.95154 53.7579 6.05795L50.6327 8.89432L51.5723 13.1085C51.612 13.2663 51.6026 13.4103 51.5443 13.5405C51.486 13.6708 51.4032 13.7763 51.2959 13.857C51.1885 13.9377 51.0687 13.9845 50.9363 13.9974C50.8039 14.0102 50.6718 13.9762 50.5399 13.8955L47 11.6573Z" fill="#FF7A00"/>
<path d="M67 11.6573L63.4601 13.8955C63.3282 13.9762 63.1961 14.0102 63.0637 13.9974C62.9313 13.9845 62.8115 13.9377 62.7041 13.857C62.5968 13.7763 62.514 13.6708 62.4557 13.5405C62.3974 13.4103 62.388 13.2663 62.4277 13.1085L63.3673 8.89432L60.2421 6.05795C60.1255 5.95154 60.0511 5.82832 60.019 5.68829C59.987 5.54824 59.9954 5.41217 60.0444 5.28009C60.0934 5.14799 60.164 5.04005 60.2561 4.95627C60.3483 4.87249 60.4743 4.81776 60.6341 4.79208L64.7585 4.41415L66.3596 0.434795C66.4179 0.286811 66.5063 0.177344 66.6247 0.106397C66.7431 0.0354656 66.8682 0 67 0C67.1318 0 67.2569 0.0354656 67.3753 0.106397C67.4937 0.177344 67.5821 0.286811 67.6404 0.434795L69.2415 4.41415L73.3659 4.79208C73.5257 4.81776 73.6517 4.87249 73.7439 4.95627C73.836 5.04005 73.9066 5.14799 73.9556 5.28009C74.0046 5.41217 74.013 5.54824 73.981 5.68829C73.9489 5.82832 73.8745 5.95154 73.7579 6.05795L70.6327 8.89432L71.5723 13.1085C71.612 13.2663 71.6026 13.4103 71.5443 13.5405C71.486 13.6708 71.4032 13.7763 71.2959 13.857C71.1885 13.9377 71.0687 13.9845 70.9363 13.9974C70.8039 14.0102 70.6718 13.9762 70.5399 13.8955L67 11.6573Z" fill="#FF7A00"/>
<path d="M87 2.53359V9.97493L89.8663 11.8114L89.1156 8.37695L91.6406 6.08731L88.3194 5.77725L87 2.53359ZM87 11.6573L83.4601 13.8955C83.3282 13.9762 83.1961 14.0102 83.0637 13.9974C82.9313 13.9845 82.8115 13.9377 82.7041 13.857C82.5968 13.7763 82.514 13.6708 82.4557 13.5405C82.3974 13.4103 82.388 13.2663 82.4277 13.1085L83.3673 8.89432L80.2421 6.05795C80.1255 5.95154 80.0511 5.82832 80.019 5.68829C79.987 5.54824 79.9954 5.41217 80.0444 5.28009C80.0934 5.14799 80.164 5.04005 80.2561 4.95627C80.3483 4.87249 80.4743 4.81776 80.6341 4.79208L84.7585 4.41415L86.3596 0.434795C86.4179 0.286811 86.5063 0.177344 86.6247 0.106397C86.7431 0.0354656 86.8682 0 87 0C87.1318 0 87.2569 0.0354656 87.3753 0.106397C87.4937 0.177344 87.5821 0.286811 87.6404 0.434795L89.2415 4.41415L93.3659 4.79208C93.5257 4.81776 93.6517 4.87249 93.7439 4.95627C93.836 5.04005 93.9066 5.14799 93.9556 5.28009C94.0046 5.41217 94.013 5.54824 93.981 5.68829C93.9489 5.82832 93.8745 5.95154 93.7579 6.05795L90.6327 8.89432L91.5723 13.1085C91.612 13.2663 91.6026 13.4103 91.5443 13.5405C91.486 13.6708 91.4032 13.7763 91.2959 13.857C91.1885 13.9377 91.0687 13.9845 90.9363 13.9974C90.8039 14.0102 90.6718 13.9762 90.5399 13.8955L87 11.6573Z" fill="#FF7A00"/>
</svg>
