<svg width="16" height="16" viewBox="0 0 16 16" fill="none" xmlns="http://www.w3.org/2000/svg">
<path d="M8 13.3226L3.95436 15.8806C3.80371 15.9729 3.65273 16.0116 3.50143 15.997C3.3501 15.9823 3.21311 15.9288 3.09045 15.8366C2.96781 15.7443 2.87317 15.6238 2.80651 15.4749C2.73983 15.326 2.72916 15.1614 2.7745 14.9811L3.84839 10.1649L0.276718 6.92337C0.143401 6.80176 0.0584143 6.66094 0.0217574 6.5009C-0.0148994 6.34084 -0.00523675 6.18534 0.0507451 6.03439C0.106744 5.88342 0.187407 5.76006 0.292732 5.66431C0.398058 5.56856 0.542042 5.50601 0.724685 5.47667L5.43826 5.04474L7.26808 0.496908C7.33474 0.327784 7.43573 0.202679 7.57104 0.121596C7.70636 0.0405321 7.84935 0 8 0C8.15065 0 8.29364 0.0405321 8.42896 0.121596C8.56427 0.202679 8.66526 0.327784 8.73192 0.496908L10.5617 5.04474L15.2753 5.47667C15.458 5.50601 15.6019 5.56856 15.7073 5.66431C15.8126 5.76006 15.8933 5.88342 15.9493 6.03439C16.0052 6.18534 16.0149 6.34084 15.9782 6.5009C15.9416 6.66094 15.8566 6.80176 15.7233 6.92337L12.1516 10.1649L13.2255 14.9811C13.2708 15.1614 13.2602 15.326 13.1935 15.4749C13.1268 15.6238 13.0322 15.7443 12.9095 15.8366C12.7869 15.9288 12.6499 15.9823 12.4986 15.997C12.3473 16.0116 12.1963 15.9729 12.0456 15.8806L8 13.3226Z" fill="white"/>
</svg>
