<svg width="102" height="24" viewBox="0 0 102 24" fill="none" xmlns="http://www.w3.org/2000/svg">
<path d="M7.69297 16.8832L3.8026 19.2293C3.65773 19.3139 3.51255 19.3495 3.36705 19.3361C3.22153 19.3226 3.0898 19.2736 2.97185 19.1889C2.85391 19.1043 2.7629 18.9937 2.6988 18.8572C2.63468 18.7207 2.62442 18.5697 2.66802 18.4043L3.7007 13.9871L0.266098 11.014C0.137898 10.9025 0.0561724 10.7733 0.0209224 10.6265C-0.0143276 10.4797 -0.00503577 10.3371 0.0487976 10.1986C0.102648 10.0602 0.180214 9.94703 0.281498 9.85921C0.382781 9.7714 0.521239 9.71403 0.696873 9.68711L5.22955 9.29096L6.98915 5.11981C7.05325 4.9647 7.15036 4.84995 7.28047 4.77559C7.41061 4.70124 7.54811 4.66406 7.69297 4.66406C7.83784 4.66406 7.97534 4.70124 8.10547 4.77559C8.23559 4.84995 8.3327 4.9647 8.3968 5.11981L10.1564 9.29096L14.6891 9.68711C14.8647 9.71403 15.0032 9.7714 15.1044 9.85921C15.2057 9.94703 15.2833 10.0602 15.3371 10.1986C15.391 10.3371 15.4003 10.4797 15.365 10.6265C15.3298 10.7733 15.248 10.9025 15.1198 11.014L11.6852 13.9871L12.7179 18.4043C12.7615 18.5697 12.7513 18.7207 12.6871 18.8572C12.623 18.9937 12.532 19.1043 12.4141 19.1889C12.2961 19.2736 12.1644 19.3226 12.0189 19.3361C11.8734 19.3495 11.7282 19.3139 11.5833 19.2293L7.69297 16.8832Z" fill="#FF7A00"/>
<path d="M27.0797 16.8832L23.1893 19.2293C23.0444 19.3139 22.8993 19.3495 22.7538 19.3361C22.6083 19.3226 22.4765 19.2736 22.3586 19.1889C22.2406 19.1043 22.1496 18.9937 22.0855 18.8572C22.0214 18.7207 22.0111 18.5697 22.0547 18.4043L23.0874 13.9871L19.6528 11.014C19.5246 10.9025 19.4429 10.7733 19.4076 10.6265C19.3724 10.4797 19.3817 10.3371 19.4355 10.1986C19.4894 10.0602 19.5669 9.94703 19.6682 9.85921C19.7695 9.7714 19.908 9.71403 20.0836 9.68711L24.6163 9.29096L26.3759 5.11981C26.44 4.9647 26.5371 4.84995 26.6672 4.77559C26.7973 4.70124 26.9348 4.66406 27.0797 4.66406C27.2246 4.66406 27.3621 4.70124 27.4922 4.77559C27.6223 4.84995 27.7194 4.9647 27.7835 5.11981L29.5431 9.29096L34.0758 9.68711C34.2514 9.71403 34.3899 9.7714 34.4912 9.85921C34.5924 9.94703 34.67 10.0602 34.7239 10.1986C34.7777 10.3371 34.787 10.4797 34.7517 10.6265C34.7165 10.7733 34.6348 10.9025 34.5066 11.014L31.072 13.9871L32.1046 18.4043C32.1482 18.5697 32.138 18.7207 32.0739 18.8572C32.0098 18.9937 31.9187 19.1043 31.8008 19.1889C31.6829 19.2736 31.5511 19.3226 31.4056 19.3361C31.2601 19.3495 31.1149 19.3139 30.9701 19.2293L27.0797 16.8832Z" fill="#FF7A00"/>
<path d="M46.4645 16.8832L42.5741 19.2293C42.4292 19.3139 42.284 19.3495 42.1385 19.3361C41.993 19.3226 41.8613 19.2736 41.7433 19.1889C41.6254 19.1043 41.5344 18.9937 41.4703 18.8572C41.4062 18.7207 41.3959 18.5697 41.4395 18.4043L42.4722 13.9871L39.0376 11.014C38.9094 10.9025 38.8277 10.7733 38.7924 10.6265C38.7572 10.4797 38.7664 10.3371 38.8203 10.1986C38.8741 10.0602 38.9517 9.94703 39.053 9.85921C39.1543 9.7714 39.2927 9.71403 39.4684 9.68711L44.001 9.29096L45.7606 5.11981C45.8247 4.9647 45.9218 4.84995 46.052 4.77559C46.1821 4.70124 46.3196 4.66406 46.4645 4.66406C46.6093 4.66406 46.7468 4.70124 46.877 4.77559C47.0071 4.84995 47.1042 4.9647 47.1683 5.11981L48.9279 9.29096L53.4606 9.68711C53.6362 9.71403 53.7746 9.7714 53.8759 9.85921C53.9772 9.94703 54.0548 10.0602 54.1086 10.1986C54.1625 10.3371 54.1718 10.4797 54.1365 10.6265C54.1013 10.7733 54.0195 10.9025 53.8913 11.014L50.4567 13.9871L51.4894 18.4043C51.533 18.5697 51.5227 18.7207 51.4586 18.8572C51.3945 18.9937 51.3035 19.1043 51.1856 19.1889C51.0676 19.2736 50.9359 19.3226 50.7904 19.3361C50.6449 19.3495 50.4997 19.3139 50.3548 19.2293L46.4645 16.8832Z" fill="#FF7A00"/>
<path d="M65.8512 16.8832L61.9608 19.2293C61.8159 19.3139 61.6708 19.3495 61.5253 19.3361C61.3797 19.3226 61.248 19.2736 61.1301 19.1889C61.0121 19.1043 60.9211 18.9937 60.857 18.8572C60.7929 18.7207 60.7826 18.5697 60.8262 18.4043L61.8589 13.9871L58.4243 11.014C58.2961 10.9025 58.2144 10.7733 58.1791 10.6265C58.1439 10.4797 58.1532 10.3371 58.207 10.1986C58.2609 10.0602 58.3384 9.94703 58.4397 9.85921C58.541 9.7714 58.6794 9.71403 58.8551 9.68711L63.3878 9.29096L65.1474 5.11981C65.2115 4.9647 65.3086 4.84995 65.4387 4.77559C65.5688 4.70124 65.7063 4.66406 65.8512 4.66406C65.996 4.66406 66.1335 4.70124 66.2637 4.77559C66.3938 4.84995 66.4909 4.9647 66.555 5.11981L68.3146 9.29096L72.8473 9.68711C73.0229 9.71403 73.1614 9.7714 73.2626 9.85921C73.3639 9.94703 73.4415 10.0602 73.4954 10.1986C73.5492 10.3371 73.5585 10.4797 73.5232 10.6265C73.488 10.7733 73.4062 10.9025 73.2781 11.014L69.8435 13.9871L70.8761 18.4043C70.9197 18.5697 70.9095 18.7207 70.8454 18.8572C70.7813 18.9937 70.6902 19.1043 70.5723 19.1889C70.4543 19.2736 70.3226 19.3226 70.1771 19.3361C70.0316 19.3495 69.8864 19.3139 69.7416 19.2293L65.8512 16.8832Z" fill="#FF7A00"/>
<mask id="mask0_181_211820" style="mask-type:alpha" maskUnits="userSpaceOnUse" x="77" y="0" width="25" height="24">
<rect x="77.543" width="24" height="24" fill="#D9D9D9"/>
</mask>
<g mask="url(#mask0_181_211820)">
<path d="M89.5426 8.12445V15.9245L92.6926 17.8495L91.8676 14.2495L94.6426 11.8495L90.9926 11.5245L89.5426 8.12445ZM89.5426 17.6879L85.6522 20.034C85.5073 20.1186 85.3622 20.1542 85.2167 20.1407C85.0711 20.1273 84.9394 20.0782 84.8215 19.9936C84.7035 19.909 84.6125 19.7984 84.5484 19.6619C84.4843 19.5254 84.474 19.3744 84.5176 19.209L85.5503 14.7918L82.1157 11.8187C81.9875 11.7071 81.9058 11.578 81.8705 11.4312C81.8353 11.2844 81.8446 11.1418 81.8984 11.0033C81.9523 10.8649 82.0298 10.7517 82.1311 10.6639C82.2324 10.5761 82.3708 10.5187 82.5465 10.4918L87.0792 10.0957L88.8388 5.9245C88.9029 5.76938 89 5.65464 89.1301 5.58027C89.2602 5.50592 89.3977 5.46875 89.5426 5.46875C89.6874 5.46875 89.8249 5.50592 89.9551 5.58027C90.0852 5.65464 90.1823 5.76938 90.2464 5.9245L92.006 10.0957L96.5387 10.4918C96.7143 10.5187 96.8528 10.5761 96.9541 10.6639C97.0553 10.7517 97.1329 10.8649 97.1868 11.0033C97.2406 11.1418 97.2499 11.2844 97.2146 11.4312C97.1794 11.578 97.0977 11.7071 96.9695 11.8187L93.5349 14.7918L94.5675 19.209C94.6111 19.3744 94.6009 19.5254 94.5368 19.6619C94.4727 19.7984 94.3816 19.909 94.2637 19.9936C94.1458 20.0782 94.014 20.1273 93.8685 20.1407C93.723 20.1542 93.5778 20.1186 93.433 20.034L89.5426 17.6879Z" fill="#FF7A00"/>
</g>
</svg>
