<svg width="33" height="28" viewBox="0 0 33 28" fill="none" xmlns="http://www.w3.org/2000/svg">
<path d="M31.7627 12.7082C31.5552 13.9584 29.5028 13.5655 29.699 12.3828C29.9257 11.0165 30.1525 9.65022 30.3792 8.28393C29.1195 10.5333 26.6448 11.59 24.0884 11.7254C24.1236 12.5178 24.1244 13.3017 24.0985 14.0581C24.0375 15.8468 23.6177 17.6539 22.1989 18.8516C20.0137 20.6961 17.2108 20.1422 14.8061 18.9793C14.3903 22.8319 12.6442 26.2619 8.36698 27.2549C5.68544 27.8775 2.67189 27.3916 0.1493 26.3619C-0.47301 26.1079 1.12435 24.8373 1.78943 25.1087C5.48593 26.6175 10.8483 27.038 12.4313 22.447C12.9003 21.0866 13.1154 19.5914 13.1423 18.0515C12.935 17.9211 12.7329 17.7893 12.5385 17.6572C9.02303 15.2697 5.2936 11.4969 4.30085 7.18945C3.71478 4.64659 4.92281 -0.296257 8.50929 1.14394C10.3337 1.87653 11.5803 4.08978 12.3967 5.76001C13.8801 8.79467 14.6476 12.2206 14.8636 15.5929C14.8914 16.0278 14.9062 16.4646 14.9083 16.9007C15.5684 17.2952 16.2125 17.6321 16.8183 17.9006C17.834 18.3507 19.2262 18.8893 20.3581 18.6401C21.8904 18.3027 22.112 16.384 22.1841 15.0506C22.235 14.1105 22.2587 12.9184 22.1868 11.6606C17.9554 11.1508 14.2922 8.25163 16.5425 4.25383C18.2552 1.21112 21.3935 2.54371 22.6305 5.1064C23.421 6.74402 23.8284 8.63095 24.0048 10.5207C26.1909 10.6044 28.2915 9.7384 29.0508 7.50088C27.8931 7.96364 26.7355 8.42644 25.5779 8.88921C24.458 9.33688 23.4626 7.58934 24.7142 7.08899C26.978 6.18401 29.2418 5.279 31.5056 4.37399C32.1371 4.12156 33.0926 4.69373 32.9693 5.43682C32.5671 7.86063 32.1649 10.2844 31.7627 12.7082ZM10.9743 7.72197C10.351 6.26917 9.57577 4.78279 8.49289 3.62233C8.10372 3.20527 7.54936 2.61262 6.97822 2.44135C6.26707 2.22813 6.28679 2.67944 6.11204 3.61807C5.27894 8.09283 9.08464 12.7359 13.0389 15.6535C12.76 12.8375 11.9607 10.0212 10.9743 7.72197ZM19.3037 4.17686C18.2632 3.48161 18.1194 3.96107 17.9416 5.12568C17.6774 6.85542 18.4977 8.2838 19.9 9.21887C20.5377 9.64404 21.2776 9.97818 22.0565 10.203C21.7577 7.75302 21.0083 5.31585 19.3037 4.17686Z" fill="white"/>
</svg>
