<svg width="18" height="18" viewBox="0 0 18 18" fill="none" xmlns="http://www.w3.org/2000/svg">
<mask id="mask0_22_123028" style="mask-type:alpha" maskUnits="userSpaceOnUse" x="0" y="0" width="18" height="18">
<rect width="18" height="18" fill="#D9D9D9"/>
</mask>
<g mask="url(#mask0_22_123028)">
<mask id="mask1_22_123028" style="mask-type:alpha" maskUnits="userSpaceOnUse" x="0" y="-1" width="18" height="19">
<rect y="-0.445312" width="18" height="18" fill="#D9D9D9"/>
</mask>
<g mask="url(#mask1_22_123028)">
<path d="M9.49917 5.64849C9.0009 5.65161 8.51471 5.8027 8.10193 6.08269C7.68914 6.36268 7.36825 6.75904 7.17973 7.22177C6.9912 7.6845 6.94349 8.19287 7.0426 8.68278C7.14171 9.17268 7.38322 9.62216 7.73665 9.97453C8.09008 10.3269 8.53961 10.5664 9.02854 10.6628C9.51747 10.7591 10.0239 10.7081 10.484 10.5161C10.944 10.3241 11.3371 9.99969 11.6136 9.58383C11.8901 9.16798 12.0377 8.67929 12.0377 8.1794C12.0377 7.8457 11.9719 7.51529 11.8442 7.20719C11.7164 6.89909 11.5292 6.61938 11.2932 6.38416C11.0573 6.14893 10.7773 5.96284 10.4694 5.83658C10.1615 5.71033 9.83178 5.6464 9.49917 5.64849Z" fill="white"/>
<path d="M9.51807 3.78906H9.48653C6.94802 3.80488 4.09416 5.71888 3.2112 7.9967C3.1796 8.11053 3.1796 8.23086 3.2112 8.3447C4.09416 10.6225 6.94802 12.5365 9.48653 12.5523H9.51807C12.0566 12.5365 14.9104 10.6225 15.7934 8.3447C15.825 8.23086 15.825 8.11053 15.7934 7.9967C14.9104 5.71888 12.0566 3.80488 9.51807 3.78906ZM9.5023 11.6032C7.45257 11.6032 4.97712 9.98979 4.173 8.1707C4.97712 6.35161 7.45257 4.73815 9.5023 4.73815C11.552 4.73815 14.0275 6.35161 14.8316 8.1707C14.0275 9.98979 11.552 11.6032 9.5023 11.6032Z" fill="white"/>
</g>
</g>
</svg>
