<svg width="18" height="19" viewBox="0 0 18 19" fill="none" xmlns="http://www.w3.org/2000/svg">
<mask id="mask0_22_122983" style="mask-type:alpha" maskUnits="userSpaceOnUse" x="0" y="0" width="18" height="19">
<rect y="0.5" width="18" height="18" fill="#D9D9D9"/>
</mask>
<g mask="url(#mask0_22_122983)">
<mask id="mask1_22_122983" style="mask-type:alpha" maskUnits="userSpaceOnUse" x="0" y="0" width="18" height="19">
<rect y="0.0546875" width="18" height="18" fill="#D9D9D9"/>
</mask>
<g mask="url(#mask1_22_122983)">
<path d="M0.75 15.0625V12.9625C0.75 12.5375 0.859375 12.1469 1.07812 11.7906C1.29688 11.4344 1.5875 11.1625 1.95 10.975C2.725 10.5875 3.5125 10.2969 4.3125 10.1031C5.1125 9.90937 5.925 9.8125 6.75 9.8125C7.575 9.8125 8.3875 9.90937 9.1875 10.1031C9.9875 10.2969 10.775 10.5875 11.55 10.975C11.9125 11.1625 12.2031 11.4344 12.4219 11.7906C12.6406 12.1469 12.75 12.5375 12.75 12.9625V15.0625H0.75ZM14.25 15.0625V12.8125C14.25 12.2625 14.0969 11.7344 13.7906 11.2281C13.4844 10.7219 13.05 10.2875 12.4875 9.925C13.125 10 13.725 10.1281 14.2875 10.3094C14.85 10.4906 15.375 10.7125 15.8625 10.975C16.3125 11.225 16.6562 11.5031 16.8937 11.8094C17.1313 12.1156 17.25 12.45 17.25 12.8125V15.0625H14.25ZM6.75 9.0625C5.925 9.0625 5.21875 8.76875 4.63125 8.18125C4.04375 7.59375 3.75 6.8875 3.75 6.0625C3.75 5.2375 4.04375 4.53125 4.63125 3.94375C5.21875 3.35625 5.925 3.0625 6.75 3.0625C7.575 3.0625 8.28125 3.35625 8.86875 3.94375C9.45625 4.53125 9.75 5.2375 9.75 6.0625C9.75 6.8875 9.45625 7.59375 8.86875 8.18125C8.28125 8.76875 7.575 9.0625 6.75 9.0625ZM14.25 6.0625C14.25 6.8875 13.9563 7.59375 13.3688 8.18125C12.7813 8.76875 12.075 9.0625 11.25 9.0625C11.1125 9.0625 10.9375 9.04687 10.725 9.01562C10.5125 8.98437 10.3375 8.95 10.2 8.9125C10.5375 8.5125 10.7969 8.06875 10.9781 7.58125C11.1594 7.09375 11.25 6.5875 11.25 6.0625C11.25 5.5375 11.1594 5.03125 10.9781 4.54375C10.7969 4.05625 10.5375 3.6125 10.2 3.2125C10.375 3.15 10.55 3.10937 10.725 3.09062C10.9 3.07188 11.075 3.0625 11.25 3.0625C12.075 3.0625 12.7813 3.35625 13.3688 3.94375C13.9563 4.53125 14.25 5.2375 14.25 6.0625ZM2.25 13.5625H11.25V12.9625C11.25 12.825 11.2156 12.7 11.1469 12.5875C11.0781 12.475 10.9875 12.3875 10.875 12.325C10.2 11.9875 9.51875 11.7344 8.83125 11.5656C8.14375 11.3969 7.45 11.3125 6.75 11.3125C6.05 11.3125 5.35625 11.3969 4.66875 11.5656C3.98125 11.7344 3.3 11.9875 2.625 12.325C2.5125 12.3875 2.42188 12.475 2.35313 12.5875C2.28438 12.7 2.25 12.825 2.25 12.9625V13.5625ZM6.75 7.5625C7.1625 7.5625 7.51563 7.41562 7.80938 7.12187C8.10313 6.82812 8.25 6.475 8.25 6.0625C8.25 5.65 8.10313 5.29688 7.80938 5.00312C7.51563 4.70937 7.1625 4.5625 6.75 4.5625C6.3375 4.5625 5.98438 4.70937 5.69063 5.00312C5.39687 5.29688 5.25 5.65 5.25 6.0625C5.25 6.475 5.39687 6.82812 5.69063 7.12187C5.98438 7.41562 6.3375 7.5625 6.75 7.5625Z" fill="white"/>
</g>
</g>
</svg>
