<svg width="53" height="41" viewBox="0 0 53 41" fill="none" xmlns="http://www.w3.org/2000/svg">
<path d="M16.9696 19.0881L2.4241 19.0881L2.4241 16.6638C2.4241 9.31188 8.40557 3.33055 15.7575 3.33055L15.7575 0.906251C7.06898 0.906251 -6.18001e-07 7.97536 -1.37757e-06 16.6638L-1.58951e-06 19.0881L-1.69547e-06 20.3002L-3.07304e-06 36.0578C-3.30682e-06 38.7319 2.17436 40.9063 4.84847 40.9063L16.9696 40.9063C19.6437 40.9063 21.8181 38.7319 21.8181 36.0578L21.8181 23.9366C21.8181 21.2625 19.6437 19.0881 16.9696 19.0881Z" fill="#FCDE5A"/>
<path d="M47.2665 19.0881L32.7211 19.0881L32.7211 16.6638C32.7211 9.31188 38.7024 3.33055 46.0545 3.33055L46.0545 0.906251C37.366 0.906251 30.2969 7.97536 30.2969 16.6638L30.2969 19.0881L30.2969 20.3002L30.2969 36.0578C30.2969 38.7319 32.4712 40.9063 35.1453 40.9063L47.2665 40.9063C49.9406 40.9063 52.115 38.7319 52.115 36.0578L52.115 23.9366C52.115 21.2625 49.9406 19.0881 47.2665 19.0881Z" fill="#FCDE5A"/>
</svg>
