<svg width="53" height="41" viewBox="0 0 53 41" fill="none" xmlns="http://www.w3.org/2000/svg">
<path d="M35.1453 22.7244H49.6909V25.1487C49.6909 32.5006 43.7094 38.4819 36.3575 38.4819V40.9062C45.046 40.9062 52.115 33.8371 52.115 25.1487V22.7244V21.5123V5.75472C52.115 3.08062 49.9406 0.90625 47.2665 0.90625H35.1453C32.4712 0.90625 30.2969 3.08062 30.2969 5.75472V17.8759C30.2969 20.55 32.4712 22.7244 35.1453 22.7244Z" fill="#FCDE5A"/>
<path d="M4.84848 22.7244H19.3939V25.1487C19.3939 32.5006 13.4126 38.4819 6.06053 38.4819V40.9062C14.749 40.9062 21.8181 33.8371 21.8181 25.1487V22.7244V21.5123V5.75472C21.8181 3.08062 19.6437 0.90625 16.9696 0.90625H4.84848C2.17438 0.90625 9.53674e-06 3.08062 9.53674e-06 5.75472V17.8759C9.53674e-06 20.55 2.17438 22.7244 4.84848 22.7244Z" fill="#FCDE5A"/>
</svg>
