<svg width="60" height="60" viewBox="0 0 60 60" fill="none" xmlns="http://www.w3.org/2000/svg">
<g clip-path="url(#clip0_1725_5042)">
<path d="M44.4892 24.2283C49.4063 24.2283 53.3924 20.2422 53.3924 15.3251C53.3924 10.408 49.4063 6.42188 44.4892 6.42188C39.572 6.42188 35.5859 10.408 35.5859 15.3251C35.5859 20.2422 39.572 24.2283 44.4892 24.2283Z" fill="#8EC37A"/>
<path d="M30.0048 48.9158C40.4448 48.9158 48.908 40.4526 48.908 30.0126C48.908 19.5726 40.4448 11.1094 30.0048 11.1094C19.5648 11.1094 11.1016 19.5726 11.1016 30.0126C11.1016 40.4526 19.5648 48.9158 30.0048 48.9158Z" stroke="#080E14" stroke-width="1.6" stroke-linecap="round" stroke-linejoin="round"/>
<path d="M23.1361 43.9054C21.2823 42.9768 19.6336 41.6857 18.2877 40.1085C16.9418 38.5313 15.926 36.7001 15.3004 34.7233C14.6749 32.7466 14.4523 30.6644 14.6458 28.6C14.8393 26.5357 15.4451 24.5311 16.4272 22.7051C17.4093 20.879 18.7478 19.2686 20.3634 17.969C21.979 16.6695 23.839 15.7074 25.8331 15.1395C27.8272 14.5717 29.915 14.4097 31.9729 14.6631C34.0307 14.9166 36.0168 15.5803 37.8136 16.6151" stroke="#080E14" stroke-width="1.6" stroke-linecap="round" stroke-linejoin="round"/>
<path d="M45.5123 29.7734V30.0154C45.513 33.4558 44.3691 36.7986 42.2608 39.5173C40.1524 42.2359 37.1995 44.1759 33.8672 45.0315" stroke="#080E14" stroke-width="1.6" stroke-linecap="round" stroke-linejoin="round"/>
<path d="M25.929 19.1119C25.8053 19.3745 25.7622 19.6679 25.8053 19.955C25.8484 20.2421 25.9756 20.51 26.1709 20.7248C26.7571 21.185 27.4915 21.4145 28.2354 21.3699L33.2677 21.6119C33.5034 21.6468 33.7441 21.6132 33.9612 21.5151C34.1161 21.4136 34.2321 21.2629 34.2907 21.0873C34.3492 20.9117 34.3468 20.7214 34.2838 20.5474C34.1638 20.2018 33.9451 19.899 33.6548 19.6764C32.5594 18.7356 31.1915 18.1703 29.7516 18.0635C28.7032 18.0312 26.4935 18.0312 25.929 19.1119Z" stroke="#080E14" stroke-width="1.6" stroke-linecap="round" stroke-linejoin="round"/>
<path d="M30.1521 34.0644C29.3748 34.5224 28.717 35.158 28.2328 35.9192C27.9988 36.3001 27.875 36.7384 27.875 37.1854C27.875 37.6324 27.9988 38.0706 28.2328 38.4515C28.7155 39.0135 29.3863 39.3804 30.1199 39.4838C31.6969 39.8134 33.3312 39.7442 34.8747 39.2823C36.4182 38.8204 37.8219 37.9804 38.9586 36.8386C39.6053 36.1807 40.0767 35.371 40.3295 34.4838C40.4786 34.0265 40.5017 33.5375 40.3965 33.0682C40.2912 32.5988 40.0615 32.1665 39.7315 31.8167C39.4014 31.4668 38.9832 31.2123 38.5208 31.08C38.0584 30.9476 37.5689 30.9422 37.1037 31.0644C34.6351 31.6687 32.2853 32.6827 30.1521 34.0644Z" stroke="#080E14" stroke-width="1.6" stroke-linecap="round" stroke-linejoin="round"/>
<path d="M19.5993 30.3856C19.5384 30.8396 19.6095 31.3015 19.804 31.7161C19.9985 32.1308 20.3081 32.4808 20.696 32.7243C21.0525 32.8433 21.4363 32.8531 21.7984 32.7525C22.1605 32.6519 22.4843 32.4456 22.7283 32.1598C23.2094 31.5794 23.5613 30.9031 23.7606 30.1759C24.0398 29.4554 24.1873 28.6906 24.196 27.9179C24.196 26.4824 22.7606 24.9179 21.2928 25.9179C20.7258 26.5112 20.2837 27.2125 19.9928 27.9799C19.7018 28.7474 19.568 29.5655 19.5993 30.3856Z" stroke="#080E14" stroke-width="1.6" stroke-linecap="round" stroke-linejoin="round"/>
<path d="M30.001 59.0489C31.3995 59.0489 32.5333 57.9152 32.5333 56.5166C32.5333 55.1181 31.3995 53.9844 30.001 53.9844C28.6025 53.9844 27.4688 55.1181 27.4688 56.5166C27.4688 57.9152 28.6025 59.0489 30.001 59.0489Z" stroke="#080E14" stroke-width="1.6" stroke-linecap="round" stroke-linejoin="round"/>
<path d="M56.501 32.8145C57.8995 32.8145 59.0333 31.6808 59.0333 30.2823C59.0333 28.8837 57.8995 27.75 56.501 27.75C55.1025 27.75 53.9688 28.8837 53.9688 30.2823C53.9688 31.6808 55.1025 32.8145 56.501 32.8145Z" stroke="#080E14" stroke-width="1.6" stroke-linecap="round" stroke-linejoin="round"/>
<path d="M49.936 53.9735C51.8423 53.9735 53.3876 52.4282 53.3876 50.5219C53.3876 48.6157 51.8423 47.0703 49.936 47.0703C48.0297 47.0703 46.4844 48.6157 46.4844 50.5219C46.4844 52.4282 48.0297 53.9735 49.936 53.9735Z" stroke="#080E14" stroke-width="1.6" stroke-linecap="round" stroke-linejoin="round"/>
<path d="M50.9279 11.7777C52.6917 11.7777 54.1215 10.3479 54.1215 8.58417C54.1215 6.82043 52.6917 5.39062 50.9279 5.39062C49.1642 5.39062 47.7344 6.82043 47.7344 8.58417C47.7344 10.3479 49.1642 11.7777 50.9279 11.7777Z" stroke="#080E14" stroke-width="1.6" stroke-linecap="round" stroke-linejoin="round"/>
<path d="M7.67465 11.0368C9.51857 11.0368 11.0134 9.542 11.0134 7.69809C11.0134 5.85417 9.51857 4.35938 7.67465 4.35938C5.83073 4.35938 4.33594 5.85417 4.33594 7.69809C4.33594 9.542 5.83073 11.0368 7.67465 11.0368Z" stroke="#080E14" stroke-width="1.6" stroke-linecap="round" stroke-linejoin="round"/>
<path d="M8.57031 55.4375C10.5033 55.4375 12.0703 53.8705 12.0703 51.9375C12.0703 50.0045 10.5033 48.4375 8.57031 48.4375C6.63732 48.4375 5.07031 50.0045 5.07031 51.9375C5.07031 53.8705 6.63732 55.4375 8.57031 55.4375Z" stroke="#080E14" stroke-width="1.6" stroke-linecap="round" stroke-linejoin="round"/>
<path d="M30.0557 6.04889C31.4542 6.04889 32.588 4.91516 32.588 3.51663C32.588 2.11811 31.4542 0.984375 30.0557 0.984375C28.6572 0.984375 27.5234 2.11811 27.5234 3.51663C27.5234 4.91516 28.6572 6.04889 30.0557 6.04889Z" stroke="#080E14" stroke-width="1.6" stroke-linecap="round" stroke-linejoin="round"/>
<path d="M3.50101 32.8145C4.89954 32.8145 6.03327 31.6808 6.03327 30.2823C6.03327 28.8837 4.89954 27.75 3.50101 27.75C2.10248 27.75 0.96875 28.8837 0.96875 30.2823C0.96875 31.6808 2.10248 32.8145 3.50101 32.8145Z" stroke="#080E14" stroke-width="1.6" stroke-linecap="round" stroke-linejoin="round"/>
<path d="M30 53.9781V48.9297" stroke="#080E14" stroke-width="1.6" stroke-linecap="round" stroke-linejoin="round"/>
<path d="M53.9468 30.2891H48.8984" stroke="#080E14" stroke-width="1.6" stroke-linecap="round" stroke-linejoin="round"/>
<path d="M8.14844 30.2891H11.1001" stroke="#080E14" stroke-width="1.6" stroke-linecap="round" stroke-linejoin="round"/>
<path d="M30.0703 6.07031V11.1187" stroke="#080E14" stroke-width="1.6" stroke-linecap="round" stroke-linejoin="round"/>
<path d="M16.6323 43.3906L13.6484 46.5197" stroke="#080E14" stroke-width="1.6" stroke-linecap="round" stroke-linejoin="round"/>
<path d="M47.6376 47.9657L45.2344 45.5625" stroke="#080E14" stroke-width="1.6" stroke-linecap="round" stroke-linejoin="round"/>
<path d="M47.1603 12.9609L43.5312 16.7996" stroke="#080E14" stroke-width="1.6" stroke-linecap="round" stroke-linejoin="round"/>
<path d="M10.0703 10.0234L16.7155 16.5718" stroke="#080E14" stroke-width="1.6" stroke-linecap="round" stroke-linejoin="round"/>
</g>
<defs>
<clipPath id="clip0_1725_5042">
<rect width="60" height="60" fill="white"/>
</clipPath>
</defs>
</svg>
