<svg width="60" height="60" viewBox="0 0 60 60" fill="none" xmlns="http://www.w3.org/2000/svg">
<path d="M50.6083 55.1087H17.5224C16.9958 55.098 16.481 54.9477 16.0293 54.6727C15.5775 54.3977 15.2045 54.0076 14.9472 53.541C14.6899 53.0745 14.5574 52.5477 14.5627 52.0131C14.5679 51.4785 14.7109 50.9545 14.9773 50.4933L21.7642 38.4382C21.9565 38.1002 22.2337 37.82 22.5676 37.6264C22.9014 37.4327 23.28 37.3325 23.6645 37.336H44.5171C44.901 37.336 45.2782 37.4377 45.6115 37.631C45.9447 37.8243 46.2225 38.1025 46.4174 38.4382L53.2043 50.4933C53.4674 50.9592 53.606 51.4867 53.6064 52.0236C53.6069 52.5606 53.4692 53.0883 53.2069 53.5546C52.9446 54.021 52.5669 54.4096 52.1111 54.6822C51.6553 54.9548 51.1373 55.1018 50.6083 55.1087Z" fill="#D85A6E"/>
<path d="M49.1508 50.1105L51.1698 53.5548C51.5023 54.1018 51.682 54.7302 51.6899 55.3729C51.6978 56.0155 51.5336 56.6483 51.2148 57.2035C50.8959 57.7588 50.4345 58.2158 49.8797 58.5255C49.3249 58.8353 48.6976 58.9863 48.0649 58.9624H10.1773C9.56287 58.9642 8.95885 58.8016 8.42609 58.491C7.89334 58.1803 7.45066 57.7327 7.14269 57.193C6.83471 56.6534 6.67232 56.0409 6.67188 55.4173C6.67143 54.7937 6.83295 54.181 7.14016 53.6409L21.9016 27.688C22.5019 26.6416 22.8235 25.4545 22.8347 24.2437V12.4813C22.8347 11.8419 23.085 11.2286 23.5305 10.7765C23.976 10.3243 24.5801 10.0703 25.2101 10.0703H33.0829C33.7145 10.0703 34.3204 10.3238 34.7686 10.7754C35.2167 11.2271 35.4708 11.8403 35.4753 12.4813V24.1059C35.4865 25.3168 35.8081 26.5038 36.4084 27.5502L44.6714 42.1025" stroke="#080E14" stroke-width="1.6" stroke-linecap="round" stroke-linejoin="round"/>
<path d="M36.1156 52.8431C38.1771 52.8431 39.8483 51.1468 39.8483 49.0544C39.8483 46.9619 38.1771 45.2656 36.1156 45.2656C34.054 45.2656 32.3828 46.9619 32.3828 49.0544C32.3828 51.1468 34.054 52.8431 36.1156 52.8431Z" stroke="#080E14" stroke-width="1.6" stroke-linecap="round" stroke-linejoin="round"/>
<path d="M26.3317 38.148C27.7748 38.148 28.9446 36.9606 28.9446 35.4959C28.9446 34.0311 27.7748 32.8438 26.3317 32.8438C24.8886 32.8438 23.7188 34.0311 23.7188 35.4959C23.7188 36.9606 24.8886 38.148 26.3317 38.148Z" stroke="#080E14" stroke-width="1.6" stroke-linecap="round" stroke-linejoin="round"/>
<path d="M24.5699 46.0981C25.3851 46.0981 26.046 45.4273 26.046 44.5998C26.046 43.7724 25.3851 43.1016 24.5699 43.1016C23.7546 43.1016 23.0938 43.7724 23.0938 44.5998C23.0938 45.4273 23.7546 46.0981 24.5699 46.0981Z" fill="#080E14"/>
<path d="M30.266 17.8924C31.5779 17.8924 32.6414 16.8129 32.6414 15.4813C32.6414 14.1498 31.5779 13.0703 30.266 13.0703C28.9541 13.0703 27.8906 14.1498 27.8906 15.4813C27.8906 16.8129 28.9541 17.8924 30.266 17.8924Z" stroke="#080E14" stroke-width="1.6" stroke-linecap="round" stroke-linejoin="round"/>
<path d="M25.9523 4.82C26.9831 4.82 27.8187 3.97186 27.8187 2.92562C27.8187 1.87939 26.9831 1.03125 25.9523 1.03125C24.9215 1.03125 24.0859 1.87939 24.0859 2.92562C24.0859 3.97186 24.9215 4.82 25.9523 4.82Z" stroke="#080E14" stroke-width="1.6" stroke-linecap="round" stroke-linejoin="round"/>
</svg>
