<svg width="80" height="57" viewBox="0 0 80 57" fill="none" xmlns="http://www.w3.org/2000/svg">
<g clip-path="url(#clip0_1725_1506)">
<path d="M60.7178 39.3354C68.4363 39.3354 74.6933 33.0955 74.6933 25.3982C74.6933 17.7008 68.4363 11.4609 60.7178 11.4609C52.9993 11.4609 46.7422 17.7008 46.7422 25.3982C46.7422 33.0955 52.9993 39.3354 60.7178 39.3354Z" fill="#FFAD7A"/>
<path d="M60.6991 55.7688H64.7185C65.452 55.7688 66.1554 55.4782 66.6741 54.961C67.1927 54.4438 67.4841 53.7422 67.4841 53.0108V51.1721C67.4841 50.4406 67.1927 49.7391 66.6741 49.2219C66.1554 48.7046 65.452 48.4141 64.7185 48.4141H3.87499C3.1541 48.4138 2.46161 48.6943 1.94502 49.1957C1.42844 49.6971 1.1286 50.3799 1.10938 51.0985V52.9372C1.10938 53.6687 1.40075 54.3702 1.9194 54.8874C2.43806 55.4047 3.1415 55.6952 3.87499 55.6952H55.9054" stroke="#080E14" stroke-width="2.13333" stroke-linecap="round" stroke-linejoin="round"/>
<path d="M4.90625 22.0469V3.84396C4.90625 3.11249 5.19763 2.41097 5.71628 1.89374C6.23493 1.37651 6.93838 1.08594 7.67186 1.08594H61.4538C62.1873 1.08594 62.8908 1.37651 63.4094 1.89374C63.9281 2.41097 64.2195 3.11249 64.2195 3.84396L64.7173 48.3217" stroke="#080E14" stroke-width="2.13333" stroke-linecap="round" stroke-linejoin="round"/>
<path d="M17.2612 39.3042C20.3568 39.3042 22.8662 36.8017 22.8662 33.7146C22.8662 30.6275 20.3568 28.125 17.2612 28.125C14.1657 28.125 11.6562 30.6275 11.6562 33.7146C11.6562 36.8017 14.1657 39.3042 17.2612 39.3042Z" stroke="#080E14" stroke-width="2.13333" stroke-linecap="round" stroke-linejoin="round"/>
<path d="M29.4331 39.3042C32.5286 39.3042 35.0381 36.8017 35.0381 33.7146C35.0381 30.6275 32.5286 28.125 29.4331 28.125C26.3376 28.125 23.8281 30.6275 23.8281 33.7146C23.8281 36.8017 26.3376 39.3042 29.4331 39.3042Z" stroke="#080E14" stroke-width="2.13333" stroke-linecap="round" stroke-linejoin="round"/>
<path d="M40.6597 39.3042C43.7552 39.3042 46.2646 36.8017 46.2646 33.7146C46.2646 30.6275 43.7552 28.125 40.6597 28.125C37.5641 28.125 35.0547 30.6275 35.0547 33.7146C35.0547 36.8017 37.5641 39.3042 40.6597 39.3042Z" stroke="#080E14" stroke-width="2.13333" stroke-linecap="round" stroke-linejoin="round"/>
<path d="M17.2656 28.133V1.08594" stroke="#080E14" stroke-width="2.13333" stroke-linecap="round" stroke-linejoin="round"/>
<path d="M29.4297 28.133V1.08594" stroke="#080E14" stroke-width="2.13333" stroke-linecap="round" stroke-linejoin="round"/>
<path d="M40.6562 28.133V1.08594" stroke="#080E14" stroke-width="2.13333" stroke-linecap="round" stroke-linejoin="round"/>
<path d="M73.2769 31.7339C76.3724 31.7339 78.8818 29.2313 78.8818 26.1443C78.8818 23.0572 76.3724 20.5547 73.2769 20.5547C70.1813 20.5547 67.6719 23.0572 67.6719 26.1443C67.6719 29.2313 70.1813 31.7339 73.2769 31.7339Z" stroke="#080E14" stroke-width="2.13333" stroke-linecap="round" stroke-linejoin="round"/>
<path d="M51.8672 1.08594L69.6409 21.8998" stroke="#080E14" stroke-width="2.13333" stroke-linecap="round" stroke-linejoin="round"/>
<path d="M4.90625 40.4297V48.3176" stroke="#080E14" stroke-width="2.13333" stroke-linecap="round" stroke-linejoin="round"/>
</g>
<defs>
<clipPath id="clip0_1725_1506">
<rect width="80" height="56.8889" fill="white"/>
</clipPath>
</defs>
</svg>
