<svg width="40" height="40" viewBox="0 0 40 40" fill="none" xmlns="http://www.w3.org/2000/svg">
<rect width="40" height="40" rx="8" fill="#F1F2F6"/>
<g clip-path="url(#clip0_2305_40609)">
<path d="M26.1597 23.9952C28.4149 23.9952 30.2431 21.7099 30.2431 18.8909C30.2431 16.0718 28.4149 13.7865 26.1597 13.7865C23.9044 13.7865 22.0762 16.0718 22.0762 18.8909C22.0762 21.7099 23.9044 23.9952 26.1597 23.9952Z" fill="#FCDE5A"/>
<path d="M26.1536 30.0152H27.328C27.5423 30.0152 27.7478 29.9088 27.8994 29.7194C28.0509 29.53 28.136 29.273 28.136 29.0051V28.3318C28.136 28.0639 28.0509 27.8069 27.8994 27.6175C27.7478 27.4281 27.5423 27.3217 27.328 27.3217H9.55027C9.33963 27.3216 9.13729 27.4243 8.98635 27.6079C8.83541 27.7916 8.7478 28.0416 8.74219 28.3048V28.9782C8.74219 29.2461 8.82732 29.503 8.97887 29.6925C9.13041 29.8819 9.33595 29.9883 9.55027 29.9883H24.7529" stroke="#080E14" stroke-width="1.21212" stroke-linecap="round" stroke-linejoin="round"/>
<path d="M9.85547 17.665V10.9984C9.85547 10.7305 9.94061 10.4736 10.0921 10.2841C10.2437 10.0947 10.4492 9.98828 10.6635 9.98828H26.378C26.5923 9.98828 26.7978 10.0947 26.9494 10.2841C27.1009 10.4736 27.186 10.7305 27.186 10.9984L27.3315 27.2879" stroke="#080E14" stroke-width="1.21212" stroke-linecap="round" stroke-linejoin="round"/>
<path d="M13.4639 23.9888C14.3684 23.9888 15.1016 23.0723 15.1016 21.9417C15.1016 20.8111 14.3684 19.8945 13.4639 19.8945C12.5594 19.8945 11.8262 20.8111 11.8262 21.9417C11.8262 23.0723 12.5594 23.9888 13.4639 23.9888Z" stroke="#080E14" stroke-width="1.21212" stroke-linecap="round" stroke-linejoin="round"/>
<path d="M17.0166 23.9888C17.9211 23.9888 18.6543 23.0723 18.6543 21.9417C18.6543 20.8111 17.9211 19.8945 17.0166 19.8945C16.1121 19.8945 15.3789 20.8111 15.3789 21.9417C15.3789 23.0723 16.1121 23.9888 17.0166 23.9888Z" stroke="#080E14" stroke-width="1.21212" stroke-linecap="round" stroke-linejoin="round"/>
<path d="M20.2959 23.9888C21.2004 23.9888 21.9336 23.0723 21.9336 21.9417C21.9336 20.8111 21.2004 19.8945 20.2959 19.8945C19.3914 19.8945 18.6582 20.8111 18.6582 21.9417C18.6582 23.0723 19.3914 23.9888 20.2959 23.9888Z" stroke="#080E14" stroke-width="1.21212" stroke-linecap="round" stroke-linejoin="round"/>
<path d="M13.459 19.894V9.98828" stroke="#080E14" stroke-width="1.21212" stroke-linecap="round" stroke-linejoin="round"/>
<path d="M17.0176 19.894V9.98828" stroke="#080E14" stroke-width="1.21212" stroke-linecap="round" stroke-linejoin="round"/>
<path d="M20.3008 19.894V9.98828" stroke="#080E14" stroke-width="1.21212" stroke-linecap="round" stroke-linejoin="round"/>
<path d="M29.8291 21.214C30.7336 21.214 31.4668 20.2975 31.4668 19.1669C31.4668 18.0363 30.7336 17.1198 29.8291 17.1198C28.9246 17.1198 28.1914 18.0363 28.1914 19.1669C28.1914 20.2975 28.9246 21.214 29.8291 21.214Z" stroke="#080E14" stroke-width="1.21212" stroke-linecap="round" stroke-linejoin="round"/>
<path d="M23.5723 9.98828L28.7655 17.6111" stroke="#080E14" stroke-width="1.21212" stroke-linecap="round" stroke-linejoin="round"/>
<path d="M9.85547 24.3998V27.2887" stroke="#080E14" stroke-width="1.21212" stroke-linecap="round" stroke-linejoin="round"/>
</g>
<defs>
<clipPath id="clip0_2305_40609">
<rect width="24" height="24" fill="white" transform="translate(8 8)"/>
</clipPath>
</defs>
</svg>
