<svg width="100" height="101" viewBox="0 0 100 101" fill="none" xmlns="http://www.w3.org/2000/svg">
<path d="M66.7032 70.2L58.4013 83.4502C58.2341 83.607 58.0321 83.722 57.812 83.7859C57.5918 83.8498 57.3596 83.8607 57.1344 83.8177C56.9092 83.7747 56.6974 83.679 56.5163 83.5385C56.3351 83.3981 56.1898 83.2167 56.0923 83.0094L45.2478 67.4515C47.1739 67.1903 49.1155 67.0603 51.0592 67.0625C56.4299 67.0666 61.7467 68.1329 66.7032 70.2Z" fill="#FCDE5A"/>
<path d="M8.69428 19.231L33.6262 30.9513C33.781 31.0214 33.9491 31.0577 34.1191 31.0577C34.2891 31.0577 34.4572 31.0214 34.612 30.9513L59.6996 18.9717C59.8139 18.9128 59.9098 18.8236 59.9768 18.7138C60.0437 18.604 60.0791 18.4779 60.0791 18.3494C60.0791 18.2208 60.0437 18.0947 59.9768 17.9849C59.9098 17.8752 59.8139 17.7859 59.6996 17.727L34.7936 4.08797C34.6257 3.99941 34.4387 3.95312 34.2488 3.95312C34.0589 3.95312 33.8719 3.99941 33.704 4.08797L8.6424 18.0382C8.54302 18.1052 8.46249 18.1965 8.40852 18.3035C8.35456 18.4104 8.32895 18.5294 8.33416 18.6491C8.33936 18.7688 8.37521 18.8851 8.43826 18.987C8.50131 19.0889 8.58946 19.1729 8.69428 19.231Z" fill="#FCDE5A"/>
<path d="M67.9134 25.2177L80.9631 18.9686L51.1538 2.63281L21.137 19.3316L34.1866 25.451" stroke="#080E14" stroke-width="3.29664" stroke-linecap="round" stroke-linejoin="round"/>
<path d="M59.674 19.9073C62.4768 20.3689 65.2364 21.0628 67.9241 21.9817V33.313C64.4968 31.8648 60.8947 30.871 57.2094 30.357C57.2094 30.357 53.2919 29.8903 51.1126 29.8903C48.9324 29.8821 46.7549 30.0468 44.6007 30.383C41.0321 30.9196 37.5454 31.9041 34.2233 33.313V21.9817C36.9937 21.031 39.8407 20.3197 42.7328 19.8555" stroke="#080E14" stroke-width="3.29664" stroke-linecap="round" stroke-linejoin="round"/>
<path d="M67.576 33.1758C69.5545 36.2741 70.6075 39.8722 70.6114 43.5477C70.6315 46.5878 69.9419 49.5907 68.5975 52.3177C67.2531 55.0448 65.2909 57.421 62.8668 59.2574C60.4427 61.0939 57.6235 62.34 54.6331 62.8969C51.6428 63.4537 48.5638 63.3059 45.6406 62.4651C42.7175 61.6244 40.0308 60.1139 37.794 58.0536C35.5572 55.9934 33.8319 53.4402 32.7552 50.5969C31.6785 47.7536 31.2801 44.6984 31.5916 41.6743C31.9031 38.6501 32.916 35.7402 34.5497 33.1758" stroke="#080E14" stroke-width="3.29664" stroke-linecap="round" stroke-linejoin="round"/>
<path d="M85.03 94.4183C85.0272 95.4072 84.9579 96.3947 84.8224 97.3743H17.3688C17.1986 96.3971 17.0946 95.4095 17.0575 94.4183C17.0575 81.0126 29.2251 69.8628 45.2323 67.6587C47.1584 67.3975 49.1 67.2676 51.0437 67.2698C56.3813 67.2512 61.6704 68.2821 66.6099 70.3036C77.5841 74.7376 85.03 83.8389 85.03 94.4183Z" stroke="#080E14" stroke-width="3.29664" stroke-linecap="round" stroke-linejoin="round"/>
<path d="M58.8064 73.6821L53.0209 83.7169C52.8234 84.0617 52.5382 84.3483 52.1942 84.5476C51.8503 84.7469 51.4598 84.8519 51.0622 84.8519C50.6646 84.8519 50.2741 84.7469 49.9301 84.5476C49.5862 84.3483 49.301 84.0617 49.1034 83.7169L40.3864 68.4961" stroke="#080E14" stroke-width="3.29664" stroke-linecap="round" stroke-linejoin="round"/>
<path d="M93.3052 47.7475L86.1188 53.5558L81.864 47.4105C81.2813 46.5679 81.0378 45.5367 81.182 44.5227C81.3263 43.5086 81.8477 42.5861 82.6423 41.9393C83.4371 41.2866 84.4507 40.9608 85.4772 41.0282C86.5036 41.0957 87.4659 41.5512 88.1683 42.3023L93.3052 47.7475Z" stroke="#080E14" stroke-width="3.29664" stroke-linecap="round" stroke-linejoin="round"/>
<path d="M74.349 29.2578C75.7379 34.2343 78.628 38.6618 82.6257 41.9375" stroke="#080E14" stroke-width="3.29664" stroke-linecap="round" stroke-linejoin="round"/>
</svg>
