<svg width="40" height="40" viewBox="0 0 40 40" fill="none" xmlns="http://www.w3.org/2000/svg">
<rect width="40" height="40" rx="8" fill="white"/>
<g clip-path="url(#clip0_2305_40643)">
<path d="M17.6696 24.8319L18.4261 25.5564C18.5313 25.6578 18.615 25.7793 18.6723 25.9137C18.7295 26.048 18.7592 26.1925 18.7595 26.3386C18.7595 26.5507 18.8429 26.7542 18.9916 26.9054C19.1403 27.0565 19.3425 27.1431 19.5546 27.1465H22.1192C22.3313 27.1431 22.5335 27.0565 22.6822 26.9054C22.8309 26.7542 22.9143 26.5507 22.9143 26.3386C22.9146 26.1925 22.9443 26.048 23.0015 25.9137C23.0588 25.7793 23.1425 25.6578 23.2477 25.5564L24.0042 24.8319C24.5182 24.3525 24.9301 23.7744 25.2155 23.1321C25.5008 22.4899 25.6536 21.7966 25.6648 21.0939V21.0362C25.6648 18.6639 23.5105 16.7084 20.8497 16.7084C18.1889 16.7084 16.041 18.6639 16.041 21.0362V21.0939C16.0481 21.7943 16.1959 22.4862 16.4757 23.1283C16.7554 23.7704 17.1614 24.3498 17.6696 24.8319Z" fill="#FCDE5A"/>
<path d="M23.1121 26.4545H17.4314C16.9569 26.4545 16.5723 26.8377 16.5723 27.3104C16.5723 27.7831 16.9569 28.1664 17.4314 28.1664H23.1121C23.5866 28.1664 23.9713 27.7831 23.9713 27.3104C23.9713 26.8377 23.5866 26.4545 23.1121 26.4545Z" stroke="#080E14" stroke-linecap="round" stroke-linejoin="round"/>
<path d="M17.6289 29.4232H22.9121" stroke="#080E14" stroke-linecap="round" stroke-linejoin="round"/>
<path d="M18.3281 30.5951H22.2136" stroke="#080E14" stroke-linecap="round" stroke-linejoin="round"/>
<path d="M24.4308 18.792C24.7215 18.9413 24.9965 19.1196 25.2515 19.3241C25.5409 19.5584 25.7956 19.8326 26.008 20.1384C26.3197 20.5747 26.526 21.0773 26.6107 21.6067C26.6901 22.016 26.6843 22.4373 26.5939 22.8443C26.5034 23.2513 26.3302 23.6354 26.085 23.9726C25.1489 25.1651 23.1164 25.4729 21.5327 24.4086C21.3661 24.2899 21.2303 24.1332 21.1366 23.9514C21.0429 23.7696 20.9941 23.568 20.9941 23.3635V14.9258" stroke="#080E14" stroke-linecap="round" stroke-linejoin="round"/>
<path d="M26.0275 20.1255C26.5014 19.904 26.8991 19.547 27.1703 19.0997C27.4416 18.6524 27.5743 18.1347 27.5517 17.6121C27.529 17.0895 27.3521 16.5852 27.0432 16.163C26.7342 15.7408 26.3072 15.4196 25.8159 15.2399C26.3647 14.6089 26.6801 13.8086 26.7093 12.9729C26.7385 12.1372 26.4797 11.3168 25.9762 10.6492C25.47 10.0389 24.7781 9.61082 24.006 9.43025C23.234 9.24967 22.424 9.32647 21.6997 9.64894C21.4848 9.75122 21.304 9.91328 21.1789 10.1157C21.0538 10.3181 20.9898 10.5523 20.9944 10.7902V12.0148" stroke="#080E14" stroke-linecap="round" stroke-linejoin="round"/>
<path d="M16.6168 16.0095C15.6121 15.6847 14.7321 15.0578 14.097 14.2143C13.7204 13.5596 13.5787 12.7959 13.6953 12.0497C13.8119 11.3035 14.1798 10.6194 14.7382 10.1108C15.2666 9.66204 15.9241 9.39284 16.6156 9.34213C17.3071 9.29142 17.9968 9.46183 18.5851 9.82873C18.7291 9.91631 18.8479 10.0397 18.9299 10.1869C19.012 10.3342 19.0544 10.5001 19.0532 10.6686V23.3316C19.0565 23.5674 18.9719 23.7959 18.8159 23.9727C17.3605 25.5756 15.1164 25.5436 14.1868 24.5306C13.3981 23.6714 13.3917 21.9338 14.4496 20.5554C13.9866 20.3552 13.5738 20.0546 13.2412 19.6754C12.9085 19.2962 12.6643 18.8478 12.5261 18.3626C12.3932 17.6192 12.5097 16.8527 12.8576 16.1825C13.2055 15.5122 13.7652 14.9758 14.4496 14.6567" stroke="#080E14" stroke-linecap="round" stroke-linejoin="round"/>
<path d="M28.2598 22.2878L30.4718 23.3906" stroke="#080E14" stroke-linecap="round" stroke-linejoin="round"/>
<path d="M28.4004 13.0211L30.2021 11.0078" stroke="#080E14" stroke-linecap="round" stroke-linejoin="round"/>
<path d="M29.1602 17.2852H31.5068" stroke="#080E14" stroke-linecap="round" stroke-linejoin="round"/>
<path d="M11.9151 22.2943L9.70312 23.4035" stroke="#080E14" stroke-linecap="round" stroke-linejoin="round"/>
<path d="M11.7743 13.0277L9.97266 11.0144" stroke="#080E14" stroke-linecap="round" stroke-linejoin="round"/>
<path d="M11.0127 17.2969H8.66602" stroke="#080E14" stroke-linecap="round" stroke-linejoin="round"/>
</g>
<defs>
<clipPath id="clip0_2305_40643">
<rect width="24" height="24" fill="white" transform="translate(8 8)"/>
</clipPath>
</defs>
</svg>
