<svg width="100" height="101" viewBox="0 0 100 101" fill="none" xmlns="http://www.w3.org/2000/svg">
<g clip-path="url(#clip0_1447_13215)">
<path d="M82.067 70.8061C88.7989 70.8061 94.2562 65.3484 94.2562 58.616C94.2562 51.8835 88.7989 46.4258 82.067 46.4258C75.3351 46.4258 69.8778 51.8835 69.8778 58.616C69.8778 65.3484 75.3351 70.8061 82.067 70.8061Z" fill="#FCDE5A"/>
<path d="M30.7588 25.3824C34.6263 16.892 33.6872 8.15325 28.6611 5.86381C23.6351 3.57437 16.4254 8.60123 12.5579 17.0916C8.69041 25.582 9.62959 34.3208 14.6556 36.6102C19.6817 38.8997 26.8913 33.8728 30.7588 25.3824Z" fill="#FCDE5A"/>
<path d="M61.1014 10.125L64.9122 14.9362C65.8835 16.1676 66.4076 17.6925 66.3987 19.2609V41.3708C66.3987 47.8798 63.8132 54.1223 59.211 58.7249C54.6087 63.3276 48.3667 65.9133 41.8582 65.9133C35.3496 65.9133 29.1076 63.3276 24.5054 58.7249C19.9031 54.1223 17.3176 47.8798 17.3176 41.3708V19.2609C17.3185 17.6896 17.8521 16.1651 18.8311 14.9362" stroke="#080E14" stroke-width="3.24351" stroke-linecap="round" stroke-linejoin="round"/>
<path d="M17.3394 41.375C19.4523 46.119 22.8947 50.1489 27.25 52.977C31.6054 55.8052 36.687 57.3103 41.8799 57.3103C47.0728 57.3103 52.1544 55.8052 56.5098 52.977C60.8651 50.1489 64.3075 46.119 66.4204 41.375" stroke="#080E14" stroke-width="3.24351" stroke-linecap="round" stroke-linejoin="round"/>
<path d="M27.8655 8.49776C30.2077 6.57504 31.1852 3.89386 30.0487 2.50919C28.9122 1.12452 26.0922 1.56071 23.7499 3.48343C21.4077 5.40616 20.4302 8.08734 21.5667 9.47201C22.7032 10.8567 25.5232 10.4205 27.8655 8.49776Z" stroke="#080E14" stroke-width="3.24351" stroke-linecap="round" stroke-linejoin="round"/>
<path d="M62.1239 9.46737C63.2604 8.08271 62.2829 5.40153 59.9407 3.4788C57.5984 1.55607 54.7784 1.11989 53.6419 2.50456C52.5054 3.88923 53.4829 6.5704 55.8251 8.49313C58.1674 10.4159 60.9874 10.852 62.1239 9.46737Z" stroke="#080E14" stroke-width="3.24351" stroke-linecap="round" stroke-linejoin="round"/>
<path d="M87.2943 58.6211V77.1091C87.2809 79.9449 86.6837 82.7475 85.5399 85.3424C84.396 87.9373 82.7299 90.2687 80.6456 92.1914C76.2854 96.2426 70.543 98.4759 64.5915 98.4351C58.7508 98.6173 53.0765 96.4737 48.8147 92.4752C44.553 88.4767 42.0523 82.9501 41.8618 77.1091V72.8114" stroke="#080E14" stroke-width="3.24351" stroke-linecap="round" stroke-linejoin="round"/>
<path d="M87.295 52.8039C89.579 52.8039 91.4305 51.0613 91.4305 48.9117C91.4305 46.7621 89.579 45.0195 87.295 45.0195C85.0111 45.0195 83.1595 46.7621 83.1595 48.9117C83.1595 51.0613 85.0111 52.8039 87.295 52.8039Z" stroke="#080E14" stroke-width="3.24351" stroke-linecap="round" stroke-linejoin="round"/>
<path d="M81.1456 41.1841C82.8208 39.9005 84.8732 39.2068 86.9835 39.211C88.6182 39.2141 90.2257 39.6303 91.6566 40.4209C93.0875 41.2115 94.2955 42.3508 95.1684 43.7332C96.0413 45.1155 96.5508 46.6959 96.6496 48.3278C96.7484 49.9597 96.4333 51.5902 95.7336 53.0677C95.0339 54.5453 93.9723 55.8221 92.6472 56.7796C91.3222 57.7371 89.7767 58.3442 88.1543 58.5447C86.5319 58.7452 84.8851 58.5324 83.3669 57.9262C81.8487 57.32 80.5082 56.3399 79.47 55.0771" stroke="#080E14" stroke-width="3.24351" stroke-linecap="round" stroke-linejoin="round"/>
</g>
<defs>
<clipPath id="clip0_1447_13215">
<rect width="100" height="100.008" fill="white"/>
</clipPath>
</defs>
</svg>
