<svg width="24" height="24" viewBox="0 0 24 24" fill="none" xmlns="http://www.w3.org/2000/svg">
<path fill-rule="evenodd" clip-rule="evenodd" d="M9.59175 3.20025C9.43448 3.34256 9.26921 3.47578 9.09675 3.59925C8.79875 3.79925 8.46375 3.93725 8.11175 4.00725C7.95875 4.03725 7.79875 4.05025 7.47975 4.07525C6.67875 4.13925 6.27775 4.17125 5.94375 4.28925C5.56185 4.42409 5.21498 4.64272 4.9286 4.9291C4.64222 5.21548 4.42359 5.56235 4.28875 5.94425C4.17075 6.27825 4.13875 6.67925 4.07475 7.48025C4.06384 7.69202 4.04114 7.90301 4.00675 8.11225C3.93675 8.46425 3.79875 8.79925 3.59875 9.09725C3.51175 9.22725 3.40775 9.34925 3.19975 9.59225C2.67875 10.2043 2.41775 10.5103 2.26475 10.8303C1.91175 11.5703 1.91175 12.4303 2.26475 13.1703C2.41775 13.4903 2.67875 13.7963 3.19975 14.4083C3.40775 14.6513 3.51175 14.7733 3.59875 14.9033C3.79875 15.2013 3.93675 15.5363 4.00675 15.8883C4.03675 16.0413 4.04975 16.2013 4.07475 16.5203C4.13875 17.3213 4.17075 17.7223 4.28875 18.0563C4.42359 18.4382 4.64222 18.785 4.9286 19.0714C5.21498 19.3578 5.56185 19.5764 5.94375 19.7113C6.27775 19.8293 6.67875 19.8613 7.47975 19.9253C7.79875 19.9503 7.95875 19.9633 8.11175 19.9933C8.46375 20.0633 8.79875 20.2023 9.09675 20.4013C9.22675 20.4883 9.34875 20.5923 9.59175 20.8003C10.2037 21.3213 10.5098 21.5823 10.8298 21.7353C11.5697 22.0883 12.4298 22.0883 13.1698 21.7353C13.4897 21.5823 13.7957 21.3213 14.4078 20.8003C14.6508 20.5923 14.7727 20.4883 14.9028 20.4013C15.2008 20.2013 15.5357 20.0633 15.8877 19.9933C16.0407 19.9633 16.2008 19.9503 16.5198 19.9253C17.3208 19.8613 17.7218 19.8293 18.0557 19.7113C18.4377 19.5764 18.7845 19.3578 19.0709 19.0714C19.3573 18.785 19.5759 18.4382 19.7108 18.0563C19.8288 17.7223 19.8608 17.3213 19.9247 16.5203C19.9497 16.2013 19.9627 16.0413 19.9928 15.8883C20.0627 15.5363 20.2017 15.2013 20.4007 14.9033C20.4877 14.7733 20.5917 14.6513 20.7997 14.4083C21.3207 13.7963 21.5818 13.4903 21.7348 13.1703C22.0878 12.4303 22.0878 11.5703 21.7348 10.8303C21.5818 10.5103 21.3207 10.2043 20.7997 9.59225C20.6574 9.43498 20.5242 9.26971 20.4007 9.09725C20.2009 8.79914 20.0623 8.46434 19.9928 8.11225C19.9584 7.90301 19.9357 7.69202 19.9247 7.48025C19.8608 6.67925 19.8288 6.27825 19.7108 5.94425C19.5759 5.56235 19.3573 5.21548 19.0709 4.9291C18.7845 4.64272 18.4377 4.42409 18.0557 4.28925C17.7218 4.17125 17.3208 4.13925 16.5198 4.07525C16.308 4.06434 16.097 4.04164 15.8877 4.00725C15.5357 3.93774 15.2009 3.79906 14.9028 3.59925C14.7305 3.47552 14.5652 3.34231 14.4078 3.20025C13.7957 2.67925 13.4897 2.41825 13.1698 2.26525C12.8044 2.09063 12.4047 2 11.9998 2C11.5948 2 11.1951 2.09063 10.8298 2.26525C10.5098 2.41825 10.2037 2.67925 9.59175 3.20025ZM16.3727 9.86325C16.5141 9.70856 16.5903 9.50533 16.5856 9.29585C16.5809 9.08636 16.4956 8.88677 16.3474 8.73861C16.1992 8.59045 15.9996 8.50512 15.7902 8.5004C15.5807 8.49568 15.3774 8.57192 15.2227 8.71325L10.3728 13.5633L8.77675 11.9683C8.62206 11.8269 8.41882 11.7507 8.20934 11.7554C7.99986 11.7601 7.80027 11.8454 7.65211 11.9936C7.50394 12.1418 7.41862 12.3414 7.4139 12.5508C7.40918 12.7603 7.48541 12.9636 7.62675 13.1183L9.79675 15.2883C9.94936 15.4405 10.1561 15.5261 10.3717 15.5261C10.5873 15.5261 10.7941 15.4405 10.9467 15.2883L16.3738 9.86325H16.3727Z" fill="#30B11B"/>
</svg>
