<svg width="33" height="32" viewBox="0 0 33 32" fill="none" xmlns="http://www.w3.org/2000/svg">
<path d="M16.0156 0C14.7484 0 13.4619 1.54701 12.2378 1.875C11.0138 2.20299 9.11311 1.50525 8.01562 2.13889C6.91814 2.77252 6.57838 4.77057 5.68229 5.66667C4.7862 6.56276 2.78815 6.90253 2.15451 8C1.52088 9.09751 2.21862 10.9981 1.89062 12.2222C1.56263 13.4463 0.015625 14.7328 0.015625 16C0.015625 17.2673 1.56263 18.5537 1.89062 19.7778C2.21862 21.0019 1.52088 22.9025 2.15451 24C2.78815 25.0975 4.7862 25.4373 5.68229 26.3334C6.57838 27.2295 6.91814 29.2275 8.01562 29.8611C9.11311 30.4948 11.0138 29.7971 12.2378 30.125C13.4619 30.453 14.7484 32 16.0156 32C17.2829 32 18.5693 30.453 19.7934 30.125C21.0175 29.7971 22.9181 30.4948 24.0156 29.8611C25.1131 29.2275 25.4529 27.2295 26.349 26.3334C27.2451 25.4373 29.2431 25.0975 29.8767 24C30.5104 22.9025 29.8126 21.0019 30.1406 19.7778C30.4686 18.5537 32.0156 17.2673 32.0156 16C32.0156 14.7328 30.4686 13.4463 30.1406 12.2222C29.8126 10.9981 30.5104 9.09751 29.8767 8C29.2431 6.90253 27.2451 6.56276 26.349 5.66667C25.4529 4.77057 25.1131 2.77252 24.0156 2.13889C22.9181 1.50525 21.0175 2.20299 19.7934 1.875C18.5693 1.54701 17.2829 0 16.0156 0Z" fill="white"/>
<path d="M13.7187 14.6875H12.2188M14.2188 16.6875H12.2188" stroke="white" stroke-linecap="round" stroke-linejoin="round"/>
<path d="M16.2604 11.9866V21.9866M22.9271 19.4866V11.44C22.9271 10.64 22.2737 10.0466 21.4804 10.1133H21.4404C20.0404 10.2333 17.9137 10.9466 16.7271 11.6933L16.6137 11.7666C16.4204 11.8866 16.1004 11.8866 15.9071 11.7666L15.7404 11.6666C14.5538 10.9266 12.4337 10.22 11.0337 10.1066C10.2404 10.04 9.59375 10.64 9.59375 11.4333V19.4866C9.59375 20.1266 10.1137 20.7266 10.7537 20.8066L10.9471 20.8333C12.3938 21.0266 14.6271 21.76 15.9071 22.46L15.9338 22.4733C16.1138 22.5733 16.4004 22.5733 16.5738 22.4733C17.8538 21.7666 20.0938 21.0266 21.5471 20.8333L21.7671 20.8066C22.4071 20.7266 22.9271 20.1266 22.9271 19.4866Z" stroke="#007BFF" stroke-linecap="round" stroke-linejoin="round"/>
</svg>
