<svg width="24" height="24" viewBox="0 0 24 24" fill="none" xmlns="http://www.w3.org/2000/svg">
<path d="M12 0C11.0496 0 10.0847 1.16026 9.16667 1.40625C8.2486 1.65224 6.82312 1.12894 6 1.60417C5.17688 2.07939 4.92207 3.57793 4.25 4.25C3.57793 4.92207 2.07939 5.1769 1.60417 6C1.12894 6.82313 1.65224 8.2486 1.40625 9.16667C1.16026 10.0847 0 11.0496 0 12C0 12.9505 1.16026 13.9153 1.40625 14.8333C1.65224 15.7514 1.12894 17.1769 1.60417 18C2.07939 18.8231 3.57793 19.078 4.25 19.75C4.92207 20.4221 5.17688 21.9206 6 22.3959C6.82312 22.8711 8.2486 22.3478 9.16667 22.5938C10.0847 22.8398 11.0496 24 12 24C12.9504 24 13.9153 22.8398 14.8333 22.5938C15.7514 22.3478 17.1769 22.8711 18 22.3959C18.8231 21.9206 19.0779 20.4221 19.75 19.75C20.4221 19.078 21.9206 18.8231 22.3958 18C22.8711 17.1769 22.3478 15.7514 22.5937 14.8333C22.8397 13.9153 24 12.9505 24 12C24 11.0496 22.8397 10.0847 22.5937 9.16667C22.3478 8.2486 22.8711 6.82313 22.3958 6C21.9206 5.1769 20.4221 4.92207 19.75 4.25C19.0779 3.57793 18.8231 2.07939 18 1.60417C17.1769 1.12894 15.7514 1.65224 14.8333 1.40625C13.9153 1.16026 12.9504 0 12 0Z" fill="#007BFF"/>
<path d="M10.2812 11.0156H9.15625M10.6562 12.5156H9.15625" stroke="white" stroke-linecap="round" stroke-linejoin="round"/>
<path d="M12.1875 8.99192V16.4919M17.1875 14.6169V8.58192C17.1875 7.98192 16.6975 7.53692 16.1025 7.58692H16.0725C15.0225 7.67692 13.4275 8.21192 12.5375 8.77192L12.4525 8.82692C12.3075 8.91692 12.0675 8.91692 11.9225 8.82692L11.7975 8.75192C10.9075 8.19692 9.3175 7.66692 8.2675 7.58192C7.6725 7.53192 7.1875 7.98192 7.1875 8.57692V14.6169C7.1875 15.0969 7.5775 15.5469 8.0575 15.6069L8.2025 15.6269C9.2875 15.7719 10.9625 16.3219 11.9225 16.8469L11.9425 16.8569C12.0775 16.9319 12.2925 16.9319 12.4225 16.8569C13.3825 16.3269 15.0625 15.7719 16.1525 15.6269L16.3175 15.6069C16.7975 15.5469 17.1875 15.0969 17.1875 14.6169Z" stroke="white" stroke-linecap="round" stroke-linejoin="round"/>
</svg>
