<svg width="24" height="24" viewBox="0 0 24 24" fill="none" xmlns="http://www.w3.org/2000/svg">
<path d="M12 0C11.0496 0 10.0847 1.16026 9.16667 1.40625C8.2486 1.65224 6.82312 1.12894 6 1.60417C5.17688 2.07939 4.92207 3.57793 4.25 4.25C3.57793 4.92207 2.07939 5.1769 1.60417 5.99999C1.12894 6.82313 1.65224 8.24859 1.40625 9.16666C1.16026 10.0847 0 11.0496 0 12C0 12.9505 1.16026 13.9153 1.40625 14.8333C1.65224 15.7514 1.12894 17.1769 1.60417 18C2.07939 18.8231 3.57793 19.0779 4.25 19.75C4.92207 20.4221 5.17688 21.9206 6 22.3958C6.82312 22.8711 8.2486 22.3478 9.16667 22.5938C10.0847 22.8398 11.0496 24 12 24C12.9504 24 13.9153 22.8398 14.8333 22.5938C15.7514 22.3478 17.1769 22.8711 18 22.3958C18.8231 21.9206 19.0779 20.4221 19.75 19.75C20.4221 19.0779 21.9206 18.8231 22.3958 18C22.8711 17.1769 22.3478 15.7514 22.5937 14.8333C22.8397 13.9153 24 12.9505 24 12C24 11.0496 22.8397 10.0847 22.5937 9.16666C22.3478 8.24859 22.8711 6.82313 22.3958 5.99999C21.9206 5.1769 20.4221 4.92207 19.75 4.25C19.0779 3.57793 18.8231 2.07939 18 1.60417C17.1769 1.12894 15.7514 1.65224 14.8333 1.40625C13.9153 1.16026 12.9504 0 12 0Z" fill="#007BFF"/>
<path d="M10 7V8.5M14 7V8.5M7.75 10.545H16.25M16.5 10.25V14.5C16.5 16 15.75 17 14 17H10C8.25 17 7.5 16 7.5 14.5V10.25C7.5 8.75 8.25 7.75 10 7.75H14C15.75 7.75 16.5 8.75 16.5 10.25Z" stroke="white" stroke-miterlimit="10" stroke-linecap="round" stroke-linejoin="round"/>
<path d="M13.8489 12.8516H13.8534M13.8489 14.3516H13.8534M11.9989 12.8516H12.0039M11.9989 14.3516H12.0039M10.1484 12.8516H10.1534M10.1484 14.3516H10.1534" stroke="white" stroke-linecap="round" stroke-linejoin="round"/>
</svg>
