<svg width="24" height="24" viewBox="0 0 24 24" fill="none" xmlns="http://www.w3.org/2000/svg">
<path d="M12 0C11.0496 0 10.0847 1.16026 9.16667 1.40625C8.2486 1.65224 6.82312 1.12894 6 1.60417C5.17688 2.07939 4.92207 3.57793 4.25 4.25C3.57793 4.92207 2.07939 5.1769 1.60417 6C1.12894 6.82313 1.65224 8.2486 1.40625 9.16667C1.16026 10.0847 0 11.0496 0 12C0 12.9505 1.16026 13.9153 1.40625 14.8333C1.65224 15.7514 1.12894 17.1769 1.60417 18C2.07939 18.8231 3.57793 19.078 4.25 19.75C4.92207 20.4221 5.17688 21.9206 6 22.3959C6.82312 22.8711 8.2486 22.3478 9.16667 22.5938C10.0847 22.8398 11.0496 24 12 24C12.9504 24 13.9153 22.8398 14.8333 22.5938C15.7514 22.3478 17.1769 22.8711 18 22.3959C18.8231 21.9206 19.0779 20.4221 19.75 19.75C20.4221 19.078 21.9206 18.8231 22.3958 18C22.8711 17.1769 22.3478 15.7514 22.5937 14.8333C22.8397 13.9153 24 12.9505 24 12C24 11.0496 22.8397 10.0847 22.5937 9.16667C22.3478 8.2486 22.8711 6.82313 22.3958 6C21.9206 5.1769 20.4221 4.92207 19.75 4.25C19.0779 3.57793 18.8231 2.07939 18 1.60417C17.1769 1.12894 15.7514 1.65224 14.8333 1.40625C13.9153 1.16026 12.9504 0 12 0Z" fill="#007BFF"/>
<path d="M6 6.00586H22V22.0059H6V6.00586Z" fill="white" fill-opacity="0.01"/>
<path d="M17.9988 16.9986L17.3003 15.4707M17.3003 15.4707L15.5541 11.498L13.8079 15.4707M17.3003 15.4707H13.8079M13.1094 16.9986L13.8079 15.4707" stroke="white" stroke-width="0.9" stroke-linecap="round" stroke-linejoin="round"/>
<path d="M10.0508 5.99805L10.3564 6.91481" stroke="white" stroke-width="0.9" stroke-linecap="round" stroke-linejoin="round"/>
<path d="M7 7.53125H13.723" stroke="white" stroke-width="0.9" stroke-linecap="round" stroke-linejoin="round"/>
<path d="M8.21777 9.04883C8.21777 9.04883 8.76462 10.9621 10.1317 12.025C11.4988 13.0879 13.7184 13.9383 13.7184 13.9383" stroke="white" stroke-width="0.9" stroke-linecap="round" stroke-linejoin="round"/>
<path d="M12.5006 7.53125C12.5006 7.53125 11.9537 10.0424 10.5866 11.4375C9.21955 12.8325 7 13.9486 7 13.9486" stroke="white" stroke-width="0.9" stroke-linecap="round" stroke-linejoin="round"/>
</svg>
