<svg width="43" height="43" viewBox="0 0 43 43" fill="none" xmlns="http://www.w3.org/2000/svg">
<path d="M5.61035 16.4447C5.61035 11.5118 5.61035 9.04538 7.14281 7.51292C8.67526 5.98047 11.1417 5.98047 16.0746 5.98047H26.5389C31.4717 5.98047 33.9381 5.98047 35.4706 7.51292C37.0031 9.04538 37.0031 11.5118 37.0031 16.4447V25.1649C37.0031 28.4535 37.0031 30.0978 35.9814 31.1194C34.9598 32.1411 33.3155 32.1411 30.0269 32.1411H12.5865C9.29792 32.1411 7.65362 32.1411 6.63199 31.1194C5.61035 30.0978 5.61035 28.4535 5.61035 25.1649V16.4447Z" stroke="#080E14" stroke-width="1.5"/>
<path d="M38.7519 37.373H3.87109" stroke="#080E14" stroke-width="1.5" stroke-linecap="round"/>
<path d="M26.5536 26.916H16.0894" stroke="#080E14" stroke-width="1.5" stroke-linecap="round"/>
</svg>
