<svg width="43" height="43" viewBox="0 0 43 43" fill="none" xmlns="http://www.w3.org/2000/svg">
<path d="M21.7572 32.147H21.7747M16.8739 37.3791H26.6405C28.594 37.3791 29.5709 37.3791 30.317 36.9989C30.9733 36.6645 31.5069 36.1309 31.8413 35.4746C32.2215 34.7285 32.2215 33.7516 32.2215 31.7981V11.5673C32.2215 9.61376 32.2215 8.63699 31.8413 7.89086C31.5069 7.23452 30.9733 6.70091 30.317 6.36651C29.5709 5.98633 28.594 5.98633 26.6405 5.98633H16.8739C14.9204 5.98633 13.9436 5.98633 13.1975 6.36651C12.5412 6.70091 12.0076 7.23452 11.6732 7.89086C11.293 8.63699 11.293 9.61374 11.293 11.5673V31.7981C11.293 33.7516 11.293 34.7285 11.6732 35.4746C12.0076 36.1309 12.5412 36.6645 13.1975 36.9989C13.9436 37.3791 14.9204 37.3791 16.8739 37.3791Z" stroke="#080E14" stroke-width="1.5" stroke-linecap="round" stroke-linejoin="round"/>
</svg>
