<svg width="267" height="149" viewBox="0 0 267 149" fill="none" xmlns="http://www.w3.org/2000/svg">
<mask id="mask0_1223_16321" style="mask-type:alpha" maskUnits="userSpaceOnUse" x="227" y="126" width="24" height="10">
<path d="M227.5 127.998C230.833 126.498 240 125.798 250 134.998" stroke="#ED4337" stroke-linecap="round"/>
</mask>
<g mask="url(#mask0_1223_16321)">
<rect x="225" y="126" width="28" height="10" rx="5" fill="#ED4337"/>
</g>
<mask id="mask1_1223_16321" style="mask-type:alpha" maskUnits="userSpaceOnUse" x="52" y="0" width="7" height="12">
<path d="M53 1C54.6667 2.5 58.1 6.7 58.5 11.5" stroke="#007BFF" stroke-linecap="round"/>
</mask>
<g mask="url(#mask1_1223_16321)">
<rect x="52" width="8" height="12" rx="1" fill="#007BFF"/>
</g>
<mask id="mask2_1223_16321" style="mask-type:alpha" maskUnits="userSpaceOnUse" x="0" y="49" width="14" height="5">
<path d="M1 50C3 51.3333 8.2 53.6 13 52" stroke="#ED4337" stroke-linecap="round"/>
</mask>
<g mask="url(#mask2_1223_16321)">
<rect x="-1" y="49" width="15" height="5" rx="2.5" fill="#ED4337"/>
</g>
<mask id="mask3_1223_16321" style="mask-type:alpha" maskUnits="userSpaceOnUse" x="228" y="41" width="12" height="12">
<path d="M234 41L236.703 44.2974L240 47L236.703 49.7026L234 53L231.297 49.7026L228 47L231.297 44.2974L234 41Z" fill="#06AA2F"/>
</mask>
<g mask="url(#mask3_1223_16321)">
<rect x="228" y="41" width="12" height="12" fill="#06AA2F"/>
</g>
<mask id="mask4_1223_16321" style="mask-type:alpha" maskUnits="userSpaceOnUse" x="3" y="145" width="4" height="4">
<path d="M5 145L5.90085 146.099L7 147L5.90085 147.901L5 149L4.09915 147.901L3 147L4.09915 146.099L5 145Z" fill="#ED4337"/>
</mask>
<g mask="url(#mask4_1223_16321)">
<rect x="3" y="145" width="4" height="4" fill="#ED4337"/>
</g>
<mask id="mask5_1223_16321" style="mask-type:alpha" maskUnits="userSpaceOnUse" x="261" y="22" width="6" height="6">
<path d="M264 22L265.351 23.6487L267 25L265.351 26.3513L264 28L262.649 26.3513L261 25L262.649 23.6487L264 22Z" fill="#FCDE5A"/>
</mask>
<g mask="url(#mask5_1223_16321)">
<rect x="261" y="22" width="6" height="6" fill="#FCDE5A"/>
</g>
<mask id="mask6_1223_16321" style="mask-type:alpha" maskUnits="userSpaceOnUse" x="246" y="99" width="4" height="4">
<path d="M248 99L248.901 100.099L250 101L248.901 101.901L248 103L247.099 101.901L246 101L247.099 100.099L248 99Z" fill="#007BFF"/>
</mask>
<g mask="url(#mask6_1223_16321)">
<rect x="246" y="99" width="4" height="4" fill="#007BFF"/>
</g>
<mask id="mask7_1223_16321" style="mask-type:alpha" maskUnits="userSpaceOnUse" x="17" y="118" width="10" height="10">
<path d="M22 118L24.2521 120.748L27 123L24.2521 125.252L22 128L19.7479 125.252L17 123L19.7479 120.748L22 118Z" fill="#FCDE5A"/>
</mask>
<g mask="url(#mask7_1223_16321)">
<rect x="17" y="118" width="10" height="10" fill="#FCDE5A"/>
</g>
<path d="M124 28C119.723 28 115.381 33.2212 111.25 34.3281C107.119 35.4351 100.704 33.0802 97 35.2187C93.296 37.3573 92.1493 44.1007 89.125 47.125C86.1007 50.1493 79.3573 51.296 77.2188 55C75.0802 58.7041 77.4351 65.1187 76.3281 69.25C75.2212 73.3813 70 77.723 70 82C70 86.2771 75.2212 90.6186 76.3281 94.7499C77.4351 98.8812 75.0802 105.296 77.2188 109C79.3573 112.704 86.1007 113.851 89.125 116.875C92.1493 119.899 93.296 126.643 97 128.781C100.704 130.92 107.119 128.565 111.25 129.672C115.381 130.779 119.723 136 124 136C128.277 136 132.619 130.779 136.75 129.672C140.881 128.565 147.296 130.92 151 128.781C154.704 126.643 155.851 119.899 158.875 116.875C161.899 113.851 168.643 112.704 170.781 109C172.92 105.296 170.565 98.8812 171.672 94.7499C172.779 90.6186 178 86.2771 178 82C178 77.723 172.779 73.3813 171.672 69.25C170.565 65.1187 172.92 58.7041 170.781 55C168.643 51.296 161.899 50.1493 158.875 47.125C155.851 44.1007 154.704 37.3573 151 35.2187C147.296 33.0802 140.881 35.4351 136.75 34.3281C132.619 33.2212 128.277 28 124 28Z" fill="#06AA2F" stroke="#06AA2F" stroke-width="2"/>
<path d="M124 37C120.436 37 116.818 41.351 113.375 42.2734C109.932 43.1959 104.587 41.2335 101.5 43.0156C98.4133 44.7977 97.4578 50.4172 94.9375 52.9375C92.4172 55.4577 86.7977 56.4134 85.0156 59.5C83.2335 62.5867 85.1959 67.9322 84.2734 71.375C83.351 74.8177 79 78.4359 79 82C79 85.5642 83.351 89.1822 84.2734 92.625C85.1959 96.0677 83.2335 101.413 85.0156 104.5C86.7977 107.587 92.4172 108.542 94.9375 111.063C97.4578 113.583 98.4133 119.202 101.5 120.984C104.587 122.767 109.932 120.804 113.375 121.727C116.818 122.649 120.436 127 124 127C127.564 127 131.182 122.649 134.625 121.727C138.068 120.804 143.413 122.767 146.5 120.984C149.587 119.202 150.542 113.583 153.062 111.063C155.583 108.542 161.202 107.587 162.984 104.5C164.766 101.413 162.804 96.0677 163.727 92.625C164.649 89.1822 169 85.5642 169 82C169 78.4359 164.649 74.8177 163.727 71.375C162.804 67.9322 164.766 62.5867 162.984 59.5C161.202 56.4134 155.583 55.4577 153.062 52.9375C150.542 50.4172 149.587 44.7977 146.5 43.0156C143.413 41.2335 138.068 43.1959 134.625 42.2734C131.182 41.351 127.564 37 124 37Z" stroke="#E9FFEE" stroke-width="2"/>
<mask id="mask8_1223_16321" style="mask-type:alpha" maskUnits="userSpaceOnUse" x="97" y="69" width="52" height="29">
<rect x="97" y="69" width="52" height="29" rx="12" fill="#D9D9D9"/>
</mask>
<g mask="url(#mask8_1223_16321)">
<path d="M118.695 89.6149L137.411 70.8983C137.734 70.5761 138.116 70.4115 138.559 70.4045C139.002 70.3976 139.392 70.5622 139.728 70.8983C140.064 71.2344 140.232 71.6205 140.232 72.0566C140.232 72.4927 140.064 72.8788 139.728 73.2149L120.065 92.8773C119.674 93.269 119.217 93.4648 118.695 93.4648C118.172 93.4648 117.715 93.269 117.324 92.8773L108.278 83.8316C107.956 83.5093 107.797 83.1267 107.801 82.6837C107.805 82.2406 107.975 81.851 108.311 81.515C108.647 81.1788 109.033 81.0108 109.47 81.0108C109.906 81.0108 110.292 81.1788 110.628 81.515L118.695 89.6149Z" fill="white"/>
</g>
</svg>
