<svg width="24" height="24" viewBox="0 0 24 24" fill="none" xmlns="http://www.w3.org/2000/svg">
<path d="M12 0C11.0496 0 10.0847 1.16026 9.16667 1.40625C8.2486 1.65224 6.82312 1.12894 6 1.60417C5.17688 2.07939 4.92207 3.57793 4.25 4.25C3.57793 4.92207 2.07939 5.1769 1.60417 5.99999C1.12894 6.82313 1.65224 8.24859 1.40625 9.16666C1.16026 10.0847 0 11.0496 0 12C0 12.9505 1.16026 13.9153 1.40625 14.8333C1.65224 15.7514 1.12894 17.1769 1.60417 18C2.07939 18.8231 3.57793 19.0779 4.25 19.75C4.92207 20.4221 5.17688 21.9206 6 22.3958C6.82312 22.8711 8.2486 22.3478 9.16667 22.5938C10.0847 22.8398 11.0496 24 12 24C12.9504 24 13.9153 22.8398 14.8333 22.5938C15.7514 22.3478 17.1769 22.8711 18 22.3958C18.8231 21.9206 19.0779 20.4221 19.75 19.75C20.4221 19.0779 21.9206 18.8231 22.3958 18C22.8711 17.1769 22.3478 15.7514 22.5937 14.8333C22.8397 13.9153 24 12.9505 24 12C24 11.0496 22.8397 10.0847 22.5937 9.16666C22.3478 8.24859 22.8711 6.82313 22.3958 5.99999C21.9206 5.1769 20.4221 4.92207 19.75 4.25C19.0779 3.57793 18.8231 2.07939 18 1.60417C17.1769 1.12894 15.7514 1.65224 14.8333 1.40625C13.9153 1.16026 12.9504 0 12 0Z" fill="#007BFF"/>
<mask id="mask0_902_163466" style="mask-type:alpha" maskUnits="userSpaceOnUse" x="5" y="5" width="14" height="14">
<rect x="5" y="5" width="14" height="14" fill="#D9D9D9"/>
</mask>
<g mask="url(#mask0_902_163466)">
<path d="M11.9997 17.5403C11.2331 17.5403 10.5127 17.3949 9.83842 17.104C9.16419 16.8131 8.5777 16.4183 8.07895 15.9197C7.5802 15.421 7.18535 14.8346 6.89441 14.1605C6.60348 13.4864 6.45801 12.7661 6.45801 11.9997C6.45801 11.2332 6.60345 10.5128 6.89434 9.83835C7.18523 9.16393 7.58 8.57728 8.07865 8.07841C8.57732 7.57952 9.16371 7.18457 9.83783 6.89355C10.5119 6.60254 11.2322 6.45703 11.9987 6.45703C12.7651 6.45703 13.4856 6.6025 14.16 6.89344C14.8344 7.18438 15.4211 7.57922 15.9199 8.07797C16.4188 8.57672 16.8138 9.16321 17.1048 9.83745C17.3958 10.5117 17.5413 11.2321 17.5413 11.9987C17.5413 12.2612 17.5249 12.5188 17.4919 12.7716C17.459 13.0244 17.4067 13.2723 17.3349 13.5154C17.2287 13.4047 17.109 13.3099 16.9759 13.231C16.8428 13.1521 16.6974 13.0969 16.5396 13.0655C16.5837 12.8935 16.6158 12.7191 16.636 12.5422C16.6562 12.3653 16.6663 12.1842 16.6663 11.9987C16.6663 10.6959 16.2142 9.59243 15.3101 8.68827C14.4059 7.7841 13.3024 7.33202 11.9997 7.33202C10.6969 7.33202 9.59341 7.7841 8.68924 8.68827C7.78508 9.59243 7.33299 10.6959 7.33299 11.9987C7.33299 13.3015 7.78508 14.4049 8.68924 15.3091C9.59341 16.2133 10.6969 16.6654 11.9997 16.6654C12.5105 16.6654 12.9965 16.5885 13.4578 16.4348C13.9191 16.2811 14.3432 16.0659 14.7301 15.7892C14.8206 15.9096 14.9266 16.0181 15.0481 16.1145C15.1697 16.211 15.3015 16.2877 15.4436 16.3445C14.9702 16.7207 14.4427 17.014 13.8611 17.2245C13.2796 17.4351 12.6591 17.5403 11.9997 17.5403ZM16.145 15.3528C15.9818 15.3528 15.8437 15.2965 15.7307 15.1838C15.6178 15.0711 15.5614 14.9331 15.5614 14.7698C15.5614 14.6066 15.6177 14.4685 15.7304 14.3556C15.8432 14.2427 15.9811 14.1862 16.1444 14.1862C16.3076 14.1862 16.4457 14.2426 16.5586 14.3553C16.6715 14.468 16.728 14.606 16.728 14.7692C16.728 14.9324 16.6717 15.0705 16.5589 15.1835C16.4462 15.2964 16.3082 15.3528 16.145 15.3528ZM12.4371 11.8214L14.333 13.7173C14.4138 13.7981 14.4551 13.8996 14.457 14.0218C14.4588 14.1441 14.4175 14.2475 14.333 14.332C14.2485 14.4165 14.146 14.4588 14.0256 14.4588C13.9052 14.4588 13.8028 14.4165 13.7183 14.332L11.7203 12.3341C11.6657 12.2795 11.6257 12.22 11.6003 12.1556C11.5749 12.0912 11.5622 12.0247 11.5622 11.9561V9.5195C11.5622 9.39555 11.6041 9.29165 11.688 9.2078C11.7719 9.12394 11.8758 9.08202 11.9999 9.08202C12.1239 9.08202 12.2278 9.12394 12.3115 9.2078C12.3953 9.29165 12.4371 9.39555 12.4371 9.5195V11.8214Z" fill="white"/>
</g>
</svg>
