<svg width="220" height="55" viewBox="0 0 220 55" fill="none" xmlns="http://www.w3.org/2000/svg">
<path d="M109.116 25.5715H104.907V24.5095C104.907 24.0138 104.852 23.6913 104.742 23.5575C104.632 23.4238 104.459 23.353 104.207 23.353C103.932 23.353 103.727 23.4474 103.593 23.6283C103.452 23.8093 103.381 24.0846 103.381 24.4623C103.381 24.9422 103.46 25.3041 103.617 25.5479C103.774 25.784 104.199 26.0829 104.899 26.4291C106.913 27.4204 108.18 28.2386 108.699 28.8679C109.226 29.5052 109.486 30.5279 109.486 31.9283C109.486 32.9511 109.337 33.7063 109.046 34.1941C108.754 34.6818 108.196 35.0831 107.362 35.4135C106.528 35.7439 105.568 35.9091 104.459 35.9091C103.247 35.9091 102.209 35.7203 101.351 35.3427C100.494 34.9651 99.9352 34.4852 99.6677 33.8951C99.4002 33.3051 99.2744 32.4711 99.2744 31.3933V30.4493H103.483V32.1958C103.483 32.7386 103.538 33.0848 103.656 33.2343C103.774 33.3916 103.987 33.4624 104.286 33.4624C104.585 33.4624 104.813 33.368 104.962 33.1713C105.112 32.9746 105.183 32.6836 105.183 32.3059C105.183 31.4563 105.041 30.9056 104.766 30.6459C104.475 30.3863 103.767 29.9458 102.642 29.3321C101.517 28.7185 100.777 28.27 100.407 27.9868C100.045 27.7114 99.7385 27.3259 99.5025 26.8303C99.2665 26.3425 99.1406 25.7132 99.1406 24.95C99.1406 23.8486 99.3137 23.0383 99.652 22.5348C99.9903 22.0234 100.541 21.63 101.304 21.339C102.067 21.0479 102.98 20.9062 104.058 20.9062C105.238 20.9062 106.237 21.0636 107.063 21.3783C107.889 21.693 108.44 22.0863 108.707 22.5662C108.975 23.0461 109.108 23.8486 109.108 24.9972V25.5637L109.116 25.5715ZM115.119 23.8093L114.962 25.3591C115.599 24.242 116.519 23.6519 117.715 23.589V27.735C116.921 27.735 116.331 27.8216 115.953 28.0025C115.575 28.1835 115.347 28.4274 115.261 28.7421C115.174 29.0567 115.135 29.7884 115.135 30.937V35.5944H110.792V23.8014H115.111L115.119 23.8093ZM123.167 21.2052V23.0776H118.691V21.2052H123.167ZM123.167 23.8093V35.6023H118.691V23.8093H123.167ZM139.342 27.4833H134.803V24.9815C134.803 24.2498 134.756 23.8014 134.661 23.6205C134.567 23.4395 134.355 23.353 134.024 23.353C133.654 23.353 133.418 23.4631 133.324 23.6834C133.222 23.9037 133.174 24.3757 133.174 25.1074V31.7867C133.174 32.4869 133.23 32.9432 133.324 33.1556C133.426 33.368 133.646 33.4703 133.993 33.4703C134.339 33.4703 134.551 33.368 134.653 33.1477C134.756 32.9353 134.811 32.4318 134.811 31.6372V29.8277H139.35V30.3863C139.35 31.8811 139.224 32.9353 138.965 33.5568C138.713 34.1783 138.147 34.729 137.273 35.2011C136.4 35.6731 135.322 35.9013 134.048 35.9013C132.773 35.9013 131.625 35.7046 130.759 35.3034C129.902 34.9021 129.327 34.3593 129.044 33.6512C128.761 32.951 128.627 31.889 128.627 30.4807V26.2796C128.627 25.2411 128.674 24.4623 128.753 23.9509C128.84 23.4317 129.091 22.9281 129.524 22.4561C129.949 21.9762 130.539 21.5986 131.302 21.3232C132.057 21.0479 132.931 20.9141 133.914 20.9141C135.251 20.9141 136.353 21.1265 137.226 21.5514C138.091 21.9762 138.666 22.5033 138.941 23.1406C139.217 23.7778 139.35 24.7691 139.35 26.1065V27.4754L139.342 27.4833ZM145.18 21.2052V24.4465C145.558 24.1633 145.959 23.943 146.391 23.8014C146.824 23.6598 147.288 23.589 147.792 23.589C148.555 23.589 149.2 23.7463 149.735 24.0689C150.27 24.3915 150.593 24.7612 150.718 25.1782C150.836 25.5952 150.892 26.3583 150.892 27.4676V35.6023H146.549V27.3023C146.549 26.6179 146.509 26.1773 146.423 25.9806C146.336 25.784 146.155 25.6896 145.864 25.6896C145.597 25.6896 145.416 25.7918 145.321 25.9964C145.227 26.1931 145.18 26.5943 145.18 27.1922V35.6102H140.837V21.2131H145.18V21.2052ZM156.273 28.3723H152.19V27.5777C152.19 26.6651 152.316 25.9649 152.575 25.4614C152.827 24.9658 153.346 24.5331 154.109 24.1476C154.88 23.7699 155.872 23.5811 157.107 23.5811C158.578 23.5811 159.687 23.7935 160.435 24.2262C161.182 24.6511 161.63 25.1782 161.78 25.8076C161.929 26.4291 162.008 27.7193 162.008 29.6704V35.5944H157.775V34.5402C157.508 34.9651 157.162 35.2798 156.745 35.4922C156.328 35.7046 155.824 35.8069 155.242 35.8069C154.479 35.8069 153.787 35.6338 153.149 35.2798C152.512 34.9257 152.198 34.1547 152.198 32.9589V31.9912C152.198 31.1101 152.371 30.5043 152.701 30.1896C153.039 29.8671 153.881 29.4973 155.219 29.0725C156.65 28.6083 157.413 28.3015 157.516 28.1363C157.618 27.9789 157.665 27.6485 157.665 27.1529C157.665 26.5392 157.61 26.138 157.5 25.9492C157.39 25.7604 157.201 25.6738 156.941 25.6738C156.643 25.6738 156.462 25.7525 156.391 25.9098C156.32 26.0672 156.281 26.4763 156.281 27.1293V28.3644L156.273 28.3723ZM157.665 29.9851C156.965 30.4099 156.556 30.7561 156.446 31.0472C156.336 31.3304 156.281 31.7395 156.281 32.2745C156.281 32.8881 156.328 33.2815 156.43 33.4545C156.525 33.6355 156.721 33.722 157.012 33.722C157.303 33.722 157.461 33.6512 157.547 33.5096C157.634 33.368 157.673 33.0061 157.673 32.4082V29.9851H157.665ZM167.987 21.1973V23.0697H163.511V21.1973H167.987ZM167.987 23.8014V35.5944H163.511V23.8014H167.987ZM174.116 22.2358V24.0925H175.327V25.9649H174.116V32.2745C174.116 33.0454 174.171 33.4782 174.265 33.5726C174.367 33.6591 174.777 33.7063 175.5 33.7063V35.6023H173.738C172.747 35.6023 172.039 35.5708 171.606 35.5C171.181 35.4371 170.811 35.2719 170.481 35.028C170.158 34.7841 169.954 34.5009 169.875 34.1862C169.797 33.8715 169.757 33.1241 169.757 31.9598V25.9806H168.829V24.1082H169.757V22.2516H174.1L174.116 22.2358ZM180.15 28.3723H176.067V27.5777C176.067 26.6651 176.193 25.9649 176.452 25.4614C176.704 24.9658 177.223 24.5331 177.986 24.1476C178.757 23.7699 179.749 23.5811 180.984 23.5811C182.455 23.5811 183.564 23.7935 184.312 24.2262C185.059 24.6511 185.508 25.1782 185.657 25.8076C185.807 26.4291 185.885 27.7193 185.885 29.6704V35.5944H181.653V34.5402C181.385 34.9651 181.039 35.2798 180.622 35.4922C180.205 35.7046 179.701 35.8069 179.119 35.8069C178.356 35.8069 177.664 35.6338 177.027 35.2798C176.389 34.9257 176.075 34.1547 176.075 32.9589V31.9912C176.075 31.1101 176.248 30.5043 176.578 30.1896C176.916 29.8671 177.758 29.4973 179.096 29.0725C180.528 28.6083 181.291 28.3015 181.393 28.1363C181.495 27.9789 181.542 27.6485 181.542 27.1529C181.542 26.5392 181.487 26.138 181.377 25.9492C181.267 25.7604 181.078 25.6738 180.819 25.6738C180.52 25.6738 180.339 25.7525 180.268 25.9098C180.197 26.0672 180.158 26.4763 180.158 27.1293V28.3644L180.15 28.3723ZM181.542 29.9851C180.842 30.4099 180.433 30.7561 180.323 31.0472C180.213 31.3304 180.158 31.7395 180.158 32.2745C180.158 32.8881 180.205 33.2815 180.307 33.4545C180.402 33.6355 180.598 33.722 180.889 33.722C181.181 33.722 181.338 33.6512 181.424 33.5096C181.511 33.368 181.55 33.0061 181.55 32.4082V29.9851H181.542ZM191.793 23.8014L191.731 24.895C192.045 24.4544 192.431 24.1318 192.887 23.9116C193.343 23.6913 193.87 23.5811 194.468 23.5811C195.216 23.5811 195.822 23.7306 196.301 24.0217C196.773 24.3128 197.08 24.6747 197.214 25.1231C197.348 25.5637 197.419 26.3032 197.419 27.3338V35.6023H193.076V27.4361C193.076 26.6258 193.044 26.1301 192.974 25.9492C192.911 25.7682 192.73 25.6817 192.431 25.6817C192.116 25.6817 191.927 25.784 191.841 25.9885C191.762 26.1931 191.723 26.7438 191.723 27.6328V35.6023H187.38V23.8093H191.793V23.8014ZM208.024 23.8014L206.781 32.3374C206.584 33.6906 206.419 34.611 206.285 35.1067C206.151 35.5944 205.931 36.0036 205.624 36.3261C205.317 36.6487 204.893 36.8847 204.342 37.0342C203.791 37.1836 202.918 37.2623 201.714 37.2623H199.079V35.3663C199.755 35.3663 200.188 35.3427 200.377 35.2798C200.573 35.2247 200.668 35.0988 200.668 34.9021C200.668 34.8077 200.573 34.3986 200.392 33.667L198.009 23.8093H201.95L203.374 31.7867L204.074 23.8093H208.008L208.024 23.8014ZM212.681 28.3723H208.598V27.5777C208.598 26.6651 208.724 25.9649 208.983 25.4614C209.235 24.9658 209.754 24.5331 210.518 24.1476C211.289 23.7699 212.28 23.5811 213.515 23.5811C214.986 23.5811 216.095 23.7935 216.843 24.2262C217.59 24.6511 218.039 25.1782 218.188 25.8076C218.338 26.4291 218.416 27.7193 218.416 29.6704V35.5944H214.184V34.5402C213.916 34.9651 213.57 35.2798 213.153 35.4922C212.736 35.7046 212.233 35.8069 211.65 35.8069C210.887 35.8069 210.195 35.6338 209.558 35.2798C208.921 34.9257 208.606 34.1547 208.606 32.9589V31.9912C208.606 31.1101 208.779 30.5043 209.109 30.1896C209.448 29.8671 210.289 29.4973 211.627 29.0725C213.059 28.6083 213.822 28.3015 213.924 28.1363C214.026 27.9789 214.074 27.6485 214.074 27.1529C214.074 26.5392 214.019 26.138 213.908 25.9492C213.798 25.7604 213.609 25.6738 213.35 25.6738C213.051 25.6738 212.87 25.7525 212.799 25.9098C212.728 26.0672 212.689 26.4763 212.689 27.1293V28.3644L212.681 28.3723ZM214.074 29.9851C213.373 30.4099 212.964 30.7561 212.854 31.0472C212.744 31.3304 212.689 31.7395 212.689 32.2745C212.689 32.8881 212.736 33.2815 212.838 33.4545C212.933 33.6355 213.13 33.722 213.421 33.722C213.712 33.722 213.869 33.6512 213.956 33.5096C214.042 33.368 214.081 33.0061 214.081 32.4082V29.9851H214.074Z" fill="#DF2A2B"/>
<path d="M98.5938 47.3094V38.7813H104.714V39.7804H99.7188V42.4003H104.416V43.3994H99.7188V46.3024H104.919V47.3016H98.5938V47.3094ZM110.3 47.3094V46.5384C110.111 46.8374 109.868 47.0655 109.576 47.2229C109.278 47.3802 108.963 47.4589 108.617 47.4589C107.893 47.4589 107.263 47.1757 106.736 46.6092C106.209 46.0428 105.942 45.2482 105.942 44.2255C105.942 43.5253 106.06 42.9274 106.296 42.4396C106.532 41.9518 106.847 41.5899 107.24 41.3539C107.633 41.1179 108.066 40.9999 108.546 40.9999C108.884 40.9999 109.207 41.0707 109.498 41.2202C109.789 41.3696 110.033 41.5742 110.229 41.8417V38.7813H111.268V47.3094H110.3ZM107.012 44.2333C107.012 45.0358 107.177 45.6258 107.515 46.0192C107.854 46.4047 108.247 46.6014 108.687 46.6014C109.128 46.6014 109.514 46.4126 109.836 46.0428C110.159 45.673 110.324 45.1066 110.324 44.3513C110.324 43.4859 110.167 42.8487 109.836 42.4553C109.514 42.0541 109.104 41.8574 108.609 41.8574C108.168 41.8574 107.798 42.0462 107.484 42.4317C107.169 42.8172 107.012 43.4151 107.012 44.2333ZM116.917 47.3094V46.4047C116.681 46.7508 116.397 47.0183 116.075 47.1914C115.752 47.3645 115.383 47.451 114.973 47.451C114.494 47.451 114.077 47.3409 113.73 47.1285C113.392 46.9161 113.156 46.6407 113.046 46.3103C112.928 45.9799 112.873 45.5314 112.873 44.9571V41.1257H113.911V44.5559C113.911 45.1931 113.951 45.618 114.029 45.8382C114.108 46.0507 114.25 46.2237 114.454 46.3575C114.667 46.4834 114.903 46.5542 115.17 46.5542C115.666 46.5542 116.075 46.389 116.39 46.0507C116.665 45.7596 116.799 45.2246 116.799 44.4457V41.1336H117.837V47.3173H116.917V47.3094ZM123.502 45.0594L124.54 45.1931C124.422 45.9248 124.123 46.4912 123.651 46.8767C123.179 47.2622 122.613 47.4589 121.944 47.4589C121.141 47.4589 120.473 47.1836 119.953 46.6407C119.434 46.0979 119.175 45.2875 119.175 44.2255C119.175 43.1634 119.434 42.3452 119.961 41.8102C120.488 41.2752 121.165 41.0077 121.983 41.0077C122.62 41.0077 123.155 41.1729 123.588 41.4955C124.021 41.8181 124.304 42.3058 124.422 42.9588L123.415 43.1162C123.313 42.6992 123.148 42.3845 122.904 42.18C122.66 41.9754 122.361 41.8653 122.022 41.8653C121.511 41.8653 121.086 42.0541 120.748 42.4239C120.41 42.8015 120.244 43.3915 120.244 44.2097C120.244 45.0279 120.402 45.6652 120.724 46.0349C121.047 46.4126 121.456 46.6014 121.952 46.6014C122.345 46.6014 122.683 46.4755 122.959 46.2316C123.234 45.9799 123.415 45.5944 123.486 45.0673L123.502 45.0594ZM129.41 46.5542C129.064 46.8531 128.702 47.0813 128.324 47.2308C127.947 47.3802 127.553 47.4589 127.152 47.4589C126.515 47.4589 126.003 47.3016 125.618 46.979C125.232 46.6643 125.044 46.2316 125.044 45.6888C125.044 45.3347 125.13 45.0122 125.311 44.7368C125.492 44.4615 125.736 44.2412 126.043 44.0917C126.349 43.9344 126.822 43.8242 127.459 43.7455C128.308 43.6433 128.93 43.5253 129.323 43.3915V43.124C129.323 42.6992 129.237 42.4002 129.056 42.2272C128.796 41.9754 128.403 41.8574 127.868 41.8574C127.388 41.8574 127.026 41.9439 126.782 42.1092C126.546 42.2744 126.365 42.5891 126.255 43.0375L125.217 42.8802C125.366 42.2193 125.657 41.7473 126.106 41.4483C126.554 41.1493 127.191 40.9999 128.017 40.9999C128.662 40.9999 129.166 41.1021 129.536 41.2988C129.905 41.4955 130.134 41.7473 130.228 42.0384C130.322 42.3373 130.37 42.7621 130.37 43.3286V44.7211C130.37 45.6966 130.393 46.3103 130.44 46.5699C130.488 46.8217 130.574 47.0734 130.708 47.3094H129.622C129.512 47.097 129.441 46.8453 129.402 46.5463L129.41 46.5542ZM129.331 44.2176C128.954 44.3749 128.379 44.5008 127.632 44.611C127.191 44.6739 126.884 44.7447 126.711 44.8234C126.538 44.902 126.405 45.0122 126.302 45.1617C126.208 45.3033 126.161 45.4763 126.161 45.6652C126.161 45.9563 126.271 46.1923 126.491 46.3732C126.711 46.5463 127.018 46.6407 127.412 46.6407C127.805 46.6407 128.12 46.562 128.426 46.4047C128.733 46.2473 128.961 46.0349 129.111 45.7674C129.26 45.5 129.339 45.1145 129.339 44.611V44.2255L129.331 44.2176ZM134.319 46.3732L134.461 47.3016C134.17 47.3645 133.91 47.396 133.682 47.396C133.32 47.396 133.029 47.333 132.801 47.215C132.58 47.097 132.431 46.9318 132.344 46.7273C132.258 46.5227 132.218 46.1136 132.218 45.5V41.9361H131.455V41.1257H132.218V39.5995L133.257 38.9701V41.1257H134.311V41.9361H133.257V45.555C133.257 45.8933 133.288 46.1057 133.351 46.2001C133.438 46.3418 133.611 46.4126 133.855 46.4126C133.973 46.4126 134.13 46.3968 134.311 46.3654L134.319 46.3732ZM135.287 39.985V38.7813H136.325V39.985H135.287ZM135.287 47.3094V41.1257H136.325V47.3094H135.287ZM137.529 44.2255C137.529 43.1555 137.804 42.353 138.339 41.8102C138.882 41.2674 139.567 40.9999 140.4 40.9999C141.234 40.9999 141.903 41.2752 142.454 41.8102C143.005 42.353 143.28 43.1398 143.28 44.1625C143.28 45.2718 143.012 46.0979 142.47 46.6407C141.927 47.1836 141.242 47.451 140.408 47.451C139.574 47.451 138.898 47.1757 138.355 46.6328C137.812 46.09 137.537 45.2875 137.537 44.2255H137.529ZM138.599 44.2255C138.599 45.0279 138.772 45.6258 139.126 46.0113C139.48 46.4047 139.913 46.5935 140.432 46.5935C140.92 46.5935 141.337 46.3968 141.683 46.0035C142.029 45.6101 142.202 45.0122 142.202 44.2176C142.202 43.423 142.029 42.8251 141.675 42.4396C141.321 42.0462 140.888 41.8574 140.369 41.8574C139.881 41.8574 139.456 42.0541 139.11 42.4475C138.764 42.8408 138.591 43.4309 138.591 44.2255H138.599ZM144.507 47.3173V41.1336H145.443V42.0226C145.672 41.6843 145.947 41.4247 146.269 41.2595C146.6 41.0943 146.97 41.0077 147.394 41.0077C147.725 41.0077 148.024 41.0628 148.307 41.1651C148.582 41.2674 148.811 41.409 148.984 41.582C149.157 41.7551 149.283 41.9754 149.369 42.2586C149.456 42.534 149.495 42.9588 149.495 43.5253V47.3252H148.457V43.5725C148.457 43.1162 148.409 42.7857 148.315 42.5812C148.221 42.3766 148.071 42.2114 147.874 42.0934C147.678 41.9833 147.45 41.9203 147.182 41.9203C146.686 41.9203 146.293 42.0698 145.994 42.3766C145.695 42.6835 145.553 43.2106 145.553 43.9501V47.3252H144.515L144.507 47.3173ZM155.089 46.5542C154.742 46.8531 154.381 47.0813 154.003 47.2308C153.625 47.3802 153.232 47.4589 152.831 47.4589C152.193 47.4589 151.682 47.3016 151.297 46.979C150.911 46.6643 150.722 46.2316 150.722 45.6888C150.722 45.3347 150.809 45.0122 150.99 44.7368C151.171 44.4615 151.415 44.2412 151.721 44.0917C152.028 43.9344 152.5 43.8242 153.138 43.7455C153.987 43.6433 154.609 43.5253 155.002 43.3915V43.124C155.002 42.6992 154.916 42.4002 154.735 42.2272C154.475 41.9754 154.082 41.8574 153.547 41.8574C153.067 41.8574 152.705 41.9439 152.461 42.1092C152.225 42.2744 152.044 42.5891 151.934 43.0375L150.895 42.8802C151.045 42.2193 151.336 41.7473 151.784 41.4483C152.233 41.1493 152.87 40.9999 153.696 40.9999C154.341 40.9999 154.845 41.1021 155.215 41.2988C155.584 41.4955 155.812 41.7473 155.907 42.0384C156.001 42.3373 156.048 42.7621 156.048 43.3286V44.7211C156.048 45.6966 156.072 46.3103 156.119 46.5699C156.166 46.8217 156.253 47.0734 156.387 47.3094H155.301C155.191 47.097 155.12 46.8453 155.081 46.5463L155.089 46.5542ZM155.01 44.2176C154.632 44.3749 154.058 44.5008 153.311 44.611C152.87 44.6739 152.563 44.7447 152.39 44.8234C152.217 44.902 152.083 45.0122 151.981 45.1617C151.887 45.3033 151.839 45.4763 151.839 45.6652C151.839 45.9563 151.95 46.1923 152.17 46.3732C152.39 46.5463 152.697 46.6407 153.09 46.6407C153.484 46.6407 153.798 46.562 154.105 46.4047C154.412 46.2473 154.64 46.0349 154.79 45.7674C154.939 45.5 155.018 45.1145 155.018 44.611V44.2255L155.01 44.2176ZM157.645 47.3173V38.7892H158.684V47.3173H157.645ZM163.955 47.3173V38.7892H165.08V47.3173H163.955ZM166.89 47.3173V41.1336H167.826V42.0226C168.054 41.6843 168.329 41.4247 168.652 41.2595C168.982 41.0943 169.352 41.0077 169.777 41.0077C170.107 41.0077 170.406 41.0628 170.689 41.1651C170.965 41.2674 171.193 41.409 171.366 41.582C171.539 41.7551 171.665 41.9754 171.752 42.2586C171.838 42.534 171.877 42.9588 171.877 43.5253V47.3252H170.839V43.5725C170.839 43.1162 170.792 42.7857 170.697 42.5812C170.603 42.3766 170.453 42.2114 170.257 42.0934C170.06 41.9833 169.832 41.9203 169.564 41.9203C169.069 41.9203 168.675 42.0698 168.376 42.3766C168.078 42.6835 167.936 43.2106 167.936 43.9501V47.3252H166.897L166.89 47.3173ZM173.073 45.4685L174.112 45.3111C174.175 45.7438 174.34 46.0664 174.607 46.2788C174.883 46.4912 175.237 46.5935 175.685 46.5935C176.134 46.5935 176.48 46.4991 176.724 46.3181C176.968 46.1372 177.093 45.9012 177.093 45.618C177.093 45.3741 176.991 45.1853 176.787 45.0437C176.645 44.9492 176.291 44.8391 175.732 44.6975C174.922 44.4929 174.379 44.3199 174.112 44.1782C173.836 44.0366 173.624 43.84 173.474 43.6039C173.325 43.3601 173.246 43.0926 173.246 42.7857C173.246 42.2586 173.451 41.8338 173.86 41.5034C174.269 41.173 174.835 41.0077 175.559 41.0077C176.016 41.0077 176.417 41.0785 176.763 41.2123C177.109 41.346 177.369 41.5349 177.558 41.763C177.739 41.9912 177.864 42.3216 177.935 42.7464L176.928 42.9038C176.834 42.2114 176.385 41.8653 175.591 41.8653C175.134 41.8653 174.796 41.9439 174.576 42.0934C174.356 42.2429 174.245 42.4317 174.245 42.6677C174.245 42.9038 174.348 43.0768 174.568 43.2106C174.694 43.2893 175.079 43.4151 175.709 43.5803C176.574 43.8006 177.125 43.9737 177.384 44.1074C177.636 44.2412 177.833 44.4221 177.967 44.6582C178.108 44.8942 178.179 45.1695 178.179 45.4842C178.179 46.0743 177.951 46.5542 177.495 46.9161C177.038 47.2858 176.425 47.4668 175.638 47.4668C174.167 47.4668 173.317 46.8059 173.081 45.4764L173.073 45.4685ZM181.727 46.3732L181.869 47.3016C181.578 47.3645 181.318 47.396 181.09 47.396C180.728 47.396 180.437 47.333 180.209 47.215C179.989 47.097 179.839 46.9318 179.753 46.7273C179.666 46.5227 179.627 46.1136 179.627 45.5V41.9361H178.864V41.1257H179.627V39.5995L180.665 38.9701V41.1257H181.719V41.9361H180.665V45.555C180.665 45.8933 180.697 46.1057 180.76 46.2001C180.846 46.3418 181.019 46.4126 181.263 46.4126C181.381 46.4126 181.538 46.3968 181.719 46.3654L181.727 46.3732ZM182.695 39.985V38.7813H183.733V39.985H182.695ZM182.695 47.3094V41.1257H183.733V47.3094H182.695ZM187.651 46.3654L187.793 47.2937C187.502 47.3566 187.242 47.3881 187.014 47.3881C186.652 47.3881 186.361 47.3252 186.133 47.2072C185.913 47.0891 185.763 46.9239 185.677 46.7194C185.59 46.5148 185.551 46.1057 185.551 45.4921V41.9282H184.788V41.1179H185.551V39.5916L186.589 38.9622V41.1179H187.643V41.9282H186.589V45.5472C186.589 45.8855 186.621 46.0979 186.684 46.1923C186.77 46.3339 186.943 46.4047 187.187 46.4047C187.305 46.4047 187.462 46.389 187.643 46.3575L187.651 46.3654ZM192.631 47.3094V46.4047C192.395 46.7508 192.112 47.0183 191.789 47.1914C191.467 47.3645 191.097 47.451 190.688 47.451C190.208 47.451 189.791 47.3409 189.445 47.1285C189.107 46.9161 188.871 46.6407 188.761 46.3103C188.643 45.9799 188.587 45.5314 188.587 44.9571V41.1257H189.626V44.5559C189.626 45.1931 189.665 45.618 189.744 45.8382C189.823 46.0507 189.964 46.2237 190.169 46.3575C190.381 46.4834 190.617 46.5542 190.885 46.5542C191.38 46.5542 191.789 46.389 192.104 46.0507C192.38 45.7596 192.513 45.2246 192.513 44.4457V41.1336H193.552V47.3173H192.631V47.3094ZM197.525 46.3654L197.666 47.2937C197.375 47.3566 197.116 47.3881 196.887 47.3881C196.526 47.3881 196.234 47.3252 196.006 47.2072C195.786 47.0891 195.637 46.9239 195.55 46.7194C195.463 46.5148 195.424 46.1057 195.424 45.4921V41.9282H194.661V41.1179H195.424V39.5916L196.463 38.9622V41.1179H197.517V41.9282H196.463V45.5472C196.463 45.8855 196.494 46.0979 196.557 46.1923C196.644 46.3339 196.817 46.4047 197.061 46.4047C197.179 46.4047 197.336 46.389 197.517 46.3575L197.525 46.3654ZM198.492 39.9771V38.7734H199.531V39.9771H198.492ZM198.492 47.3016V41.1179H199.531V47.3016H198.492ZM200.735 44.2176C200.735 43.1476 201.01 42.3452 201.545 41.8023C202.088 41.2595 202.772 40.992 203.606 40.992C204.44 40.992 205.109 41.2674 205.659 41.8023C206.21 42.3452 206.486 43.1319 206.486 44.1546C206.486 45.2639 206.218 46.09 205.675 46.6328C205.132 47.1757 204.448 47.4432 203.614 47.4432C202.78 47.4432 202.103 47.1678 201.561 46.625C201.018 46.0821 200.742 45.2797 200.742 44.2176H200.735ZM201.804 44.2176C201.804 45.0201 201.978 45.618 202.332 46.0035C202.686 46.3968 203.118 46.5856 203.638 46.5856C204.125 46.5856 204.542 46.389 204.888 45.9956C205.235 45.6022 205.408 45.0043 205.408 44.2097C205.408 43.4151 205.235 42.8172 204.881 42.4317C204.527 42.0384 204.094 41.8495 203.575 41.8495C203.087 41.8495 202.662 42.0462 202.316 42.4396C201.97 42.833 201.797 43.423 201.797 44.2176H201.804ZM207.713 47.3094V41.1257H208.649V42.0148C208.877 41.6765 209.153 41.4168 209.475 41.2516C209.806 41.0864 210.175 40.9999 210.6 40.9999C210.931 40.9999 211.229 41.0549 211.513 41.1572C211.788 41.2595 212.016 41.4011 212.189 41.5742C212.362 41.7473 212.488 41.9675 212.575 42.2508C212.661 42.5261 212.701 42.951 212.701 43.5174V47.3173H211.662V43.5646C211.662 43.1083 211.615 42.7779 211.521 42.5733C211.426 42.3688 211.277 42.2036 211.08 42.0856C210.883 41.9754 210.655 41.9125 210.388 41.9125C209.892 41.9125 209.499 42.062 209.2 42.3688C208.901 42.6756 208.759 43.2027 208.759 43.9422V47.3173H207.721L207.713 47.3094ZM213.896 45.4606L214.935 45.3033C214.998 45.736 215.163 46.0585 215.431 46.2709C215.706 46.4834 216.06 46.5856 216.508 46.5856C216.957 46.5856 217.303 46.4912 217.547 46.3103C217.791 46.1293 217.917 45.8933 217.917 45.6101C217.917 45.3662 217.814 45.1774 217.61 45.0358C217.468 44.9414 217.114 44.8312 216.556 44.6896C215.745 44.4851 215.202 44.312 214.935 44.1704C214.66 44.0288 214.447 43.8321 214.298 43.5961C214.148 43.3522 214.07 43.0847 214.07 42.7779C214.07 42.2508 214.274 41.8259 214.683 41.4955C215.092 41.1651 215.659 40.9999 216.383 40.9999C216.839 40.9999 217.24 41.0707 217.586 41.2044C217.932 41.3382 218.192 41.527 218.381 41.7551C218.562 41.9833 218.688 42.3137 218.758 42.7385L217.751 42.8959C217.657 42.2036 217.209 41.8574 216.414 41.8574C215.958 41.8574 215.619 41.9361 215.399 42.0856C215.179 42.235 215.069 42.4239 215.069 42.6599C215.069 42.8959 215.171 43.069 215.391 43.2027C215.517 43.2814 215.903 43.4073 216.532 43.5725C217.397 43.7928 217.948 43.9658 218.208 44.0996C218.46 44.2333 218.656 44.4143 218.79 44.6503C218.932 44.8863 219.002 45.1617 219.002 45.4764C219.002 46.0664 218.774 46.5463 218.318 46.9082C217.862 47.278 217.248 47.4589 216.461 47.4589C214.99 47.4589 214.14 46.7981 213.904 45.4685L213.896 45.4606Z" fill="#5B5C5E"/>
<path d="M0.00786895 25.9479C0.00786895 25.8456 0.0393342 25.7591 0.102272 25.6883C0.165211 25.6175 0.259617 25.5781 0.377626 25.5781H2.85582C2.94236 25.5781 3.0289 25.6096 3.12331 25.6804C3.21772 25.7512 3.26492 25.8377 3.26492 25.9479V37.7252C3.26492 37.9691 3.12331 38.095 2.84795 38.095H0.369763C0.125877 38.095 0 37.9691 0 37.7252V25.9479H0.00786895Z" fill="#00364E"/>
<path d="M5.01704 27.5412C5.08785 27.4783 5.16652 27.4389 5.2452 27.4232C5.32387 27.4075 5.40254 27.3996 5.48122 27.3996H6.75571C6.85799 27.3996 6.94453 27.4153 7.01533 27.4547C7.08614 27.494 7.14907 27.5412 7.20415 27.6041C7.25135 27.6671 7.29856 27.7379 7.33002 27.8166C7.36149 27.8952 7.39296 27.9739 7.41657 28.0604L7.58965 28.8C7.67619 28.6269 7.80993 28.4459 7.99874 28.265C8.18756 28.0762 8.42357 27.911 8.69893 27.7615C8.97428 27.612 9.29684 27.4861 9.66661 27.3839C10.0285 27.2894 10.4376 27.2344 10.886 27.2344C11.5311 27.2344 12.0976 27.3603 12.6011 27.6041C13.1046 27.848 13.5294 28.1863 13.8835 28.6111C14.2375 29.036 14.505 29.5316 14.6859 30.1059C14.8669 30.6724 14.9613 31.286 14.9613 31.9311V37.454C14.9613 37.6664 14.9141 37.8316 14.8197 37.9417C14.7253 38.0519 14.5758 38.107 14.3791 38.107H12.428C12.1841 38.107 12.0189 38.0676 11.9324 37.9889C11.8458 37.9103 11.7986 37.7451 11.7986 37.5169V32.0334C11.7986 31.7895 11.7436 31.5614 11.6334 31.349C11.5233 31.1365 11.3817 30.9399 11.2007 30.7746C11.0198 30.6094 10.8152 30.4757 10.5871 30.3813C10.3589 30.2869 10.1308 30.2397 9.89476 30.2397C9.69021 30.2397 9.48566 30.2869 9.27324 30.3734C9.06083 30.46 8.87201 30.5858 8.69107 30.751C8.51799 30.9084 8.3685 31.0972 8.24262 31.3175C8.12462 31.5299 8.05381 31.7659 8.03808 32.0177V37.4933C8.03808 37.5877 8.02235 37.6821 7.98301 37.7765C7.94367 37.8709 7.8886 37.9417 7.8178 37.9968C7.74699 38.044 7.67619 38.0755 7.61325 38.0912C7.55031 38.1069 7.47164 38.1148 7.39296 38.1148H5.48908C5.24519 38.1148 5.07212 38.0519 4.96984 37.9417C4.8597 37.8237 4.8125 37.6664 4.8125 37.4697V28.0447C4.8125 27.9346 4.8361 27.8402 4.8833 27.7536C4.93051 27.6671 4.99344 27.5963 5.07998 27.5412L5.03278 27.5648L5.01704 27.5412Z" fill="#00364E"/>
<path d="M17.1591 27.5421C17.1591 27.0228 17.2692 26.5272 17.4974 26.0709C17.7255 25.6067 18.0245 25.2055 18.4021 24.8593C18.7797 24.5132 19.2124 24.2378 19.7002 24.0411C20.188 23.8445 20.6993 23.7422 21.2343 23.7422H21.3995C21.5883 23.7422 21.7378 23.7973 21.8401 23.9153C21.9424 24.0333 21.9974 24.1906 21.9974 24.3952V26.008C21.9974 26.2125 21.9424 26.3856 21.8322 26.5272C21.7221 26.661 21.5805 26.7318 21.3995 26.7318H21.2343C21.1163 26.7318 21.0062 26.7554 20.896 26.7947C20.7859 26.834 20.6915 26.897 20.6128 26.9678C20.5263 27.0386 20.4633 27.1251 20.4082 27.2274C20.361 27.3218 20.3296 27.4319 20.3296 27.5499V28.5176H21.6513C21.8401 28.5176 21.9896 28.5727 22.0918 28.675C22.1941 28.7772 22.2492 28.9425 22.2492 29.1706V30.7126C22.2492 30.9565 22.1941 31.1296 22.0918 31.2397C21.9896 31.3498 21.8401 31.4049 21.6513 31.4049H20.3296V37.447C20.3296 37.6594 20.2588 37.8246 20.1172 37.9348C19.9755 38.0449 19.8182 38.1 19.6451 38.1H17.8199C17.6154 38.1 17.458 38.037 17.3321 37.9112C17.2141 37.7853 17.1512 37.6279 17.1512 37.4548V31.4128H16.2858C16.0891 31.4128 15.9318 31.3577 15.8138 31.2476C15.6957 31.1374 15.6328 30.9565 15.6328 30.7126V29.1706C15.6328 28.9425 15.6957 28.7851 15.8138 28.675C15.9318 28.5727 16.0891 28.5176 16.2858 28.5176H17.1512V27.5499L17.1591 27.5421Z" fill="#00364E"/>
<path d="M22.8281 23.7858C22.8281 23.5498 22.8753 23.3846 22.9776 23.2823C23.0799 23.1879 23.2372 23.1328 23.4496 23.1328H25.4086C25.6053 23.1328 25.7626 23.18 25.8885 23.2823C26.0065 23.3846 26.0694 23.5498 26.0694 23.7858V25.4301C26.0694 25.5009 26.0537 25.5717 26.0222 25.6503C25.9908 25.729 25.9514 25.8077 25.8885 25.8785C25.8334 25.9493 25.7626 26.0122 25.6839 26.0594C25.6053 26.1066 25.5109 26.1302 25.4086 26.1302H23.4496C23.0327 26.1302 22.8281 25.8942 22.8281 25.4301V23.7858ZM22.8281 28.0499C22.8281 27.8689 22.8753 27.7116 22.9776 27.5857C23.0799 27.4598 23.2372 27.389 23.4496 27.389H25.3771C25.4479 27.389 25.5187 27.4047 25.5974 27.4362C25.6761 27.4677 25.7469 27.5149 25.8177 27.57C25.8885 27.625 25.9436 27.6958 25.9908 27.7745C26.038 27.8532 26.0616 27.9397 26.0616 28.042V37.4355C26.0616 37.6479 26.0065 37.8131 25.8885 37.9233C25.7705 38.0334 25.6053 38.0885 25.385 38.0885H23.4575C23.0405 38.0885 22.836 37.8761 22.836 37.4434V28.0499H22.8281Z" fill="#00364E"/>
<path d="M27.2436 27.5412C27.3144 27.4783 27.393 27.4389 27.4717 27.4232C27.5504 27.4075 27.6291 27.3996 27.7077 27.3996H28.9822C29.0845 27.3996 29.171 27.4153 29.2418 27.4547C29.3126 27.494 29.3756 27.5412 29.4307 27.6041C29.4779 27.6671 29.5251 27.7379 29.5565 27.8166C29.588 27.8952 29.6195 27.9739 29.6431 28.0604L29.824 28.8C29.9106 28.6269 30.0443 28.4459 30.2331 28.265C30.4219 28.0762 30.6579 27.911 30.9333 27.7615C31.2087 27.612 31.5312 27.4861 31.901 27.3839C32.2629 27.2894 32.672 27.2344 33.1204 27.2344C33.7577 27.2344 34.332 27.3603 34.8355 27.6041C35.339 27.848 35.7638 28.1863 36.1178 28.6111C36.4719 29.036 36.7394 29.5316 36.9203 30.1059C37.1012 30.6724 37.1957 31.286 37.1957 31.9311V37.454C37.1957 37.6664 37.1484 37.8316 37.054 37.9417C36.9596 38.0519 36.8102 38.107 36.6135 38.107H34.6624C34.4185 38.107 34.2533 38.0676 34.1668 37.9889C34.0802 37.9103 34.033 37.7451 34.033 37.5169V32.0334C34.033 31.7895 33.9779 31.5614 33.8678 31.349C33.7577 31.1365 33.616 30.9399 33.4351 30.7746C33.2541 30.6094 33.0496 30.4757 32.8214 30.3813C32.5933 30.2869 32.3651 30.2397 32.1291 30.2397C31.9246 30.2397 31.72 30.2869 31.5076 30.3734C31.2952 30.46 31.1064 30.5858 30.9254 30.751C30.7445 30.9084 30.595 31.0972 30.477 31.3175C30.359 31.5378 30.2882 31.7659 30.2725 32.0177V37.4933C30.2725 37.5877 30.2567 37.6821 30.2174 37.7765C30.178 37.8709 30.123 37.9417 30.0522 37.9968C29.9814 38.044 29.9106 38.0755 29.8476 38.0912C29.7847 38.1069 29.706 38.1148 29.6273 38.1148H27.7235C27.4796 38.1148 27.3065 38.0519 27.2042 37.9417C27.0941 37.8237 27.0469 37.6664 27.0469 37.4697V28.0447C27.0469 27.9346 27.0705 27.8402 27.1177 27.7536C27.1649 27.6671 27.2357 27.5963 27.3144 27.5412L27.2672 27.5648L27.2436 27.5412Z" fill="#00364E"/>
<path d="M38.3594 23.7858C38.3594 23.5498 38.4066 23.3846 38.5089 23.2823C38.6111 23.1879 38.7685 23.1328 38.9809 23.1328H40.9398C41.1365 23.1328 41.2939 23.18 41.4197 23.2823C41.5378 23.3846 41.6007 23.5498 41.6007 23.7858V25.4301C41.6007 25.5009 41.585 25.5717 41.5535 25.6503C41.522 25.729 41.4748 25.8077 41.4197 25.8785C41.3647 25.9493 41.2939 26.0122 41.2152 26.0594C41.1365 26.1066 41.0421 26.1302 40.9398 26.1302H38.9809C38.5639 26.1302 38.3594 25.8942 38.3594 25.4301V23.7858ZM38.3594 28.0499C38.3594 27.8689 38.4066 27.7116 38.5089 27.5857C38.6111 27.4598 38.7685 27.389 38.9809 27.389H40.9162C40.987 27.389 41.0578 27.4047 41.1365 27.4362C41.2152 27.4677 41.286 27.5149 41.3568 27.57C41.4276 27.625 41.4827 27.6958 41.5299 27.7745C41.5771 27.8532 41.6007 27.9397 41.6007 28.042V37.4355C41.6007 37.6479 41.5377 37.8131 41.4276 37.9233C41.3096 38.0334 41.1444 38.0885 40.9241 38.0885H38.9966C38.5797 38.0885 38.3751 37.8761 38.3751 37.4434V28.0499H38.3594Z" fill="#00364E"/>
<path d="M43.6435 25.7201C43.6435 25.5471 43.6986 25.4133 43.8166 25.3268C43.9346 25.2402 44.0998 25.1537 44.3122 25.075L46.224 24.4063C46.224 24.4063 46.279 24.3984 46.3026 24.3984H46.3734C46.578 24.3984 46.7196 24.4614 46.7904 24.5794C46.8612 24.6974 46.8927 24.8626 46.8927 25.0593V27.3801H48.0413C48.2222 27.3801 48.3639 27.4352 48.4819 27.5375C48.592 27.6476 48.6471 27.805 48.6471 28.0174V29.6459C48.6471 29.8819 48.592 30.055 48.4819 30.1651C48.3717 30.2753 48.2222 30.3304 48.0413 30.3304H46.8848V37.4424C46.8927 37.6548 46.8297 37.82 46.7117 37.9301C46.5859 38.0403 46.4128 38.0954 46.2004 38.0954H44.2965C43.8638 38.0954 43.6435 37.8829 43.6435 37.4502V30.3382H42.7624C42.3297 30.3382 42.1094 30.1101 42.1094 29.6538V28.0253C42.1094 27.6004 42.3218 27.388 42.7624 27.388H43.6278V25.728L43.6435 25.7201Z" fill="#00364E"/>
<path d="M0.015625 42.3073C0.015625 42.205 0.0470979 42.1184 0.117903 42.0476C0.188709 41.9768 0.275248 41.9375 0.393257 41.9375H2.88718C2.98159 41.9375 3.06813 41.969 3.1468 42.0398C3.22547 42.1106 3.26481 42.1971 3.27268 42.3073V51.4805H7.91437C8.01664 51.4805 8.10318 51.512 8.17399 51.5828C8.24479 51.6536 8.28413 51.7401 8.28413 51.8581V54.0767C8.28413 54.1711 8.25266 54.2576 8.18972 54.3363C8.12678 54.415 8.03238 54.4543 7.91437 54.4622H0.385388C0.141502 54.4622 0.015625 54.3363 0.015625 54.0924V42.3073Z" fill="#3282C5"/>
<path d="M18.0414 53.1762C17.5457 53.6325 16.9871 53.9865 16.3735 54.2461C15.752 54.4979 15.099 54.6316 14.4067 54.6316C13.6357 54.6316 12.9119 54.49 12.2196 54.2068C11.5351 53.9236 10.9293 53.5381 10.418 53.0425C9.89873 52.5468 9.48963 51.9568 9.19068 51.2881C8.88385 50.6115 8.73438 49.8798 8.73438 49.0852C8.73438 48.5896 8.79732 48.1097 8.91532 47.6455C9.03333 47.1813 9.20641 46.7486 9.42669 46.3395C9.64698 45.9383 9.92234 45.5607 10.237 45.2224C10.5517 44.8841 10.9057 44.593 11.307 44.3491C11.7003 44.1052 12.1252 43.9164 12.5893 43.7827C13.0535 43.6489 13.5334 43.5781 14.0448 43.5781C14.509 43.5781 14.9653 43.6411 15.4058 43.7669C15.8464 43.8928 16.2555 44.0659 16.641 44.2862C17.0265 44.5143 17.3805 44.7818 17.7031 45.0965C18.0256 45.4112 18.301 45.7574 18.5291 46.1271C18.7573 46.4969 18.9382 46.8981 19.0641 47.3229C19.19 47.7478 19.2529 48.1805 19.2529 48.6368C19.2529 48.9279 19.2529 49.1639 19.2372 49.3527C19.2372 49.5336 19.1821 49.6831 19.1034 49.7933C19.0248 49.9034 18.891 49.9821 18.7101 50.0214C18.5291 50.0608 18.2616 50.0844 17.9076 50.0844H11.8341C11.8892 50.4462 12.0072 50.7452 12.1724 50.9891C12.3455 51.233 12.5421 51.4218 12.7703 51.5634C12.9984 51.705 13.2345 51.8073 13.4862 51.8702C13.738 51.9332 13.9818 51.9646 14.2021 51.9646C14.4067 51.9646 14.6112 51.941 14.8236 51.9017C15.0361 51.8624 15.2406 51.8073 15.4452 51.7365C15.6418 51.6657 15.8307 51.587 15.9959 51.4926C16.1611 51.3982 16.2948 51.3038 16.3971 51.2015C16.4836 51.1307 16.5623 51.0756 16.6252 51.0363C16.6882 50.997 16.759 50.9812 16.8298 50.9812C16.9006 50.9812 16.9793 51.0048 17.0501 51.0599C17.1288 51.1071 17.2153 51.1858 17.3097 51.2802L18.2066 52.2951C18.2695 52.3659 18.3088 52.4367 18.3246 52.4917C18.3403 52.5468 18.3482 52.6098 18.3482 52.6727C18.3482 52.7828 18.3167 52.8851 18.2538 52.9638C18.1908 53.0424 18.12 53.1211 18.0335 53.1762H18.0414ZM13.9818 46.1586C13.7616 46.1586 13.5491 46.2058 13.3446 46.2923C13.14 46.3789 12.9434 46.4969 12.7703 46.6464C12.5893 46.7958 12.432 46.9611 12.2825 47.142C12.1409 47.3308 12.0229 47.5196 11.9364 47.7084H16.2476C16.1296 47.4882 16.0037 47.2836 15.8621 47.1027C15.7205 46.9138 15.5632 46.7565 15.3901 46.6149C15.217 46.4733 15.0125 46.3631 14.7843 46.2845C14.5562 46.2058 14.2887 46.1665 13.9897 46.1665L13.9818 46.1586Z" fill="#3282C5"/>
<path d="M31.1805 53.8371C31.1805 53.9315 31.1648 54.0259 31.1333 54.1124C31.1018 54.1989 31.0468 54.2698 30.9681 54.317C30.9051 54.3799 30.8343 54.4192 30.7478 54.435C30.6613 54.4507 30.5904 54.4586 30.5275 54.4586H28.8675C28.7495 54.4586 28.6551 54.4428 28.5843 54.4114C28.5135 54.3799 28.4506 54.3406 28.4033 54.2776C28.3561 54.2225 28.3168 54.1517 28.2853 54.0731C28.2539 53.9944 28.2224 53.9 28.1909 53.8056L28.0808 53.428C27.9313 53.5774 27.7582 53.7269 27.5615 53.8764C27.3649 54.0259 27.1524 54.1517 26.9243 54.2698C26.6883 54.3878 26.4444 54.4822 26.1769 54.5451C25.9094 54.6159 25.6341 54.6474 25.343 54.6474C24.8316 54.6474 24.3438 54.5844 23.8718 54.4507C23.3998 54.3248 22.9671 54.136 22.558 53.9C22.1489 53.664 21.7791 53.3729 21.4487 53.0425C21.1182 52.7042 20.835 52.3344 20.5911 51.9253C20.3551 51.5162 20.1663 51.0756 20.0404 50.5957C19.9146 50.1237 19.8438 49.6281 19.8438 49.1088C19.8438 48.33 19.9854 47.5983 20.2765 46.9296C20.5597 46.2609 20.953 45.6708 21.4487 45.1752C21.9443 44.6795 22.5265 44.2862 23.1952 44.003C23.8639 43.7197 24.5799 43.5781 25.343 43.5781C25.6891 43.5781 26.0196 43.6175 26.3185 43.6961C26.6175 43.7748 26.8928 43.885 27.1446 44.0187C27.3963 44.1524 27.6166 44.3177 27.8212 44.5065C28.0257 44.6953 28.1988 44.8998 28.3561 45.1201L28.6 44.357C28.6551 44.2154 28.7023 44.1052 28.7416 44.0187C28.781 43.9322 28.8203 43.8692 28.8596 43.822C28.899 43.7827 28.9541 43.7512 29.017 43.7355C29.0799 43.7197 29.1665 43.7119 29.2766 43.7119H30.5354C30.5983 43.7119 30.6691 43.7197 30.7557 43.7355C30.8422 43.7512 30.913 43.7905 30.9759 43.8535C31.0546 43.9164 31.1097 43.9872 31.1412 44.0659C31.1726 44.1446 31.1884 44.2311 31.1884 44.3334V53.8292L31.1805 53.8371ZM22.8727 49.1167C22.8727 49.4865 22.9277 49.8326 23.0457 50.1552C23.1637 50.4777 23.329 50.761 23.5414 50.997C23.7538 51.233 24.0134 51.4218 24.3124 51.5555C24.6113 51.6971 24.9496 51.7601 25.3115 51.7601C25.6734 51.7601 26.0353 51.6893 26.3579 51.5555C26.6804 51.4218 26.9636 51.233 27.1997 50.997C27.4357 50.761 27.6245 50.4856 27.7582 50.1552C27.892 49.8326 27.9628 49.4865 27.9628 49.1167C27.9628 48.7469 27.892 48.4165 27.7582 48.0861C27.6245 47.7635 27.4357 47.4724 27.1997 47.2285C26.9636 46.9847 26.6804 46.788 26.3579 46.6464C26.0353 46.5048 25.6813 46.4339 25.3115 46.4339C24.9417 46.4339 24.6113 46.5048 24.3124 46.6464C24.0134 46.788 23.7538 46.9847 23.5414 47.2285C23.329 47.4724 23.1637 47.7635 23.0457 48.0861C22.9277 48.4086 22.8727 48.7548 22.8727 49.1167Z" fill="#3282C5"/>
<path d="M32.3672 44.3805C32.3672 44.2782 32.3908 44.1838 32.4301 44.1051C32.4695 44.0265 32.5245 43.9635 32.5875 43.9084C32.6504 43.8612 32.7212 43.8219 32.8078 43.7983C32.8864 43.7747 32.973 43.759 33.0516 43.759H34.3261C34.4677 43.759 34.5779 43.7983 34.6644 43.8848C34.751 43.9714 34.8218 44.0737 34.8768 44.2074C34.9319 44.3333 34.987 44.4828 35.0342 44.6401C35.0814 44.7974 35.1365 44.9469 35.1915 45.0964C35.3567 44.9076 35.5298 44.7266 35.695 44.5457C35.8603 44.3647 36.0412 44.2074 36.23 44.0658C36.4188 43.9242 36.6312 43.814 36.8594 43.7275C37.0875 43.641 37.3472 43.5938 37.6383 43.5938C37.9293 43.5938 38.2126 43.6173 38.4486 43.6646C38.6846 43.7118 38.9128 43.7747 39.1252 43.8612C39.3376 43.9478 39.55 44.0579 39.7624 44.1917C39.9748 44.3254 40.203 44.4828 40.4469 44.6637C40.6908 44.8053 40.8088 44.9705 40.8088 45.1593C40.8088 45.2852 40.7616 45.4268 40.6672 45.592L39.8962 46.898C39.7467 47.1183 39.5579 47.2284 39.3297 47.2284C39.2196 47.2284 39.0937 47.197 38.9521 47.134C38.7082 46.898 38.4643 46.7249 38.2126 46.6069C37.9608 46.4889 37.6776 46.4338 37.355 46.4338C37.1348 46.4338 36.9459 46.4653 36.7807 46.5282C36.6155 46.5912 36.466 46.6777 36.3323 46.7879C36.1985 46.898 36.0727 47.0318 35.9547 47.1891C35.8367 47.3464 35.7186 47.5195 35.6006 47.7083V53.8133C35.6006 54.0258 35.5456 54.191 35.4433 54.3011C35.341 54.4112 35.1679 54.4663 34.9241 54.4663H33.028C32.5875 54.4663 32.3672 54.2539 32.3672 53.8212V44.3883V44.3805Z" fill="#3282C5"/>
<path d="M41.4389 43.9006C41.5097 43.8376 41.5884 43.7983 41.6749 43.7826C41.7536 43.7668 41.8323 43.759 41.9031 43.759H43.1776C43.2799 43.759 43.3664 43.7747 43.4372 43.814C43.508 43.8534 43.571 43.9006 43.626 43.9635C43.6732 44.0265 43.7204 44.0973 43.7519 44.1759C43.7834 44.2546 43.8148 44.3333 43.8384 44.4198L44.0115 45.1593C44.0981 44.9863 44.2318 44.8053 44.4206 44.6244C44.6094 44.4356 44.8455 44.2703 45.1208 44.1209C45.3962 43.9714 45.7187 43.8455 46.0885 43.7432C46.4504 43.6488 46.8595 43.5938 47.3079 43.5938C47.9452 43.5938 48.5195 43.7196 49.023 43.9635C49.5265 44.2074 49.9513 44.5457 50.3053 44.9705C50.6594 45.3954 50.9269 45.891 51.1078 46.4653C51.2888 47.0318 51.3832 47.6454 51.3832 48.2905V53.8133C51.3832 54.0258 51.336 54.191 51.2415 54.3011C51.1471 54.4112 50.9977 54.4663 50.801 54.4663H48.8499C48.606 54.4663 48.4408 54.427 48.3543 54.3404C48.2677 54.2618 48.2205 54.0966 48.2205 53.8684V48.3849C48.2205 48.141 48.1654 47.9129 48.0553 47.7005C47.9452 47.4881 47.8035 47.2914 47.6226 47.1262C47.4416 46.9609 47.2371 46.8272 47.0089 46.7328C46.7808 46.6384 46.5527 46.5912 46.3166 46.5912C46.1121 46.5912 45.9075 46.6384 45.6951 46.7249C45.4827 46.8115 45.286 46.9373 45.1129 47.1026C44.9399 47.2599 44.7904 47.4487 44.6645 47.669C44.5465 47.8814 44.4757 48.1174 44.46 48.3692V53.8448C44.46 53.9392 44.4442 54.0336 44.4049 54.128C44.3655 54.2224 44.3105 54.2933 44.2397 54.3483C44.1689 54.3955 44.0981 54.427 44.0351 54.4427C43.9722 54.4585 43.8935 54.4663 43.8148 54.4663H41.911C41.6671 54.4663 41.494 54.4034 41.3917 54.2932C41.2816 54.1752 41.2344 54.0179 41.2344 53.8212V44.3962C41.2344 44.2939 41.258 44.1917 41.3052 44.1051C41.3524 44.0186 41.4153 43.9478 41.5019 43.8927L41.4547 43.9163L41.4389 43.9006Z" fill="#3282C5"/>
<path d="M63.9236 28.2601L54.1131 42.0436C54.1131 42.0436 53.8063 42.4605 54.3806 42.5549H62.9087C62.9087 42.5549 64.6631 42.4055 65.7645 40.3442L74.3713 28.1736C74.3713 28.1736 74.4657 28.0398 74.4421 27.9297H64.1596C64.1596 27.9297 63.9787 28.1814 63.9236 28.2522V28.2601Z" fill="url(#paint0_linear_899_74652)"/>
<path d="M57.5408 28.2601L47.7303 42.0436C47.7303 42.0436 47.4235 42.4605 47.9978 42.5549H50.3422C50.3422 42.5549 52.0966 42.4055 53.1981 40.3442L61.8049 28.1736C61.8049 28.1736 61.8993 28.0398 61.8757 27.9297H57.7768C57.7768 27.9297 57.5959 28.1814 57.5408 28.2522V28.2601Z" fill="url(#paint1_linear_899_74652)"/>
<path d="M63.9236 27.6073L54.1131 13.8239C54.1131 13.8239 53.8063 13.4069 54.3806 13.3125H62.9087C62.9087 13.3125 64.6631 13.462 65.7645 15.5232L74.3713 27.6939C74.3713 27.6939 74.4657 27.8276 74.4421 27.9378H64.1596C64.1596 27.9378 63.9787 27.686 63.9236 27.6152V27.6073Z" fill="url(#paint2_linear_899_74652)"/>
<path d="M51.971 34.7464L54.0952 32.0322L52.624 27.9334C52.624 27.9334 52.4981 27.4613 52.1362 27.4062H49.8075C49.8075 27.4062 49.1781 27.4456 49.2568 28.1222L51.971 34.7464Z" fill="#00364E"/>
<path d="M60.3491 35.7969L60.3098 37.8188L58.4609 36.7724L60.3491 35.7969Z" fill="#2B78B2"/>
<path d="M59.7477 41.0845L58.1113 42.2803L57.8281 40.1719L59.7477 41.0845Z" fill="#174F85"/>
<path d="M56.4212 38.6096L55.3906 38.1927L56.2954 37.4531L56.4212 38.6096Z" fill="#6DC6E1"/>
<path d="M64.3665 43.2894L63.3438 42.8645L64.2406 42.125L64.3665 43.2894Z" fill="#6DC6E1"/>
<path d="M66.1618 37.7485L64.5254 38.9444L64.2422 36.8359L66.1618 37.7485Z" fill="#6DC6E1"/>
<path d="M63.0592 35L63.0435 36.0621L62.4062 35.8339L63.0592 35Z" fill="#6DC6E1"/>
<path d="M59.4832 32.0625L59.9001 33.0931L58.9167 33.927L58.5312 32.983L59.4832 32.0625Z" fill="#6DC6E1"/>
<path d="M55.1799 41.2734L55.8014 42.9098L55.1484 42.902L55.1799 41.2734Z" fill="#6DC6E1"/>
<path d="M56.152 32.6096L54.5156 33.2311L54.5235 32.5781L56.152 32.6096Z" fill="#6DC6E1"/>
<path d="M60.5 39.5312L62.2308 39.7515L61.9161 40.318L60.5 39.5312Z" fill="#6DC6E1"/>
<path d="M57.3056 35.0529L57.1719 34.1875L57.4866 34.2662L57.3056 35.0529Z" fill="#174F85"/>
<path d="M68.1163 31.6797L67.6364 33.3633L67.125 32.9621L68.1163 31.6797Z" fill="#174F85"/>
<path d="M62.2188 29.7656L63.328 30.041L63.0842 30.3871L62.2188 29.7656Z" fill="#2B78B2"/>
<path d="M53.6965 36.6813L52.1073 37.6647L51.2812 36.5948L51.9578 35.3281L53.6965 36.6813Z" fill="#6DC6E1"/>
<path d="M53.0773 42.0549L53.0537 43.2113L52.0781 42.8416L52.0939 42.0312L53.0773 42.0549Z" fill="#6DC6E1"/>
<path d="M48.508 38.2656L48.4766 39.8863L49.8533 39.4221L49.8691 38.2892L48.508 38.2656Z" fill="#2B78B2"/>
<path d="M65.8273 30.4611L65.8037 31.6176L64.8281 31.2557L64.8439 30.4375L65.8273 30.4611Z" fill="#2B78B2"/>
<path d="M69.3489 41.5938L70.1042 42.4749L69.1286 42.8446L68.6094 42.2231L69.3489 41.5938Z" fill="#2B78B2"/>
<path d="M66.1751 34.7578L66.6392 35.3085L66.0413 35.5288L65.7188 35.1512L66.1751 34.7578Z" fill="#2B78B2"/>
<path d="M54.1985 45.75L54.6627 46.2928L54.0648 46.521L53.7344 46.1434L54.1985 45.75Z" fill="#2B78B2"/>
<path d="M72.8413 27.1719L72.802 29.1938L70.9453 28.1474L72.8413 27.1719Z" fill="#2B78B2"/>
<path d="M72.24 32.4595L70.6036 33.6553L70.3125 31.5469L72.24 32.4595Z" fill="#174F85"/>
<path d="M68.8977 29.9846L67.875 29.5677L68.7719 28.8281L68.8977 29.9846Z" fill="#6DC6E1"/>
<path d="M76.8587 34.6644L75.8281 34.2395L76.7329 33.5L76.8587 34.6644Z" fill="#6DC6E1"/>
<path d="M78.6541 29.1235L77.0177 30.3194L76.7266 28.2109L78.6541 29.1235Z" fill="#6DC6E1"/>
<path d="M75.5436 26.375L75.5279 27.4371L74.8906 27.2089L75.5436 26.375Z" fill="#6DC6E1"/>
<path d="M71.9676 23.4375L72.3924 24.4681L71.4011 25.302L71.0156 24.358L71.9676 23.4375Z" fill="#6DC6E1"/>
<path d="M67.6642 32.6484L68.2857 34.2848L67.6406 34.277L67.6642 32.6484Z" fill="#6DC6E1"/>
<path d="M68.6364 23.9846L67 24.6061L67.0157 23.9531L68.6364 23.9846Z" fill="#6DC6E1"/>
<path d="M72.9844 30.9062L74.723 31.1265L74.4005 31.693L72.9844 30.9062Z" fill="#6DC6E1"/>
<path d="M69.79 26.4279L69.6562 25.5625L69.9788 25.6412L69.79 26.4279Z" fill="#174F85"/>
<path d="M80.6006 23.0547L80.1286 24.7383L79.6094 24.337L80.6006 23.0547Z" fill="#174F85"/>
<path d="M74.7031 21.1406L75.8124 21.416L75.5685 21.7621L74.7031 21.1406Z" fill="#2B78B2"/>
<path d="M66.1809 28.0563L64.5917 29.0397L63.7656 27.9698L64.4422 26.7031L66.1809 28.0563Z" fill="#6DC6E1"/>
<path d="M65.5616 33.4299L65.538 34.5863L64.5703 34.2166L64.5782 33.4062L65.5616 33.4299Z" fill="#6DC6E1"/>
<path d="M60.9924 29.6406L60.9609 31.2613L62.3377 30.7971L62.3613 29.6642L60.9924 29.6406Z" fill="#2B78B2"/>
<path d="M78.3038 21.8361L78.2802 22.9926L77.3125 22.6307L77.3282 21.8125L78.3038 21.8361Z" fill="#2B78B2"/>
<path d="M78.6594 26.1328L79.1236 26.6835L78.5257 26.9038L78.2031 26.5262L78.6594 26.1328Z" fill="#2B78B2"/>
<path d="M66.6751 37.125L67.1392 37.6678L66.5413 37.896L66.2188 37.5184L66.6751 37.125Z" fill="#2B78B2"/>
<path d="M51.6328 18.3027L52.6084 17.4609L52.8994 18.7748L51.6328 18.3027Z" fill="#2B78B2"/>
<path d="M54.3906 16.3359L55.6494 16.6034L54.7761 17.634L54.3906 16.3359Z" fill="#174F85"/>
<path d="M54.6363 18.9609L54.8723 19.6218L54.1406 19.5117L54.6363 18.9609Z" fill="#6DC6E1"/>
<path d="M53.4643 13.2188L53.7082 13.8875L52.9766 13.7773L53.4643 13.2188Z" fill="#6DC6E1"/>
<path d="M50.0938 14.7188L51.3525 14.9862L50.4792 16.0169L50.0938 14.7188Z" fill="#6DC6E1"/>
<path d="M50.1094 17.3546L50.6208 16.9141L50.786 17.3153L50.1094 17.3546Z" fill="#6DC6E1"/>
<path d="M50.2344 20.2935L50.5412 19.6562L51.3515 19.7664L51.0762 20.3486L50.2344 20.2935Z" fill="#6DC6E1"/>
<path d="M56.4219 18.4053L56.9254 17.4219L57.2007 17.7366L56.4219 18.4053Z" fill="#6DC6E1"/>
<path d="M51.9141 21.625L52.8975 22.1285L52.5906 22.4039L51.9141 21.625Z" fill="#6DC6E1"/>
<path d="M53.3325 16.6398L52.7031 15.7272L53.1044 15.6328L53.3325 16.6398Z" fill="#6DC6E1"/>
<path d="M52.5734 20.0469L52.2273 20.4796L52.125 20.2986L52.5734 20.0469Z" fill="#174F85"/>
<path d="M46.3906 16.3784L47.3898 15.8906L47.4212 16.3076L46.3906 16.3784Z" fill="#174F85"/>
<path d="M47.9946 19.9812L47.6484 19.344L47.9159 19.3125L47.9946 19.9812Z" fill="#2B78B2"/>
<path d="M54.875 21.0625L56.0158 21.3929L55.8663 22.2347L54.9773 22.455L54.875 21.0625Z" fill="#6DC6E1"/>
<path d="M57.6797 19.0737L58.2383 18.5859L58.4743 19.2074L58.0809 19.5457L57.6797 19.0737Z" fill="#6DC6E1"/>
<path d="M57.8321 22.836L58.6109 22.1672L57.8085 21.7109L57.2656 22.183L57.8321 22.836Z" fill="#2B78B2"/>
<path d="M46.7812 17.9878L47.3398 17.5L47.5837 18.1215L47.1903 18.4519L46.7812 17.9878Z" fill="#2B78B2"/>
<path d="M50.5469 11.591L50.6491 10.8594L51.2313 11.1583L51.1684 11.6697L50.5469 11.591Z" fill="#2B78B2"/>
<path d="M48.6641 15.9876L48.727 15.5312L49.0889 15.7201L49.0496 16.0348L48.6641 15.9876Z" fill="#2B78B2"/>
<path d="M58.9453 16.9719L59.0083 16.5156L59.3702 16.7044L59.3308 17.0191L58.9453 16.9719Z" fill="#2B78B2"/>
<path d="M62.1331 12.8281L62.0938 14.8579L63.9898 13.8745L62.1331 12.8281Z" fill="#2B78B2"/>
<path d="M62.5391 18.1309L64.1282 19.3896L64.498 17.2891L62.5391 18.1309Z" fill="#174F85"/>
<path d="M65.9688 15.7893L67.0072 15.4038L66.134 14.6328L65.9688 15.7893Z" fill="#6DC6E1"/>
<path d="M57.8516 20.1642L58.8979 19.7866L58.0246 19.0156L57.8516 20.1642Z" fill="#6DC6E1"/>
<path d="M56.2578 14.5762L57.8549 15.8271L58.2168 13.7344L56.2578 14.5762Z" fill="#6DC6E1"/>
<path d="M59.4689 11.9375L59.4531 12.9996L60.0982 12.7872L59.4689 11.9375Z" fill="#6DC6E1"/>
<path d="M63.1438 9.13281L62.6875 10.1477L63.6394 11.0131L64.0643 10.0847L63.1438 9.13281Z" fill="#6DC6E1"/>
<path d="M67.1063 18.5L66.4219 20.1128L67.0749 20.1207L67.1063 18.5Z" fill="#6DC6E1"/>
<path d="M66.4531 9.80469L68.0659 10.4891L68.0816 9.83616L66.4531 9.80469Z" fill="#6DC6E1"/>
<path d="M61.848 16.5547L60.1094 16.712L60.4005 17.2942L61.848 16.5547Z" fill="#6DC6E1"/>
<path d="M65.2198 12.2013L65.3851 11.3438L65.0625 11.4067L65.2198 12.2013Z" fill="#174F85"/>
<path d="M54.5469 8.42188L54.956 10.1212L55.491 9.74358L54.5469 8.42188Z" fill="#174F85"/>
<path d="M60.5078 6.74219L59.3906 6.97035L59.6266 7.32437L60.5078 6.74219Z" fill="#2B78B2"/>
<path d="M68.7578 13.9621L70.3077 15.0006L71.1731 13.97L70.5437 12.6719L68.7578 13.9621Z" fill="#6DC6E1"/>
<path d="M69.1799 19.3516L69.1562 20.5159L70.1397 20.1855L70.1554 19.3673L69.1799 19.3516Z" fill="#6DC6E1"/>
<path d="M73.8846 15.7424L73.8532 17.3631L72.5 16.8438L72.5157 15.7109L73.8846 15.7424Z" fill="#2B78B2"/>
<path d="M56.8752 7.29688L56.8516 8.46124L57.835 8.12294L57.8507 7.31261L56.8752 7.29688Z" fill="#2B78B2"/>
<path d="M52.9274 18.2969L52.1406 19.1544L53.1004 19.5556L53.6511 18.9577L52.9274 18.2969Z" fill="#2B78B2"/>
<path d="M56.3628 11.5781L55.875 12.1052L56.465 12.357L56.8112 11.9872L56.3628 11.5781Z" fill="#2B78B2"/>
<path d="M67.9253 23.0156L67.4375 23.5427L68.0275 23.7945L68.3658 23.4247L67.9253 23.0156Z" fill="#2B78B2"/>
<path d="M62.8359 8.7168L63.8115 7.875L64.1026 9.19671L62.8359 8.7168Z" fill="#2B78B2"/>
<path d="M65.5938 6.75781L66.8525 7.01743L65.9793 8.04804L65.5938 6.75781Z" fill="#174F85"/>
<path d="M65.8394 9.375L66.0754 10.0437L65.3438 9.92571L65.8394 9.375Z" fill="#6DC6E1"/>
<path d="M64.6753 3.64062L64.9114 4.30149L64.1797 4.19134L64.6753 3.64062Z" fill="#6DC6E1"/>
<path d="M61.2969 5.14062L62.5556 5.40811L61.6824 6.43086L61.2969 5.14062Z" fill="#6DC6E1"/>
<path d="M61.3125 7.78432L61.8239 7.34375L61.9812 7.74498L61.3125 7.78432Z" fill="#6DC6E1"/>
<path d="M61.4375 10.7075L61.7522 10.0781L62.5625 10.1883L62.2793 10.7704L61.4375 10.7075Z" fill="#6DC6E1"/>
<path d="M67.625 8.82722L68.1285 7.83594L68.4039 8.15064L67.625 8.82722Z" fill="#6DC6E1"/>
<path d="M63.1172 12.0469L64.1085 12.5504L63.7938 12.8257L63.1172 12.0469Z" fill="#6DC6E1"/>
<path d="M64.5356 7.05383L63.9062 6.14123L64.3075 6.05469L64.5356 7.05383Z" fill="#6DC6E1"/>
<path d="M63.7766 10.4688L63.4304 10.8936L63.3281 10.7126L63.7766 10.4688Z" fill="#174F85"/>
<path d="M57.5938 6.80027L58.5929 6.3125L58.6244 6.7216L57.5938 6.80027Z" fill="#174F85"/>
<path d="M59.1977 10.4031L58.8516 9.76584L59.1269 9.73438L59.1977 10.4031Z" fill="#2B78B2"/>
<path d="M66.0781 11.4766L67.211 11.807L67.0615 12.6567L66.1725 12.8769L66.0781 11.4766Z" fill="#6DC6E1"/>
<path d="M68.8828 9.48772L69.4414 9.00781L69.6774 9.62146L69.2919 9.95975L68.8828 9.48772Z" fill="#6DC6E1"/>
<path d="M69.0352 13.2578L69.814 12.5812L69.0116 12.1328L68.4688 12.6048L69.0352 13.2578Z" fill="#2B78B2"/>
<path d="M58 8.40178L58.5586 7.92188L58.7946 8.53552L58.4012 8.87382L58 8.40178Z" fill="#2B78B2"/>
<path d="M61.7578 2.0051L61.8522 1.27344L62.4423 1.58026L62.3715 2.09163L61.7578 2.0051Z" fill="#2B78B2"/>
<path d="M59.875 6.40157L59.9301 5.95312L60.2998 6.14194L60.2526 6.45663L59.875 6.40157Z" fill="#2B78B2"/>
<path d="M70.1562 7.38594L70.2113 6.9375L70.5732 7.12632L70.5339 7.441L70.1562 7.38594Z" fill="#2B78B2"/>
<path d="M57.3344 5.22308L56.6736 4.60156L56.4297 5.52991L57.3344 5.22308Z" fill="#2B78B2"/>
<path d="M55.4515 3.76562L54.5625 3.91511L55.1447 4.67037L55.4515 3.76562Z" fill="#174F85"/>
<path d="M55.2044 5.60938L55.0234 6.07355L55.5427 6.01061L55.2044 5.60938Z" fill="#6DC6E1"/>
<path d="M56.181 1.59375L55.9922 2.05792L56.5114 1.99498L56.181 1.59375Z" fill="#6DC6E1"/>
<path d="M58.5219 2.75L57.625 2.89948L58.215 3.65474L58.5219 2.75Z" fill="#6DC6E1"/>
<path d="M58.4408 4.6038L58.0946 4.28125L57.9688 4.5566L58.4408 4.6038Z" fill="#6DC6E1"/>
<path d="M58.2632 6.65943L58.0665 6.20312L57.4922 6.26606L57.6731 6.68303L58.2632 6.65943Z" fill="#6DC6E1"/>
<path d="M53.9569 5.17681L53.6264 4.46875L53.4219 4.68117L53.9569 5.17681Z" fill="#6DC6E1"/>
<path d="M57.0518 7.5625L56.3438 7.89292L56.5562 8.08961L57.0518 7.5625Z" fill="#6DC6E1"/>
<path d="M56.1875 4.01274L56.6517 3.38337L56.3684 3.30469L56.1875 4.01274Z" fill="#6DC6E1"/>
<path d="M56.625 6.4375L56.861 6.74432L56.9318 6.62632L56.625 6.4375Z" fill="#174F85"/>
<path d="M61.0831 4.01039L60.3987 3.64062L60.3672 3.93172L61.0831 4.01039Z" fill="#174F85"/>
<path d="M59.8516 6.50328L60.1191 6.06271L59.9302 6.03125L59.8516 6.50328Z" fill="#2B78B2"/>
<path d="M54.9822 7.08594L54.1719 7.28262L54.2584 7.8884L54.8799 8.06148L54.9822 7.08594Z" fill="#6DC6E1"/>
<path d="M53.0508 5.61184L52.6732 5.25781L52.4844 5.68265L52.7519 5.9344L53.0508 5.61184Z" fill="#6DC6E1"/>
<path d="M52.8475 8.26335L52.3125 7.76771L52.8947 7.46875L53.2644 7.81491L52.8475 8.26335Z" fill="#2B78B2"/>
<path d="M60.7539 5.12746L60.3763 4.77344L60.1953 5.19828L60.4549 5.45002L60.7539 5.12746Z" fill="#2B78B2"/>
<path d="M58.2767 0.519231L58.2217 0L57.8047 0.204545L57.8362 0.566445L58.2767 0.519231Z" fill="#2B78B2"/>
<path d="M59.4865 3.67412L59.455 3.35156L59.1875 3.47744L59.2111 3.69772L59.4865 3.67412Z" fill="#2B78B2"/>
<path d="M52.213 4.1038L52.1815 3.78125L51.9219 3.89925L51.9455 4.1274L52.213 4.1038Z" fill="#2B78B2"/>
<path d="M88.0166 36.872C87.5808 36.872 87.193 36.7758 86.8534 36.5836C86.5137 36.3913 86.2445 36.1029 86.0459 35.7184C85.8536 35.3275 85.7575 34.834 85.7575 34.238C85.7575 33.6356 85.8568 33.1421 86.0555 32.7576C86.2606 32.3731 86.5329 32.0879 86.8726 31.902C87.2187 31.7097 87.6 31.6136 88.0166 31.6136C88.5229 31.6136 88.9683 31.7226 89.3528 31.9405C89.7437 32.1584 90.0513 32.4628 90.2756 32.8537C90.5064 33.2446 90.6217 33.7061 90.6217 34.238C90.6217 34.7699 90.5064 35.2313 90.2756 35.6223C90.0513 36.0132 89.7437 36.3208 89.3528 36.5451C88.9683 36.763 88.5229 36.872 88.0166 36.872ZM85.1711 36.8047V29.6718H86.3727V32.8633L86.2766 34.2284L86.315 35.5934V36.8047H85.1711ZM87.882 35.8434C88.1704 35.8434 88.4267 35.7793 88.651 35.6511C88.8817 35.5229 89.0644 35.3371 89.199 35.0936C89.3336 34.85 89.4008 34.5648 89.4008 34.238C89.4008 33.9047 89.3336 33.6195 89.199 33.3824C89.0644 33.1389 88.8817 32.953 88.651 32.8249C88.4267 32.6967 88.1704 32.6326 87.882 32.6326C87.5936 32.6326 87.334 32.6967 87.1033 32.8249C86.8726 32.953 86.69 33.1389 86.5554 33.3824C86.4208 33.6195 86.3535 33.9047 86.3535 34.238C86.3535 34.5648 86.4208 34.85 86.5554 35.0936C86.69 35.3371 86.8726 35.5229 87.1033 35.6511C87.334 35.7793 87.5936 35.8434 87.882 35.8434ZM92.0435 38.7369C91.7935 38.7369 91.5436 38.6953 91.2937 38.6119C91.0437 38.5286 90.8354 38.4133 90.6688 38.2659L91.1495 37.3815C91.2712 37.4904 91.409 37.5769 91.5628 37.641C91.7166 37.7051 91.8736 37.7372 92.0339 37.7372C92.2518 37.7372 92.428 37.6827 92.5626 37.5737C92.6972 37.4648 92.8221 37.2821 92.9375 37.0258L93.2355 36.3529L93.3316 36.2087L95.2735 31.6713H96.427L94.0238 37.2181C93.8636 37.6026 93.6841 37.907 93.4854 38.1313C93.2932 38.3556 93.0753 38.5126 92.8317 38.6023C92.5946 38.6921 92.3319 38.7369 92.0435 38.7369ZM93.1009 36.9873L90.7842 31.6713H92.0339L93.918 36.1029L93.1009 36.9873Z" fill="#211E1F"/>
<path d="M88.4158 18.0469H88.1719V27.9832H88.4158V18.0469Z" fill="#211E1F"/>
<path d="M88.4158 41.5312H88.1719V51.4676H88.4158V41.5312Z" fill="#211E1F"/>
<defs>
<linearGradient id="paint0_linear_899_74652" x1="54.7504" y1="43.1529" x2="71.0907" y2="29.0783" gradientUnits="userSpaceOnUse">
<stop offset="0.22" stop-color="#4DB8E4"/>
<stop offset="0.58" stop-color="#0D7CA7"/>
<stop offset="0.99" stop-color="#0E2025"/>
</linearGradient>
<linearGradient id="paint1_linear_899_74652" x1="47.0459" y1="41.6266" x2="60.3101" y2="30.2033" gradientUnits="userSpaceOnUse">
<stop offset="0.22" stop-color="#4DB8E4"/>
<stop offset="0.58" stop-color="#0D7CA7"/>
<stop offset="0.99" stop-color="#0E2025"/>
</linearGradient>
<linearGradient id="paint2_linear_899_74652" x1="74.7096" y1="28.3941" x2="54.5144" y2="13.9576" gradientUnits="userSpaceOnUse">
<stop offset="0.22" stop-color="#4DB8E4"/>
<stop offset="0.58" stop-color="#0D7CA7"/>
<stop offset="0.99" stop-color="#0E2025"/>
</linearGradient>
</defs>
</svg>
