<svg width="230" height="64" viewBox="0 0 230 64" fill="none" xmlns="http://www.w3.org/2000/svg">
<path d="M1.69531 26.2519C1.69531 26.1581 1.72494 26.0766 1.78173 26.0075C1.83852 25.9408 1.92494 25.9062 2.04099 25.9062H4.34716C4.42618 25.9062 4.51013 25.9383 4.59902 26.0001C4.68791 26.0618 4.73235 26.1458 4.73235 26.2519V37.2174C4.73235 37.447 4.60395 37.563 4.34716 37.563H2.04099C1.81136 37.563 1.69531 37.447 1.69531 37.2174V26.2519Z" fill="white"/>
<path d="M6.35872 27.7371C6.42539 27.6803 6.49946 27.6432 6.57353 27.6284C6.65008 27.6136 6.72168 27.6062 6.78835 27.6062H7.97353C8.06736 27.6062 8.14884 27.6235 8.21798 27.6581C8.28711 27.6926 8.3439 27.7371 8.39082 27.7963C8.43773 27.8531 8.47477 27.9198 8.5044 27.9914C8.53156 28.0655 8.56119 28.1395 8.58588 28.2186L8.75131 28.9074C8.83032 28.7445 8.95625 28.5791 9.13156 28.4062C9.30687 28.2334 9.52415 28.0778 9.78341 27.9371C10.0427 27.7963 10.3414 27.6803 10.6822 27.5889C11.0229 27.4976 11.4007 27.4531 11.8204 27.4531C12.418 27.4531 12.9488 27.5692 13.418 27.7988C13.8871 28.0284 14.2846 28.342 14.6106 28.7371C14.9365 29.1346 15.1859 29.5963 15.3562 30.1272C15.5266 30.6581 15.6106 31.2235 15.6106 31.826V36.9667C15.6106 37.1667 15.5686 37.3149 15.4822 37.4186C15.3958 37.5198 15.2575 37.5716 15.0698 37.5716H13.2575C13.0328 37.5716 12.8772 37.5346 12.7933 37.4581C12.7093 37.3815 12.6674 37.2334 12.6674 37.0136V31.905C12.6674 31.6803 12.6155 31.4655 12.5143 31.2655C12.413 31.063 12.2772 30.8877 12.1093 30.7321C11.9414 30.5791 11.7513 30.4556 11.5414 30.3667C11.3291 30.2778 11.1143 30.2334 10.8945 30.2334C10.7069 30.2334 10.5143 30.2753 10.3167 30.3593C10.1217 30.4433 9.93897 30.5593 9.776 30.7099C9.61057 30.8581 9.4723 31.0334 9.36119 31.2358C9.25008 31.4383 9.18588 31.6556 9.16859 31.8926V36.9939C9.16859 37.0828 9.15131 37.1716 9.11674 37.2605C9.08218 37.3494 9.03279 37.4161 8.96366 37.4655C8.89699 37.5074 8.83032 37.5371 8.77106 37.5519C8.7118 37.5667 8.6402 37.5741 8.56366 37.5741H6.79082C6.56613 37.5741 6.40316 37.5198 6.3044 37.4087C6.20563 37.3 6.15625 37.1519 6.15625 36.9692V28.1914C6.15625 28.0926 6.17847 28.0013 6.22292 27.9173C6.26736 27.8334 6.32909 27.7692 6.4081 27.7223L6.36119 27.7445L6.35872 27.7371Z" fill="white"/>
<path d="M17.6648 27.7355C17.6648 27.2491 17.7685 26.7923 17.9784 26.3627C18.1883 25.9331 18.4673 25.5578 18.8179 25.2368C19.1685 24.9158 19.571 24.6615 20.0278 24.4763C20.4821 24.2911 20.9586 24.1973 21.4549 24.1973H21.613C21.7907 24.1973 21.929 24.2516 22.0253 24.3578C22.1216 24.4639 22.171 24.6121 22.171 24.8022V26.301C22.171 26.496 22.1191 26.6565 22.0179 26.7849C21.9167 26.9133 21.7809 26.9775 21.613 26.9775H21.4549C21.3463 26.9775 21.2401 26.9973 21.1414 27.0368C21.0426 27.0763 20.9537 27.1306 20.8747 27.1973C20.7957 27.2664 20.734 27.3454 20.687 27.4368C20.6401 27.5281 20.6179 27.6294 20.6179 27.738V28.6417H21.85C22.0278 28.6417 22.1661 28.6911 22.2623 28.7874C22.3586 28.8837 22.408 29.0368 22.408 29.2467V30.6837C22.408 30.9084 22.3586 31.0738 22.2623 31.1775C22.1661 31.2812 22.0278 31.3355 21.85 31.3355H20.6179V36.9627C20.6179 37.1627 20.5512 37.3108 20.4179 37.4146C20.2846 37.5158 20.1389 37.5676 19.9833 37.5676H18.287C18.0994 37.5676 17.9488 37.5084 17.8352 37.3899C17.7216 37.2713 17.6673 37.1306 17.6673 36.9627V31.3331H16.8599C16.6772 31.3331 16.529 31.2812 16.4179 31.1775C16.3043 31.0738 16.25 30.9084 16.25 30.6837V29.2467C16.25 29.0368 16.3068 28.8837 16.4179 28.7874C16.529 28.6911 16.6772 28.6417 16.8599 28.6417H17.6673V27.738L17.6648 27.7355Z" fill="white"/>
<path d="M22.9297 24.2358C22.9297 24.016 22.9766 23.8605 23.0704 23.7691C23.1643 23.6778 23.3124 23.6309 23.5099 23.6309H25.3297C25.5124 23.6309 25.6606 23.6778 25.7741 23.7691C25.8877 23.8605 25.942 24.016 25.942 24.2358V25.7667C25.942 25.8284 25.9272 25.8975 25.9001 25.9716C25.8704 26.0457 25.8309 26.1148 25.7791 26.1839C25.7272 26.2506 25.663 26.3074 25.5865 26.3518C25.5099 26.3963 25.426 26.4185 25.3322 26.4185H23.5124C23.1247 26.4185 22.9322 26.2012 22.9322 25.7667V24.2358H22.9297ZM22.9297 28.2086C22.9297 28.0407 22.9766 27.8975 23.0704 27.7765C23.1643 27.6555 23.3124 27.5963 23.5099 27.5963H25.3075C25.3692 27.5963 25.4383 27.6111 25.5124 27.6383C25.5865 27.6679 25.6531 27.7099 25.7173 27.7642C25.7791 27.8185 25.8334 27.8827 25.8778 27.9568C25.9223 28.0309 25.9445 28.1123 25.9445 28.2086V36.9593C25.9445 37.1593 25.8902 37.3099 25.7791 37.4111C25.668 37.5123 25.5124 37.5642 25.3075 37.5642H23.5099C23.1223 37.5642 22.9297 37.3642 22.9297 36.9593V28.2086Z" fill="white"/>
<path d="M27.0355 27.7371C27.1047 27.6803 27.1763 27.6432 27.2503 27.6284C27.3269 27.6136 27.3985 27.6062 27.4676 27.6062H28.6528C28.7466 27.6062 28.8281 27.6235 28.8948 27.6581C28.9639 27.6926 29.0207 27.7371 29.0676 27.7963C29.1145 27.8531 29.1516 27.9198 29.1812 27.9914C29.2108 28.0655 29.238 28.1395 29.2627 28.2186L29.4281 28.9074C29.5071 28.7445 29.6331 28.5791 29.8084 28.4062C29.9837 28.2334 30.201 28.0778 30.4602 27.9371C30.7195 27.7963 31.0182 27.6803 31.359 27.5889C31.6997 27.4976 32.0775 27.4531 32.4973 27.4531C33.0948 27.4531 33.6257 27.5692 34.0948 27.7988C34.5639 28.0284 34.9615 28.342 35.2874 28.7371C35.6158 29.1346 35.8627 29.5963 36.0331 30.1272C36.2034 30.6581 36.2874 31.2235 36.2874 31.826V36.9667C36.2874 37.1667 36.2429 37.3149 36.159 37.4186C36.0726 37.5198 35.9343 37.5716 35.7466 37.5716H33.9343C33.7096 37.5716 33.5541 37.5346 33.4701 37.4581C33.3862 37.3815 33.3442 37.2334 33.3442 37.0136V31.905C33.3442 31.6803 33.2923 31.4655 33.1911 31.2655C33.0899 31.063 32.9541 30.8877 32.7862 30.7321C32.6182 30.5791 32.4281 30.4556 32.2158 30.3667C32.0034 30.2778 31.7886 30.2334 31.5689 30.2334C31.3812 30.2334 31.1886 30.2753 30.9911 30.3593C30.796 30.4433 30.6133 30.5593 30.4503 30.7099C30.2849 30.8581 30.1466 31.0334 30.0331 31.2358C29.9195 31.4383 29.8553 31.6556 29.8405 31.8926V36.9939C29.8405 37.0828 29.8232 37.1716 29.7886 37.2605C29.7541 37.3494 29.7047 37.4161 29.6355 37.4655C29.5664 37.5074 29.5022 37.5371 29.4429 37.5519C29.3837 37.5667 29.3121 37.5741 29.2355 37.5741H27.4627C27.238 37.5741 27.075 37.5198 26.9763 37.4087C26.8775 37.3 26.8281 37.1519 26.8281 36.9692V28.1914C26.8281 28.0926 26.8503 28.0013 26.8948 27.9173C26.9392 27.8334 27.001 27.7692 27.08 27.7223L27.0331 27.7445L27.0355 27.7371Z" fill="white"/>
<path d="M37.3828 24.2358C37.3828 24.016 37.4297 23.8605 37.5236 23.7691C37.6174 23.6778 37.7631 23.6309 37.9631 23.6309H39.7853C39.968 23.6309 40.1161 23.6778 40.2297 23.7691C40.3408 23.8605 40.3976 24.016 40.3976 24.2358V25.7667C40.3976 25.8284 40.3828 25.8975 40.3556 25.9716C40.326 26.0457 40.2865 26.1148 40.2347 26.1839C40.1828 26.2506 40.1186 26.3074 40.0421 26.3518C39.9655 26.3963 39.8816 26.4185 39.7878 26.4185H37.9655C37.5779 26.4185 37.3853 26.2012 37.3853 25.7667V24.2358H37.3828ZM37.3828 28.2086C37.3828 28.0407 37.4297 27.8975 37.5236 27.7765C37.6174 27.6555 37.7631 27.5963 37.9631 27.5963H39.7606C39.8223 27.5963 39.8915 27.6111 39.9655 27.6383C40.0396 27.6679 40.1063 27.7099 40.1705 27.7642C40.2322 27.8185 40.2865 27.8827 40.331 27.9568C40.3754 28.0309 40.3976 28.1123 40.3976 28.2086V36.9593C40.3976 37.1593 40.3433 37.3099 40.2322 37.4111C40.1211 37.5123 39.9655 37.5642 39.7606 37.5642H37.9631C37.5754 37.5642 37.3828 37.3642 37.3828 36.9593V28.2086Z" fill="white"/>
<path d="M42.3104 26.0431C42.3104 25.8801 42.3647 25.7591 42.4709 25.6776C42.577 25.5961 42.7301 25.5196 42.9301 25.4455L44.7128 24.8258C44.7375 24.8208 44.7647 24.8184 44.7869 24.8184H44.8536C45.0462 24.8184 45.177 24.8752 45.2412 24.9863C45.3054 25.0998 45.34 25.248 45.34 25.4307L45.3326 27.5887H46.4091C46.577 27.5887 46.7128 27.6381 46.8166 27.7369C46.9203 27.8356 46.9721 27.9863 46.9721 28.1838V29.6974C46.9721 29.9171 46.9203 30.0776 46.8166 30.1813C46.7104 30.2826 46.5746 30.3344 46.4091 30.3344H45.3326L45.34 36.9591C45.34 37.1591 45.2832 37.3097 45.1672 37.411C45.0511 37.5122 44.8931 37.564 44.6882 37.564H42.9153C42.5128 37.564 42.3104 37.364 42.3104 36.9591L42.303 30.3344H41.4956C41.0931 30.3344 40.8906 30.1221 40.8906 29.6998V28.1863C40.8906 27.7887 41.0931 27.5887 41.4956 27.5887H42.303L42.3104 26.0431Z" fill="white"/>
<path d="M1.70312 41.4805C1.70312 41.3866 1.73522 41.3051 1.79695 41.236C1.85868 41.1693 1.9451 41.1348 2.05621 41.1348H4.37967C4.46856 41.1348 4.55004 41.1669 4.62411 41.2286C4.69819 41.2903 4.73522 41.3743 4.74263 41.4805V50.0187H9.05868C9.15251 50.0187 9.23399 50.0508 9.30312 50.1125C9.37226 50.1743 9.40436 50.2607 9.40436 50.3718V52.436C9.40436 52.5249 9.37473 52.6064 9.313 52.6804C9.25374 52.7545 9.16732 52.794 9.05868 52.799H2.05127C1.82164 52.799 1.70559 52.6829 1.70559 52.4533V41.4805H1.70312Z" fill="white"/>
<path d="M18.4767 51.6027C18.015 52.0274 17.4989 52.3583 16.9236 52.5953C16.3483 52.8324 15.7384 52.9534 15.094 52.9534C14.3755 52.9534 13.6989 52.8225 13.0619 52.5608C12.4224 52.299 11.8644 51.9361 11.3829 51.4743C10.9014 51.0126 10.5187 50.4669 10.2372 49.8373C9.95324 49.2101 9.8125 48.5262 9.8125 47.7879C9.8125 47.3262 9.86929 46.8818 9.9804 46.4497C10.0915 46.0176 10.252 45.6151 10.4594 45.2373C10.6668 44.8595 10.9162 44.5138 11.2125 44.1978C11.5088 43.8817 11.8397 43.6102 12.2051 43.3855C12.5705 43.1608 12.9681 42.9855 13.3977 42.8595C13.8248 42.7336 14.2792 42.6719 14.7557 42.6719C15.1903 42.6719 15.61 42.7287 16.0199 42.8447C16.4273 42.9608 16.8125 43.1213 17.1705 43.3311C17.5285 43.541 17.8569 43.7904 18.1557 44.0842C18.4545 44.378 18.7113 44.6966 18.9236 45.0472C19.1384 45.3953 19.3039 45.7657 19.4224 46.1608C19.5384 46.5558 19.6002 46.9632 19.6002 47.3805C19.6002 47.6521 19.5952 47.8743 19.5878 48.0472C19.5804 48.22 19.5409 48.3583 19.4668 48.4595C19.3927 48.5608 19.2718 48.6324 19.1014 48.6719C18.931 48.7114 18.6816 48.7311 18.3532 48.7311H12.7039C12.7557 49.0669 12.8619 49.3459 13.0224 49.5706C13.1829 49.7953 13.3656 49.9756 13.5755 50.1089C13.7853 50.2422 14.0076 50.3385 14.2421 50.3953C14.4767 50.4521 14.6989 50.4818 14.9088 50.4818C15.0965 50.4818 15.2915 50.462 15.489 50.4225C15.6866 50.383 15.8792 50.3311 16.0668 50.2645C16.252 50.2003 16.4224 50.1237 16.5779 50.0373C16.7335 49.9509 16.8569 49.8595 16.9508 49.7657C17.0347 49.6966 17.1063 49.6472 17.1656 49.6126C17.2248 49.5781 17.2915 49.5608 17.3582 49.5608C17.4248 49.5608 17.4964 49.583 17.5656 49.6324C17.6347 49.6793 17.7162 49.7484 17.8051 49.8373L18.6372 50.7781C18.694 50.8472 18.731 50.9089 18.7458 50.9632C18.7606 51.0176 18.7705 51.0743 18.7705 51.1311C18.7705 51.2348 18.7409 51.3262 18.6841 51.4027C18.6273 51.4793 18.5582 51.546 18.4816 51.6027H18.4767ZM14.7014 45.0645C14.4964 45.0645 14.2989 45.1064 14.1088 45.1855C13.9187 45.2669 13.7384 45.3756 13.5705 45.5114C13.4026 45.6472 13.252 45.8027 13.1187 45.9731C12.9853 46.1459 12.8767 46.3213 12.7927 46.499H16.8026C16.6915 46.2966 16.573 46.1064 16.4446 45.9336C16.3162 45.7608 16.1705 45.6101 16.0051 45.4793C15.8397 45.3484 15.652 45.2472 15.4397 45.1731C15.2273 45.099 14.9804 45.062 14.6989 45.062L14.7014 45.0645Z" fill="white"/>
<path d="M30.7093 52.2151C30.7093 52.304 30.6945 52.3879 30.6624 52.4694C30.6303 52.5509 30.5785 52.6151 30.5044 52.662C30.4476 52.7188 30.3785 52.7558 30.2995 52.7706C30.2204 52.7855 30.1538 52.7929 30.0945 52.7929H28.5488C28.4402 52.7929 28.3488 52.778 28.2822 52.7509C28.213 52.7213 28.1587 52.6818 28.1167 52.6299C28.0748 52.5781 28.0402 52.5139 28.0106 52.4373C27.9834 52.3608 27.9513 52.2793 27.9217 52.1904L27.8204 51.8373C27.6797 51.978 27.5192 52.1163 27.339 52.2521C27.1587 52.3879 26.9587 52.5089 26.7439 52.6176C26.5266 52.7237 26.2945 52.8126 26.0451 52.8768C25.7958 52.941 25.539 52.9756 25.2723 52.9756C24.7958 52.9756 24.339 52.9163 23.9019 52.7953C23.4649 52.6743 23.0575 52.504 22.6772 52.2818C22.297 52.0595 21.9538 51.7929 21.6451 51.4817C21.3365 51.1706 21.0698 50.8225 20.8501 50.4422C20.6279 50.0595 20.455 49.6472 20.3365 49.2052C20.2155 48.7632 20.1562 48.3015 20.1562 47.82C20.1562 47.0916 20.2896 46.4176 20.5563 45.7904C20.8229 45.1657 21.1859 44.6225 21.6476 44.1583C22.1093 43.6966 22.6501 43.3311 23.2723 43.0669C23.8945 42.8027 24.5612 42.6719 25.2748 42.6719C25.5982 42.6719 25.9019 42.7089 26.1809 42.7805C26.46 42.8546 26.7167 42.9534 26.9513 43.0793C27.1834 43.2052 27.3933 43.3558 27.5834 43.5311C27.7735 43.7064 27.9365 43.8966 28.0772 44.099L28.3044 43.3855C28.3562 43.2546 28.4007 43.1484 28.4353 43.0669C28.4698 42.9855 28.5069 42.9262 28.5464 42.8867C28.5859 42.8472 28.6328 42.8225 28.6921 42.8077C28.7488 42.7953 28.8303 42.7879 28.934 42.7879H30.1019C30.1612 42.7879 30.2279 42.7953 30.3069 42.8101C30.3859 42.825 30.4525 42.862 30.5118 42.9213C30.5859 42.9781 30.6377 43.0447 30.6698 43.1188C30.7019 43.1929 30.7167 43.2743 30.7167 43.3682V52.2126L30.7093 52.2151ZM22.9785 47.82C22.9785 48.1657 23.0328 48.4892 23.139 48.7904C23.2451 49.0916 23.3982 49.3509 23.5982 49.5706C23.7982 49.7904 24.0377 49.9657 24.3167 50.0941C24.5958 50.2225 24.9069 50.2867 25.2476 50.2867C25.5884 50.2867 25.9242 50.2225 26.2254 50.0941C26.5266 49.9657 26.7884 49.7929 27.0106 49.5706C27.2328 49.3509 27.4056 49.0916 27.5316 48.7904C27.6575 48.4892 27.7192 48.1657 27.7192 47.82C27.7192 47.4743 27.6575 47.1657 27.5316 46.862C27.4056 46.5583 27.2328 46.2916 27.0106 46.062C26.7884 45.8324 26.5266 45.6496 26.2254 45.5163C25.9242 45.383 25.5982 45.3163 25.2476 45.3163C24.897 45.3163 24.5982 45.383 24.3167 45.5163C24.0377 45.6496 23.7982 45.8324 23.5982 46.062C23.4007 46.2916 23.2476 46.5608 23.139 46.862C23.0328 47.1657 22.9785 47.4842 22.9785 47.82Z" fill="white"/>
<path d="M31.8125 43.4116C31.8125 43.3128 31.8298 43.2264 31.8668 43.1523C31.9039 43.0782 31.9508 43.019 32.0125 42.9721C32.0718 42.9252 32.1409 42.8906 32.2174 42.8659C32.294 42.8437 32.3681 42.8313 32.4421 42.8313H33.6273C33.7582 42.8313 33.8619 42.8708 33.9409 42.9499C34.0199 43.0289 34.0866 43.1276 34.1409 43.2486C34.1952 43.3696 34.2446 43.5029 34.2866 43.6486C34.3286 43.7943 34.3779 43.9375 34.4347 44.0733C34.5927 43.9005 34.7483 43.7301 34.9014 43.5622C35.0545 43.3943 35.2224 43.2462 35.4002 43.1153C35.5779 42.9844 35.773 42.8782 35.9853 42.7968C36.1977 42.7153 36.4397 42.6758 36.7113 42.6758C36.9829 42.6758 37.2471 42.698 37.4693 42.7375C37.6915 42.7795 37.9014 42.8412 38.1014 42.9227C38.3014 43.0042 38.4989 43.1079 38.694 43.2338C38.889 43.3597 39.1039 43.5054 39.3335 43.6733C39.5582 43.8042 39.6718 43.9573 39.6718 44.135C39.6718 44.2511 39.6273 44.3844 39.5384 44.535L38.8248 45.7523C38.6841 45.9573 38.5088 46.0585 38.2989 46.0585C38.1952 46.0585 38.0767 46.0289 37.9458 45.9721C37.7211 45.7523 37.4915 45.5894 37.2594 45.4807C37.0273 45.3745 36.7606 45.3202 36.4619 45.3202C36.2569 45.3202 36.0792 45.3499 35.9236 45.4066C35.7705 45.4634 35.6298 45.5449 35.5039 45.6486C35.3779 45.7548 35.2619 45.8783 35.1508 46.0264C35.0421 46.1721 34.931 46.335 34.8224 46.5128V52.1943C34.8224 52.3943 34.773 52.5424 34.6767 52.6462C34.5804 52.7474 34.4199 52.7992 34.1952 52.7992H32.4298C32.0224 52.7992 31.8174 52.5992 31.8174 52.1943V43.4116H31.8125Z" fill="white"/>
<path d="M40.2621 42.9681C40.3312 42.9113 40.4028 42.8742 40.4769 42.8594C40.5535 42.8446 40.6251 42.8372 40.6917 42.8372H41.8769C41.9707 42.8372 42.0522 42.8545 42.1189 42.889C42.188 42.9236 42.2448 42.9681 42.2917 43.0273C42.3386 43.0841 42.3757 43.1508 42.4053 43.2224C42.4349 43.2965 42.4621 43.3705 42.4868 43.4495L42.6522 44.1384C42.7312 43.9755 42.8572 43.81 43.0325 43.6372C43.2078 43.4644 43.4251 43.3088 43.6843 43.1681C43.9436 43.0273 44.2423 42.9113 44.5831 42.8199C44.9238 42.7286 45.3016 42.6816 45.7214 42.6816C46.3189 42.6816 46.8498 42.7977 47.3189 43.0248C47.788 43.2545 48.1856 43.5681 48.5115 43.9631C48.8374 44.3607 49.0868 44.8224 49.2572 45.3532C49.4275 45.8841 49.5115 46.4495 49.5115 47.052V52.1927C49.5115 52.3927 49.4695 52.5409 49.3831 52.6446C49.2967 52.7458 49.1584 52.7977 48.9707 52.7977H47.1584C46.9337 52.7977 46.7781 52.7607 46.6942 52.6841C46.6102 52.6076 46.5683 52.4594 46.5683 52.2421V47.1335C46.5683 46.9088 46.5164 46.6965 46.4152 46.494C46.3139 46.2915 46.1781 46.1137 46.0102 45.9607C45.8423 45.8076 45.6522 45.6841 45.4423 45.5952C45.23 45.5063 45.0152 45.4619 44.7954 45.4619C44.6053 45.4619 44.4152 45.5039 44.2177 45.5878C44.0201 45.6718 43.8399 45.7878 43.6744 45.936C43.509 46.0841 43.3707 46.2594 43.2596 46.4619C43.146 46.6619 43.0819 46.8816 43.067 47.1162V52.2174C43.067 52.3063 43.0498 52.3952 43.0152 52.4841C42.9806 52.573 42.9288 52.6421 42.8621 52.689C42.793 52.731 42.7288 52.7607 42.6695 52.7755C42.6102 52.7903 42.5411 52.7977 42.4621 52.7977H40.6893C40.4646 52.7977 40.3016 52.7434 40.2028 52.6323C40.1041 52.5236 40.0547 52.3755 40.0547 52.1927V43.415C40.0547 43.3162 40.0769 43.2248 40.1214 43.1409C40.1658 43.0569 40.2275 42.9928 40.3065 42.9458L40.2596 42.9681H40.2621Z" fill="white"/>
<path d="M61.1779 28.4072L52.0446 41.2418C52.0446 41.2418 51.7607 41.6319 52.2915 41.7208H60.2273C60.2273 41.7208 61.8594 41.5825 62.8866 39.6665L70.8989 28.3307C70.8989 28.3307 70.9853 28.2072 70.9656 28.1035H61.3952C61.3952 28.1035 61.2273 28.3381 61.1779 28.4072Z" fill="url(#paint0_linear_149_66162)"/>
<path d="M55.2404 28.4072L46.1071 41.2418C46.1071 41.2418 45.8232 41.6319 46.354 41.7208H48.5367C48.5367 41.7208 50.1688 41.5825 51.196 39.6665L59.2083 28.3307C59.2083 28.3307 59.2948 28.2072 59.275 28.1035H55.4577C55.4577 28.1035 55.2898 28.3381 55.2404 28.4072Z" fill="url(#paint1_linear_149_66162)"/>
<path d="M61.1779 27.798L52.0446 14.9634C52.0446 14.9634 51.7607 14.5733 52.2915 14.4844H60.2273C60.2273 14.4844 61.8594 14.6226 62.8866 16.5387L70.8989 27.8745C70.8989 27.8745 70.9853 27.998 70.9656 28.1017H61.3952C61.3952 28.1017 61.2273 27.8671 61.1779 27.798Z" fill="url(#paint2_linear_149_66162)"/>
<path d="M50.0505 34.4464L52.0258 31.9205L50.6579 28.1032C50.6579 28.1032 50.5443 27.6662 50.2011 27.6094H48.0357C48.0357 27.6094 47.448 27.6464 47.5221 28.2736L50.048 34.4439L50.0505 34.4464Z" fill="white"/>
<path d="M57.8542 35.4216L57.8197 37.3081L56.0938 36.3327L57.8542 35.4216Z" fill="white"/>
<path d="M57.2901 40.3433L55.7667 41.4569L55.5 39.4939L57.2901 40.3433Z" fill="white"/>
<path d="M55.0141 34.7363L54.8906 33.9314L55.1869 34.0005L55.0141 34.7363Z" fill="white"/>
<path d="M65.0744 31.5876L64.6299 33.1555L64.1484 32.7827L65.0744 31.5876Z" fill="white"/>
<path d="M59.5781 29.8123L60.6127 30.0641L60.3831 30.3876L59.5781 29.8123Z" fill="white"/>
<path d="M46.8265 37.7244L46.7969 39.2305L48.0759 38.7984L48.0956 37.7466L46.8265 37.7244Z" fill="white"/>
<path d="M62.9416 30.4545L62.9218 31.536L62.0156 31.1928L62.0304 30.4373L62.9416 30.4545Z" fill="white"/>
<path d="M66.2275 40.8279L66.9263 41.6526L66.0226 41.9933L65.5312 41.418L66.2275 40.8279Z" fill="white"/>
<path d="M63.2709 34.4626L63.7055 34.9738L63.145 35.1836L62.8438 34.8281L63.2709 34.4626Z" fill="white"/>
<path d="M52.1171 44.697L52.5517 45.2081L51.9912 45.418L51.6875 45.0625L52.1171 44.697Z" fill="white"/>
<path d="M69.4792 27.3904L69.4422 29.2768L67.7188 28.3015L69.4792 27.3904Z" fill="white"/>
<path d="M70.9127 32.312L69.3892 33.4256L69.125 31.4626L70.9127 32.312Z" fill="white"/>
<path d="M66.6391 26.7051L66.5156 25.9001L66.8119 25.9693L66.6391 26.7051Z" fill="white"/>
<path d="M76.6969 23.5564L76.2549 25.1243L75.7734 24.7515L76.6969 23.5564Z" fill="white"/>
<path d="M71.2031 21.781L72.2377 22.0329L72.0081 22.3563L71.2031 21.781Z" fill="white"/>
<path d="M58.4515 29.6931L58.4219 31.2018L59.7009 30.7697L59.7206 29.7178L58.4515 29.6931Z" fill="white"/>
<path d="M74.5641 22.4208L74.5443 23.5048L73.6406 23.1616L73.6554 22.406L74.5641 22.4208Z" fill="white"/>
<path d="M74.8959 26.4314L75.328 26.9425L74.77 27.1524L74.4688 26.7968L74.8959 26.4314Z" fill="white"/>
<path d="M63.7421 36.6658L64.1742 37.1769L63.6162 37.3868L63.3125 37.0312L63.7421 36.6658Z" fill="white"/>
<path d="M49.7344 19.1262L50.6405 18.3435L50.9122 19.5707L49.7344 19.1262Z" fill="white"/>
<path d="M52.2969 17.2966L53.4673 17.5435L52.6549 18.5016L52.2969 17.2966Z" fill="white"/>
<path d="M50.622 20.7595L50.2968 21.1587L50.2031 20.9911L50.622 20.7595Z" fill="white"/>
<path d="M44.8594 17.3472L45.7878 16.8904L45.8174 17.2756L44.8594 17.3472Z" fill="white"/>
<path d="M46.3527 20.6951L46.0312 20.0992L46.2835 20.072L46.3527 20.6951Z" fill="white"/>
<path d="M55.505 23.3533L56.2284 22.7261L55.4827 22.3064L54.9766 22.7434L55.505 23.3533Z" fill="white"/>
<path d="M45.2344 18.8364L45.7529 18.3845L45.9751 18.9598L45.6122 19.2734L45.2344 18.8364Z" fill="white"/>
<path d="M48.7266 12.8785L48.8179 12.197L49.3661 12.4785L49.3019 12.955L48.7266 12.8785Z" fill="white"/>
<path d="M46.9844 16.9753L47.041 16.5564L47.3761 16.7313L47.3367 17.0221L46.9844 16.9753Z" fill="white"/>
<path d="M56.5469 17.8913L56.6035 17.4724L56.9386 17.6474L56.8992 17.9381L56.5469 17.8913Z" fill="white"/>
<path d="M59.5189 12.0349L59.4844 13.9213L61.2424 13.0127L59.5189 12.0349Z" fill="white"/>
<path d="M59.8906 18.9797L61.3721 20.1476L61.7104 18.197L59.8906 18.9797Z" fill="white"/>
<path d="M62.3801 13.4574L62.5331 12.6599L62.2344 12.7167L62.3801 13.4574Z" fill="white"/>
<path d="M52.4453 9.94116L52.8305 11.5214L53.3243 11.1683L52.4453 9.94116Z" fill="white"/>
<path d="M57.9951 8.3689L56.9531 8.58124L57.1729 8.91211L57.9951 8.3689Z" fill="white"/>
<path d="M70.4451 16.753L70.4155 18.2591L69.1562 17.7801L69.176 16.7283L70.4451 16.753Z" fill="white"/>
<path d="M54.6135 8.88452L54.5938 9.966L55.5123 9.65489L55.5246 8.9018L54.6135 8.88452Z" fill="white"/>
<path d="M50.9496 19.1287L50.2188 19.9262L51.1101 20.3015L51.6212 19.7459L50.9496 19.1287Z" fill="white"/>
<path d="M54.1393 12.8787L53.6875 13.3725L54.2406 13.6046L54.5542 13.2589L54.1393 12.8787Z" fill="white"/>
<path d="M64.905 23.5193L64.4531 24.0106L65.0037 24.2427L65.3198 23.8995L64.905 23.5193Z" fill="white"/>
<path d="M60.1641 10.2129L61.0702 9.42773L61.3418 10.6574L60.1641 10.2129Z" fill="white"/>
<path d="M62.7266 8.38086L63.8994 8.62777L63.0846 9.5858L62.7266 8.38086Z" fill="white"/>
<path d="M61.0439 11.8438L60.7186 12.2429L60.625 12.0754L61.0439 11.8438Z" fill="white"/>
<path d="M55.2891 8.4314L56.215 7.97461L56.2446 8.35979L55.2891 8.4314Z" fill="white"/>
<path d="M56.7824 11.7735L56.4609 11.1801L56.7107 11.1504L56.7824 11.7735Z" fill="white"/>
<path d="M65.9346 14.4341L66.6581 13.807L65.9124 13.3848L65.4062 13.8243L65.9346 14.4341Z" fill="white"/>
<path d="M55.6562 9.91813L56.1772 9.46875L56.397 10.0416L56.0365 10.3552L55.6562 9.91813Z" fill="white"/>
<path d="M59.1562 3.96026L59.2476 3.28125L59.7933 3.56273L59.7291 4.03927L59.1562 3.96026Z" fill="white"/>
<path d="M57.4062 8.05951L57.4629 7.64062L57.8005 7.81311L57.7611 8.10632L57.4062 8.05951Z" fill="white"/>
<path d="M66.9766 8.97552L67.0332 8.55664L67.3708 8.72912L67.3314 9.02233L66.9766 8.97552Z" fill="white"/>
<path d="M55.0451 6.95839L54.4253 6.38062L54.2031 7.23987L55.0451 6.95839Z" fill="white"/>
<path d="M53.2877 5.59937L52.4531 5.74258L53.0013 6.43887L53.2877 5.59937Z" fill="white"/>
<path d="M54.3906 8.08374L54.6099 8.37203L54.6789 8.25622L54.3906 8.08374Z" fill="white"/>
<path d="M58.5319 5.83029L57.889 5.48413L57.8594 5.75364L58.5319 5.83029Z" fill="white"/>
<path d="M57.3906 8.15124L57.6321 7.73975L57.4572 7.71265L57.3906 8.15124Z" fill="white"/>
<path d="M50.8688 9.78243L50.375 9.32317L50.9133 9.04663L51.2565 9.36762L50.8688 9.78243Z" fill="white"/>
<path d="M58.2323 6.86819L57.8762 6.53687L57.7031 6.93495L57.9528 7.16737L58.2323 6.86819Z" fill="white"/>
<path d="M55.9245 2.57813L55.8775 2.09351L55.4844 2.27895L55.5165 2.61769L55.9245 2.57813Z" fill="white"/>
<path d="M57.0523 5.50832L57.0252 5.21265L56.7812 5.32599L56.8034 5.53297L57.0523 5.50832Z" fill="white"/>
<path d="M50.2789 5.90728L50.2493 5.60913L50.0078 5.72248L50.0275 5.93191L50.2789 5.90728Z" fill="white"/>
<path d="M105.727 22.4211H101.073V21.2576C101.073 20.7405 101.009 20.3527 100.879 20.2234C100.75 20.0941 100.556 20.0295 100.298 20.0295C99.9744 20.0295 99.7805 20.1588 99.5866 20.3527C99.4573 20.5466 99.328 20.8698 99.328 21.2576C99.328 21.7747 99.3927 22.1626 99.5866 22.4211C99.7805 22.6797 100.233 23.0029 101.009 23.3907C103.206 24.4896 104.628 25.3945 105.21 26.1056C105.792 26.8166 106.05 27.9155 106.05 29.4668C106.05 30.6303 105.857 31.406 105.598 31.9877C105.275 32.5048 104.628 32.9573 103.723 33.3451C102.819 33.733 101.72 33.8622 100.492 33.8622C99.1341 33.8622 98.0352 33.6683 97.0657 33.2159C96.0961 32.828 95.5143 32.2463 95.1911 31.5999C94.8679 30.9535 94.7387 30.0485 94.7387 28.8204V27.7862H99.3927V29.7253C99.3927 30.3071 99.4573 30.6949 99.5866 30.8889C99.7159 31.0828 99.9744 31.1474 100.298 31.1474C100.621 31.1474 100.879 31.0181 101.009 30.8242C101.203 30.6303 101.267 30.3071 101.267 29.8546C101.267 28.9497 101.138 28.3033 100.815 28.0447C100.492 27.7862 99.7159 27.2691 98.4877 26.6227C97.2596 25.9116 96.4193 25.4592 96.0314 25.136C95.6436 24.8128 95.3204 24.4249 94.9972 23.8432C94.7387 23.3261 94.6094 22.615 94.6094 21.7747C94.6094 20.5466 94.8033 19.6416 95.1911 19.1245C95.579 18.5428 96.1607 18.1549 97.001 17.8318C97.8413 17.5086 98.8756 17.3793 100.039 17.3793C101.332 17.3793 102.431 17.5732 103.336 17.8964C104.241 18.2196 104.822 18.6721 105.146 19.1892C105.469 19.7063 105.598 20.6112 105.598 21.8394V22.4211H105.727ZM112.32 20.482L112.127 22.2272C112.838 20.9991 113.872 20.3527 115.165 20.288V24.8774C114.26 24.8774 113.613 25.0067 113.225 25.2006C112.838 25.3945 112.579 25.6531 112.45 26.0409C112.385 26.3641 112.32 27.2044 112.32 28.4326V33.6037H107.537V20.482H112.32ZM121.241 17.5732V19.6416H116.328V17.5732H121.241ZM121.241 20.482V33.4744H116.328V20.482H121.241ZM139.081 24.5542H134.039V21.7747C134.039 20.9991 133.975 20.482 133.91 20.288C133.781 20.0941 133.587 19.9648 133.199 19.9648C132.811 19.9648 132.553 20.0941 132.423 20.3527C132.294 20.6112 132.229 21.1283 132.229 21.904V29.2729C132.229 30.0485 132.294 30.5657 132.423 30.7596C132.553 31.0181 132.811 31.0828 133.134 31.0828C133.522 31.0828 133.716 30.9535 133.845 30.7596C133.975 30.501 134.039 29.9839 134.039 29.079V27.0751H139.081V27.7215C139.081 29.3375 138.952 30.5657 138.629 31.212C138.37 31.9231 137.724 32.5048 136.754 33.0219C135.784 33.539 134.621 33.7976 133.199 33.7976C131.712 33.7976 130.549 33.6037 129.579 33.1512C128.61 32.6987 128.028 32.117 127.705 31.3413C127.381 30.5657 127.252 29.4022 127.252 27.8508V23.1968C127.252 22.0333 127.317 21.193 127.381 20.6112C127.511 20.0295 127.769 19.5124 128.222 18.9306C128.674 18.4135 129.321 17.961 130.161 17.7025C131.001 17.3793 131.971 17.25 133.07 17.25C134.556 17.25 135.784 17.5086 136.754 17.961C137.724 18.4135 138.37 18.9953 138.629 19.7063C138.952 20.4173 139.081 21.5162 139.081 23.0029V24.5542ZM145.545 17.5732V21.1283C145.933 20.8052 146.385 20.5466 146.902 20.4173C147.355 20.288 147.872 20.1588 148.454 20.1588C149.294 20.1588 150.005 20.3527 150.587 20.6759C151.169 20.9991 151.556 21.4515 151.686 21.904C151.815 22.3565 151.88 23.1968 151.88 24.4249V33.4098H147.096V24.3603C147.096 23.5846 147.032 23.1322 146.967 22.8736C146.902 22.6797 146.644 22.5504 146.321 22.5504C145.997 22.5504 145.804 22.6797 145.739 22.8736C145.61 23.0675 145.61 23.52 145.61 24.1664V33.4744H140.826V17.5732H145.545ZM157.762 25.5238H153.237V24.6189C153.237 23.5846 153.366 22.809 153.69 22.2918C153.948 21.7747 154.53 21.2576 155.37 20.8698C156.21 20.482 157.309 20.2234 158.667 20.2234C160.283 20.2234 161.511 20.482 162.351 20.9344C163.191 21.3869 163.644 21.9687 163.838 22.6797C164.032 23.3907 164.096 24.8128 164.096 26.9459V33.4744H159.442V32.3109C159.119 32.7634 158.796 33.1512 158.279 33.3451C157.826 33.6037 157.245 33.6683 156.598 33.6683C155.758 33.6683 154.982 33.4744 154.271 33.0866C153.56 32.6987 153.237 31.8584 153.237 30.501V29.4021C153.237 28.4326 153.431 27.7862 153.819 27.3983C154.207 27.0751 155.112 26.6227 156.598 26.1702C158.15 25.6531 158.99 25.3299 159.119 25.136C159.248 24.9421 159.313 24.6189 159.313 24.0371C159.313 23.3261 159.248 22.9382 159.119 22.6797C158.99 22.4858 158.796 22.3565 158.473 22.3565C158.15 22.3565 157.956 22.4211 157.891 22.615C157.826 22.809 157.762 23.2614 157.762 23.9725V25.5238ZM159.313 27.3337C158.537 27.7862 158.085 28.174 157.956 28.4972C157.826 28.8204 157.762 29.2729 157.762 29.8546C157.762 30.501 157.826 30.9535 157.956 31.1474C158.085 31.3413 158.279 31.4706 158.602 31.4706C158.925 31.4706 159.119 31.406 159.184 31.212C159.248 31.0828 159.313 30.6303 159.313 29.9839V27.3337ZM170.69 17.5732V19.6416H165.777V17.5732H170.69ZM170.69 20.482V33.4744H165.777V20.482H170.69ZM177.477 18.7367V20.8052H178.834V22.8736H177.477V29.8546C177.477 30.6949 177.541 31.212 177.671 31.2767C177.8 31.406 178.252 31.406 179.028 31.406V33.4744H177.089C175.99 33.4744 175.214 33.4098 174.762 33.3451C174.309 33.2805 173.857 33.0866 173.534 32.828C173.146 32.5695 172.952 32.2463 172.887 31.9231C172.823 31.5999 172.758 30.7596 172.758 29.4668V22.8736H171.724V20.8052H172.758V18.7367H177.477ZM184.135 25.5238H179.61V24.6189C179.61 23.5846 179.739 22.809 180.062 22.2918C180.321 21.7747 180.903 21.2576 181.743 20.8698C182.583 20.482 183.682 20.2234 185.039 20.2234C186.655 20.2234 187.884 20.482 188.724 20.9344C189.564 21.3869 190.017 21.9687 190.211 22.6797C190.405 23.3907 190.469 24.8128 190.469 26.9459V33.4744H185.815V32.3109C185.492 32.7634 185.169 33.1512 184.652 33.3451C184.199 33.6037 183.617 33.6683 182.971 33.6683C182.131 33.6683 181.355 33.4744 180.644 33.0866C179.933 32.6987 179.61 31.8584 179.61 30.501V29.4021C179.61 28.4326 179.804 27.7862 180.192 27.3983C180.579 27.0751 181.484 26.6227 182.971 26.1702C184.522 25.6531 185.363 25.3299 185.492 25.136C185.621 24.9421 185.686 24.6189 185.686 24.0371C185.686 23.3261 185.621 22.9382 185.492 22.6797C185.363 22.4858 185.169 22.3565 184.846 22.3565C184.522 22.3565 184.328 22.4211 184.264 22.615C184.199 22.809 184.135 23.2614 184.135 23.9725V25.5238ZM185.686 27.3337C184.91 27.7862 184.458 28.174 184.328 28.4972C184.199 28.8204 184.135 29.2729 184.135 29.8546C184.135 30.501 184.199 30.9535 184.328 31.1474C184.458 31.3413 184.652 31.4706 184.975 31.4706C185.298 31.4706 185.492 31.406 185.557 31.212C185.621 31.0828 185.686 30.6303 185.686 29.9839V27.3337ZM196.998 20.482L196.933 21.7101C197.256 21.2576 197.709 20.8698 198.226 20.6112C198.743 20.3527 199.325 20.2234 199.971 20.2234C200.811 20.2234 201.458 20.3527 201.975 20.6759C202.492 20.9991 202.815 21.3869 203.009 21.904C203.138 22.4211 203.268 23.1968 203.268 24.3603V33.4744H198.484V24.4896C198.484 23.5846 198.42 23.0675 198.355 22.8736C198.29 22.6797 198.097 22.5504 197.773 22.5504C197.45 22.5504 197.192 22.6797 197.127 22.8736C197.062 23.1322 196.998 23.7139 196.998 24.6835V33.4744H192.085V20.482H196.998ZM214.903 20.482L213.545 29.9193C213.351 31.406 213.157 32.4402 213.028 32.9573C212.899 33.4744 212.64 33.9269 212.317 34.3147C211.994 34.6379 211.477 34.8965 210.895 35.0904C210.313 35.2843 209.344 35.3489 207.986 35.3489H205.013V33.2805C205.789 33.2805 206.241 33.2805 206.435 33.2159C206.629 33.1512 206.758 33.0219 206.758 32.828C206.758 32.6987 206.629 32.2463 206.435 31.4706L203.785 20.6112H208.116L209.667 29.4021L210.443 20.6112H214.903V20.482ZM220.074 25.5238H215.549V24.6189C215.549 23.5846 215.678 22.809 216.002 22.2918C216.26 21.7747 216.842 21.2576 217.682 20.8698C218.523 20.482 219.621 20.2234 220.979 20.2234C222.595 20.2234 223.823 20.482 224.663 20.9344C225.504 21.3869 225.956 21.9687 226.15 22.6797C226.344 23.3907 226.408 24.8128 226.408 26.9459V33.4744H221.754V32.3109C221.431 32.7634 221.108 33.1512 220.591 33.3451C220.138 33.6037 219.557 33.6683 218.91 33.6683C218.07 33.6683 217.294 33.4744 216.583 33.0866C215.872 32.6987 215.549 31.8584 215.549 30.501V29.4021C215.549 28.4326 215.743 27.7862 216.131 27.3983C216.519 27.0751 217.424 26.6227 218.91 26.1702C220.462 25.6531 221.302 25.3299 221.431 25.136C221.561 24.9421 221.625 24.6189 221.625 24.0371C221.625 23.3261 221.561 22.9382 221.431 22.6797C221.302 22.4858 221.108 22.3565 220.785 22.3565C220.462 22.3565 220.268 22.4211 220.203 22.615C220.138 22.809 220.074 23.2614 220.074 23.9725V25.5238ZM221.561 27.3337C220.785 27.7862 220.332 28.174 220.203 28.4972C220.074 28.8204 220.009 29.2729 220.009 29.8546C220.009 30.501 220.074 30.9535 220.203 31.1474C220.332 31.3413 220.526 31.4706 220.85 31.4706C221.173 31.4706 221.367 31.406 221.431 31.212C221.496 31.0828 221.561 30.6303 221.561 29.9839V27.3337Z" fill="white"/>
<path d="M94.0938 46.4022V37.0295H100.881V38.1283H95.3865V41.0371H100.558V42.136H95.3865V45.3679H101.139V46.4668H94.0938V46.4022ZM107.022 46.4022V45.5618C106.828 45.885 106.569 46.1436 106.246 46.3375C105.923 46.5314 105.535 46.5961 105.212 46.5961C104.436 46.5961 103.725 46.2729 103.143 45.6911C102.561 45.0447 102.238 44.2044 102.238 43.0409C102.238 42.2652 102.368 41.6189 102.626 41.1017C102.885 40.5846 103.208 40.1322 103.66 39.8736C104.113 39.615 104.565 39.4858 105.082 39.4858C105.47 39.4858 105.793 39.5504 106.117 39.7443C106.44 39.9382 106.698 40.1322 106.892 40.4554V37.0941H108.056V46.5314H107.022V46.4022ZM103.402 43.0409C103.402 43.9459 103.596 44.5923 103.984 44.9801C104.371 45.4326 104.759 45.6265 105.276 45.6265C105.793 45.6265 106.181 45.4326 106.569 44.9801C106.957 44.5923 107.086 43.9459 107.086 43.1056C107.086 42.136 106.892 41.4249 106.569 41.0371C106.181 40.5846 105.729 40.3907 105.212 40.3907C104.759 40.3907 104.307 40.5846 103.984 41.0371C103.531 41.4249 103.402 42.136 103.402 43.0409ZM114.326 46.4022V45.4326C114.067 45.8204 113.744 46.079 113.421 46.2729C113.033 46.4668 112.645 46.5314 112.193 46.5314C111.676 46.5314 111.223 46.4021 110.835 46.1436C110.447 45.885 110.189 45.6265 110.06 45.2386C109.93 44.8508 109.866 44.3983 109.866 43.7519V39.5504H111.029V43.3641C111.029 44.0751 111.094 44.5276 111.158 44.7862C111.223 45.0447 111.417 45.2386 111.611 45.3679C111.87 45.4972 112.128 45.5618 112.387 45.5618C112.904 45.5618 113.356 45.3679 113.744 44.9801C114.067 44.6569 114.197 44.0751 114.197 43.2348V39.5504H115.36V46.4022H114.326ZM121.565 43.9459L122.729 44.0751C122.6 44.9155 122.276 45.4972 121.759 45.9497C121.242 46.4021 120.596 46.5961 119.885 46.5961C118.98 46.5961 118.269 46.2729 117.687 45.6911C117.105 45.1094 116.847 44.2044 116.847 43.0409C116.847 41.8774 117.105 40.9725 117.687 40.3907C118.269 39.809 119.044 39.4858 119.949 39.4858C120.66 39.4858 121.242 39.6797 121.695 40.0029C122.147 40.3907 122.47 40.9078 122.6 41.6189L121.501 41.8128C121.371 41.3603 121.178 40.9725 120.919 40.7785C120.66 40.52 120.337 40.4554 119.949 40.4554C119.368 40.4554 118.915 40.6493 118.527 41.1017C118.139 41.4896 117.946 42.2006 117.946 43.0409C117.946 43.9459 118.139 44.6569 118.463 45.0447C118.786 45.4326 119.238 45.6911 119.82 45.6911C120.273 45.6911 120.596 45.5618 120.919 45.3033C121.307 44.9154 121.501 44.5276 121.565 43.9459ZM128.094 45.5618C127.706 45.885 127.318 46.1436 126.866 46.3375C126.478 46.5314 126.025 46.5961 125.573 46.5961C124.862 46.5961 124.28 46.4022 123.892 46.079C123.44 45.7558 123.246 45.2386 123.246 44.6569C123.246 44.2691 123.375 43.9459 123.569 43.6227C123.763 43.2995 124.022 43.1056 124.409 42.9116C124.733 42.7177 125.25 42.5884 125.961 42.5238C126.866 42.3945 127.577 42.2652 128.029 42.136V41.8128C128.029 41.3603 127.9 41.0371 127.706 40.8432C127.448 40.5846 126.995 40.4554 126.413 40.4554C125.896 40.4554 125.508 40.52 125.185 40.7139C124.927 40.9078 124.733 41.231 124.603 41.7481L123.44 41.5542C123.634 40.8432 123.957 40.3261 124.409 40.0029C124.927 39.6797 125.638 39.4858 126.543 39.4858C127.254 39.4858 127.835 39.615 128.223 39.809C128.611 40.0029 128.87 40.3261 128.999 40.6493C129.128 40.9725 129.128 41.4249 129.128 42.0713V43.6227C129.128 44.7215 129.128 45.3679 129.193 45.6911C129.257 45.9497 129.322 46.2729 129.516 46.5314H128.352C128.223 46.2082 128.159 45.885 128.094 45.5618ZM128.029 42.9763C127.641 43.1702 126.995 43.2995 126.155 43.4288C125.702 43.4934 125.314 43.558 125.121 43.6873C124.927 43.7519 124.797 43.8812 124.668 44.0751C124.539 44.2044 124.539 44.3983 124.539 44.6569C124.539 44.9801 124.668 45.2386 124.927 45.4326C125.185 45.6265 125.508 45.7558 125.961 45.7558C126.349 45.7558 126.736 45.6911 127.06 45.4972C127.383 45.3033 127.641 45.1094 127.835 44.7862C128.029 44.463 128.094 44.0751 128.094 43.4934V42.9763H128.029ZM133.524 45.3679L133.653 46.4022C133.33 46.4668 133.071 46.5314 132.813 46.5314C132.425 46.5314 132.102 46.4668 131.843 46.3375C131.584 46.2082 131.455 46.0143 131.326 45.8204C131.261 45.6265 131.197 45.1094 131.197 44.463V40.52H130.356V39.615H131.197V37.9344L132.36 37.2234V39.615H133.524V40.52H132.36V44.5276C132.36 44.9155 132.425 45.1094 132.489 45.2386C132.619 45.3679 132.748 45.4972 133.071 45.4972C133.136 45.4326 133.33 45.4326 133.524 45.3679ZM134.622 38.3223V36.9648H135.786V38.3223H134.622ZM134.622 46.4022V39.615H135.786V46.4668H134.622V46.4022ZM137.079 43.0409C137.079 41.8774 137.402 40.9725 137.984 40.3907C138.565 39.809 139.341 39.4858 140.246 39.4858C141.151 39.4858 141.927 39.809 142.508 40.3907C143.09 40.9725 143.413 41.8774 143.413 42.9763C143.413 44.2044 143.09 45.1094 142.508 45.6911C141.927 46.2729 141.151 46.5961 140.246 46.5961C139.341 46.5961 138.565 46.2729 137.984 45.6911C137.337 45.0447 137.079 44.2044 137.079 43.0409ZM138.242 43.0409C138.242 43.9459 138.436 44.5923 138.824 45.0447C139.212 45.4972 139.664 45.6911 140.246 45.6911C140.763 45.6911 141.216 45.4972 141.603 45.0447C141.991 44.5923 142.185 43.9459 142.185 43.1056C142.185 42.2006 141.991 41.5542 141.603 41.1664C141.216 40.7139 140.763 40.52 140.181 40.52C139.664 40.52 139.147 40.7139 138.824 41.1664C138.436 41.4896 138.242 42.136 138.242 43.0409ZM144.771 46.4022V39.615H145.805V40.5846C146.064 40.1968 146.387 39.9382 146.71 39.7443C147.098 39.5504 147.486 39.4858 147.938 39.4858C148.326 39.4858 148.649 39.5504 148.972 39.6797C149.296 39.809 149.554 39.9382 149.748 40.1322C149.942 40.3261 150.071 40.5846 150.2 40.8432C150.265 41.1664 150.33 41.6189 150.33 42.2652V46.4668H149.166V42.3299C149.166 41.8128 149.102 41.4896 149.037 41.231C148.908 40.9725 148.778 40.8432 148.52 40.7139C148.326 40.5846 148.067 40.52 147.744 40.52C147.227 40.52 146.775 40.7139 146.451 41.0371C146.128 41.3603 145.934 41.9421 145.934 42.7824V46.5314H144.771V46.4022ZM156.47 45.5618C156.083 45.885 155.695 46.1436 155.242 46.3375C154.854 46.5314 154.402 46.5961 153.95 46.5961C153.239 46.5961 152.657 46.4022 152.269 46.079C151.816 45.7558 151.623 45.2386 151.623 44.6569C151.623 44.2691 151.752 43.9459 151.946 43.6227C152.14 43.2995 152.398 43.1056 152.786 42.9116C153.109 42.7177 153.626 42.5884 154.337 42.5238C155.242 42.3945 155.953 42.2652 156.406 42.136V41.8128C156.406 41.3603 156.277 41.0371 156.083 40.8432C155.824 40.5846 155.372 40.4554 154.79 40.4554C154.273 40.4554 153.885 40.52 153.562 40.7139C153.303 40.9078 153.109 41.231 152.98 41.7481L151.816 41.5542C152.01 40.8432 152.334 40.3261 152.786 40.0029C153.303 39.6797 153.95 39.4858 154.919 39.4858C155.63 39.4858 156.212 39.615 156.6 39.809C156.988 40.0029 157.246 40.3261 157.375 40.6493C157.505 40.9725 157.505 41.4249 157.505 42.0713V43.6227C157.505 44.7215 157.505 45.3679 157.569 45.6911C157.634 45.9497 157.699 46.2729 157.893 46.5314H156.729C156.6 46.2082 156.47 45.885 156.47 45.5618ZM156.341 42.9763C155.953 43.1702 155.307 43.2995 154.467 43.4288C154.014 43.4934 153.626 43.558 153.432 43.6873C153.239 43.7519 153.109 43.8812 152.98 44.0751C152.851 44.2044 152.851 44.3983 152.851 44.6569C152.851 44.9801 152.98 45.2386 153.239 45.4326C153.497 45.6265 153.82 45.7558 154.273 45.7558C154.661 45.7558 155.048 45.6911 155.372 45.4972C155.695 45.3033 155.953 45.1094 156.147 44.7862C156.341 44.463 156.406 44.0751 156.406 43.4934V42.9763H156.341ZM159.25 46.4022V37.0295H160.413V46.4668H159.25V46.4022ZM166.231 46.4022V37.0295H167.459V46.4668H166.231V46.4022ZM169.463 46.4022V39.615H170.497V40.5846C170.756 40.1968 171.079 39.9382 171.402 39.7443C171.79 39.5504 172.178 39.4858 172.63 39.4858C173.018 39.4858 173.341 39.5504 173.664 39.6797C173.988 39.809 174.246 39.9382 174.44 40.1322C174.634 40.3261 174.763 40.5846 174.893 40.8432C174.957 41.1664 175.022 41.6189 175.022 42.2652V46.4668H173.858V42.3299C173.858 41.8128 173.794 41.4896 173.729 41.231C173.6 40.9725 173.471 40.8432 173.212 40.7139C173.018 40.5846 172.76 40.52 172.436 40.52C171.919 40.52 171.467 40.7139 171.144 41.0371C170.82 41.3603 170.626 41.9421 170.626 42.7824V46.5314H169.463V46.4022ZM176.315 44.3983L177.478 44.2044C177.543 44.6569 177.737 45.0447 178.06 45.3033C178.383 45.5618 178.771 45.6265 179.223 45.6265C179.741 45.6265 180.128 45.4972 180.387 45.3033C180.645 45.1094 180.775 44.8508 180.775 44.5276C180.775 44.2691 180.645 44.0751 180.452 43.8812C180.322 43.7519 179.934 43.6227 179.288 43.4934C178.383 43.2995 177.801 43.1056 177.478 42.9116C177.155 42.7824 176.961 42.5238 176.767 42.2652C176.573 42.0067 176.509 41.6835 176.509 41.3603C176.509 40.7785 176.702 40.3261 177.155 39.9382C177.607 39.5504 178.254 39.4211 179.03 39.4211C179.547 39.4211 179.999 39.4858 180.387 39.615C180.775 39.7443 181.033 39.9382 181.292 40.1968C181.486 40.4554 181.615 40.8432 181.68 41.2957L180.581 41.4896C180.452 40.7139 179.999 40.3261 179.094 40.3261C178.577 40.3261 178.189 40.3907 177.995 40.5846C177.737 40.7785 177.607 40.9725 177.607 41.231C177.607 41.4896 177.737 41.6835 177.931 41.8128C178.06 41.8774 178.512 42.0067 179.159 42.2006C180.128 42.4592 180.71 42.6531 181.033 42.7824C181.292 42.9116 181.55 43.1056 181.68 43.3641C181.809 43.6227 181.938 43.9459 181.938 44.2691C181.938 44.9154 181.68 45.4326 181.163 45.885C180.645 46.2729 179.999 46.4668 179.094 46.4668C177.478 46.5961 176.573 45.8204 176.315 44.3983ZM185.881 45.3679L186.011 46.4022C185.687 46.4668 185.429 46.5314 185.17 46.5314C184.782 46.5314 184.459 46.4668 184.201 46.3375C183.942 46.2082 183.813 46.0143 183.684 45.8204C183.619 45.6265 183.554 45.1094 183.554 44.463V40.52H182.714V39.615H183.554V37.9344L184.718 37.2234V39.615H185.881V40.52H184.718V44.5276C184.718 44.9155 184.782 45.1094 184.847 45.2386C184.976 45.3679 185.106 45.4972 185.429 45.4972C185.493 45.4326 185.623 45.4326 185.881 45.3679ZM186.915 38.3223V36.9648H188.079V38.3223H186.915ZM186.915 46.4022V39.615H188.079V46.4668H186.915V46.4022ZM192.41 45.3679L192.539 46.4022C192.216 46.4668 191.957 46.5314 191.699 46.5314C191.311 46.5314 190.988 46.4668 190.729 46.3375C190.471 46.2082 190.341 46.0143 190.212 45.8204C190.147 45.6265 190.083 45.1094 190.083 44.463V40.52H189.242V39.615H190.083V37.9344L191.246 37.2234V39.615H192.41V40.52H191.246V44.5276C191.246 44.9155 191.311 45.1094 191.376 45.2386C191.505 45.3679 191.634 45.4972 191.957 45.4972C192.022 45.4326 192.216 45.4326 192.41 45.3679ZM197.904 46.4022V45.4326C197.646 45.8204 197.322 46.079 196.999 46.2729C196.611 46.4668 196.224 46.5314 195.771 46.5314C195.254 46.5314 194.801 46.4021 194.414 46.1436C194.026 45.885 193.767 45.6265 193.638 45.2386C193.509 44.8508 193.444 44.3983 193.444 43.7519V39.5504H194.608V43.3641C194.608 44.0751 194.672 44.5276 194.737 44.7862C194.801 45.0447 194.995 45.2386 195.189 45.3679C195.448 45.4972 195.706 45.5618 195.965 45.5618C196.482 45.5618 196.935 45.3679 197.322 44.9801C197.646 44.6569 197.775 44.0751 197.775 43.2348V39.5504H198.938V46.4022H197.904ZM203.269 45.3679L203.398 46.4022C203.075 46.4668 202.817 46.5314 202.558 46.5314C202.17 46.5314 201.847 46.4668 201.589 46.3375C201.33 46.2082 201.201 46.0143 201.071 45.8204C201.007 45.6265 200.942 45.1094 200.942 44.463V40.52H200.102V39.615H200.942V37.9344L202.106 37.2234V39.615H203.269V40.52H202.106V44.5276C202.106 44.9155 202.17 45.1094 202.235 45.2386C202.364 45.3679 202.494 45.4972 202.817 45.4972C202.946 45.4326 203.075 45.4326 203.269 45.3679ZM204.368 38.3223V36.9648H205.532V38.3223H204.368ZM204.368 46.4022V39.615H205.532V46.4668H204.368V46.4022ZM206.824 43.0409C206.824 41.8774 207.148 40.9725 207.729 40.3907C208.311 39.809 209.087 39.4858 209.992 39.4858C210.897 39.4858 211.672 39.809 212.254 40.3907C212.836 40.9725 213.159 41.8774 213.159 42.9763C213.159 44.2044 212.836 45.1094 212.254 45.6911C211.672 46.2729 210.897 46.5961 209.992 46.5961C209.087 46.5961 208.311 46.2729 207.729 45.6911C207.148 45.0447 206.824 44.2044 206.824 43.0409ZM208.052 43.0409C208.052 43.9459 208.246 44.5923 208.634 45.0447C209.022 45.4972 209.475 45.6911 210.056 45.6911C210.573 45.6911 211.026 45.4972 211.414 45.0447C211.802 44.5923 211.995 43.9459 211.995 43.1056C211.995 42.2006 211.802 41.5542 211.414 41.1664C211.026 40.7139 210.573 40.52 209.992 40.52C209.475 40.52 208.957 40.7139 208.634 41.1664C208.246 41.4896 208.052 42.136 208.052 43.0409ZM214.516 46.4022V39.615H215.551V40.5846C215.809 40.1968 216.132 39.9382 216.456 39.7443C216.843 39.5504 217.231 39.4858 217.684 39.4858C218.072 39.4858 218.395 39.5504 218.718 39.6797C219.041 39.809 219.3 39.9382 219.494 40.1322C219.687 40.3261 219.817 40.5846 219.946 40.8432C220.011 41.1664 220.075 41.6189 220.075 42.2652V46.4668H218.912V42.3299C218.912 41.8128 218.847 41.4896 218.783 41.231C218.653 40.9725 218.524 40.8432 218.265 40.7139C218.072 40.5846 217.813 40.52 217.49 40.52C216.973 40.52 216.52 40.7139 216.197 41.0371C215.874 41.3603 215.68 41.9421 215.68 42.7824V46.5314H214.516V46.4022ZM221.368 44.3983L222.532 44.2044C222.596 44.6569 222.79 45.0447 223.113 45.3033C223.437 45.5618 223.824 45.6265 224.277 45.6265C224.729 45.6265 225.182 45.4972 225.44 45.3033C225.699 45.1094 225.828 44.8508 225.828 44.5276C225.828 44.2691 225.699 44.0751 225.505 43.8812C225.376 43.7519 224.988 43.6227 224.342 43.4934C223.437 43.2995 222.855 43.1056 222.532 42.9116C222.208 42.7824 222.015 42.5238 221.821 42.2652C221.627 42.0067 221.562 41.6835 221.562 41.3603C221.562 40.7785 221.756 40.3261 222.208 39.9382C222.661 39.5504 223.307 39.4211 224.083 39.4211C224.6 39.4211 225.053 39.4858 225.44 39.615C225.828 39.7443 226.087 39.9382 226.345 40.1968C226.539 40.4554 226.669 40.8432 226.733 41.2957L225.634 41.4896C225.505 40.7139 225.053 40.3261 224.148 40.3261C223.63 40.3261 223.243 40.3907 223.049 40.5846C222.79 40.7785 222.661 40.9725 222.661 41.231C222.661 41.4896 222.79 41.6835 222.984 41.8128C223.113 41.8774 223.566 42.0067 224.212 42.2006C225.182 42.4592 225.764 42.6531 226.087 42.7824C226.345 42.9116 226.604 43.1056 226.733 43.3641C226.862 43.6227 226.992 43.9459 226.992 44.2691C226.992 44.9154 226.733 45.4326 226.216 45.885C225.699 46.2729 225.053 46.4668 224.148 46.4668C222.596 46.5961 221.627 45.8204 221.368 44.3983Z" fill="#D8EBFF"/>
<path d="M79.0029 33.8157V28.8236H79.5782V30.6664H79.6269C79.6692 30.6014 79.7277 30.5185 79.8024 30.4178C79.8788 30.3154 79.9877 30.2244 80.1291 30.1448C80.2721 30.0635 80.4654 30.0229 80.7092 30.0229C81.0245 30.0229 81.3023 30.1017 81.5428 30.2593C81.7833 30.417 81.971 30.6404 82.1059 30.9297C82.2408 31.2189 82.3082 31.5602 82.3082 31.9534C82.3082 32.3499 82.2408 32.6936 82.1059 32.9845C81.971 33.2737 81.7841 33.498 81.5453 33.6572C81.3064 33.8149 81.031 33.8937 80.7189 33.8937C80.4784 33.8937 80.2859 33.8539 80.1413 33.7742C79.9966 33.693 79.8853 33.6012 79.8073 33.4988C79.7293 33.3948 79.6692 33.3087 79.6269 33.2404H79.5587V33.8157H79.0029ZM79.5684 31.9437C79.5684 32.2264 79.6099 32.4759 79.6928 32.692C79.7756 32.9065 79.8967 33.0747 80.0559 33.1965C80.2152 33.3168 80.4102 33.3769 80.6409 33.3769C80.8814 33.3769 81.0821 33.3135 81.243 33.1868C81.4055 33.0584 81.5274 32.8862 81.6086 32.67C81.6915 32.4523 81.733 32.2102 81.733 31.9437C81.733 31.6804 81.6923 31.4432 81.6111 31.2319C81.5315 31.019 81.4104 30.8508 81.2479 30.7273C81.087 30.6022 80.8847 30.5397 80.6409 30.5397C80.4069 30.5397 80.2103 30.599 80.0511 30.7176C79.8918 30.8346 79.7716 30.9987 79.6903 31.21C79.6091 31.4196 79.5684 31.6642 79.5684 31.9437ZM83.4246 35.2197C83.3271 35.2197 83.2401 35.2116 83.1638 35.1953C83.0874 35.1807 83.0346 35.1661 83.0053 35.1514L83.1516 34.6444C83.2913 34.6802 83.4148 34.6932 83.5221 34.6834C83.6293 34.6737 83.7244 34.6257 83.8073 34.5396C83.8918 34.4551 83.969 34.3178 84.0388 34.1277L84.1461 33.8352L82.7616 30.0717H83.3856L84.4191 33.0552H84.4581L85.4916 30.0717H86.1156L84.5263 34.3617C84.4548 34.5551 84.3663 34.7151 84.2607 34.8419C84.155 34.9702 84.0323 35.0653 83.8926 35.1271C83.7545 35.1888 83.5985 35.2197 83.4246 35.2197Z" fill="#E7E7E7"/>
<path d="M82.8445 13.5H82.5859V24.4886H82.8445V13.5Z" fill="#F2F2F2"/>
<path d="M82.8445 39.4202H82.5859V50.4088H82.8445V39.4202Z" fill="#F2F2F2"/>
<defs>
<linearGradient id="paint0_linear_149_66162" x1="52.6421" y1="42.2689" x2="67.852" y2="29.1677" gradientUnits="userSpaceOnUse">
<stop offset="0.22" stop-color="white"/>
<stop offset="0.58" stop-color="white"/>
<stop offset="0.99" stop-color="white"/>
</linearGradient>
<linearGradient id="paint1_linear_149_66162" x1="45.475" y1="40.8517" x2="57.8232" y2="30.2146" gradientUnits="userSpaceOnUse">
<stop offset="0.22" stop-color="white"/>
<stop offset="0.58" stop-color="white"/>
<stop offset="0.99" stop-color="white"/>
</linearGradient>
<linearGradient id="paint2_linear_149_66162" x1="71.2199" y1="28.5288" x2="52.4224" y2="15.0844" gradientUnits="userSpaceOnUse">
<stop offset="0.22" stop-color="white"/>
<stop offset="0.58" stop-color="white"/>
<stop offset="0.99" stop-color="white"/>
</linearGradient>
</defs>
</svg>
