<svg width="76" height="44" viewBox="0 0 76 44" fill="none" xmlns="http://www.w3.org/2000/svg">
<path d="M0.345703 13.7629C0.345703 13.6601 0.377809 13.5708 0.439347 13.4951C0.500885 13.422 0.594531 13.3842 0.720283 13.3842H3.21926C3.30488 13.3842 3.39585 13.4193 3.49217 13.487C3.58849 13.5546 3.63665 13.6466 3.63665 13.7629V25.7771C3.63665 26.0287 3.49752 26.1559 3.21926 26.1559H0.720283C0.471455 26.1559 0.345703 26.0287 0.345703 25.7771V13.7629Z" fill="white"/>
<path d="M5.39908 15.3901C5.47132 15.3279 5.55159 15.2873 5.63186 15.2711C5.7148 15.2548 5.79239 15.2467 5.86463 15.2467H7.1489C7.25057 15.2467 7.33887 15.2656 7.41378 15.3035C7.4887 15.3414 7.55024 15.3901 7.60107 15.455C7.65191 15.5172 7.69204 15.5903 7.72415 15.6687C7.75358 15.7499 7.78569 15.831 7.81244 15.9176L7.99171 16.6724C8.07732 16.4938 8.21378 16.3126 8.40374 16.1232C8.59371 15.9339 8.82916 15.7634 9.11009 15.6092C9.39103 15.455 9.71477 15.3279 10.084 15.2278C10.4532 15.1277 10.8626 15.079 11.3174 15.079C11.9649 15.079 12.5402 15.2061 13.0485 15.4577C13.5569 15.7093 13.9876 16.0529 14.3408 16.4857C14.694 16.9213 14.9642 17.4272 15.1488 18.0088C15.3335 18.5905 15.4244 19.21 15.4244 19.8701V25.5025C15.4244 25.7216 15.3789 25.8839 15.2853 25.9975C15.1917 26.1085 15.0418 26.1653 14.8385 26.1653H12.8746C12.6311 26.1653 12.4626 26.1247 12.3716 26.0408C12.2806 25.957 12.2352 25.7946 12.2352 25.5539V19.9566C12.2352 19.7104 12.179 19.4751 12.0693 19.256C11.9596 19.0341 11.8124 18.842 11.6305 18.6716C11.4485 18.5039 11.2425 18.3686 11.0151 18.2712C10.785 18.1738 10.5522 18.1251 10.3141 18.1251C10.1108 18.1251 9.90206 18.1711 9.68801 18.2631C9.47664 18.3551 9.27865 18.4822 9.10207 18.6473C8.9228 18.8096 8.77297 19.0017 8.65257 19.2235C8.53217 19.4453 8.4626 19.6834 8.44388 19.9431V25.5322C8.44388 25.6296 8.42515 25.727 8.38769 25.8244C8.35023 25.9218 8.29672 25.9948 8.22181 26.0489C8.14957 26.0949 8.07732 26.1274 8.01311 26.1436C7.9489 26.1599 7.87131 26.168 7.78836 26.168H5.86731C5.62383 26.168 5.44724 26.1085 5.34022 25.9867C5.2332 25.8677 5.17969 25.7054 5.17969 25.5052V15.8879C5.17969 15.7796 5.20377 15.6796 5.25193 15.5876C5.30009 15.4956 5.36698 15.4253 5.45259 15.3739L5.40176 15.3982L5.39908 15.3901Z" fill="white"/>
<path d="M17.6503 15.3884C17.6503 14.8555 17.7627 14.355 17.9901 13.8843C18.2175 13.4135 18.5198 13.0023 18.8998 12.6506C19.2797 12.299 19.7158 12.0203 20.2108 11.8174C20.7031 11.6145 21.2195 11.5117 21.7573 11.5117H21.9285C22.1212 11.5117 22.271 11.5712 22.3753 11.6876C22.4797 11.8039 22.5332 11.9662 22.5332 12.1745V13.8166C22.5332 14.0303 22.477 14.2062 22.3673 14.3469C22.2576 14.4875 22.1105 14.5579 21.9285 14.5579H21.7573C21.6396 14.5579 21.5245 14.5795 21.4175 14.6228C21.3105 14.6661 21.2141 14.7256 21.1285 14.7987C21.0429 14.8744 20.976 14.961 20.9252 15.0611C20.8743 15.1612 20.8503 15.2721 20.8503 15.3911V16.3812H22.1854C22.378 16.3812 22.5278 16.4354 22.6322 16.5409C22.7365 16.6464 22.79 16.8141 22.79 17.044V18.6185C22.79 18.8647 22.7365 19.046 22.6322 19.1596C22.5278 19.2732 22.378 19.3327 22.1854 19.3327H20.8503V25.4981C20.8503 25.7172 20.778 25.8795 20.6335 25.9932C20.4891 26.1041 20.3312 26.1609 20.1626 26.1609H18.3245C18.1212 26.1609 17.958 26.096 17.8349 25.9661C17.7118 25.8363 17.653 25.682 17.653 25.4981V19.33H16.7781C16.5801 19.33 16.4195 19.2732 16.2991 19.1596C16.1761 19.046 16.1172 18.8647 16.1172 18.6185V17.044C16.1172 16.8141 16.1787 16.6464 16.2991 16.5409C16.4195 16.4354 16.5801 16.3812 16.7781 16.3812H17.653V15.3911L17.6503 15.3884Z" fill="white"/>
<path d="M23.3555 11.5539C23.3555 11.3131 23.4063 11.1427 23.508 11.0426C23.6096 10.9425 23.7702 10.8911 23.9842 10.8911H25.9561C26.1541 10.8911 26.3146 10.9425 26.4377 11.0426C26.5608 11.1427 26.6197 11.3131 26.6197 11.5539V13.2312C26.6197 13.2988 26.6036 13.3746 26.5742 13.4557C26.5421 13.5369 26.4993 13.6126 26.4431 13.6884C26.3869 13.7614 26.3173 13.8236 26.2344 13.8723C26.1514 13.921 26.0605 13.9454 25.9588 13.9454H23.9869C23.5668 13.9454 23.3581 13.7073 23.3581 13.2312V11.5539H23.3555ZM23.3555 15.9067C23.3555 15.7228 23.4063 15.5659 23.508 15.4333C23.6096 15.3007 23.7702 15.2358 23.9842 15.2358H25.932C25.9989 15.2358 26.0738 15.252 26.1541 15.2818C26.2344 15.3143 26.3066 15.3603 26.3762 15.4198C26.4431 15.4793 26.5019 15.5496 26.5501 15.6308C26.5983 15.7119 26.6223 15.8012 26.6223 15.9067V25.4943C26.6223 25.7134 26.5635 25.8784 26.4431 25.9894C26.3227 26.1003 26.1541 26.1571 25.932 26.1571H23.9842C23.5642 26.1571 23.3555 25.938 23.3555 25.4943V15.9067Z" fill="white"/>
<path d="M27.8048 15.3901C27.8797 15.3279 27.9573 15.2873 28.0376 15.2711C28.1205 15.2548 28.1981 15.2467 28.2731 15.2467H29.5573C29.659 15.2467 29.7473 15.2656 29.8195 15.3035C29.8944 15.3414 29.956 15.3901 30.0068 15.455C30.0577 15.5172 30.0978 15.5903 30.1299 15.6687C30.162 15.7499 30.1914 15.831 30.2182 15.9176L30.3974 16.6724C30.4831 16.4938 30.6195 16.3126 30.8095 16.1232C30.9995 15.9339 31.2349 15.7634 31.5158 15.6092C31.7968 15.455 32.1205 15.3279 32.4897 15.2278C32.859 15.1277 33.2683 15.079 33.7232 15.079C34.3707 15.079 34.9459 15.2061 35.4543 15.4577C35.9626 15.7093 36.3934 16.0529 36.7466 16.4857C37.1024 16.9213 37.37 17.4272 37.5546 18.0088C37.7392 18.5905 37.8302 19.21 37.8302 19.8701V25.5025C37.8302 25.7216 37.782 25.8839 37.691 25.9975C37.5974 26.1085 37.4476 26.1653 37.2442 26.1653H35.2804C35.0369 26.1653 34.8683 26.1247 34.7773 26.0408C34.6864 25.957 34.6409 25.7946 34.6409 25.5539V19.9566C34.6409 19.7104 34.5847 19.4751 34.475 19.256C34.3653 19.0341 34.2182 18.842 34.0362 18.6716C33.8543 18.5039 33.6483 18.3686 33.4182 18.2712C33.1881 18.1738 32.9553 18.1251 32.7172 18.1251C32.5138 18.1251 32.3051 18.1711 32.0911 18.2631C31.8797 18.3551 31.6817 18.4822 31.5051 18.6473C31.3259 18.8096 31.176 19.0017 31.053 19.2235C30.9299 19.4453 30.8603 19.6834 30.8443 19.9431V25.5322C30.8443 25.6296 30.8255 25.727 30.7881 25.8244C30.7506 25.9218 30.6971 25.9948 30.6222 26.0489C30.5473 26.0949 30.4777 26.1274 30.4135 26.1436C30.3493 26.1599 30.2717 26.168 30.1888 26.168H28.2677C28.0242 26.168 27.8476 26.1085 27.7406 25.9867C27.6336 25.8677 27.5801 25.7054 27.5801 25.5052V15.8879C27.5801 15.7796 27.6042 15.6796 27.6523 15.5876C27.7005 15.4956 27.7674 15.4253 27.853 15.3739L27.8022 15.3982L27.8048 15.3901Z" fill="white"/>
<path d="M39.0176 11.5539C39.0176 11.3131 39.0684 11.1427 39.1701 11.0426C39.2718 10.9425 39.4296 10.8911 39.6463 10.8911H41.6209C41.8189 10.8911 41.9794 10.9425 42.1025 11.0426C42.2229 11.1427 42.2844 11.3131 42.2844 11.5539V13.2312C42.2844 13.2988 42.2684 13.3746 42.239 13.4557C42.2068 13.5369 42.164 13.6126 42.1079 13.6884C42.0517 13.7614 41.9821 13.8236 41.8992 13.8723C41.8162 13.921 41.7253 13.9454 41.6236 13.9454H39.649C39.2289 13.9454 39.0203 13.7073 39.0203 13.2312V11.5539H39.0176ZM39.0176 15.9067C39.0176 15.7228 39.0684 15.5659 39.1701 15.4333C39.2718 15.3007 39.4296 15.2358 39.6463 15.2358H41.5941C41.661 15.2358 41.7359 15.252 41.8162 15.2818C41.8965 15.3143 41.9687 15.3603 42.0383 15.4198C42.1052 15.4793 42.164 15.5496 42.2122 15.6308C42.2604 15.7119 42.2844 15.8012 42.2844 15.9067V25.4943C42.2844 25.7134 42.2256 25.8784 42.1052 25.9894C41.9848 26.1003 41.8162 26.1571 41.5941 26.1571H39.6463C39.2263 26.1571 39.0176 25.938 39.0176 25.4943V15.9067Z" fill="white"/>
<path d="M44.3568 13.5341C44.3568 13.3555 44.4157 13.223 44.5307 13.1337C44.6458 13.0444 44.8117 12.9606 45.0284 12.8794L46.9601 12.2004C46.9869 12.195 47.0163 12.1923 47.0404 12.1923H47.1126C47.3213 12.1923 47.4631 12.2545 47.5327 12.3762C47.6023 12.5007 47.6397 12.663 47.6397 12.8632L47.6317 15.2276H48.7982C48.9802 15.2276 49.1273 15.2817 49.2397 15.3899C49.3521 15.4981 49.4083 15.6632 49.4083 15.8796V17.5379C49.4083 17.7787 49.3521 17.9545 49.2397 18.0682C49.1247 18.1791 48.9775 18.2359 48.7982 18.2359H47.6317L47.6397 25.4942C47.6397 25.7133 47.5782 25.8783 47.4524 25.9893C47.3267 26.1002 47.1554 26.157 46.9334 26.157H45.0123C44.5762 26.157 44.3568 25.9379 44.3568 25.4942L44.3488 18.2359H43.4739C43.0378 18.2359 42.8184 18.0032 42.8184 17.5406V15.8823C42.8184 15.4467 43.0378 15.2276 43.4739 15.2276H44.3488L44.3568 13.5341Z" fill="white"/>
<path d="M0.353516 30.448C0.353516 30.3452 0.388297 30.2559 0.455186 30.1801C0.522076 30.1071 0.615721 30.0692 0.736122 30.0692H3.25383C3.35015 30.0692 3.43844 30.1044 3.51871 30.172C3.59898 30.2396 3.63911 30.3316 3.64714 30.448V39.8029H8.32402C8.4257 39.8029 8.51399 39.838 8.58891 39.9057C8.66382 39.9733 8.6986 40.068 8.6986 40.1897V42.4513C8.6986 42.5487 8.6665 42.638 8.59961 42.7192C8.53539 42.8003 8.44175 42.8436 8.32402 42.849H0.730771C0.481944 42.849 0.356192 42.7219 0.356192 42.4703V30.448H0.353516Z" fill="white"/>
<path d="M18.5292 41.5383C18.0289 42.0037 17.4697 42.3662 16.8463 42.6259C16.2228 42.8856 15.562 43.0181 14.8637 43.0181C14.0851 43.0181 13.352 42.8748 12.6617 42.588C11.9687 42.3012 11.364 41.9036 10.8423 41.3977C10.3205 40.8918 9.90583 40.2939 9.60082 39.6041C9.29313 38.9169 9.14062 38.1675 9.14062 37.3587C9.14062 36.8528 9.20216 36.3658 9.32256 35.8924C9.44296 35.419 9.61687 34.978 9.84162 34.5641C10.0664 34.1502 10.3366 33.7714 10.6577 33.4252C10.9787 33.0789 11.3373 32.7813 11.7332 32.5351C12.1292 32.2889 12.56 32.0969 13.0255 31.9589C13.4884 31.8209 13.9807 31.7533 14.4971 31.7533C14.968 31.7533 15.4229 31.8155 15.867 31.9427C16.3085 32.0698 16.7259 32.2457 17.1138 32.4756C17.5018 32.7056 17.8576 32.9788 18.1814 33.3007C18.5051 33.6227 18.7834 33.9716 19.0135 34.3558C19.2462 34.7372 19.4255 35.143 19.5539 35.5759C19.6797 36.0087 19.7466 36.4551 19.7466 36.9123C19.7466 37.2099 19.7412 37.4533 19.7332 37.6427C19.7252 37.8321 19.6823 37.9836 19.6021 38.0945C19.5218 38.2054 19.3907 38.2839 19.2061 38.3272C19.0215 38.3704 18.7513 38.3921 18.3954 38.3921H12.2737C12.3299 38.76 12.4449 39.0657 12.6189 39.3119C12.7928 39.5581 12.9908 39.7556 13.2182 39.9016C13.4456 40.0477 13.6864 40.1532 13.9406 40.2155C14.1948 40.2777 14.4356 40.3101 14.663 40.3101C14.8663 40.3101 15.0777 40.2885 15.2917 40.2452C15.5058 40.2019 15.7145 40.1451 15.9178 40.0721C16.1185 40.0017 16.3031 39.9179 16.4717 39.8232C16.6402 39.7285 16.774 39.6284 16.8757 39.5256C16.9667 39.4499 17.0442 39.3958 17.1085 39.3579C17.1727 39.32 17.2449 39.3011 17.3172 39.3011C17.3894 39.3011 17.467 39.3254 17.5419 39.3795C17.6168 39.4309 17.7051 39.5067 17.8014 39.6041L18.7031 40.6348C18.7646 40.7105 18.8048 40.7782 18.8208 40.8377C18.8369 40.8972 18.8476 40.9594 18.8476 41.0216C18.8476 41.1353 18.8155 41.2354 18.7539 41.3192C18.6924 41.4031 18.6175 41.4761 18.5345 41.5383H18.5292ZM14.4382 34.3747C14.2162 34.3747 14.0021 34.4207 13.7961 34.5073C13.5901 34.5966 13.3948 34.7156 13.2128 34.8644C13.0309 35.0132 12.8677 35.1836 12.7232 35.3703C12.5787 35.5596 12.461 35.7517 12.37 35.9465H16.7151C16.5947 35.7247 16.4663 35.5164 16.3272 35.327C16.1881 35.1376 16.0302 34.9726 15.8509 34.8292C15.6717 34.6858 15.4683 34.5749 15.2382 34.4938C15.0081 34.4126 14.7406 34.372 14.4356 34.372L14.4382 34.3747Z" fill="white"/>
<path d="M31.785 42.2093C31.785 42.3066 31.7689 42.3986 31.7341 42.4879C31.6994 42.5772 31.6432 42.6475 31.5629 42.6989C31.5014 42.7611 31.4264 42.8017 31.3408 42.8179C31.2552 42.8342 31.183 42.8423 31.1188 42.8423H29.4439C29.3261 42.8423 29.2271 42.8261 29.1549 42.7963C29.08 42.7638 29.0211 42.7206 28.9756 42.6637C28.9301 42.6069 28.8927 42.5366 28.8606 42.4527C28.8311 42.3689 28.7964 42.2796 28.7643 42.1822L28.6546 41.7953C28.5021 41.9495 28.3281 42.101 28.1328 42.2498C27.9375 42.3986 27.7208 42.5312 27.488 42.6502C27.2526 42.7665 27.0011 42.8639 26.7308 42.9343C26.4606 43.0046 26.1823 43.0425 25.8934 43.0425C25.377 43.0425 24.882 42.9776 24.4084 42.845C23.9349 42.7124 23.4934 42.5258 23.0814 42.2823C22.6693 42.0388 22.2974 41.7466 21.963 41.4058C21.6285 41.0649 21.3396 40.6835 21.1014 40.2669C20.8606 39.8475 20.6734 39.3957 20.5449 38.9115C20.4138 38.4273 20.3496 37.9214 20.3496 37.3938C20.3496 36.5958 20.4941 35.8572 20.7831 35.1701C21.072 34.4856 21.4653 33.8905 21.9657 33.3819C22.466 32.876 23.0519 32.4756 23.7262 32.1861C24.4004 31.8967 25.1228 31.7533 25.8961 31.7533C26.2466 31.7533 26.5757 31.7939 26.878 31.8723C27.1803 31.9535 27.4586 32.0617 27.7128 32.1997C27.9643 32.3376 28.1917 32.5027 28.3977 32.6947C28.6037 32.8868 28.7803 33.0951 28.9328 33.317L29.179 32.5351C29.2352 32.3917 29.2833 32.2754 29.3208 32.1861C29.3582 32.0969 29.3984 32.0319 29.4412 31.9887C29.484 31.9454 29.5348 31.9183 29.599 31.9021C29.6606 31.8886 29.7489 31.8804 29.8612 31.8804H31.1268C31.191 31.8804 31.2632 31.8886 31.3489 31.9048C31.4345 31.921 31.5067 31.9616 31.5709 32.0265C31.6512 32.0888 31.7074 32.1618 31.7422 32.243C31.7769 32.3241 31.793 32.4134 31.793 32.5162V42.2066L31.785 42.2093ZM23.4078 37.3938C23.4078 37.7726 23.4666 38.127 23.5817 38.457C23.6967 38.7871 23.8626 39.0711 24.0793 39.3119C24.2961 39.5527 24.5556 39.7447 24.8579 39.8854C25.1603 40.0261 25.4974 40.0964 25.8666 40.0964C26.2359 40.0964 26.5997 40.0261 26.9261 39.8854C27.2526 39.7447 27.5362 39.5554 27.777 39.3119C28.0178 39.0711 28.2051 38.7871 28.3415 38.457C28.478 38.127 28.5449 37.7726 28.5449 37.3938C28.5449 37.0151 28.478 36.6769 28.3415 36.3442C28.2051 36.0114 28.0178 35.7193 27.777 35.4677C27.5362 35.2161 27.2526 35.0159 26.9261 34.8698C26.5997 34.7237 26.2466 34.6507 25.8666 34.6507C25.4867 34.6507 25.163 34.7237 24.8579 34.8698C24.5556 35.0159 24.2961 35.2161 24.0793 35.4677C23.8653 35.7193 23.6994 36.0141 23.5817 36.3442C23.4666 36.6769 23.4078 37.0259 23.4078 37.3938Z" fill="white"/>
<path d="M32.9805 32.5637C32.9805 32.4555 32.9992 32.3608 33.0393 32.2797C33.0795 32.1985 33.1303 32.1336 33.1972 32.0822C33.2614 32.0308 33.3363 31.9929 33.4193 31.9659C33.5022 31.9415 33.5825 31.928 33.6627 31.928H34.947C35.0888 31.928 35.2012 31.9713 35.2868 32.0579C35.3724 32.1444 35.4447 32.2526 35.5035 32.3852C35.5624 32.5178 35.6159 32.6638 35.6614 32.8235C35.7069 32.9831 35.7604 33.14 35.8219 33.2888C35.9932 33.0994 36.1617 32.9127 36.3276 32.7288C36.4935 32.5448 36.6754 32.3825 36.8681 32.2391C37.0607 32.0957 37.2721 31.9794 37.5022 31.8901C37.7323 31.8009 37.9945 31.7576 38.2888 31.7576C38.5831 31.7576 38.8694 31.7819 39.1102 31.8252C39.351 31.8712 39.5784 31.9388 39.7951 32.0281C40.0119 32.1174 40.2259 32.231 40.4373 32.369C40.6486 32.5069 40.8814 32.6665 41.1302 32.8505C41.3737 32.9939 41.4968 33.1616 41.4968 33.3564C41.4968 33.4835 41.4486 33.6296 41.3523 33.7947L40.5791 35.1284C40.4266 35.3529 40.2366 35.4638 40.0092 35.4638C39.8968 35.4638 39.7684 35.4314 39.6266 35.3691C39.3831 35.1284 39.1343 34.9498 38.8828 34.8308C38.6313 34.7145 38.3423 34.6549 38.0186 34.6549C37.7965 34.6549 37.6038 34.6874 37.4353 34.7496C37.2694 34.8118 37.1169 34.9011 36.9804 35.0147C36.844 35.1311 36.7182 35.2663 36.5978 35.4287C36.4801 35.5883 36.3597 35.7668 36.242 35.9616V42.1865C36.242 42.4056 36.1885 42.5679 36.0841 42.6815C35.9798 42.7925 35.8059 42.8493 35.5624 42.8493H33.6494C33.2079 42.8493 32.9858 42.6301 32.9858 42.1865V32.5637H32.9805Z" fill="white"/>
<path d="M42.1369 32.0779C42.2118 32.0156 42.2894 31.9751 42.3696 31.9588C42.4526 31.9426 42.5302 31.9345 42.6024 31.9345H43.8867C43.9883 31.9345 44.0766 31.9534 44.1489 31.9913C44.2238 32.0292 44.2853 32.0779 44.3362 32.1428C44.387 32.205 44.4271 32.278 44.4592 32.3565C44.4914 32.4377 44.5208 32.5188 44.5475 32.6054L44.7268 33.3602C44.8124 33.1816 44.9489 33.0004 45.1388 32.811C45.3288 32.6216 45.5643 32.4512 45.8452 32.297C46.1261 32.1428 46.4499 32.0156 46.8191 31.9155C47.1883 31.8154 47.5977 31.764 48.0525 31.764C48.7 31.764 49.2753 31.8912 49.7836 32.1401C50.292 32.3917 50.7227 32.7352 51.0759 33.1681C51.4291 33.6036 51.6993 34.1095 51.8839 34.6912C52.0686 35.2728 52.1595 35.8923 52.1595 36.5524V42.1848C52.1595 42.404 52.114 42.5663 52.0204 42.6799C51.9268 42.7908 51.7769 42.8476 51.5736 42.8476H49.6097C49.3662 42.8476 49.1977 42.807 49.1067 42.7232C49.0157 42.6393 48.9703 42.477 48.9703 42.2389V36.6417C48.9703 36.3955 48.9141 36.1628 48.8044 35.941C48.6947 35.7192 48.5475 35.5244 48.3656 35.3567C48.1836 35.1889 47.9776 35.0537 47.7502 34.9563C47.5201 34.8589 47.2873 34.8102 47.0492 34.8102C46.8432 34.8102 46.6372 34.8562 46.4231 34.9482C46.2091 35.0401 46.0138 35.1673 45.8345 35.3296C45.6552 35.4919 45.5054 35.684 45.385 35.9058C45.2619 36.125 45.1924 36.3657 45.1763 36.6227V42.2119C45.1763 42.3093 45.1576 42.4067 45.1201 42.504C45.0827 42.6014 45.0265 42.6772 44.9542 42.7286C44.8793 42.7746 44.8097 42.807 44.7455 42.8233C44.6813 42.8395 44.6064 42.8476 44.5208 42.8476H42.5997C42.3563 42.8476 42.1797 42.7881 42.0726 42.6664C41.9656 42.5473 41.9121 42.385 41.9121 42.1848V32.5675C41.9121 32.4593 41.9362 32.3592 41.9844 32.2672C42.0325 32.1752 42.0994 32.1049 42.185 32.0535L42.1342 32.0779H42.1369Z" fill="white"/>
<path d="M64.8014 16.1243L54.9045 30.1864C54.9045 30.1864 54.5968 30.6138 55.172 30.7112H63.7713C63.7713 30.7112 65.5398 30.5597 66.6529 28.4604L75.3351 16.0404C75.3351 16.0404 75.4287 15.9051 75.4073 15.7915H65.0368C65.0368 15.7915 64.8549 16.0485 64.8014 16.1243Z" fill="url(#paint0_linear_232_71078)"/>
<path d="M58.3678 16.1243L48.4709 30.1864C48.4709 30.1864 48.1632 30.6138 48.7384 30.7112H51.1036C51.1036 30.7112 52.8722 30.5597 53.9852 28.4604L62.6674 16.0404C62.6674 16.0404 62.7611 15.9051 62.7397 15.7915H58.6032C58.6032 15.7915 58.4213 16.0485 58.3678 16.1243Z" fill="url(#paint1_linear_232_71078)"/>
<path d="M64.8014 15.4568L54.9045 1.3947C54.9045 1.3947 54.5968 0.967264 55.172 0.869873H63.7713C63.7713 0.869873 65.5398 1.02137 66.6529 3.12068L75.3351 15.5407C75.3351 15.5407 75.4287 15.6759 75.4073 15.7896H65.0368C65.0368 15.7896 64.8549 15.5326 64.8014 15.4568Z" fill="url(#paint2_linear_232_71078)"/>
<path d="M52.7429 22.7411L54.8833 19.9736L53.4011 15.7912C53.4011 15.7912 53.278 15.3123 52.9061 15.2501H50.5596C50.5596 15.2501 49.9228 15.2907 50.0031 15.9778L52.7402 22.7384L52.7429 22.7411Z" fill="white"/>
<defs>
<linearGradient id="paint0_linear_232_71078" x1="55.5519" y1="31.3118" x2="72.1883" y2="17.1393" gradientUnits="userSpaceOnUse">
<stop offset="0.22" stop-color="white"/>
<stop offset="0.58" stop-color="white"/>
<stop offset="0.99" stop-color="white"/>
</linearGradient>
<linearGradient id="paint1_linear_232_71078" x1="47.7859" y1="29.7589" x2="61.2922" y2="18.2521" gradientUnits="userSpaceOnUse">
<stop offset="0.22" stop-color="white"/>
<stop offset="0.58" stop-color="white"/>
<stop offset="0.99" stop-color="white"/>
</linearGradient>
<linearGradient id="paint2_linear_232_71078" x1="75.6829" y1="16.2576" x2="55.162" y2="1.74185" gradientUnits="userSpaceOnUse">
<stop offset="0.22" stop-color="white"/>
<stop offset="0.58" stop-color="white"/>
<stop offset="0.99" stop-color="white"/>
</linearGradient>
</defs>
</svg>
