<svg width="266" height="148" viewBox="0 0 266 148" fill="none" xmlns="http://www.w3.org/2000/svg">
<path d="M123 27C118.723 27 114.381 32.2212 110.25 33.3281C106.119 34.4351 99.704 32.0802 96 34.2187C92.296 36.3573 91.1493 43.1007 88.125 46.125C85.1007 49.1493 78.3573 50.296 76.2188 54C74.0802 57.7041 76.4351 64.1187 75.3281 68.25C74.2212 72.3813 69 76.723 69 81C69 85.2771 74.2212 89.6186 75.3281 93.7499C76.4351 97.8812 74.0802 104.296 76.2188 108C78.3573 111.704 85.1007 112.851 88.125 115.875C91.1493 118.899 92.296 125.643 96 127.781C99.704 129.92 106.119 127.565 110.25 128.672C114.381 129.779 118.723 135 123 135C127.277 135 131.619 129.779 135.75 128.672C139.881 127.565 146.296 129.92 150 127.781C153.704 125.643 154.851 118.899 157.875 115.875C160.899 112.851 167.643 111.704 169.781 108C171.92 104.296 169.565 97.8812 170.672 93.7499C171.779 89.6186 177 85.2771 177 81C177 76.723 171.779 72.3813 170.672 68.25C169.565 64.1187 171.92 57.7041 169.781 54C167.643 50.296 160.899 49.1493 157.875 46.125C154.851 43.1007 153.704 36.3573 150 34.2187C146.296 32.0802 139.881 34.4351 135.75 33.3281C131.619 32.2212 127.277 27 123 27Z" fill="#007BFF" stroke="#007BFF" stroke-width="2"/>
<path d="M123 36C119.436 36 115.818 40.351 112.375 41.2734C108.932 42.1959 103.587 40.2335 100.5 42.0156C97.4133 43.7977 96.4578 49.4172 93.9375 51.9375C91.4172 54.4577 85.7977 55.4134 84.0156 58.5C82.2335 61.5867 84.1959 66.9322 83.2734 70.375C82.351 73.8177 78 77.4359 78 81C78 84.5642 82.351 88.1822 83.2734 91.625C84.1959 95.0677 82.2335 100.413 84.0156 103.5C85.7977 106.587 91.4172 107.542 93.9375 110.063C96.4578 112.583 97.4133 118.202 100.5 119.984C103.587 121.767 108.932 119.804 112.375 120.727C115.818 121.649 119.436 126 123 126C126.564 126 130.182 121.649 133.625 120.727C137.068 119.804 142.413 121.767 145.5 119.984C148.587 118.202 149.542 112.583 152.062 110.063C154.583 107.542 160.202 106.587 161.984 103.5C163.766 100.413 161.804 95.0677 162.727 91.625C163.649 88.1822 168 84.5642 168 81C168 77.4359 163.649 73.8177 162.727 70.375C161.804 66.9322 163.766 61.5867 161.984 58.5C160.202 55.4134 154.583 54.4577 152.062 51.9375C149.542 49.4172 148.587 43.7977 145.5 42.0156C142.413 40.2335 137.068 42.1959 133.625 41.2734C130.182 40.351 126.564 36 123 36Z" stroke="#E9FFEE" stroke-width="2"/>
<mask id="mask0_1209_14819" style="mask-type:alpha" maskUnits="userSpaceOnUse" x="96" y="68" width="52" height="29">
<rect x="96" y="68" width="52" height="29" rx="12" fill="#D9D9D9"/>
</mask>
<g mask="url(#mask0_1209_14819)">
<path d="M117.695 88.6169L136.411 69.9002C136.734 69.578 137.116 69.4134 137.559 69.4065C138.002 69.3995 138.392 69.5641 138.728 69.9002C139.064 70.2363 139.232 70.6224 139.232 71.0585C139.232 71.4946 139.064 71.8807 138.728 72.2168L119.065 91.8793C118.674 92.271 118.217 92.4668 117.695 92.4668C117.172 92.4668 116.715 92.271 116.324 91.8793L107.278 82.8335C106.956 82.5113 106.797 82.1287 106.801 81.6856C106.805 81.2426 106.975 80.853 107.311 80.5169C107.647 80.1808 108.033 80.0127 108.47 80.0127C108.906 80.0127 109.292 80.1808 109.628 80.5169L117.695 88.6169Z" fill="white"/>
</g>
</svg>
