<svg width="20" height="20" viewBox="0 0 20 20" fill="none" xmlns="http://www.w3.org/2000/svg">
<g filter="url(#filter0_d_1198_100138)">
<path d="M4.25629 9.92815C4.25601 10.9364 4.52151 11.9208 5.02635 12.7886L4.20801 15.7533L7.26576 14.9578C8.11149 15.4146 9.05907 15.654 10.022 15.6541H10.0245C13.2034 15.6541 15.791 13.0874 15.7924 9.93266C15.793 8.40396 15.1935 6.96647 14.1044 5.88498C13.0155 4.80359 11.5673 4.20773 10.0243 4.20703C6.8451 4.20703 4.25765 6.77354 4.25634 9.92815" fill="url(#paint0_linear_1198_100138)"/>
<path d="M4.05016 9.92633C4.04983 10.9708 4.32484 11.9905 4.84769 12.8893L4 15.9603L7.16739 15.1363C8.04011 15.6084 9.0227 15.8573 10.0225 15.8577H10.0251C13.318 15.8577 15.9986 13.1987 16 9.93107C16.0006 8.34744 15.3796 6.85828 14.2516 5.73805C13.1234 4.61795 11.6234 4.00065 10.0251 4C6.73169 4 4.05147 6.6586 4.05016 9.92633ZM5.93641 12.7345L5.81814 12.5482C5.32098 11.7639 5.05858 10.8574 5.05895 9.9267C5.06003 7.21065 7.28772 5.00093 10.027 5.00093C11.3536 5.00149 12.6003 5.5146 13.5379 6.44558C14.4756 7.37665 14.9915 8.61433 14.9912 9.9307C14.99 12.6467 12.7622 14.8567 10.0251 14.8567H10.0232C9.13192 14.8563 8.25784 14.6188 7.49556 14.17L7.31416 14.0633L5.43456 14.5522L5.93641 12.7345V12.7345Z" fill="url(#paint1_linear_1198_100138)"/>
<path d="M8.53191 7.4469C8.42007 7.20025 8.30237 7.19527 8.19601 7.19095C8.10891 7.18723 8.00935 7.1875 7.90988 7.1875C7.81032 7.1875 7.64855 7.22467 7.51182 7.37281C7.37495 7.52109 6.98926 7.87941 6.98926 8.6082C6.98926 9.33704 7.52424 10.0414 7.59882 10.1403C7.67349 10.239 8.63162 11.7825 10.1491 12.3762C11.4102 12.8697 11.6668 12.7716 11.9405 12.7468C12.2143 12.7222 12.8238 12.3886 12.9482 12.0427C13.0726 11.6968 13.0726 11.4003 13.0353 11.3384C12.998 11.2767 12.8985 11.2396 12.7492 11.1656C12.5998 11.0915 11.8659 10.7331 11.729 10.6836C11.5921 10.6342 11.4926 10.6096 11.3931 10.7579C11.2935 10.906 11.0076 11.2396 10.9205 11.3384C10.8334 11.4374 10.7463 11.4497 10.597 11.3756C10.4476 11.3013 9.96685 11.1451 9.39643 10.6405C8.95262 10.2478 8.65299 9.76295 8.5659 9.61462C8.4788 9.46653 8.55657 9.38625 8.63143 9.31244C8.69851 9.24606 8.78077 9.13946 8.85549 9.05299C8.92993 8.96648 8.95477 8.90476 9.00455 8.80597C9.05438 8.70709 9.02945 8.62057 8.99218 8.54648C8.95477 8.47239 8.66466 7.73978 8.53191 7.4469Z" fill="white"/>
</g>
<defs>
<filter id="filter0_d_1198_100138" x="0" y="0" width="20" height="19.9609" filterUnits="userSpaceOnUse" color-interpolation-filters="sRGB">
<feFlood flood-opacity="0" result="BackgroundImageFix"/>
<feColorMatrix in="SourceAlpha" type="matrix" values="0 0 0 0 0 0 0 0 0 0 0 0 0 0 0 0 0 0 127 0" result="hardAlpha"/>
<feOffset/>
<feGaussianBlur stdDeviation="2"/>
<feComposite in2="hardAlpha" operator="out"/>
<feColorMatrix type="matrix" values="0 0 0 0 0 0 0 0 0 0 0 0 0 0 0 0 0 0 0.25 0"/>
<feBlend mode="normal" in2="BackgroundImageFix" result="effect1_dropShadow_1198_100138"/>
<feBlend mode="normal" in="SourceGraphic" in2="effect1_dropShadow_1198_100138" result="shape"/>
</filter>
<linearGradient id="paint0_linear_1198_100138" x1="583.426" y1="1158.84" x2="583.426" y2="4.20703" gradientUnits="userSpaceOnUse">
<stop stop-color="#1FAF38"/>
<stop offset="1" stop-color="#60D669"/>
</linearGradient>
<linearGradient id="paint1_linear_1198_100138" x1="604" y1="1200.03" x2="604" y2="4" gradientUnits="userSpaceOnUse">
<stop stop-color="#F9F9F9"/>
<stop offset="1" stop-color="white"/>
</linearGradient>
</defs>
</svg>
