<svg width="36" height="34" viewBox="0 0 36 34" fill="none" xmlns="http://www.w3.org/2000/svg">
<path d="M15.6308 18.251H7.67823C7.22707 18.251 6.86133 18.6189 6.86133 19.0727V27.072C6.86133 27.5258 7.22707 27.8937 7.67823 27.8937H15.6308C16.0819 27.8937 16.4477 27.5258 16.4477 27.072V19.0727C16.4477 18.6189 16.0819 18.251 15.6308 18.251Z" fill="#FCDE5A"/>
<path d="M4.52246 1.1333V31.0416H34.4133" stroke="#080E14" stroke-width="1.9" stroke-linecap="round" stroke-linejoin="round"/>
<path d="M4.52246 23.8535H11.6581V28.9719" stroke="#080E14" stroke-width="1.9" stroke-linecap="round" stroke-linejoin="round"/>
<path d="M6.1543 2.77783L7.5519 4.18365" stroke="#080E14" stroke-width="1.9" stroke-linecap="round" stroke-linejoin="round"/>
<path d="M10.1963 6.8457L30.0481 26.8143" stroke="#080E14" stroke-width="1.9" stroke-linecap="round" stroke-linejoin="round" stroke-dasharray="10.18 10.18"/>
<path d="M31.3779 28.1392L32.7755 29.545" stroke="#080E14" stroke-width="1.9" stroke-linecap="round" stroke-linejoin="round"/>
<path d="M25.5706 32.7646C25.4594 32.1972 25.4034 31.6203 25.4033 31.042C25.4027 29.1711 25.9762 27.3456 27.0454 25.8147C28.1147 24.2838 29.6276 23.1221 31.3776 22.4883" stroke="#080E14" stroke-width="1.9" stroke-linecap="round" stroke-linejoin="round"/>
<path d="M1.75586 9.76615C2.64897 10.0579 3.58251 10.2049 4.52153 10.2018C5.98849 10.2004 7.43296 9.83901 8.7296 9.14892C10.0263 8.45882 11.1359 7.46089 11.9623 6.2417" stroke="#080E14" stroke-width="1.9" stroke-linecap="round" stroke-linejoin="round"/>
<path d="M23.0127 10.6562L26.2508 13.9134" stroke="#080E14" stroke-width="1.9" stroke-linecap="round" stroke-linejoin="round"/>
<path d="M23.0127 13.9134L26.2508 10.6562" stroke="#080E14" stroke-width="1.9" stroke-linecap="round" stroke-linejoin="round"/>
</svg>
