<svg width="45" height="45" viewBox="0 0 45 45" fill="none" xmlns="http://www.w3.org/2000/svg">
<ellipse cx="34.831" cy="8.8144" rx="9.16698" ry="8.8144" fill="#FCDE5A"/>
<path fill-rule="evenodd" clip-rule="evenodd" d="M21.6623 5.00552L22.3341 5C22.6701 5.05281 22.817 5.07591 22.9492 5.13344C23.052 5.17816 23.1459 5.24369 23.3127 5.36015C23.7296 5.93663 23.7276 6.39888 23.7247 7.05888V7.05947C23.7243 7.13294 23.724 7.20886 23.7242 7.28766L23.727 8.17291L23.7188 9.09865L23.727 10.0244L23.7218 11.7222C23.6711 12.0996 23.6488 12.2659 23.5863 12.4149C23.5371 12.5322 23.4629 12.6389 23.3304 12.8294C22.75 13.2277 22.0712 13.337 21.3892 13.4468C21.2516 13.469 21.1139 13.4911 20.9768 13.5157C17.7635 14.1695 15.2186 15.5456 13.327 18.3165C11.5361 21.1634 10.9255 24.1207 11.4966 27.4735C12.3275 30.7636 14.1066 33.2667 16.9368 35.0561C18.3989 35.9148 19.8829 36.305 21.5418 36.5954C22.54 36.7736 22.9096 36.8396 23.1724 37.045C23.327 37.1658 23.4445 37.3348 23.6313 37.6033C23.6725 37.9108 23.695 38.0783 23.7075 38.2463C23.7223 38.4467 23.7229 38.6483 23.7242 39.09V39.0903L23.727 39.9756L23.7188 40.9014L23.727 41.8271L23.7218 43.5249C23.6718 43.8973 23.6494 44.0641 23.5858 44.2129C23.5342 44.3337 23.4554 44.4426 23.3127 44.6399C22.7885 45.0057 22.3737 45.0015 21.7651 44.9954C21.7314 44.9951 21.6972 44.9948 21.6623 44.9945L20.9923 45C20.2518 44.8893 19.9389 44.7548 19.4308 44.1994C19.3778 43.9004 19.3497 43.7416 19.3283 43.5819C19.3041 43.4009 19.2887 43.2187 19.2558 42.8301C19.1497 42.3179 19.0975 42.0655 18.9812 41.848C18.8684 41.6368 18.6953 41.4584 18.354 41.1068C17.2845 40.578 16.1494 40.2489 14.997 39.9591L14.3443 39.7713C14.0789 39.7213 13.9496 39.6968 13.8313 39.7232C13.7188 39.7483 13.6163 39.8194 13.4164 39.9581L13.0426 40.2977C12.4601 40.7441 12.1542 40.9127 11.4237 41.1075C9.65787 40.6845 8.34509 39.0385 7.29616 37.6033C7.17256 37.2498 7.10716 37.0627 7.07559 36.8699C7.0401 36.6533 7.04737 36.4295 7.06281 35.9543C7.31002 35.5789 7.56902 35.2114 7.83581 34.85C8.04999 34.5524 8.15524 34.4061 8.23407 34.2465C8.31021 34.0924 8.36171 33.9259 8.46296 33.5985C8.20136 32.6617 7.7324 31.8835 7.24036 31.0671C7.1814 30.9692 7.12211 30.8709 7.06281 30.7716C6.85829 30.2201 6.7255 29.6974 6.59609 29.1226L6.00814 29.0011L5.23969 28.8281L4.47672 28.6625C3.69218 28.3783 3.51708 28.1824 3.09571 27.4735C3.05203 27.2102 3.02942 27.0738 3.01744 26.9365C3.00457 26.7891 3.00397 26.6405 3.00273 26.3325L3 25.6782L3.0082 25L3 24.3218L3.00513 23.0726C3.11649 22.4012 3.33355 22.0744 3.79579 21.5842C4.09194 21.5307 4.24925 21.5022 4.40748 21.4807C4.58675 21.4563 4.76721 21.4407 5.15209 21.4075C5.66081 21.3014 5.91136 21.2492 6.12643 21.1312C6.335 21.0168 6.51028 20.8405 6.85554 20.4934C7.31758 19.5122 7.60935 18.4784 7.90299 17.4379L7.90313 17.4374L7.90326 17.4369L7.90435 17.4331L7.90446 17.4327C7.93497 17.3246 7.96549 17.2164 7.99624 17.1082C8.16105 16.7455 8.22457 16.6057 8.29524 16.4699C8.33945 16.385 8.38649 16.3015 8.46296 16.1659L8.14847 15.7601C7.49235 14.8563 7.24081 14.5099 7.12221 14.122C7.04847 13.8808 7.02612 13.6236 6.98988 13.2065C7.418 12.0746 8.08209 11.3541 8.92967 10.5121L9.35172 10.0787C9.96094 9.49655 10.4021 9.14201 11.2195 8.92197C11.9832 9.10336 12.3396 9.36928 12.9331 9.81206L12.9333 9.81226C12.9689 9.83877 13.0052 9.86592 13.0426 9.89372C13.3405 10.1068 13.4872 10.2117 13.6468 10.2893C13.8015 10.3646 13.9683 10.4143 14.2969 10.5121C15.2265 10.2467 15.9985 9.77274 16.809 9.27513L16.8092 9.27501L16.8103 9.27431C16.9053 9.21598 17.0008 9.15733 17.0972 9.09865C17.6435 8.89219 18.1613 8.75814 18.7307 8.6275L18.8511 8.03396L19.0224 7.25821L19.1865 6.48799C19.6442 5.20004 20.3706 4.99488 21.6623 5.00552ZM20.831 6.74289C20.7552 6.98674 20.715 7.11646 20.6832 7.24828C20.6471 7.39812 20.622 7.55066 20.5684 7.8766L20.4499 8.49959C20.4037 8.77926 20.3773 8.93934 20.3639 9.10044C20.3461 9.3158 20.3515 9.53313 20.3642 10.0409L19.8501 10.1459C18.2162 10.5138 16.8531 11.0518 15.3917 11.8768C14.7071 12.1867 14.3363 12.2717 13.5968 12.1611C13.3158 12.0096 13.1725 11.9323 13.0347 11.8461C12.8914 11.7564 12.754 11.6571 12.4738 11.4544L11.915 11.0569L11.4966 10.7477C10.3483 11.3097 9.62345 12.2002 8.83666 13.1668C8.79013 13.2239 8.74338 13.2814 8.69631 13.339L9.37998 14.5583C9.60508 14.9456 9.84973 15.3211 10.0965 15.6948C10.0698 17.0141 9.6006 17.9281 8.98984 19.0784C8.68992 19.7131 8.51559 20.3145 8.34628 20.9952C8.17666 21.5973 8.10774 21.842 7.96252 22.025C7.86312 22.1502 7.72798 22.2465 7.50035 22.4087L6.82945 22.5265C6.45942 22.5972 6.08995 22.671 5.721 22.7473L5.17042 22.8421L4.72922 22.9976C4.47729 23.7606 4.46476 24.331 4.46669 25.1325L4.46487 25.8917C4.45849 26.2269 4.45549 26.3842 4.49535 26.5296C4.53062 26.6583 4.59946 26.7775 4.72922 27.0024C4.94207 27.0788 5.05517 27.1195 5.1706 27.1515C5.30147 27.1879 5.43534 27.2133 5.721 27.2674L6.26428 27.387C6.85022 27.4767 7.40454 27.4884 7.99624 27.4735L8.10016 27.9925C8.40481 29.3712 8.78466 30.5432 9.45473 31.7875C9.89097 32.631 10.0933 33.0626 10.1402 34.0255C9.78919 34.9767 9.32214 35.6316 8.69631 36.4254C9.25309 37.5847 10.1351 38.3164 11.0926 39.1106C11.1492 39.1576 11.2062 39.2048 11.2633 39.2523C11.6087 39.0614 11.9538 38.8699 12.2988 38.6781L12.8813 38.3551C13.152 38.2139 13.2648 38.155 13.3617 38.0761C13.431 38.0198 13.4921 37.9531 13.5968 37.8389C14.9036 37.895 15.8056 38.3375 16.9486 38.956C17.5773 39.2588 18.1731 39.4348 18.8474 39.6057C19.4439 39.7769 19.6862 39.8465 19.8674 39.9931C19.9915 40.0934 20.0869 40.2299 20.2476 40.4596L20.3642 41.1369C20.4511 41.515 20.5386 41.8929 20.6268 42.2706C20.6958 42.5993 20.7642 42.928 20.831 43.2571L21.9977 43.4927V38.31L20.4517 38.0597C16.9715 37.3992 14.1445 35.572 12.0071 32.7151C9.8194 29.3841 9.36697 25.5014 10.0144 21.6191C11.0621 17.9037 13.2348 15.12 16.5581 13.2476C18.3312 12.3043 20.0279 11.9741 21.9977 11.69V6.50732C21.3151 6.45464 21.3151 6.45464 20.831 6.74289Z" fill="black"/>
<path fill-rule="evenodd" clip-rule="evenodd" d="M29.7085 10.7404C30.531 10.3414 31.0987 9.4925 31.0987 8.50971C31.0987 7.14361 30.0017 6.03616 28.6485 6.03616C27.2952 6.03616 26.1982 7.14361 26.1982 8.50971C26.1982 9.59825 26.8947 10.5226 27.8624 10.8532C27.9501 11.1737 27.9452 11.5221 27.9342 12.0392L27.9045 12.5881C27.8863 13.2319 27.8632 13.8736 27.8316 14.5169C27.3774 14.6631 27.1484 14.7369 26.9136 14.7722C26.6748 14.8081 26.4301 14.8041 25.9365 14.7962L25.3814 14.7967C24.7122 14.8072 24.0677 14.793 23.3978 14.7525C23.1936 14.5463 23.0787 14.4304 22.9408 14.3615C22.7635 14.2729 22.5482 14.262 22.056 14.2372C19.5086 14.2625 17.0879 15.3974 15.2448 17.1524C12.7965 19.8592 12.1392 22.3852 12.1574 25.9304C12.2881 28.7197 13.536 31.2545 15.5757 33.1348C17.8409 34.9216 20.0454 35.9231 22.9311 35.7187L23.3978 35.2476C23.8734 35.2188 24.3498 35.1934 24.8262 35.1947L25.3814 35.2034C25.533 35.2035 25.6847 35.2001 25.836 35.1967C26.524 35.1813 27.2035 35.1661 27.8316 35.4831C27.854 35.9383 27.8749 36.3937 27.8886 36.8492L27.9045 37.4119L27.9084 37.4831C27.9105 37.521 27.9126 37.5584 27.9147 37.5953L27.9149 37.5983C27.957 38.3451 27.987 38.8783 27.7341 39.4303C26.8337 39.7961 26.1982 40.6861 26.1982 41.7259C26.1982 43.092 27.2952 44.1994 28.6485 44.1994C30.0017 44.1994 31.0987 43.092 31.0987 41.7259C31.0987 40.6518 30.4206 39.7377 29.4731 39.3959C29.4838 38.9343 29.4926 38.4727 29.4993 38.011L29.5089 37.3089L29.5267 36.6178L29.5335 35.9506C29.5508 34.9961 29.4081 34.5439 28.765 33.8341C27.8872 33.3189 27.0739 33.313 26.0855 33.3216L25.5418 33.3335C25.1805 33.3377 24.8192 33.342 24.4579 33.3464L23.6312 33.363V32.4207C24.5122 32.4255 25.3932 32.4296 26.2742 32.4322C26.6329 32.4331 26.9916 32.4342 27.3503 32.4354C27.8806 32.4384 28.4108 32.4413 28.9411 32.4427L29.4423 32.4437C29.9967 32.4478 30.5442 32.4415 31.0986 32.4207C31.2278 32.2903 31.3081 32.2092 31.3648 32.1138C31.4582 31.9568 31.4876 31.761 31.5653 31.2428L31.0986 30.7716C30.7021 30.7429 30.3047 30.7182 29.9072 30.7183L29.4195 30.7256C28.904 30.7277 28.3885 30.7304 27.873 30.7361C27.514 30.7402 27.155 30.7434 26.796 30.7458C25.967 30.7502 25.1381 30.7556 24.3092 30.7642L23.6312 30.7716V29.1226H34.3656V32.5614C33.414 32.901 32.7322 33.8172 32.7322 34.8942C32.7322 36.2603 33.8292 37.3677 35.1825 37.3677C36.5357 37.3677 37.6328 36.2603 37.6328 34.8942C37.6328 33.9071 37.06 33.055 36.2316 32.6582C36.0919 32.2846 36.0767 31.8966 36.0584 31.304C36.0581 31.0985 36.0644 30.8846 36.0707 30.6665C36.0957 29.815 36.1225 28.9005 35.7658 28.1803C35.4148 27.879 35.1981 27.693 34.9493 27.5782C34.5478 27.3931 34.0626 27.3932 32.7946 27.3935L32.0858 27.4046C31.3322 27.4077 30.5786 27.4117 29.825 27.4203C29.301 27.4264 28.777 27.4312 28.253 27.4348C26.8485 27.4425 25.4441 27.4532 24.0397 27.4688L23.6312 27.4736V25.8245C25.3932 25.8426 27.1553 25.8625 28.9173 25.8853L29.1236 25.888H29.1238C29.9528 25.8989 30.7818 25.9099 31.6108 25.9186C32.4909 25.9273 33.3709 25.9366 34.251 25.9488C34.5851 25.9536 34.9193 25.9582 35.2535 25.9626C35.5811 25.9653 35.9086 25.968 36.2362 25.9708L37.1421 25.985H37.1424C37.5598 25.9833 37.7516 25.9825 37.9427 25.9945C38.0543 26.0015 38.1657 26.0129 38.3218 26.031C38.7091 26.8824 39.561 27.4735 40.5497 27.4735C41.903 27.4735 43 26.3661 43 25C43 23.6339 41.903 22.5265 40.5497 22.5265C39.5684 22.5265 38.7217 23.1089 38.3305 23.95C38.2026 23.9946 38.0573 24.0315 37.8869 24.0622L37.0892 24.0685C36.6266 24.0757 36.1641 24.0826 35.7015 24.0832C35.3714 24.0834 35.0413 24.0853 34.7112 24.0888C33.8457 24.1 32.9803 24.1081 32.1148 24.1117C31.218 24.1153 30.3213 24.1229 29.4246 24.1322C27.4935 24.1526 25.5624 24.1666 23.6312 24.1755V22.5265C24.9231 22.5314 26.2151 22.5354 27.5071 22.538C28.0334 22.539 28.5596 22.54 29.0859 22.5412C29.8634 22.5442 30.641 22.5472 31.4185 22.5485L32.1542 22.5495L32.8739 22.5532L33.5392 22.5532C34.4282 22.5556 34.8238 22.466 35.5552 21.9366C35.7486 21.6804 35.876 21.5118 35.959 21.3232C36.119 20.9599 36.1145 20.5227 36.1013 19.2432L36.1002 19.1804C36.0993 19.1222 36.0982 19.0651 36.0971 19.0092C36.082 18.2026 36.0711 17.6264 36.4082 17.0125C36.8357 16.7627 37.1816 16.3862 37.3953 15.9339L37.3993 15.9304L37.4001 15.9236C37.5493 15.604 37.6328 15.247 37.6328 14.8702C37.6328 13.5041 36.5357 12.3967 35.1825 12.3967C33.8292 12.3967 32.7322 13.5041 32.7322 14.8702C32.7322 15.9472 33.414 16.8634 34.3656 17.203V20.8775H23.6312V19.2284C24.5084 19.2381 25.3856 19.2462 26.2628 19.2514C26.6205 19.2534 26.9781 19.2555 27.3357 19.2579C27.8636 19.2639 28.3914 19.2698 28.9193 19.2724L29.4195 19.2744C29.7331 19.2792 30.0466 19.2818 30.3602 19.2819C30.7483 19.2538 30.9324 19.2405 31.0875 19.1657C31.2275 19.0983 31.3439 18.9808 31.5653 18.7573L31.332 17.5794H23.6312V16.6371C24.086 16.6416 24.5409 16.6458 24.9958 16.6486L25.5564 16.6518L26.106 16.6578L26.6393 16.6601C27.6208 16.6676 28.2938 16.6113 29.0504 15.9442C29.2361 15.6215 29.3576 15.4104 29.4362 15.1842C29.5848 14.7567 29.5803 14.2749 29.5672 12.8826C29.5658 12.7825 29.5639 12.684 29.562 12.5868L29.562 12.586L29.562 12.5854C29.549 11.9152 29.5373 11.3112 29.7085 10.7404ZM16.1856 18.7214C14.2389 20.8156 13.711 23.035 13.7654 25.8485C13.949 28.4542 15.2082 30.3783 17.0534 32.1262C18.6239 33.4489 19.9614 33.8127 21.9977 34.0697V15.9304C19.687 15.9304 17.7968 17.1448 16.1856 18.7214ZM29.9319 8.50971C29.9319 9.22529 29.3573 9.80537 28.6485 9.80537C27.9396 9.80537 27.365 9.22529 27.365 8.50971C27.365 7.79413 27.9396 7.21404 28.6485 7.21404C29.3573 7.21404 29.9319 7.79413 29.9319 8.50971ZM35.1825 16.1659C35.8913 16.1659 36.466 15.5858 36.466 14.8702C36.466 14.1547 35.8913 13.5746 35.1825 13.5746C34.4737 13.5746 33.899 14.1547 33.899 14.8702C33.899 15.5858 34.4737 16.1659 35.1825 16.1659ZM41.8332 25C41.8332 25.7156 41.2586 26.2957 40.5497 26.2957C39.8409 26.2957 39.2663 25.7156 39.2663 25C39.2663 24.2844 39.8409 23.7043 40.5497 23.7043C41.2586 23.7043 41.8332 24.2844 41.8332 25ZM35.1825 36.1898C35.8913 36.1898 36.466 35.6098 36.466 34.8942C36.466 34.1786 35.8913 33.5985 35.1825 33.5985C34.4737 33.5985 33.899 34.1786 33.899 34.8942C33.899 35.6098 34.4737 36.1898 35.1825 36.1898ZM29.9319 41.7259C29.9319 42.4414 29.3573 43.0215 28.6485 43.0215C27.9396 43.0215 27.365 42.4414 27.365 41.7259C27.365 41.0103 27.9396 40.4302 28.6485 40.4302C29.3573 40.4302 29.9319 41.0103 29.9319 41.7259Z" fill="black"/>
</svg>
