<svg width="24" height="24" viewBox="0 0 24 24" fill="none" xmlns="http://www.w3.org/2000/svg">
<path d="M12.1328 20.0447C13.2726 19.2179 14.6336 18.7507 16.0408 18.703C17.4481 18.6553 18.8375 19.0294 20.0307 19.7772C20.0702 19.8007 20.1153 19.8134 20.1613 19.814C20.2073 19.8145 20.2527 19.8029 20.2928 19.7803C20.3329 19.7576 20.3663 19.7248 20.3896 19.6851C20.4129 19.6454 20.4253 19.6003 20.4256 19.5542V9.67472C20.426 9.52053 20.3871 9.36878 20.3124 9.23388C20.2377 9.09899 20.1297 8.98542 19.9988 8.90398C18.8699 8.17014 17.5493 7.78646 16.203 7.80119C14.8566 7.81592 13.5447 8.22841 12.4322 8.98679C12.3416 9.04492 12.2672 9.12507 12.2159 9.21976C12.1647 9.31444 12.1383 9.42056 12.1392 9.52822L12.1328 20.0447Z" fill="#FCDE5A"/>
<path d="M4.875 13.5672V8.70703H7.9195V13.5672" stroke="#080E14" stroke-width="0.76437" stroke-linecap="round" stroke-linejoin="round"/>
<path d="M7.9195 11.4922H4.875" stroke="#080E14" stroke-width="0.76437" stroke-linecap="round" stroke-linejoin="round"/>
<path d="M16.3398 8.64844H19.3843L16.3653 13.6296H19.3843" stroke="#080E14" stroke-width="0.76437" stroke-linecap="round" stroke-linejoin="round"/>
<path d="M12.1326 6.1782V4.59213C10.5232 3.38564 8.57672 2.713 6.56588 2.66847C4.68808 2.64936 2.84581 3.18083 1.26668 4.19721C1.08582 4.31022 0.936236 4.46684 0.831631 4.6527C0.727026 4.83855 0.670752 5.0477 0.667969 5.26096V19.6056C2.34011 18.4079 4.34348 17.7601 6.40028 17.752C8.45743 17.7579 10.4614 18.4059 12.1326 19.6056L12.2281 12.7518" stroke="#080E14" stroke-width="0.76437" stroke-linecap="round" stroke-linejoin="round"/>
<path d="M12.1328 19.6042C13.8012 18.3989 15.807 17.7502 17.8651 17.7502C19.9233 17.7502 21.929 18.3989 23.5974 19.6042V5.2595C23.5974 5.0486 23.545 4.841 23.445 4.65533C23.3449 4.46967 23.2003 4.31176 23.0242 4.19576C21.3872 3.13632 19.4638 2.60652 17.5152 2.67832C15.5667 2.75011 13.6874 3.42002 12.1328 4.59705V6.74366" stroke="#080E14" stroke-width="0.76437" stroke-linecap="round" stroke-linejoin="round"/>
<path d="M0.667969 19.6122V21.5231C2.3387 20.3998 4.2681 19.7209 6.27403 19.5504C8.27997 19.3799 10.2963 19.7234 12.1326 20.5485V19.6122" stroke="#080E14" stroke-width="0.76437" stroke-linecap="round" stroke-linejoin="round"/>
<path d="M12.1328 19.6102V20.5593C13.9644 19.7395 15.9734 19.3955 17.9734 19.5593C18.5507 19.6067 19.1235 19.6982 19.6867 19.8332" stroke="#080E14" stroke-width="0.76437" stroke-linecap="round" stroke-linejoin="round"/>
<path d="M23.6031 19.6133V21.5242C23.1009 21.1857 22.5727 20.8875 22.0234 20.6324" stroke="#080E14" stroke-width="0.76437" stroke-linecap="round" stroke-linejoin="round"/>
</svg>
