<svg width="100" height="100" viewBox="0 0 100 100" fill="none" xmlns="http://www.w3.org/2000/svg">
<g clip-path="url(#clip0_2220_6896)">
<path d="M93.0096 99.8741H16.1859C15.8324 99.8711 15.485 99.7647 15.1748 99.5647C14.8647 99.3646 14.6013 99.077 14.4084 98.7276C14.2155 98.3782 14.0989 97.9779 14.0691 97.5624C14.0394 97.1469 14.0973 96.7291 14.2378 96.3465L21.2068 78.0611C21.371 77.6208 21.6397 77.246 21.9805 76.9818C22.3213 76.7176 22.7196 76.5754 23.1274 76.5724H86.2327C86.6405 76.5754 87.0388 76.7176 87.3796 76.9818C87.7204 77.246 87.9891 77.6208 88.1533 78.0611L95.1223 96.3465C95.2695 96.7445 95.3272 97.1806 95.2898 97.6126C95.2524 98.0446 95.1211 98.4579 94.9087 98.8126C94.6963 99.1672 94.4099 99.4513 94.0772 99.6373C93.7446 99.8232 93.3768 99.9048 93.0096 99.8741Z" fill="#FCDE5A"/>
<path d="M14.755 1.61817H83.7043C84.3745 1.61817 85.0381 1.77388 85.6573 2.07639C86.2764 2.3789 86.839 2.82231 87.3129 3.38128C87.7868 3.94025 88.1627 4.60385 88.4192 5.33418C88.6756 6.06451 88.8076 6.84728 88.8076 7.63778V64.727H9.62427V7.63778C9.62426 6.84455 9.75716 6.05913 10.0153 5.32668C10.2735 4.59423 10.6519 3.92919 11.1287 3.36979C11.6055 2.8104 12.1713 2.36767 12.7936 2.06707C13.416 1.76646 14.0825 1.61391 14.755 1.61817Z" stroke="#080E14" stroke-width="3.22" stroke-linecap="round" stroke-linejoin="round"/>
<path d="M38.2791 43.9187L29.0876 33.2387L38.2791 22.5911" stroke="#080E14" stroke-width="3.22" stroke-linecap="round" stroke-linejoin="round"/>
<path d="M60.1899 22.5911L69.3814 33.2387L60.1899 43.9187" stroke="#080E14" stroke-width="3.22" stroke-linecap="round" stroke-linejoin="round"/>
<path d="M51.5569 18.4446L46.5359 47.8953" stroke="#080E14" stroke-width="3.22" stroke-linecap="round" stroke-linejoin="round"/>
<path d="M9.63038 90.4559H98.6362L88.8412 64.6946H9.63038L1.37183 86.4752" stroke="#080E14" stroke-width="3.22" stroke-linecap="round" stroke-linejoin="round"/>
<path d="M14.7261 14.4371V40.0366" stroke="#080E14" stroke-width="3.22" stroke-linecap="round" stroke-linejoin="round"/>
<path d="M74.9802 58.7083H83.4857V44.7273" stroke="#080E14" stroke-width="3.22" stroke-linecap="round" stroke-linejoin="round"/>
</g>
<defs>
<clipPath id="clip0_2220_6896">
<rect width="100.008" height="99.8737" fill="white"/>
</clipPath>
</defs>
</svg>
