<svg width="24" height="23" viewBox="0 0 24 23" fill="none" xmlns="http://www.w3.org/2000/svg">
<path d="M9.5458 16.1469L10.3147 16.8833C10.4216 16.9863 10.5067 17.1098 10.5649 17.2464C10.6231 17.383 10.6533 17.5298 10.6536 17.6783C10.6536 17.8938 10.7383 18.1007 10.8894 18.2543C11.0406 18.4079 11.2461 18.4959 11.4616 18.4994H14.0682C14.2837 18.4959 14.4892 18.4079 14.6404 18.2543C14.7915 18.1007 14.8763 17.8938 14.8762 17.6783C14.8766 17.5298 14.9067 17.383 14.9649 17.2464C15.0232 17.1098 15.1082 16.9863 15.2151 16.8833L15.984 16.1469C16.5064 15.6597 16.9251 15.0722 17.2151 14.4194C17.5051 13.7666 17.6604 13.0621 17.6718 12.3479V12.2892C17.6718 9.87813 15.4823 7.89062 12.7779 7.89062C10.0736 7.89062 7.89062 9.87813 7.89062 12.2892V12.3479C7.89781 13.0597 8.04804 13.7629 8.33238 14.4155C8.61672 15.0681 9.02937 15.6569 9.5458 16.1469Z" fill="#FCDE5A"/>
<path d="M15.0764 17.7969H9.30289C8.82063 17.7969 8.42969 18.1864 8.42969 18.6668C8.42969 19.1473 8.82063 19.5368 9.30289 19.5368H15.0764C15.5587 19.5368 15.9496 19.1473 15.9496 18.6668C15.9496 18.1864 15.5587 17.7969 15.0764 17.7969Z" stroke="#080E14" stroke-width="0.781971" stroke-linecap="round" stroke-linejoin="round"/>
<path d="M9.5 20.8203H14.8695" stroke="#080E14" stroke-width="0.781971" stroke-linecap="round" stroke-linejoin="round"/>
<path d="M10.2188 22.0078H14.1677" stroke="#080E14" stroke-width="0.781971" stroke-linecap="round" stroke-linejoin="round"/>
<path d="M16.4225 10.0153C16.718 10.1671 16.9975 10.3483 17.2566 10.5562C17.5508 10.7943 17.8096 11.073 18.0255 11.3838C18.3423 11.8272 18.552 12.338 18.6381 12.8761C18.7187 13.2921 18.7129 13.7202 18.621 14.1339C18.529 14.5476 18.353 14.9379 18.1037 15.2806C17.1523 16.4927 15.0866 16.8055 13.4771 15.7237C13.3077 15.6032 13.1697 15.4438 13.0745 15.2591C12.9793 15.0743 12.9296 14.8694 12.9297 14.6616V6.08594" stroke="#080E14" stroke-width="0.781971" stroke-linecap="round" stroke-linejoin="round"/>
<path d="M18.0453 11.3656C18.527 11.1405 18.9312 10.7777 19.2069 10.3231C19.4825 9.86844 19.6174 9.34233 19.5944 8.81114C19.5714 8.27994 19.3916 7.76746 19.0776 7.33837C18.7636 6.90928 18.3296 6.58279 17.8303 6.40012C18.388 5.75887 18.7086 4.94547 18.7382 4.0961C18.7679 3.24673 18.5049 2.41295 17.9932 1.73436C17.4787 1.1141 16.7755 0.679057 15.9908 0.49553C15.2061 0.312003 14.3829 0.390057 13.6467 0.717797C13.4284 0.821754 13.2446 0.986462 13.1175 1.19219C12.9904 1.39791 12.9252 1.63593 12.9299 1.87772V3.12236" stroke="#080E14" stroke-width="0.781971" stroke-linecap="round" stroke-linejoin="round"/>
<path d="M8.47747 7.18372C7.45637 6.85361 6.56202 6.21642 5.91652 5.35912C5.53376 4.69373 5.38971 3.91758 5.50821 3.15916C5.62672 2.40074 6.00067 1.70552 6.56816 1.18861C7.10529 0.732474 7.77351 0.458878 8.47631 0.40734C9.1791 0.355802 9.88008 0.52899 10.478 0.901888C10.6243 0.990904 10.7451 1.11635 10.8285 1.26596C10.9118 1.41558 10.955 1.58426 10.9537 1.75554V14.6255C10.9571 14.8651 10.8711 15.0974 10.7126 15.2771C9.23338 16.9062 6.95263 16.8736 6.00775 15.8441C5.20623 14.9709 5.19971 13.2049 6.27492 11.8039C5.80431 11.6004 5.38479 11.2949 5.0467 10.9095C4.70861 10.5241 4.46039 10.0684 4.31999 9.57525C4.18486 8.81973 4.30329 8.04073 4.65687 7.35952C5.01044 6.6783 5.57931 6.13309 6.27492 5.80876" stroke="#080E14" stroke-width="0.781971" stroke-linecap="round" stroke-linejoin="round"/>
<path d="M20.3125 13.5625L22.5607 14.6833" stroke="#080E14" stroke-width="0.781971" stroke-linecap="round" stroke-linejoin="round"/>
<path d="M20.4531 4.14772L22.2842 2.10156" stroke="#080E14" stroke-width="0.781971" stroke-linecap="round" stroke-linejoin="round"/>
<path d="M21.2344 8.48438H23.6194" stroke="#080E14" stroke-width="0.781971" stroke-linecap="round" stroke-linejoin="round"/>
<path d="M3.70129 13.5703L1.45312 14.6977" stroke="#080E14" stroke-width="0.781971" stroke-linecap="round" stroke-linejoin="round"/>
<path d="M3.55768 4.15553L1.72656 2.10938" stroke="#080E14" stroke-width="0.781971" stroke-linecap="round" stroke-linejoin="round"/>
<path d="M2.78345 8.49219H0.398438" stroke="#080E14" stroke-width="0.781971" stroke-linecap="round" stroke-linejoin="round"/>
</svg>
