<svg width="26" height="23" viewBox="0 0 26 23" fill="none" xmlns="http://www.w3.org/2000/svg">
<path d="M10.7304 12.1953H5.32658C5.02001 12.1953 4.77148 12.4438 4.77148 12.7504V18.1542C4.77148 18.4608 5.02001 18.7093 5.32658 18.7093H10.7304C11.0369 18.7093 11.2855 18.4608 11.2855 18.1542V12.7504C11.2855 12.4438 11.0369 12.1953 10.7304 12.1953Z" fill="#FCDE5A"/>
<path d="M3.18359 0.632812V20.8368H23.4946" stroke="#080E14" stroke-width="0.802542" stroke-linecap="round" stroke-linejoin="round"/>
<path d="M3.18359 15.9805H8.03229V19.4381" stroke="#080E14" stroke-width="0.802542" stroke-linecap="round" stroke-linejoin="round"/>
<path d="M4.29297 1.74219L5.24264 2.69186" stroke="#080E14" stroke-width="0.802542" stroke-linecap="round" stroke-linejoin="round"/>
<path d="M7.03711 4.49219L20.5265 17.9816" stroke="#080E14" stroke-width="0.802542" stroke-linecap="round" stroke-linejoin="round" stroke-dasharray="2.54 2.54"/>
<path d="M21.4297 18.875L22.3794 19.8247" stroke="#080E14" stroke-width="0.802542" stroke-linecap="round" stroke-linejoin="round"/>
<path d="M17.4848 22.0006C17.4092 21.6173 17.3711 21.2276 17.3711 20.8369C17.3707 19.573 17.7604 18.3398 18.4869 17.3057C19.2135 16.2715 20.2415 15.4868 21.4306 15.0586" stroke="#080E14" stroke-width="0.802542" stroke-linecap="round" stroke-linejoin="round"/>
<path d="M1.30273 6.46291C1.90961 6.65998 2.54395 6.75931 3.18202 6.75717C4.17883 6.75626 5.16035 6.51213 6.04143 6.04595C6.92251 5.57977 7.67652 4.90563 8.23804 4.08203" stroke="#080E14" stroke-width="0.802542" stroke-linecap="round" stroke-linejoin="round"/>
<path d="M15.7461 7.06641L17.9464 9.26671" stroke="#080E14" stroke-width="0.802542" stroke-linecap="round" stroke-linejoin="round"/>
<path d="M15.7461 9.26671L17.9464 7.06641" stroke="#080E14" stroke-width="0.802542" stroke-linecap="round" stroke-linejoin="round"/>
</svg>
