<svg width="23" height="25" viewBox="0 0 23 25" fill="none" xmlns="http://www.w3.org/2000/svg">
<g clip-path="url(#clip0_1_50066)">
<path d="M15.5906 21.8804C17.2824 21.8804 18.6539 20.509 18.6539 18.8172C18.6539 17.1254 17.2824 15.7539 15.5906 15.7539C13.8988 15.7539 12.5273 17.1254 12.5273 18.8172C12.5273 20.509 13.8988 21.8804 15.5906 21.8804Z" fill="#FCDE5A"/>
<path d="M16.1288 13.168C16.03 19.446 14.2777 24.4527 12.1367 24.4527C9.99567 24.4527 8.24335 19.446 8.14453 13.168" stroke="#080E14" stroke-width="0.790521" stroke-linecap="round" stroke-linejoin="round"/>
<path d="M15.1712 4.86514C15.0076 4.28049 14.8029 3.70813 14.5586 3.15234" stroke="#080E14" stroke-width="0.790521" stroke-linecap="round" stroke-linejoin="round"/>
<path d="M8.60547 7.05586C9.26424 3.2943 10.5818 0.738281 12.1431 0.738281C12.3957 0.753966 12.6425 0.820383 12.8689 0.933567C13.0952 1.04675 13.2965 1.20438 13.4606 1.39705" stroke="#080E14" stroke-width="0.790521" stroke-linecap="round" stroke-linejoin="round"/>
<path d="M15.5898 18.5629C18.9825 19.7223 21.6703 19.7882 22.4081 18.5168C23.1459 17.2454 21.7493 14.9397 19.0418 12.5879C18.4291 12.0477 17.7243 11.5141 17.0128 10.9805" stroke="#080E14" stroke-width="0.790521" stroke-linecap="round" stroke-linejoin="round"/>
<path d="M8.99878 6.71591C5.46119 5.45766 2.62849 5.34567 1.87091 6.66321C1.11333 7.98075 2.52968 10.2271 5.23721 12.5921C6.18225 13.4027 7.1791 14.1509 8.22143 14.8319" stroke="#080E14" stroke-width="0.790521" stroke-linecap="round" stroke-linejoin="round"/>
<path d="M15.2539 6.71591C18.7915 5.45766 21.6242 5.34567 22.3818 6.66321C23.1394 7.98075 21.723 10.2271 19.0155 12.5921C18.5609 12.9874 18.0603 13.3892 17.5332 13.7779" stroke="#080E14" stroke-width="0.790521" stroke-linecap="round" stroke-linejoin="round"/>
<path d="M2.73828 15.2307C3.46668 14.2616 4.30201 13.3777 5.22842 12.5957C5.84108 12.0555 6.54596 11.5219 7.25743 10.9883" stroke="#080E14" stroke-width="0.790521" stroke-linecap="round" stroke-linejoin="round"/>
<path d="M1.77576 17.0508C1.69121 17.2903 1.6558 17.5445 1.67165 17.798C1.6875 18.0515 1.75427 18.2993 1.86799 18.5264C2.48723 19.5936 4.50306 19.7188 7.13813 19.0403" stroke="#080E14" stroke-width="0.790521" stroke-linecap="round" stroke-linejoin="round"/>
<path d="M13.504 16.4102H13.4961" stroke="#080E14" stroke-width="0.790521" stroke-linecap="round" stroke-linejoin="round"/>
<path d="M17.0807 10.1426V10.2216C17.0787 10.4842 17.0567 10.7463 17.0149 11.0056C16.8208 12.1781 16.2467 13.2544 15.3811 14.0688L14.5972 14.7935C14.4876 14.8965 14.4006 15.0211 14.3416 15.1594C14.2826 15.2977 14.253 15.4468 14.2546 15.5972C14.2543 15.7611 14.2062 15.9213 14.1163 16.0583C14.0478 16.1617 13.9562 16.2477 13.8487 16.3094C13.7412 16.3712 13.6208 16.407 13.497 16.414H10.862C10.7314 16.4132 10.6031 16.3804 10.4882 16.3183C10.3734 16.2563 10.2755 16.167 10.2032 16.0583C10.1133 15.9213 10.0652 15.7611 10.0649 15.5972C10.0649 15.447 10.0346 15.2984 9.97571 15.1603C9.91684 15.0222 9.83064 14.8974 9.7223 14.7935L8.93837 14.0491C8.07275 13.2347 7.49872 12.1584 7.30462 10.9858C7.25051 10.7341 7.21528 10.4786 7.19922 10.2216V10.1623C7.21014 9.49047 7.37854 8.83053 7.69089 8.23558C8.00324 7.64063 8.45082 7.12726 8.99765 6.73675C9.91277 6.07743 11.0121 5.72266 12.14 5.72266C13.2679 5.72266 14.3672 6.07743 15.2823 6.73675C15.8265 7.12528 16.2724 7.6355 16.5847 8.22678C16.8969 8.81806 17.0668 9.47407 17.0807 10.1426Z" stroke="#080E14" stroke-width="0.790521" stroke-linecap="round" stroke-linejoin="round"/>
<path d="M14.0882 18.0003C13.9709 18.4257 13.7173 18.8009 13.3662 19.0683C13.0152 19.3357 12.5861 19.4805 12.1448 19.4805C11.7035 19.4805 11.2744 19.3357 10.9234 19.0683C10.5723 18.8009 10.3187 18.4257 10.2014 18.0003C10.1871 17.9349 10.1881 17.8671 10.2044 17.8021C10.2206 17.7372 10.2516 17.6769 10.2949 17.6259C10.3383 17.5748 10.3928 17.5345 10.4543 17.5081C10.5158 17.4816 10.5826 17.4697 10.6494 17.4733H13.6666C13.7312 17.4738 13.7949 17.4887 13.8531 17.5169C13.9113 17.5451 13.9624 17.586 14.0028 17.6364C14.0432 17.6869 14.0718 17.7458 14.0866 17.8087C14.1013 17.8717 14.1019 17.9371 14.0882 18.0003Z" stroke="#080E14" stroke-width="0.790521" stroke-linecap="round" stroke-linejoin="round"/>
<path d="M9.84766 10.7148L11.4287 16.4264" stroke="#080E14" stroke-width="0.790521" stroke-linecap="round" stroke-linejoin="round"/>
<path d="M14.4443 10.7148L12.8633 16.4264" stroke="#080E14" stroke-width="0.790521" stroke-linecap="round" stroke-linejoin="round"/>
<path d="M10.043 11.4414C10.6227 11.9146 11.3436 12.1812 12.0917 12.199C12.8687 12.2104 13.6248 11.9467 14.2261 11.4546" stroke="#080E14" stroke-width="0.790521" stroke-linecap="round" stroke-linejoin="round"/>
<path d="M2.19442 17.1349C2.76563 17.1349 3.22869 16.6719 3.22869 16.1007C3.22869 15.5295 2.76563 15.0664 2.19442 15.0664C1.62321 15.0664 1.16016 15.5295 1.16016 16.1007C1.16016 16.6719 1.62321 17.1349 2.19442 17.1349Z" stroke="#080E14" stroke-width="0.790521" stroke-linecap="round" stroke-linejoin="round"/>
<path d="M14.0772 3.28337C14.6484 3.28337 15.1115 2.82032 15.1115 2.24911C15.1115 1.6779 14.6484 1.21484 14.0772 1.21484C13.506 1.21484 13.043 1.6779 13.043 2.24911C13.043 2.82032 13.506 3.28337 14.0772 3.28337Z" stroke="#080E14" stroke-width="0.790521" stroke-linecap="round" stroke-linejoin="round"/>
</g>
<defs>
<clipPath id="clip0_1_50066">
<rect width="22.24" height="24.5062" fill="white" transform="translate(0.761719 0.347656)"/>
</clipPath>
</defs>
</svg>
