<svg width="20" height="20" viewBox="0 0 20 20" fill="none" xmlns="http://www.w3.org/2000/svg">
<mask id="mask0_3611_28332" style="mask-type:alpha" maskUnits="userSpaceOnUse" x="0" y="0" width="20" height="20">
<rect width="20" height="20" fill="#D9D9D9"/>
</mask>
<g mask="url(#mask0_3611_28332)">
<path d="M9.99721 17.9192C8.90207 17.9192 7.87291 17.7115 6.90973 17.2959C5.94654 16.8803 5.10869 16.3164 4.39619 15.604C3.68369 14.8916 3.11963 14.0539 2.704 13.0909C2.28838 12.1279 2.08057 11.0989 2.08057 10.004C2.08057 8.90904 2.28834 7.87984 2.7039 6.9164C3.11946 5.95294 3.68341 5.11487 4.39578 4.40219C5.10815 3.68949 5.94585 3.12528 6.90888 2.70954C7.87189 2.29381 8.90087 2.08594 9.99582 2.08594C11.0908 2.08594 12.12 2.29375 13.0834 2.70938C14.0469 3.125 14.8849 3.68906 15.5976 4.40156C16.3103 5.11406 16.8745 5.95191 17.2903 6.91511C17.706 7.87829 17.9139 8.90745 17.9139 10.0026C17.9139 10.3776 17.8904 10.7456 17.8433 11.1068C17.7963 11.4679 17.7215 11.822 17.619 12.1693C17.4673 12.0111 17.2963 11.8757 17.1062 11.763C16.916 11.6503 16.7082 11.5715 16.4828 11.5266C16.5458 11.2809 16.5918 11.0317 16.6206 10.779C16.6495 10.5264 16.6639 10.2675 16.6639 10.0026C16.6639 8.14147 16.018 6.56508 14.7264 5.27342C13.4347 3.98175 11.8583 3.33592 9.99721 3.33592C8.1361 3.33592 6.55971 3.98175 5.26805 5.27342C3.97638 6.56508 3.33055 8.14147 3.33055 10.0026C3.33055 11.8637 3.97638 13.4401 5.26805 14.7318C6.55971 16.0234 8.1361 16.6693 9.99721 16.6693C10.7269 16.6693 11.4213 16.5595 12.0803 16.3399C12.7393 16.1203 13.3452 15.8129 13.8979 15.4176C14.0271 15.5896 14.1786 15.7446 14.3522 15.8824C14.5258 16.0202 14.7141 16.1297 14.9171 16.2109C14.2408 16.7483 13.4872 17.1674 12.6564 17.4681C11.8256 17.7689 10.9392 17.9192 9.99721 17.9192ZM15.9191 14.7942C15.6859 14.7942 15.4887 14.7137 15.3273 14.5527C15.166 14.3917 15.0854 14.1946 15.0854 13.9614C15.0854 13.7282 15.1659 13.5309 15.3269 13.3696C15.4879 13.2083 15.685 13.1276 15.9182 13.1276C16.1514 13.1276 16.3487 13.2081 16.51 13.3691C16.6713 13.5302 16.752 13.7273 16.752 13.9605C16.752 14.1937 16.6715 14.3909 16.5105 14.5523C16.3494 14.7136 16.1523 14.7942 15.9191 14.7942ZM10.6222 9.74938L13.3305 12.4577C13.4459 12.5731 13.505 12.7181 13.5076 12.8928C13.5103 13.0675 13.4513 13.2152 13.3305 13.3359C13.2098 13.4566 13.0635 13.517 12.8915 13.517C12.7195 13.517 12.5731 13.4566 12.4524 13.3359L9.59819 10.4818C9.52019 10.4038 9.46303 10.3188 9.42671 10.2268C9.39039 10.1348 9.37223 10.0398 9.37223 9.94169V6.4609C9.37223 6.28383 9.43215 6.1354 9.55198 6.01561C9.67183 5.89581 9.82033 5.83592 9.99748 5.83592C10.1747 5.83592 10.3231 5.89581 10.4427 6.01561C10.5624 6.1354 10.6222 6.28383 10.6222 6.4609V9.74938Z" fill="#52565B"/>
</g>
</svg>
