<svg width="20" height="20" viewBox="0 0 20 20" fill="none" xmlns="http://www.w3.org/2000/svg">
<mask id="mask0_3611_28338" style="mask-type:alpha" maskUnits="userSpaceOnUse" x="0" y="0" width="20" height="20">
<rect width="20" height="20" fill="#D9D9D9"/>
</mask>
<g mask="url(#mask0_3611_28338)">
</g>
<path d="M10.4246 12.9961H6.56567C4.63623 12.9961 3.99512 11.9985 3.99512 10.9961V6.99609C3.99512 5.49491 4.63623 4.99609 6.56567 4.99609H10.4246C12.354 4.99609 12.9951 5.49491 12.9951 6.99609V10.9961C12.9951 12.4973 12.3479 12.9961 10.4246 12.9961Z" stroke="#52565B" stroke-width="1.02883" stroke-linecap="round" stroke-linejoin="round"/>
<path d="M14.8706 12.3423L13.1545 11.1385V7.24337L14.8706 6.03963C15.7102 5.4532 16.4015 5.81123 16.4015 6.84212V11.5459C16.4015 12.5768 15.7102 12.9349 14.8706 12.3423ZM9.92107 9.49805C10.1666 9.49805 10.4022 9.40049 10.5758 9.22684C10.7495 9.05319 10.847 8.81768 10.847 8.5721C10.847 8.32652 10.7495 8.091 10.5758 7.91735C10.4022 7.7437 10.1666 7.64615 9.92107 7.64615C9.67549 7.64615 9.43997 7.7437 9.26632 7.91735C9.09267 8.091 8.99512 8.32652 8.99512 8.5721C8.99512 8.81768 9.09267 9.05319 9.26632 9.22684C9.43997 9.40049 9.67549 9.49805 9.92107 9.49805Z" stroke="#52565B" stroke-width="1.02883" stroke-linecap="round" stroke-linejoin="round"/>
</svg>
