<svg width="20" height="20" viewBox="0 0 20 20" fill="none" xmlns="http://www.w3.org/2000/svg">
<mask id="mask0_3611_28335" style="mask-type:alpha" maskUnits="userSpaceOnUse" x="0" y="0" width="20" height="20">
<rect width="20" height="20" fill="#D9D9D9"/>
</mask>
<g mask="url(#mask0_3611_28335)">
<path d="M10.0019 16.3348C9.87564 16.3348 9.75256 16.3188 9.63263 16.2868C9.51271 16.2547 9.39595 16.2066 9.28234 16.1425L5.37209 14.0288C5.12636 13.892 4.93379 13.7075 4.79438 13.4753C4.65495 13.243 4.58523 12.9826 4.58523 12.6938V9.07846L2.91379 8.1586C2.77704 8.08595 2.67795 7.99247 2.61652 7.87817C2.55509 7.76385 2.5217 7.63831 2.51636 7.50156C2.51636 7.36297 2.54841 7.23697 2.6125 7.12358C2.67661 7.01019 2.77704 6.91717 2.91379 6.84452L9.28202 3.376C9.39507 3.31317 9.51125 3.26604 9.63059 3.23463C9.74991 3.20321 9.87367 3.1875 10.0019 3.1875C10.1301 3.1875 10.2538 3.20352 10.3731 3.23556C10.4923 3.26762 10.6084 3.3157 10.7214 3.37979L17.9057 7.28842C18.0339 7.35786 18.1321 7.45179 18.2005 7.57021C18.2689 7.68861 18.3031 7.81637 18.3031 7.95348V12.8701C18.3031 13.0472 18.2432 13.1956 18.1233 13.3154C18.0035 13.4352 17.855 13.4951 17.6778 13.4951C17.5007 13.4951 17.3523 13.4352 17.2326 13.3154C17.113 13.1956 17.0531 13.0472 17.0531 12.8701V8.19385L15.4185 9.07846V12.6938C15.4185 12.9826 15.3488 13.243 15.2094 13.4753C15.07 13.7075 14.8774 13.892 14.6317 14.0288L10.7214 16.1425C10.6078 16.2066 10.491 16.2547 10.3711 16.2868C10.2512 16.3188 10.1281 16.3348 10.0019 16.3348ZM9.90571 10.5368C9.94311 10.5582 9.9765 10.5689 10.0059 10.5689C10.0353 10.5689 10.0687 10.5582 10.106 10.5368L15.7022 7.50156L10.106 4.47433C10.0687 4.45296 10.0353 4.44227 10.0059 4.44227C9.9765 4.44227 9.94311 4.45296 9.90571 4.47433L4.30157 7.50156L9.90571 10.5368ZM9.89771 15.0608C9.9351 15.0822 9.96982 15.0929 10.0019 15.0929C10.0339 15.0929 10.0687 15.0822 10.106 15.0608L14.0483 12.931C14.0911 12.9043 14.1218 12.8736 14.1405 12.8389C14.1592 12.8041 14.1685 12.7601 14.1685 12.7066V9.74513L10.7343 11.6313C10.6199 11.6954 10.5013 11.7422 10.3785 11.7716C10.2556 11.8009 10.1301 11.8156 10.0019 11.8156C9.87367 11.8156 9.74813 11.8009 9.62527 11.7716C9.50241 11.7422 9.38382 11.6954 9.2695 11.6313L5.83521 9.74513V12.7066C5.83521 12.7494 5.84456 12.7908 5.86325 12.8309C5.88196 12.8709 5.91268 12.9043 5.95542 12.931L9.89771 15.0608Z" fill="#52565B"/>
</g>
</svg>
