<svg width="157" height="30" viewBox="0 0 157 30" fill="none" xmlns="http://www.w3.org/2000/svg">
<path d="M7.27087 8.03906C7.27087 3.62079 10.8526 0.0390625 15.2709 0.0390625H141.271C145.689 0.0390625 149.271 3.62078 149.271 8.03906V21.0391C149.271 25.4573 145.689 29.0391 141.271 29.0391H15.2709C10.8526 29.0391 7.27087 25.4573 7.27087 21.0391V8.03906Z" fill="white"/>
<path d="M19.7609 14.1391C19.7609 13.1777 19.9755 12.3191 20.4049 11.5631C20.8435 10.7977 21.4362 10.2051 22.1829 9.78506C22.9389 9.35573 23.7835 9.14106 24.7169 9.14106C25.8089 9.14106 26.7655 9.42106 27.5869 9.98106C28.4082 10.5411 28.9822 11.3157 29.3089 12.3051H27.0549C26.8309 11.8384 26.5135 11.4884 26.1029 11.2551C25.7015 11.0217 25.2349 10.9051 24.7029 10.9051C24.1335 10.9051 23.6249 11.0404 23.1769 11.3111C22.7382 11.5724 22.3929 11.9457 22.1409 12.4311C21.8982 12.9164 21.7769 13.4857 21.7769 14.1391C21.7769 14.7831 21.8982 15.3524 22.1409 15.8471C22.3929 16.3324 22.7382 16.7104 23.1769 16.9811C23.6249 17.2424 24.1335 17.3731 24.7029 17.3731C25.2349 17.3731 25.7015 17.2564 26.1029 17.0231C26.5135 16.7804 26.8309 16.4257 27.0549 15.9591H29.3089C28.9822 16.9577 28.4082 17.7371 27.5869 18.2971C26.7749 18.8477 25.8182 19.1231 24.7169 19.1231C23.7835 19.1231 22.9389 18.9131 22.1829 18.4931C21.4362 18.0637 20.8435 17.4711 20.4049 16.7151C19.9755 15.9591 19.7609 15.1004 19.7609 14.1391ZM32.943 17.4851H36.163V19.0391H30.983V9.26706H32.943V17.4851ZM43.4007 17.1771H39.5087L38.8647 19.0391H36.8067L40.3207 9.25306H42.6027L46.1167 19.0391H44.0447L43.4007 17.1771ZM42.8687 15.6091L41.4547 11.5211L40.0407 15.6091H42.8687ZM50.8042 19.1371C50.1229 19.1371 49.5069 19.0204 48.9562 18.7871C48.4149 18.5537 47.9856 18.2177 47.6682 17.7791C47.3509 17.3404 47.1876 16.8224 47.1782 16.2251H49.2782C49.3062 16.6264 49.4462 16.9437 49.6982 17.1771C49.9596 17.4104 50.3142 17.5271 50.7622 17.5271C51.2196 17.5271 51.5789 17.4197 51.8402 17.2051C52.1016 16.9811 52.2322 16.6917 52.2322 16.3371C52.2322 16.0477 52.1436 15.8097 51.9662 15.6231C51.7889 15.4364 51.5649 15.2917 51.2942 15.1891C51.0329 15.0771 50.6689 14.9557 50.2022 14.8251C49.5676 14.6384 49.0496 14.4564 48.6482 14.2791C48.2562 14.0924 47.9156 13.8171 47.6262 13.4531C47.3462 13.0797 47.2062 12.5851 47.2062 11.9691C47.2062 11.3904 47.3509 10.8864 47.6402 10.4571C47.9296 10.0277 48.3356 9.70106 48.8582 9.47706C49.3809 9.24373 49.9782 9.12706 50.6502 9.12706C51.6582 9.12706 52.4749 9.3744 53.1002 9.86906C53.7349 10.3544 54.0849 11.0357 54.1502 11.9131H51.9942C51.9756 11.5771 51.8309 11.3017 51.5602 11.0871C51.2989 10.8631 50.9489 10.7511 50.5102 10.7511C50.1276 10.7511 49.8196 10.8491 49.5862 11.0451C49.3622 11.2411 49.2502 11.5257 49.2502 11.8991C49.2502 12.1604 49.3342 12.3797 49.5022 12.5571C49.6796 12.7251 49.8942 12.8651 50.1462 12.9771C50.4076 13.0797 50.7716 13.2011 51.2382 13.3411C51.8729 13.5277 52.3909 13.7144 52.7922 13.9011C53.1936 14.0877 53.5389 14.3677 53.8282 14.7411C54.1176 15.1144 54.2622 15.6044 54.2622 16.2111C54.2622 16.7337 54.1269 17.2191 53.8562 17.6671C53.5856 18.1151 53.1889 18.4744 52.6662 18.7451C52.1436 19.0064 51.5229 19.1371 50.8042 19.1371ZM59.3355 19.1371C58.6542 19.1371 58.0382 19.0204 57.4875 18.7871C56.9462 18.5537 56.5168 18.2177 56.1995 17.7791C55.8822 17.3404 55.7188 16.8224 55.7095 16.2251H57.8095C57.8375 16.6264 57.9775 16.9437 58.2295 17.1771C58.4908 17.4104 58.8455 17.5271 59.2935 17.5271C59.7508 17.5271 60.1102 17.4197 60.3715 17.2051C60.6328 16.9811 60.7635 16.6917 60.7635 16.3371C60.7635 16.0477 60.6748 15.8097 60.4975 15.6231C60.3202 15.4364 60.0962 15.2917 59.8255 15.1891C59.5642 15.0771 59.2002 14.9557 58.7335 14.8251C58.0988 14.6384 57.5808 14.4564 57.1795 14.2791C56.7875 14.0924 56.4468 13.8171 56.1575 13.4531C55.8775 13.0797 55.7375 12.5851 55.7375 11.9691C55.7375 11.3904 55.8822 10.8864 56.1715 10.4571C56.4608 10.0277 56.8668 9.70106 57.3895 9.47706C57.9122 9.24373 58.5095 9.12706 59.1815 9.12706C60.1895 9.12706 61.0062 9.3744 61.6315 9.86906C62.2662 10.3544 62.6162 11.0357 62.6815 11.9131H60.5255C60.5068 11.5771 60.3622 11.3017 60.0915 11.0871C59.8302 10.8631 59.4802 10.7511 59.0415 10.7511C58.6588 10.7511 58.3508 10.8491 58.1175 11.0451C57.8935 11.2411 57.7815 11.5257 57.7815 11.8991C57.7815 12.1604 57.8655 12.3797 58.0335 12.5571C58.2108 12.7251 58.4255 12.8651 58.6775 12.9771C58.9388 13.0797 59.3028 13.2011 59.7695 13.3411C60.4042 13.5277 60.9222 13.7144 61.3235 13.9011C61.7248 14.0877 62.0702 14.3677 62.3595 14.7411C62.6488 15.1144 62.7935 15.6044 62.7935 16.2111C62.7935 16.7337 62.6582 17.2191 62.3875 17.6671C62.1168 18.1151 61.7202 18.4744 61.1975 18.7451C60.6748 19.0064 60.0542 19.1371 59.3355 19.1371ZM67.3667 10.6391V8.83306H70.7407V19.0391H68.7247V10.6391H67.3667ZM72.4389 10.6391V8.83306H75.8129V19.0391H73.7969V10.6391H72.4389ZM80.1152 16.9811L78.4772 20.9151H77.2172L78.1272 16.9811H80.1152ZM84.4018 10.6391V8.83306H87.7758V19.0391H85.7598V10.6391H84.4018ZM90.3281 16.8271C91.2241 16.0804 91.9381 15.4597 92.4701 14.9651C93.0021 14.4611 93.4454 13.9384 93.8001 13.3971C94.1548 12.8557 94.3321 12.3237 94.3321 11.8011C94.3321 11.3251 94.2201 10.9517 93.9961 10.6811C93.7721 10.4104 93.4268 10.2751 92.9601 10.2751C92.4934 10.2751 92.1341 10.4337 91.8821 10.7511C91.6301 11.0591 91.4994 11.4837 91.4901 12.0251H89.5861C89.6234 10.9051 89.9548 10.0557 90.5801 9.47706C91.2148 8.8984 92.0174 8.60906 92.9881 8.60906C94.0521 8.60906 94.8688 8.89373 95.4381 9.46306C96.0074 10.0231 96.2921 10.7651 96.2921 11.6891C96.2921 12.4171 96.0961 13.1124 95.7041 13.7751C95.3121 14.4377 94.8641 15.0164 94.3601 15.5111C93.8561 15.9964 93.1981 16.5844 92.3861 17.2751H96.5161V18.8991H89.6001V17.4431L90.3281 16.8271ZM108.829 19.0391L107.765 17.9891C106.86 18.8011 105.754 19.2071 104.447 19.2071C103.728 19.2071 103.094 19.0857 102.543 18.8431C102.002 18.5911 101.582 18.2411 101.283 17.7931C100.984 17.3357 100.835 16.8084 100.835 16.2111C100.835 15.5671 101.017 14.9884 101.381 14.4751C101.745 13.9617 102.282 13.5464 102.991 13.2291C102.739 12.9211 102.557 12.6271 102.445 12.3471C102.333 12.0577 102.277 11.7497 102.277 11.4231C102.277 10.9751 102.394 10.5737 102.627 10.2191C102.86 9.85506 103.192 9.5704 103.621 9.36506C104.06 9.15973 104.568 9.05706 105.147 9.05706C105.735 9.05706 106.239 9.16906 106.659 9.39306C107.079 9.61706 107.392 9.91573 107.597 10.2891C107.802 10.6624 107.891 11.0777 107.863 11.5351H105.959C105.968 11.2271 105.894 10.9937 105.735 10.8351C105.576 10.6671 105.362 10.5831 105.091 10.5831C104.83 10.5831 104.61 10.6624 104.433 10.8211C104.265 10.9704 104.181 11.1664 104.181 11.4091C104.181 11.6424 104.251 11.8757 104.391 12.1091C104.531 12.3331 104.76 12.6131 105.077 12.9491L107.541 15.3851C107.56 15.3664 107.574 15.3477 107.583 15.3291C107.592 15.3104 107.602 15.2917 107.611 15.2731L108.409 13.9431H110.453L109.473 15.6651C109.286 16.0291 109.086 16.3744 108.871 16.7011L111.237 19.0391H108.829ZM104.503 17.5831C105.268 17.5831 105.945 17.3124 106.533 16.7711L104.125 14.3911C103.22 14.7924 102.767 15.3617 102.767 16.0991C102.767 16.5191 102.926 16.8737 103.243 17.1631C103.56 17.4431 103.98 17.5831 104.503 17.5831ZM115.082 10.6391V8.83306H118.456V19.0391H116.44V10.6391H115.082ZM121.008 16.8271C121.904 16.0804 122.618 15.4597 123.15 14.9651C123.682 14.4611 124.125 13.9384 124.48 13.3971C124.834 12.8557 125.012 12.3237 125.012 11.8011C125.012 11.3251 124.9 10.9517 124.676 10.6811C124.452 10.4104 124.106 10.2751 123.64 10.2751C123.173 10.2751 122.814 10.4337 122.562 10.7511C122.31 11.0591 122.179 11.4837 122.17 12.0251H120.266C120.303 10.9051 120.634 10.0557 121.26 9.47706C121.894 8.8984 122.697 8.60906 123.668 8.60906C124.732 8.60906 125.548 8.89373 126.118 9.46306C126.687 10.0231 126.972 10.7651 126.972 11.6891C126.972 12.4171 126.776 13.1124 126.384 13.7751C125.992 14.4377 125.544 15.0164 125.04 15.5111C124.536 15.9964 123.878 16.5844 123.066 17.2751H127.196V18.8991H120.28V17.4431L121.008 16.8271ZM135.977 14.9091H133.331V17.6251H131.483V14.9091H128.837V13.2011H131.483V10.4851H133.331V13.2011H135.977V14.9091Z" fill="#FF6B00"/>
<path d="M0.25 19.9332C6.68582 19.3482 7.2709 17.0079 7.2709 11.7422V19.9332H0.25Z" fill="white"/>
<path d="M156.016 19.9332C149.58 19.3482 148.995 17.0079 148.995 11.7422V19.9332H156.016Z" fill="white"/>
</svg>



