<svg width="20" height="20" viewBox="0 0 20 20" fill="none" xmlns="http://www.w3.org/2000/svg">
<mask id="mask0_3611_28343" style="mask-type:alpha" maskUnits="userSpaceOnUse" x="0" y="0" width="20" height="20">
<rect width="20" height="20" fill="#D9D9D9"/>
</mask>
<g mask="url(#mask0_3611_28343)">
<path d="M5.28091 14.9412H14.7289C14.7922 14.9412 14.8443 14.9208 14.885 14.8801C14.9257 14.8394 14.9461 14.7873 14.9461 14.724V8.38984L11.615 5.05881H5.28091C5.21756 5.05881 5.16552 5.07917 5.12479 5.1199C5.08406 5.16063 5.06369 5.21267 5.06369 5.27603V14.724C5.06369 14.7873 5.08406 14.8394 5.12479 14.8801C5.16552 14.9208 5.21756 14.9412 5.28091 14.9412ZM5.28091 16C4.93 16 4.62961 15.8751 4.37973 15.6252C4.12983 15.3753 4.00488 15.0749 4.00488 14.724V5.27603C4.00488 4.92512 4.12983 4.62473 4.37973 4.37484C4.62961 4.12495 4.93 4 5.28091 4H11.5198C11.692 4 11.856 4.03304 12.012 4.09911C12.1681 4.16517 12.304 4.25611 12.4198 4.37195L15.6329 7.58506C15.7488 7.7009 15.8397 7.83682 15.9058 7.99284C15.9718 8.14885 16.0049 8.31292 16.0049 8.48507V14.724C16.0049 15.0749 15.8799 15.3753 15.63 15.6252C15.3802 15.8751 15.0798 16 14.7289 16H5.28091ZM7.18135 13.1765H12.8284C12.9784 13.1765 13.1042 13.1257 13.2056 13.0242C13.3071 12.9227 13.3578 12.7969 13.3578 12.6468C13.3578 12.4967 13.3071 12.371 13.2056 12.2697C13.1042 12.1683 12.9784 12.1177 12.8284 12.1177H7.18135C7.03134 12.1177 6.90561 12.1684 6.80416 12.2699C6.70268 12.3714 6.65195 12.4972 6.65195 12.6473C6.65195 12.7974 6.70268 12.9231 6.80416 13.0244C6.90561 13.1258 7.03134 13.1765 7.18135 13.1765ZM7.18135 10.5294H12.8284C12.9784 10.5294 13.1042 10.4786 13.2056 10.3771C13.3071 10.2756 13.3578 10.1498 13.3578 9.99977C13.3578 9.8497 13.3071 9.72399 13.2056 9.62263C13.1042 9.52128 12.9784 9.47061 12.8284 9.47061H7.18135C7.03134 9.47061 6.90561 9.52136 6.80416 9.62286C6.70268 9.72438 6.65195 9.85017 6.65195 10.0002C6.65195 10.1503 6.70268 10.276 6.80416 10.3774C6.90561 10.4787 7.03134 10.5294 7.18135 10.5294ZM7.18135 7.88235H10.6157C10.7657 7.88235 10.8915 7.83159 10.9929 7.73007C11.0944 7.62856 11.1451 7.50278 11.1451 7.3527C11.1451 7.20265 11.0944 7.07694 10.9929 6.97559C10.8915 6.87422 10.7657 6.82354 10.6157 6.82354H7.18135C7.03134 6.82354 6.90561 6.8743 6.80416 6.97582C6.70268 7.07733 6.65195 7.20312 6.65195 7.35318C6.65195 7.50325 6.70268 7.62896 6.80416 7.73032C6.90561 7.83167 7.03134 7.88235 7.18135 7.88235Z" fill="#52565B"/>
</g>
</svg>
