<svg width="18" height="18" viewBox="0 0 18 18" fill="none" xmlns="http://www.w3.org/2000/svg">
<path d="M9.42456 12.4961H5.56567C3.63623 12.4961 2.99512 11.4985 2.99512 10.4961V6.49609C2.99512 4.99491 3.63623 4.49609 5.56567 4.49609H9.42456C11.354 4.49609 11.9951 4.99491 11.9951 6.49609V10.4961C11.9951 11.9973 11.3479 12.4961 9.42456 12.4961Z" stroke="#52565B" stroke-width="1.02883" stroke-linecap="round" stroke-linejoin="round"/>
<path d="M13.8706 11.8423L12.1545 10.6385V6.74337L13.8706 5.53963C14.7102 4.9532 15.4015 5.31123 15.4015 6.34212V11.0459C15.4015 12.0768 14.7102 12.4349 13.8706 11.8423ZM8.92107 8.99805C9.16664 8.99805 9.40216 8.90049 9.57581 8.72684C9.74946 8.55319 9.84701 8.31768 9.84701 8.0721C9.84701 7.82652 9.74946 7.591 9.57581 7.41735C9.40216 7.2437 9.16664 7.14615 8.92107 7.14615C8.67549 7.14615 8.43997 7.2437 8.26632 7.41735C8.09267 7.591 7.99512 7.82652 7.99512 8.0721C7.99512 8.31768 8.09267 8.55319 8.26632 8.72684C8.43997 8.90049 8.67549 8.99805 8.92107 8.99805Z" stroke="#52565B" stroke-width="1.02883" stroke-linecap="round" stroke-linejoin="round"/>
</svg>
