<svg width="40" height="40" viewBox="0 0 40 40" fill="none" xmlns="http://www.w3.org/2000/svg">
<path d="M20.2168 33.4041C22.1166 32.0263 24.3848 31.2476 26.7302 31.1682C29.0757 31.0887 31.3914 31.7121 33.3801 32.9583C33.446 32.9976 33.5211 33.0188 33.5978 33.0197C33.6745 33.0206 33.7501 33.0012 33.817 32.9635C33.8838 32.9258 33.9394 32.8711 33.9783 32.8049C34.0172 32.7387 34.0378 32.6635 34.0382 32.5868V16.1221C34.039 15.8651 33.974 15.6122 33.8496 15.3874C33.7251 15.1626 33.5452 14.9733 33.327 14.8376C31.4455 13.6146 29.2444 12.9752 27.0005 12.9997C24.7566 13.0243 22.57 13.7117 20.7157 14.9756C20.5647 15.0725 20.4407 15.206 20.3553 15.3638C20.2699 15.5216 20.2259 15.6985 20.2274 15.8779L20.2168 33.4041Z" fill="#FCDE5A"/>
<path d="M8.125 22.607V14.5073H13.1992V22.607" stroke="white" stroke-width="1.14648" stroke-linecap="round" stroke-linejoin="round"/>
<path d="M13.1992 19.1494H8.125" stroke="white" stroke-width="1.14648" stroke-linecap="round" stroke-linejoin="round"/>
<path d="M27.2314 14.4116H32.3057L27.2739 22.713H32.3057" stroke="white" stroke-width="1.14648" stroke-linecap="round" stroke-linejoin="round"/>
<path d="M20.2193 10.2943V7.65106C17.537 5.64038 14.2928 4.51938 10.9413 4.44517C7.8116 4.41333 4.74111 5.29904 2.10919 6.99289C1.80776 7.18124 1.55845 7.44226 1.3841 7.75199C1.20976 8.06173 1.11597 8.41029 1.11133 8.76569V32.6719C3.89827 30.6757 7.23726 29.5961 10.6653 29.5828C14.0939 29.5926 17.434 30.6725 20.2193 32.6719L20.3785 21.2496" stroke="white" stroke-width="1.14648" stroke-linecap="round" stroke-linejoin="round"/>
<path d="M20.2168 32.6717C22.9975 30.6631 26.3405 29.582 29.7708 29.582C33.2011 29.582 36.5441 30.6631 39.3248 32.6717V8.76555C39.3247 8.41406 39.2374 8.06808 39.0706 7.75867C38.9039 7.44925 38.6629 7.18607 38.3694 6.99276C35.641 5.22716 32.4352 4.34421 29.1876 4.46386C25.94 4.58351 22.8079 5.69995 20.2168 7.66153V11.239" stroke="white" stroke-width="1.14648" stroke-linecap="round" stroke-linejoin="round"/>
<path d="M1.11133 32.6846V35.8693C3.89592 33.9973 7.11162 32.8659 10.4549 32.5817C13.7982 32.2975 17.1587 32.87 20.2193 34.2451V32.6846" stroke="white" stroke-width="1.14648" stroke-linecap="round" stroke-linejoin="round"/>
<path d="M20.2168 32.6814V34.2632C23.2695 32.8969 26.6179 32.3236 29.9512 32.5965C30.9134 32.6755 31.868 32.8281 32.8068 33.053" stroke="white" stroke-width="1.14648" stroke-linecap="round" stroke-linejoin="round"/>
<path d="M39.3338 32.6821V35.8668C38.4969 35.3026 37.6166 34.8057 36.7012 34.3806" stroke="white" stroke-width="1.14648" stroke-linecap="round" stroke-linejoin="round"/>
</svg>
