<svg width="37" height="31" viewBox="0 0 37 31" fill="none" xmlns="http://www.w3.org/2000/svg">
<g clip-path="url(#clip0_2656_33292)">
<path d="M33.8993 30.8602H5.89926C5.77042 30.8592 5.64382 30.8264 5.53077 30.7645C5.41772 30.7027 5.32175 30.6139 5.25143 30.5059C5.1811 30.3979 5.13862 30.2742 5.12777 30.1459C5.11692 30.0175 5.13805 29.8884 5.18926 29.7702L7.72926 24.1202C7.78909 23.9841 7.88703 23.8683 8.01124 23.7866C8.13545 23.705 8.28063 23.6611 8.42926 23.6602H31.4293C31.5779 23.6611 31.7231 23.705 31.8473 23.7866C31.9715 23.8683 32.0694 23.9841 32.1293 24.1202L34.6693 29.7702C34.7229 29.8931 34.744 30.0279 34.7303 30.1614C34.7167 30.2948 34.6688 30.4226 34.5914 30.5321C34.514 30.6417 34.4096 30.7295 34.2884 30.787C34.1671 30.8444 34.0331 30.8696 33.8993 30.8602Z" fill="#FCDE5A"/>
<path d="M5.37781 0.500027H30.5078C30.7521 0.500027 30.9939 0.548137 31.2196 0.641611C31.4453 0.735085 31.6503 0.872091 31.823 1.04481C31.9957 1.21753 32.1328 1.42257 32.2262 1.64824C32.3197 1.8739 32.3678 2.11577 32.3678 2.36003V20H3.50781V2.36003C3.50781 2.11492 3.55625 1.87224 3.65035 1.64592C3.74445 1.4196 3.88235 1.21411 4.05612 1.04126C4.2299 0.868412 4.43613 0.731614 4.66295 0.63873C4.88977 0.545847 5.13271 0.498709 5.37781 0.500027Z" stroke="white" stroke-width="1.2" stroke-linecap="round" stroke-linejoin="round"/>
<path d="M13.9516 13.5705L10.6016 10.2705L13.9516 6.98047" stroke="white" stroke-width="1.2" stroke-linecap="round" stroke-linejoin="round"/>
<path d="M21.9375 6.98047L25.2875 10.2705L21.9375 13.5705" stroke="white" stroke-width="1.2" stroke-linecap="round" stroke-linejoin="round"/>
<path d="M18.7909 5.69922L16.9609 14.7992" stroke="white" stroke-width="1.2" stroke-linecap="round" stroke-linejoin="round"/>
<path d="M3.51 27.9502H35.95L32.38 19.9902H3.51L0.5 26.7202" stroke="white" stroke-width="1.2" stroke-linecap="round" stroke-linejoin="round"/>
<path d="M5.36719 4.46094V12.3709" stroke="white" stroke-width="1.2" stroke-linecap="round" stroke-linejoin="round"/>
<path d="M27.3281 18.1403H30.4281V13.8203" stroke="white" stroke-width="1.2" stroke-linecap="round" stroke-linejoin="round"/>
</g>
<defs>
<clipPath id="clip0_2656_33292">
<rect width="36.45" height="30.86" fill="white"/>
</clipPath>
</defs>
</svg>
