<svg width="36" height="36" viewBox="0 0 36 36" fill="none" xmlns="http://www.w3.org/2000/svg">
<g clip-path="url(#clip0_2656_33302)">
<path d="M14.3439 24.9065C17.8 24.9065 20.6018 22.1047 20.6018 18.6486C20.6018 15.1924 17.8 12.3906 14.3439 12.3906C10.8877 12.3906 8.08594 15.1924 8.08594 18.6486C8.08594 22.1047 10.8877 24.9065 14.3439 24.9065Z" fill="#FCDE5A"/>
<path d="M24.8826 18.1547C24.96 17.9323 25.0277 17.7001 25.0857 17.468C25.1445 17.2604 25.2629 17.0746 25.4262 16.9336C25.5895 16.7926 25.7906 16.7027 26.0046 16.6749L28.0454 16.4427C28.3073 16.4064 28.5479 16.2788 28.7249 16.0824C28.9018 15.8859 29.0037 15.6333 29.0126 15.3691C29.0415 14.8408 29.0415 14.3112 29.0126 13.7829C28.9643 13.2509 28.9062 12.7286 28.8095 12.216C28.7721 11.9476 28.6389 11.7019 28.4345 11.5241C28.23 11.3463 27.9682 11.2485 27.6972 11.2487H25.6757C25.4533 11.2699 25.2296 11.223 25.0344 11.1141C24.8392 11.0053 24.6817 10.8398 24.5828 10.6394C24.4076 10.2149 24.2007 9.80432 23.9637 9.41103C23.8586 9.22303 23.8107 9.00834 23.8262 8.79348C23.8417 8.57861 23.9198 8.37299 24.0508 8.202L25.2792 6.57707C25.4397 6.36687 25.5201 6.10635 25.5059 5.84223C25.4918 5.57811 25.3839 5.3277 25.2018 5.1359C24.4807 4.35989 23.6763 3.66575 22.8031 3.06605C22.5881 2.91433 22.3264 2.84371 22.0643 2.86673C21.8022 2.88975 21.5568 3.00492 21.3716 3.19179L19.9401 4.64262C19.795 4.8004 19.6056 4.91068 19.3968 4.959C19.188 5.00733 18.9694 4.99145 18.7698 4.91344C18.3405 4.73917 17.9012 4.5906 17.4543 4.46852C17.2408 4.40616 17.0515 4.28016 16.9115 4.10733C16.7715 3.93451 16.6875 3.72308 16.6709 3.5013L16.4387 1.54751C16.4024 1.28564 16.2748 1.045 16.0784 0.868046C15.882 0.691089 15.6294 0.589178 15.3651 0.580289C14.8368 0.551362 14.3072 0.551362 13.7789 0.580289C13.25 0.61878 12.7237 0.68659 12.2023 0.783405C11.9281 0.821656 11.678 0.960814 11.5009 1.17367C11.3238 1.38653 11.2325 1.65778 11.2448 1.9344V3.96557C11.2432 4.17124 11.1821 4.37206 11.0688 4.54372C10.9555 4.71538 10.7949 4.85052 10.6064 4.93279C10.1847 5.11381 9.77444 5.32054 9.37803 5.55181C9.19266 5.65995 8.97892 5.70951 8.76487 5.69398C8.55083 5.67844 8.34648 5.59854 8.17867 5.46476L6.57309 4.27508C6.36033 4.11948 6.09993 4.04303 5.83682 4.05892C5.57371 4.07481 5.32441 4.18205 5.13193 4.36213C4.3499 5.08096 3.65517 5.88931 3.06207 6.77051C2.91655 6.9859 2.84961 7.24481 2.87251 7.50374C2.8954 7.76267 3.00674 8.00582 3.18781 8.19233L4.63864 9.60447C4.79339 9.75368 4.9007 9.94521 4.94715 10.1551C4.99361 10.365 4.97713 10.5839 4.89979 10.7845C4.72584 11.2096 4.58044 11.6458 4.46454 12.0902C4.40263 12.3048 4.27699 12.4956 4.10428 12.6372C3.93156 12.7788 3.7199 12.8647 3.49732 12.8834L1.54353 13.1542C1.28006 13.1908 1.03817 13.3198 0.861013 13.5182C0.683853 13.7166 0.582952 13.9715 0.57631 14.2375C0.54748 14.7658 0.54748 15.2954 0.57631 15.8237C0.626234 16.3567 0.706971 16.8863 0.818116 17.41C0.85525 17.6767 0.987066 17.9211 1.1895 18.0987C1.39193 18.2763 1.65148 18.3751 1.92075 18.3772H3.94224C4.15777 18.3731 4.36976 18.4324 4.55198 18.5476C4.7342 18.6627 4.87866 18.8288 4.9675 19.0252C5.14655 19.4479 5.35334 19.8582 5.58652 20.2536C5.6921 20.4397 5.74018 20.653 5.72469 20.8665C5.7092 21.0799 5.63083 21.284 5.49947 21.4529L4.2711 22.9908C4.1124 23.2018 4.03316 23.4619 4.04732 23.7255C4.06147 23.9891 4.16811 24.2392 4.34848 24.432C5.07779 25.2068 5.88849 25.9008 6.76653 26.5018C6.98364 26.6524 7.2466 26.7223 7.50983 26.6993C7.77305 26.6764 8.01994 26.562 8.20769 26.3761L9.62951 24.9156C9.7772 24.7617 9.96705 24.6548 10.1752 24.6083C10.3834 24.5619 10.6007 24.5779 10.7998 24.6544L11.003 24.7318M21.6424 18.1354C21.7879 17.8409 21.9139 17.5372 22.0196 17.2262C22.0196 17.2262 22.0196 17.2262 22.0196 17.1488C22.3222 16.2131 22.4437 15.2283 22.3775 14.2471C22.3113 13.2375 22.045 12.2512 21.594 11.3455V11.2778C21.3846 10.8695 21.1386 10.481 20.859 10.1171M10.0551 8.70495C8.87636 9.63242 7.99258 10.8825 7.51129 12.303C7.51548 12.3254 7.51548 12.3484 7.51129 12.3707C7.2087 13.3064 7.08724 14.2912 7.15342 15.2724C7.22593 16.2624 7.49211 17.2286 7.93687 18.116C7.93687 18.116 7.93687 18.1741 7.93687 18.1837C8.8512 19.9673 10.4219 21.3266 12.3184 21.9752H12.3958H12.4828" stroke="white" stroke-width="1.16067" stroke-linecap="round" stroke-linejoin="round"/>
<path d="M30.2737 32.4316H34.4134C34.6699 32.4316 34.9159 32.5335 35.0973 32.7149C35.2787 32.8963 35.3806 33.1423 35.3806 33.3989V34.3661C35.3806 34.6226 35.2787 34.8686 35.0973 35.05C34.9159 35.2314 34.6699 35.3333 34.4134 35.3333H10.436C10.1794 35.3333 9.93343 35.2314 9.75204 35.05C9.57065 34.8686 9.46875 34.6226 9.46875 34.3661V33.3989C9.46875 33.1423 9.57065 32.8963 9.75204 32.7149C9.93343 32.5335 10.1794 32.4316 10.436 32.4316H14.6337" stroke="white" stroke-width="1.16067" stroke-linecap="round" stroke-linejoin="round"/>
<path d="M28.4609 21.1328C29.904 22.0819 31.0894 23.3736 31.9114 24.8926C32.7334 26.4117 33.1662 28.1107 33.1713 29.8378V32.3913" stroke="white" stroke-width="1.16067" stroke-linecap="round" stroke-linejoin="round"/>
<path d="M19.4409 19.7617C17.2186 20.3633 15.2564 21.6804 13.8577 23.5091C12.459 25.3379 11.7018 27.5765 11.7031 29.8789V32.4323" stroke="white" stroke-width="1.16067" stroke-linecap="round" stroke-linejoin="round"/>
<path d="M24.6642 30.3219L25.467 18.957C25.4764 18.8524 25.4639 18.747 25.4302 18.6475C25.3966 18.548 25.3425 18.4566 25.2715 18.3792C25.2004 18.3018 25.1141 18.2401 25.0178 18.198C24.9216 18.1559 24.8176 18.1344 24.7126 18.1349H20.1666C20.0604 18.1332 19.955 18.1537 19.8571 18.1951C19.7593 18.2365 19.6711 18.2978 19.5983 18.3752C19.5255 18.4525 19.4696 18.5442 19.4342 18.6444C19.3989 18.7446 19.3848 18.8511 19.3928 18.957L20.1956 30.3219" stroke="white" stroke-width="1.16067" stroke-linecap="round" stroke-linejoin="round"/>
</g>
<defs>
<clipPath id="clip0_2656_33302">
<rect width="36" height="35.9516" fill="white"/>
</clipPath>
</defs>
</svg>
