<svg width="40" height="36" viewBox="0 0 40 36" fill="none" xmlns="http://www.w3.org/2000/svg">
<path d="M16.9403 19.3687H8.40863C7.9246 19.3687 7.53223 19.7633 7.53223 20.2502V28.8321C7.53223 29.319 7.9246 29.7137 8.40863 29.7137H16.9403C17.4244 29.7137 17.8167 29.319 17.8167 28.8321V20.2502C17.8167 19.7633 17.4244 19.3687 16.9403 19.3687Z" fill="#FCDE5A"/>
<path d="M5.02441 1.00488V33.0914H37.0923" stroke="white" stroke-width="1.20373" stroke-linecap="round" stroke-linejoin="round"/>
<path d="M5.02441 25.3804H12.6797V30.8715" stroke="white" stroke-width="1.20373" stroke-linecap="round" stroke-linejoin="round"/>
<path d="M6.77637 2.76904L8.27575 4.27725" stroke="white" stroke-width="1.20373" stroke-linecap="round" stroke-linejoin="round"/>
<path d="M11.1104 7.13232L32.408 28.5552" stroke="white" stroke-width="1.20373" stroke-linecap="round" stroke-linejoin="round" stroke-dasharray="3.81 3.81"/>
<path d="M33.832 29.9775L35.3314 31.4857" stroke="white" stroke-width="1.20373" stroke-linecap="round" stroke-linejoin="round"/>
<path d="M27.6053 34.9393C27.486 34.3306 27.4259 33.7117 27.4258 33.0912C27.4252 31.084 28.0404 29.1256 29.1875 27.4832C30.3346 25.8408 31.9577 24.5945 33.8351 23.9146" stroke="white" stroke-width="1.20373" stroke-linecap="round" stroke-linejoin="round"/>
<path d="M2.05566 10.2665C3.01382 10.5795 4.01535 10.7372 5.02276 10.7338C6.59655 10.7324 8.14623 10.3447 9.53731 9.6043C10.9284 8.86395 12.1189 7.79333 13.0054 6.48535" stroke="white" stroke-width="1.20373" stroke-linecap="round" stroke-linejoin="round"/>
<path d="M24.8604 11.2207L28.3343 14.7151" stroke="white" stroke-width="1.20373" stroke-linecap="round" stroke-linejoin="round"/>
<path d="M24.8604 14.7151L28.3343 11.2207" stroke="white" stroke-width="1.20373" stroke-linecap="round" stroke-linejoin="round"/>
</svg>
