<svg width="36" height="36" viewBox="0 0 36 36" fill="none" xmlns="http://www.w3.org/2000/svg">
<g clip-path="url(#clip0_2656_33301)">
<path d="M29.5444 25.4891C31.9678 25.4891 33.9325 23.5245 33.9325 21.101C33.9325 18.6775 31.9678 16.7129 29.5444 16.7129C27.1209 16.7129 25.1562 18.6775 25.1562 21.101C25.1562 23.5245 27.1209 25.4891 29.5444 25.4891Z" fill="#FCDE5A"/>
<path d="M11.0731 9.13816C12.4653 6.08182 12.1271 2.93604 10.3178 2.11185C8.5084 1.28766 5.91303 3.09718 4.52082 6.15351C3.12861 9.20985 3.46677 12.3556 5.27612 13.1798C7.08547 14.004 9.68085 12.1945 11.0731 9.13816Z" fill="#FCDE5A"/>
<path d="M21.9965 3.64648L23.3684 5.37838C23.7181 5.82165 23.9068 6.37056 23.9036 6.93513V14.8941C23.9036 17.2371 22.9728 19.4842 21.316 21.1411C19.6592 22.7979 17.412 23.7286 15.069 23.7286C12.7259 23.7286 10.4788 22.7979 8.82197 21.1411C7.16516 19.4842 6.23438 17.2371 6.23438 14.8941V6.93513C6.23471 6.36953 6.42678 5.82074 6.77924 5.37838" stroke="white" stroke-width="1.16757" stroke-linecap="round" stroke-linejoin="round"/>
<path d="M6.24219 14.8945C7.00283 16.6022 8.2421 18.0529 9.81003 19.0709C11.378 20.089 13.2073 20.6308 15.0768 20.6308C16.9462 20.6308 18.7756 20.089 20.3435 19.0709C21.9115 18.0529 23.1507 16.6022 23.9114 14.8945" stroke="white" stroke-width="1.16757" stroke-linecap="round" stroke-linejoin="round"/>
<path d="M10.0317 3.05962C10.8748 2.36753 11.2267 1.40242 10.8176 0.903998C10.4085 0.405574 9.3933 0.562573 8.55013 1.25467C7.70696 1.94676 7.35509 2.91187 7.76421 3.41029C8.17333 3.90871 9.18851 3.75171 10.0317 3.05962Z" stroke="white" stroke-width="1.16757" stroke-linecap="round" stroke-linejoin="round"/>
<path d="M22.3645 3.4085C22.7736 2.91008 22.4217 1.94497 21.5786 1.25288C20.7354 0.560786 19.7202 0.403787 19.3111 0.902211C18.902 1.40064 19.2538 2.36574 20.097 3.05783C20.9402 3.74993 21.9553 3.90693 22.3645 3.4085Z" stroke="white" stroke-width="1.16757" stroke-linecap="round" stroke-linejoin="round"/>
<path d="M31.426 21.1035V27.7587C31.4212 28.7795 31.2062 29.7883 30.7944 30.7224C30.3826 31.6565 29.7828 32.4957 29.0325 33.1878C27.4628 34.6462 25.3955 35.4501 23.253 35.4354C21.1503 35.501 19.1076 34.7294 17.5734 33.29C16.0392 31.8506 15.1389 29.8612 15.0703 27.7587V26.2116" stroke="white" stroke-width="1.16757" stroke-linecap="round" stroke-linejoin="round"/>
<path d="M31.4261 19.0092C32.2483 19.0092 32.9148 18.3819 32.9148 17.6081C32.9148 16.8343 32.2483 16.207 31.4261 16.207C30.604 16.207 29.9375 16.8343 29.9375 17.6081C29.9375 18.3819 30.604 19.0092 31.4261 19.0092Z" stroke="white" stroke-width="1.16757" stroke-linecap="round" stroke-linejoin="round"/>
<path d="M29.2126 14.8255C29.8157 14.3635 30.5545 14.1137 31.3142 14.1152C31.9028 14.1164 32.4814 14.2662 32.9966 14.5508C33.5117 14.8354 33.9466 15.2455 34.2608 15.7431C34.575 16.2407 34.7585 16.8096 34.794 17.3971C34.8296 17.9845 34.7162 18.5714 34.4643 19.1033C34.2124 19.6352 33.8302 20.0948 33.3532 20.4394C32.8762 20.7841 32.3198 21.0027 31.7357 21.0748C31.1517 21.147 30.5588 21.0704 30.0123 20.8522C29.4657 20.634 28.9831 20.2812 28.6094 19.8266" stroke="white" stroke-width="1.16757" stroke-linecap="round" stroke-linejoin="round"/>
</g>
<defs>
<clipPath id="clip0_2656_33301">
<rect width="36" height="36" fill="white"/>
</clipPath>
</defs>
</svg>
