<svg width="36" height="36" viewBox="0 0 36 36" fill="none" xmlns="http://www.w3.org/2000/svg">
<path d="M14.5053 25.2478L15.6402 26.3345C15.7979 26.4866 15.9235 26.6689 16.0094 26.8704C16.0953 27.072 16.1398 27.2888 16.1403 27.5079C16.1402 27.8259 16.2653 28.1313 16.4884 28.358C16.7115 28.5847 17.0148 28.7146 17.3328 28.7197H21.1798C21.4979 28.7146 21.8012 28.5847 22.0243 28.358C22.2474 28.1313 22.3724 27.8259 22.3724 27.5079C22.3729 27.2888 22.4174 27.072 22.5033 26.8704C22.5892 26.6689 22.7147 26.4866 22.8725 26.3345L24.0073 25.2478C24.7782 24.5287 25.3962 23.6615 25.8242 22.6981C26.2522 21.7347 26.4814 20.6949 26.4982 19.6408V19.5543C26.4982 15.9958 23.2668 13.0625 19.2756 13.0625C15.2843 13.0625 12.0625 15.9958 12.0625 19.5543V19.6408C12.0731 20.6914 12.2948 21.7292 12.7145 22.6924C13.1341 23.6556 13.7431 24.5246 14.5053 25.2478Z" fill="#FCDE5A"/>
<path d="M22.6691 27.6816H14.1481C13.4364 27.6816 12.8594 28.2565 12.8594 28.9656C12.8594 29.6747 13.4364 30.2495 14.1481 30.2495H22.6691C23.3809 30.2495 23.9579 29.6747 23.9579 28.9656C23.9579 28.2565 23.3809 27.6816 22.6691 27.6816Z" stroke="white" stroke-width="1.18777" stroke-linecap="round" stroke-linejoin="round"/>
<path d="M14.4453 32.1348H22.3701" stroke="white" stroke-width="1.18777" stroke-linecap="round" stroke-linejoin="round"/>
<path d="M15.4922 33.8926H21.3203" stroke="white" stroke-width="1.18777" stroke-linecap="round" stroke-linejoin="round"/>
<path d="M24.6471 16.188C25.0833 16.4119 25.4957 16.6794 25.8782 16.9862C26.3123 17.3376 26.6944 17.7489 27.013 18.2076C27.4805 18.862 27.79 19.6159 27.917 20.41C28.0361 21.024 28.0275 21.6559 27.8918 22.2664C27.7561 22.877 27.4963 23.4531 27.1284 23.9588C25.7243 25.7477 22.6756 26.2093 20.3001 24.6128C20.0501 24.4349 19.8464 24.1998 19.7059 23.9271C19.5653 23.6543 19.4921 23.352 19.4922 23.0452V10.3887" stroke="white" stroke-width="1.18777" stroke-linecap="round" stroke-linejoin="round"/>
<path d="M27.0422 18.1881C27.7531 17.8558 28.3496 17.3204 28.7565 16.6494C29.1634 15.9785 29.3624 15.202 29.3285 14.418C29.2945 13.6341 29.0291 12.8777 28.5657 12.2444C28.1023 11.6111 27.4618 11.1293 26.7248 10.8597C27.548 9.91327 28.0211 8.71279 28.0649 7.45923C28.1087 6.20567 27.7205 4.97512 26.9653 3.9736C26.2059 3.05818 25.1681 2.41611 24.01 2.14525C22.8519 1.87439 21.637 1.98958 20.5505 2.47329C20.2282 2.62671 19.957 2.8698 19.7694 3.17343C19.5817 3.47705 19.4856 3.82833 19.4925 4.18519V6.02211" stroke="white" stroke-width="1.18777" stroke-linecap="round" stroke-linejoin="round"/>
<path d="M12.9271 12.0142C11.4201 11.527 10.1001 10.5866 9.14744 9.32134C8.58254 8.33931 8.36994 7.19381 8.54484 6.07448C8.71973 4.95514 9.27164 3.92909 10.1092 3.1662C10.9019 2.493 11.8881 2.0892 12.9254 2.01314C13.9626 1.93708 14.9972 2.19268 15.8796 2.74303C16.0956 2.87441 16.2738 3.05954 16.3969 3.28036C16.5199 3.50118 16.5836 3.75013 16.5817 4.00291V22.9973C16.5867 23.351 16.4598 23.6938 16.2259 23.9591C14.0427 26.3634 10.6766 26.3153 9.28209 24.7958C8.09915 23.507 8.08953 20.9007 9.6764 18.833C8.98184 18.5327 8.36269 18.0819 7.8637 17.513C7.36472 16.9442 6.99838 16.2716 6.79118 15.5438C6.59173 14.4288 6.76653 13.2791 7.28836 12.2737C7.81019 11.2683 8.64977 10.4636 9.6764 9.98494" stroke="white" stroke-width="1.18777" stroke-linecap="round" stroke-linejoin="round"/>
<path d="M30.3906 21.4316L33.7086 23.0858" stroke="white" stroke-width="1.18777" stroke-linecap="round" stroke-linejoin="round"/>
<path d="M30.6016 7.53159L33.3041 4.51172" stroke="white" stroke-width="1.18777" stroke-linecap="round" stroke-linejoin="round"/>
<path d="M31.7422 13.9277H35.2622" stroke="white" stroke-width="1.18777" stroke-linecap="round" stroke-linejoin="round"/>
<path d="M5.8727 21.4414L2.55469 23.1052" stroke="white" stroke-width="1.18777" stroke-linecap="round" stroke-linejoin="round"/>
<path d="M5.66343 7.54135L2.96094 4.52148" stroke="white" stroke-width="1.18777" stroke-linecap="round" stroke-linejoin="round"/>
<path d="M4.51997 13.9453H1" stroke="white" stroke-width="1.18777" stroke-linecap="round" stroke-linejoin="round"/>
</svg>
